<svg width="64" height="64" viewBox="0 0 64 64" fill="none" xmlns="http://www.w3.org/2000/svg">
<path d="M28.4444 44.8891C28.4444 51.5002 31.7333 57.3446 36.7556 60.8891H5.33333C2.38778 60.8891 0 58.5002 0 55.5557V25.3335H48C37.2 25.3335 28.4444 34.0891 28.4444 44.8891ZM49.7778 25.3335V25.4113C49.1889 25.3557 48.6 25.3335 48 25.3335H49.7778Z" fill="black" fill-opacity="0.4"/>
<path d="M17.7778 7.55556V11.1111H32V7.55556C32 5.59222 33.5889 4 35.5556 4C37.5222 4 39.1111 5.59222 39.1111 7.55556V11.1111H44.4444C47.3889 11.1111 49.7778 13.4989 49.7778 16.4444V25.3333H0V16.4444C0 13.4989 2.38778 11.1111 5.33333 11.1111H10.6667V7.55556C10.6667 5.59222 12.2556 4 14.2222 4C16.1889 4 17.7778 5.59222 17.7778 7.55556ZM64 44.8889C64 53.7222 56.8333 60.8889 48 60.8889C39.1667 60.8889 32 53.7222 32 44.8889C32 36.0556 39.1667 28.8889 48 28.8889C56.8333 28.8889 64 36.0556 64 44.8889ZM46.1222 37.7778V44.8889C46.1222 45.8667 47.0222 46.6667 47.9 46.6667H53.3333C54.3111 46.6667 55.1111 45.8667 55.1111 44.8889C55.1111 43.9111 54.3111 43.1111 53.3333 43.1111H49.6778V37.7778C49.6778 36.8 48.9778 36 47.9 36C47.0222 36 46.1222 36.8 46.1222 37.7778Z" fill="black"/>
</svg>
