<svg width="64" height="64" viewBox="0 0 64 64" fill="none" xmlns="http://www.w3.org/2000/svg">
<path d="M32.4099 56.2998L45.9399 48.4898C50.1299 46.0698 51.5699 40.7098 49.1499 36.5098L35.4699 12.8248C35.6499 12.8078 35.8199 12.7998 35.9999 12.7998H58.3999C61.4899 12.7998 63.9999 15.3068 63.9999 18.3998V51.9998C63.9999 55.0898 61.4899 57.5998 58.3999 57.5998H35.9999C34.6399 57.5998 33.3799 57.1098 32.4099 56.2998Z" fill="black" fill-opacity="0.4"/>
<path d="M0.7468 25.8899C-0.7906 23.2199 0.1218 19.8199 2.785 18.2799L22.07 7.1467C24.73 5.6093 28.14 6.5217 29.68 9.1849L46.38 38.1099C47.91 40.7799 47 44.1799 44.34 45.7199L25.05 56.8499C22.39 58.3899 18.99 57.4799 17.45 54.8199L0.7468 25.8899Z" fill="black"/>
</svg>
