<svg width="64" height="64" viewBox="0 0 64 64" fill="none" xmlns="http://www.w3.org/2000/svg">
<g clip-path="url(#clip0_1067_119)">
<path d="M36 0C38.2125 0 40 1.79125 40 4V12C40 14.2125 38.2125 16 36 16H26V20H18V16H8C5.79125 16 4 14.2125 4 12V4C4 1.79125 5.79125 0 8 0H36ZM12 6C10.895 6 10 6.895 10 8C10 9.105 10.895 10 12 10H32C33.1 10 34 9.105 34 8C34 6.895 33.1 6 32 6H12ZM17 30C17 31.6625 15.6625 33 14 33C12.3438 33 11 31.6625 11 30C11 28.3375 12.3438 27 14 27C15.6625 27 17 28.3375 17 30ZM23 30C23 28.3375 24.3375 27 26 27C27.6625 27 29 28.3375 29 30C29 31.6625 27.6625 33 26 33C24.3375 33 23 31.6625 23 30ZM23 40C23 41.6625 21.6625 43 20 43C18.3375 43 17 41.6625 17 40C17 38.3375 18.3375 37 20 37C21.6625 37 23 38.3375 23 40ZM35 30C35 28.3375 36.3375 27 38 27C39.6625 27 41 28.3375 41 30C41 31.6625 39.6625 33 38 33C36.3375 33 35 31.6625 35 30ZM35 40C35 41.6625 33.6625 43 32 43C30.3375 43 29 41.6625 29 40C29 38.3375 30.3375 37 32 37C33.6625 37 35 38.3375 35 40ZM47 30C47 28.3375 48.3375 27 50 27C51.6625 27 53 28.3375 53 30C53 31.6625 51.6625 33 50 33C48.3375 33 47 31.6625 47 30ZM47 40C47 41.6625 45.6625 43 44 43C42.3375 43 41 41.6625 41 40C41 38.3375 42.3375 37 44 37C45.6625 37 47 38.3375 47 40Z" fill="black" fill-opacity="0.4"/>
<path d="M3.75e-05 56V47.3C3.75e-05 46.7 0.045325 46.1 0.1355 45.5125L2.97 26.8C3.5625 22.8875 6.92375 20 10.8787 20H53.0125C57.075 20 60.4375 22.8875 61.025 26.8L63.8625 45.5125C63.95 46.1 64 46.7 64 47.3V56C64 60.4125 60.4125 64 56 64H8C3.58125 64 3.75e-05 60.4125 3.75e-05 56ZM10 56H54C55.1 56 56 55.1 56 54C56 52.9 55.1 52 54 52H10C8.895 52 8 52.9 8 54C8 55.1 8.895 56 10 56ZM14 27C12.3438 27 11 28.3375 11 30C11 31.6625 12.3438 33 14 33C15.6625 33 17 31.6625 17 30C17 28.3375 15.6625 27 14 27ZM26 33C27.6625 33 29 31.6625 29 30C29 28.3375 27.6625 27 26 27C24.3375 27 23 28.3375 23 30C23 31.6625 24.3375 33 26 33ZM20 37C18.3375 37 17 38.3375 17 40C17 41.6625 18.3375 43 20 43C21.6625 43 23 41.6625 23 40C23 38.3375 21.6625 37 20 37ZM38 33C39.6625 33 41 31.6625 41 30C41 28.3375 39.6625 27 38 27C36.3375 27 35 28.3375 35 30C35 31.6625 36.3375 33 38 33ZM32 37C30.3375 37 29 38.3375 29 40C29 41.6625 30.3375 43 32 43C33.6625 43 35 41.6625 35 40C35 38.3375 33.6625 37 32 37ZM50 33C51.6625 33 53 31.6625 53 30C53 28.3375 51.6625 27 50 27C48.3375 27 47 28.3375 47 30C47 31.6625 48.3375 33 50 33ZM44 37C42.3375 37 41 38.3375 41 40C41 41.6625 42.3375 43 44 43C45.6625 43 47 41.6625 47 40C47 38.3375 45.6625 37 44 37Z" fill="black"/>
</g>
<defs>
<clipPath id="clip0_1067_119">
<rect width="64" height="64" fill="white"/>
</clipPath>
</defs>
</svg>
