<svg width="64" height="64" viewBox="0 0 64 64" fill="none" xmlns="http://www.w3.org/2000/svg">
<g clip-path="url(#clip0_1067_103)">
<path d="M20.8002 6.3999C9.31318 6.3999 0.000185396 14.2799 0.000185396 23.9999C0.000185396 27.9569 1.56219 31.5959 4.16718 34.5399C2.52818 37.8159 0.244185 40.2719 0.208185 40.3079C-0.0018146 40.5284 -0.0588146 40.8554 0.0640854 41.1433C0.190185 41.4299 0.460385 41.5999 0.766185 41.5999C4.60118 41.5999 7.84218 40.4879 10.3402 39.1959C13.4202 40.7099 16.9802 41.5999 20.8002 41.5999C32.2902 41.5999 41.6002 33.7199 41.6002 23.9999C41.6002 14.2799 32.2902 6.3999 20.8002 6.3999Z" fill="black"/>
<path d="M63.7902 56.2999C64.0002 56.5204 64.0572 56.8474 63.9343 57.1353C63.8102 57.4299 63.5402 57.5999 63.2302 57.5999C59.6052 57.5999 56.5202 56.6019 54.0812 55.4019C51.3302 56.7099 48.1702 57.5999 44.8002 57.5999C35.7992 57.5999 28.2702 51.9139 26.1902 44.2499C36.8302 42.1199 44.8002 33.8599 44.8002 23.9999C44.8002 23.4612 44.7535 22.9329 44.7068 22.4039C44.7402 22.3999 44.7702 22.3999 44.8002 22.3999C55.4002 22.3999 64.0002 30.2799 64.0002 39.9999C64.0002 44.0629 62.4832 47.7949 59.9592 50.7699C61.5902 53.9299 63.7602 56.2699 63.7902 56.2999Z" fill="black" fill-opacity="0.4"/>
</g>
<defs>
<clipPath id="clip0_1067_103">
<rect width="64" height="64" fill="white"/>
</clipPath>
</defs>
</svg>
