<svg width="64" height="64" viewBox="0 0 64 64" fill="none" xmlns="http://www.w3.org/2000/svg">
<path d="M18.0001 5C18.0001 2.23875 20.2376 0 23.0001 0H41.0001C43.7626 0 46.0001 2.23875 46.0001 5V12C48.7501 12 51.1501 13.7625 51.8251 16.55L59.8251 48.55C60.2751 50.3375 59.8626 52.2375 58.7251 53.6875C57.5876 55.15 55.8501 56 54.0001 56H10.0001C8.15256 56 6.40756 55.15 5.27131 53.6875C4.13381 52.2375 3.73106 50.3375 4.17919 48.55L12.1788 16.55C12.8476 13.7625 15.2463 12 17.8876 12L18.0001 5ZM24.0001 12H40.0001V6H24.0001V12Z" fill="black"/>
<path d="M24 56H40C40 60.4125 36.4125 64 32 64C27.5875 64 24 60.4125 24 56Z" fill="black" fill-opacity="0.4"/>
</svg>
