<svg width="64" height="64" viewBox="0 0 64 64" fill="none" xmlns="http://www.w3.org/2000/svg">
<path d="M5.6575 22.4875L8.36875 26.55C9.42125 28.1375 11.0025 29.2875 12.825 29.8125L20.2625 31.9625C22.525 32.575 23.8875 34.5375 23.8875 36.775V41.7625C23.8875 43.1375 24.775 44.3875 25.8875 44.8875C27.225 45.6125 27.8875 46.8625 27.8875 48.2375V53.1125C27.8875 55.0625 29.8625 56.4625 31.7375 55.925C33.7625 55.35 35.3125 53.6375 35.825 51.7125L36.175 50.3125C36.7 48.2 38.075 46.3875 39.9625 45.3L40.975 44.725C42.85 43.6625 44 41.675 44 39.5125V38.4875C44 36.8875 43.3625 35.3625 42.2375 34.2375L41.7625 33.7625C40.6375 32.6375 39.1 31.8875 37.5125 31.8875H32.0125C30.7375 31.8875 29.3625 31.6375 28.15 30.95L23.8375 28.475C23.3 28.175 22.8875 27.675 22.7 27.0875C22.3 25.8875 22.8375 24.575 23.9625 24.0125L24.7125 23.65C25.5375 23.2375 26.4875 23.1625 27.2625 23.4625L30.275 24.425C31.2875 24.7625 32.4125 24.375 33.0125 23.4875C33.6 22.6 33.5375 21.4375 32.8625 20.625L31.1625 18.6C29.9125 17.1 29.925 14.9125 31.2 13.4375L33.1625 11.14C34.2625 9.85625 34.4375 8.02 33.6 6.5525L32.1375 4C42.675 4.0525 51.8375 9.92625 56.575 18.575L51.5 20.6C49.5375 21.3875 48.525 23.5625 49.1875 25.575L51.3625 32.1C51.7625 33.3 52.7 34.2375 53.9 34.6375L59.6375 36.55C57.4625 49.85 45.9125 59.8875 32 59.8875C16.5375 59.8875 4 47.4625 4 31.8875C4 28.6625 4.585 25.45 5.6575 22.4875Z" fill="black" fill-opacity="0.4"/>
<path d="M33.6002 6.5525C34.4377 8.02 34.2627 9.8575 33.1627 11.14L31.2002 13.4375C29.9252 14.9125 29.9127 17.1 31.1627 18.6L32.8627 20.625C33.5377 21.4375 33.6002 22.6 33.0127 23.4875C32.4127 24.375 31.2877 24.7625 30.2752 24.425L27.2627 23.4625C26.4877 23.1625 25.5377 23.2375 24.7127 23.65L23.9627 24.0125C22.8377 24.5875 22.3002 25.8875 22.7002 27.0875C22.8877 27.675 23.3002 28.175 23.8377 28.475L28.1502 30.95C29.3627 31.6375 30.7377 32 32.0127 32H37.5127C39.1002 32 40.6377 32.6375 41.7627 33.7625L42.2377 34.2375C43.3627 35.3625 44.0002 36.9 44.0002 38.4875V39.5125C44.0002 41.675 42.8502 43.6625 40.9752 44.725L39.9627 45.3125C38.0752 46.3875 36.7002 48.2 36.1752 50.3125L35.8252 51.7125C35.3127 53.6375 33.7627 55.35 31.7377 55.925C29.8627 56.4625 27.8877 55.0625 27.8877 53.1125V48.2375C27.8877 46.8625 27.2252 45.6125 25.8877 45C24.7752 44.3875 23.8877 43.1375 23.8877 41.7625V36.775C23.8877 34.5375 22.5252 32.575 20.2627 31.9625L12.8252 29.8125C11.0027 29.2875 9.42146 28.1375 8.36896 26.55L5.65771 22.4875C9.55146 11.705 19.8752 4 31.8877 4C32.0502 4 32.1002 4 32.1377 4L33.6002 6.5525ZM56.5752 18.575C58.7627 22.5625 60.0002 27.1375 60.0002 32C60.0002 33.55 59.7627 35.0625 59.6377 36.55L53.9002 34.6375C52.7002 34.2375 51.7627 33.3 51.3627 32.1L49.1877 25.575C48.5252 23.575 49.5377 21.3875 51.5002 20.6L56.5752 18.575Z" fill="black"/>
</svg>
