<svg width="64" height="64" viewBox="0 0 64 64" fill="none" xmlns="http://www.w3.org/2000/svg">
<g clip-path="url(#clip0_1067_171)">
<path d="M12 4C9.7875 4 8 5.7875 8 8V31.2125L29.5875 47.2C30.2875 47.7125 31.1375 48 32 48C32.8625 48 33.7125 47.725 34.4125 47.2L56 31.2125V8C56 5.7875 54.2125 4 52 4H12ZM22 16H42C43.1 16 44 16.9 44 18C44 19.1 43.1 20 42 20H22C20.9 20 20 19.1 20 18C20 16.9 20.9 16 22 16ZM22 24H42C43.1 24 44 24.9 44 26C44 27.1 43.1 28 42 28H22C20.9 28 20 27.1 20 26C20 24.9 20.9 24 22 24Z" fill="black" fill-opacity="0.4"/>
<path d="M63.975 25.3125C63.775 23.05 62.6125 20.95 60.7625 19.5875L56 16.0625V26.0125V31.2125L63.975 25.3125ZM64 56V30.2625L36.8 50.4125C35.4125 51.45 33.725 52 32 52C30.275 52 28.5875 51.45 27.2 50.4125L0 30.2625V56C0 60.4125 3.5875 64 8 64H56C60.4125 64 64 60.4125 64 56ZM8 31.2125V26.0125V16.0625L3.2375 19.5875C1.3875 20.95 0.225 23.05 0.025 25.3125L8 31.2125ZM36.1875 1.3875C34.975 0.4875 33.5125 0 32 0C30.4875 0 29.025 0.4875 27.8125 1.375L24.275 4H39.725L36.1875 1.3875ZM22 16C20.9 16 20 16.9 20 18C20 19.1 20.9 20 22 20H42C43.1 20 44 19.1 44 18C44 16.9 43.1 16 42 16H22ZM22 24C20.9 24 20 24.9 20 26C20 27.1 20.9 28 22 28H42C43.1 28 44 27.1 44 26C44 24.9 43.1 24 42 24H22Z" fill="black"/>
</g>
<defs>
<clipPath id="clip0_1067_171">
<rect width="64" height="64" fill="white"/>
</clipPath>
</defs>
</svg>
