<svg width="64" height="58" viewBox="0 0 64 58" fill="none" xmlns="http://www.w3.org/2000/svg">
<path d="M10.7443 10.1891L35.1887 28.3002C35.8109 28.7558 36.5665 29.0113 37.3332 29.0113C38.0998 29.0113 38.8554 28.7669 39.4776 28.3002L63.9221 10.1891C63.4221 6.74466 60.4665 4.11133 56.8887 4.11133H17.7776C14.1998 4.11133 11.2443 6.74466 10.7443 10.1891ZM63.9998 14.5558L41.5998 31.1447C40.3665 32.0669 38.8665 32.5558 37.3332 32.5558C35.7998 32.5558 34.2998 32.0669 33.0665 31.1447L10.6665 14.5558V36.1113C10.6665 40.0336 13.8554 43.2224 17.7776 43.2224H56.8887C60.8109 43.2224 63.9998 40.0336 63.9998 36.1113V14.5558Z" fill="black"/>
<path d="M10.6667 11.2223V14.5556L33.0667 31.1445C34.3 32.0556 35.8 32.5556 37.3333 32.5556C38.8667 32.5556 40.3667 32.0667 41.6 31.1445L64 14.5556V11.2223C64 10.8667 63.9778 10.5223 63.9222 10.189L39.4778 28.3001C38.8556 28.7556 38.1 29.0112 37.3333 29.0112C36.5667 29.0112 35.8111 28.7667 35.1889 28.3001L10.7444 10.189C10.7 10.5223 10.6667 10.8779 10.6667 11.2223ZM5.33333 13.889C5.33333 12.4112 4.14444 11.2223 2.66667 11.2223C1.18889 11.2223 0 12.4112 0 13.889V38.7779C0 47.1223 6.76667 53.889 15.1111 53.889H50.6667C52.1444 53.889 53.3333 52.7001 53.3333 51.2223C53.3333 49.7445 52.1444 48.5556 50.6667 48.5556H15.1111C9.71111 48.5556 5.33333 44.1779 5.33333 38.7779V13.889Z" fill="black" fill-opacity="0.4"/>
</svg>
