<svg width="64" height="64" viewBox="0 0 64 64" fill="none" xmlns="http://www.w3.org/2000/svg">
<path d="M2.69743 4.34229C3.15076 3.97795 3.68521 3.73006 4.25521 3.62025C4.82632 3.51045 5.4141 3.54206 5.96965 3.7124C6.52521 3.88273 7.03077 4.1864 7.44188 4.59717L29.5441 26.6997L16.9774 39.2664L6.01188 28.3108C3.11188 25.4108 1.14632 21.6997 0.370875 17.6775C-0.404902 13.6486 0.0441864 9.48084 1.65965 5.70973C1.88854 5.1764 2.24521 4.7064 2.69743 4.34229ZM56.8885 55.9997C56.8885 57.1775 56.4219 58.3108 55.5885 59.1442C54.7552 59.9775 53.6219 60.4442 52.4441 60.4442C51.2663 60.4442 50.133 59.9775 49.2997 59.1442L34.5108 44.3553L40.7997 38.0664L55.5885 52.8553C56.4219 53.6886 56.8885 54.822 56.8885 55.9997Z" fill="black"/>
<path d="M63.7219 16.322L55.3885 29.3998C54.4552 30.7887 53.3663 31.9442 51.9552 32.7442C50.533 33.5442 48.9441 33.9553 47.3219 33.9553C45.2774 33.9442 43.2885 33.322 41.5996 32.1776C41.4552 32.222 41.5441 32.2887 41.4885 32.3331L14.6996 59.1442C13.8663 59.9776 12.733 60.4442 11.5552 60.4442C10.3763 60.4442 9.2463 59.9776 8.41185 59.1442C7.57852 58.3109 7.01074 57.1776 7.01074 55.9998C7.01074 54.822 7.57852 53.6887 8.41185 52.8553L35.1996 26.0664C35.2552 26.0109 35.3219 25.8998 35.3774 25.9442C34.0219 23.9664 33.4107 21.5776 33.6441 19.1998C33.8107 17.7553 34.2996 16.3776 35.0885 15.1553C35.8663 13.9331 36.9107 12.9064 38.1552 12.1531L51.233 3.83622C51.5996 3.6024 52.0441 3.51288 52.4774 3.58473C52.9107 3.65656 53.2996 3.88467 53.5774 4.22556C53.8441 4.56645 53.9885 4.99645 53.9663 5.43311C53.933 5.86867 53.7552 6.282 53.4441 6.592L42.133 17.9109L43.4996 19.2664L56.0774 8.97756C56.4219 8.72089 56.8441 8.59645 57.2663 8.62645C57.6996 8.65645 58.0996 8.83978 58.3996 9.14311C58.6996 9.44533 58.7885 9.84645 58.9219 10.2742C58.9441 10.7009 58.8219 11.1242 58.5663 11.4664L48.2552 24.0442L49.6219 25.4109L60.9441 14.0976C61.2441 13.7898 61.5663 13.6064 62.0996 13.5831C62.533 13.5598 62.9663 13.6987 63.2996 13.972C63.6441 14.2453 63.8774 14.6353 63.9441 15.0664C64.0219 15.4998 63.933 15.9442 63.6996 16.3109L63.7219 16.322Z" fill="black" fill-opacity="0.4"/>
</svg>
