<svg width="64" height="64" viewBox="0 0 64 64" fill="none" xmlns="http://www.w3.org/2000/svg">
<path d="M59.4502 23.9C60.3127 23.125 60.6502 21.9125 60.2502 20.825C59.7002 19.3375 59.0377 17.9125 58.2752 16.5375L57.6877 15.525C56.8627 14.15 55.9377 12.85 54.9252 11.625C54.1877 10.725 52.9627 10.425 51.8627 10.775L46.8877 12.35C45.6377 12.75 44.2877 12.4875 43.1752 11.775C42.5627 11.3875 41.9377 11.0125 41.2877 10.6875C40.1252 10.0875 39.2252 9.0375 38.9377 7.7625L37.8252 2.675C37.5752 1.5375 36.7002 0.6375 35.5502 0.45C33.8377 0.15 32.0627 0 30.2502 0C28.4377 0 26.6627 0.15 24.9377 0.4375C23.7877 0.625 22.9127 1.525 22.6627 2.6625L21.5502 7.75C21.2752 9.025 20.3627 10.075 19.2002 10.675C18.5502 11.0125 17.9252 11.375 17.3127 11.7625C16.2127 12.475 14.8502 12.725 13.6002 12.3375L8.63773 10.7625C7.53773 10.4125 6.31273 10.725 5.57523 11.6125C4.56273 12.8375 3.63773 14.1375 2.81273 15.5125L2.22523 16.525C1.46273 17.9 0.800227 19.325 0.250227 20.8125C-0.149773 21.9 0.187727 23.1125 1.05023 23.8875L4.91273 27.4C5.87523 28.2875 6.33773 29.5875 6.27523 30.8875C6.26273 31.25 6.25023 31.6125 6.25023 31.9875C6.25023 32.3625 6.26273 32.725 6.27523 33.0875C6.33773 34.4 5.88773 35.7 4.91273 36.575L1.05023 40.1C0.187727 40.875 -0.149773 42.0875 0.250227 43.175C0.800227 44.6625 1.46273 46.0875 2.22523 47.4625L2.81273 48.475C3.63773 49.85 4.56273 51.15 5.57523 52.375C6.31273 53.275 7.53773 53.575 8.63773 53.225L13.6002 51.65C14.8502 51.25 16.2002 51.5125 17.3127 52.225C17.9252 52.6125 18.5502 52.9875 19.2002 53.3125C20.3627 53.9125 21.2627 54.9625 21.5502 56.2375L22.6627 61.325C22.9127 62.4625 23.7877 63.3625 24.9377 63.55C26.6627 63.8375 28.4377 63.9875 30.2502 63.9875C32.0627 63.9875 33.8377 63.8375 35.5627 63.55C36.7127 63.3625 37.5877 62.4625 37.8377 61.325L38.9502 56.2375C39.2252 54.9625 40.1252 53.9125 41.3002 53.3125C41.9502 52.975 42.5752 52.6125 43.1877 52.225C44.2877 51.5125 45.6502 51.2625 46.9002 51.65L51.8627 53.225C52.9627 53.575 54.1877 53.2625 54.9252 52.375C55.9377 51.15 56.8627 49.85 57.6877 48.475L58.2752 47.4625C59.0377 46.0875 59.6877 44.6625 60.2502 43.175C60.6502 42.0875 60.3127 40.875 59.4502 40.1L55.5877 36.5875C54.6252 35.7 54.1627 34.4 54.2252 33.1C54.2377 32.7375 54.2502 32.375 54.2502 32C54.2502 31.625 54.2377 31.2625 54.2252 30.9C54.1627 29.5875 54.6127 28.2875 55.5877 27.4125L59.4502 23.9ZM30.2502 20C33.4328 20 36.4851 21.2643 38.7355 23.5147C40.9859 25.7652 42.2502 28.8174 42.2502 32C42.2502 35.1826 40.9859 38.2348 38.7355 40.4853C36.4851 42.7357 33.4328 44 30.2502 44C27.0676 44 24.0154 42.7357 21.7649 40.4853C19.5145 38.2348 18.2502 35.1826 18.2502 32C18.2502 28.8174 19.5145 25.7652 21.7649 23.5147C24.0154 21.2643 27.0676 20 30.2502 20Z" fill="black"/>
<circle cx="30" cy="32" r="8" fill="black" fill-opacity="0.4"/>
</svg>
