<svg width="64" height="64" viewBox="0 0 64 64" fill="none" xmlns="http://www.w3.org/2000/svg">
<path d="M60 23C60 25.7625 57.7625 28 55 28H41C38.2375 28 36 25.7625 36 23V9C36 6.23875 38.2375 4 41 4H55C57.7625 4 60 6.23875 60 9V23ZM28 55C28 57.7625 25.7625 60 23 60H9C6.23875 60 4 57.7625 4 55V41C4 38.2375 6.23875 36 9 36H23C25.7625 36 28 38.2375 28 41V55Z" fill="black"/>
<path d="M28 22C28 25.3125 25.3125 28 22 28H10C6.68625 28 4 25.3125 4 22V10C4 6.68625 6.68625 4 10 4H22C25.3125 4 28 6.68625 28 10V22ZM60 54C60 57.3125 57.3125 60 54 60H42C38.6875 60 36 57.3125 36 54V42C36 38.6875 38.6875 36 42 36H54C57.3125 36 60 38.6875 60 42V54Z" fill="black" fill-opacity="0.4"/>
</svg>
