<svg width="64" height="64" viewBox="0 0 64 64" fill="none" xmlns="http://www.w3.org/2000/svg">
<path d="M16 29.7198L17.9 33.9998H14.01L16 29.7198ZM0 19.1998C0 15.6648 2.865 12.7998 6.4 12.7998H32V51.1998H6.4C2.865 51.1998 0 48.3298 0 44.7998V19.1998ZM14.17 23.9898L7.772 38.3898C7.324 39.3098 7.778 40.5798 8.788 41.0298C9.797 41.4798 10.98 41.0198 11.43 40.0098L12.32 37.9098H19.68L20.57 40.0098C21.02 41.0198 22.2 41.4798 23.21 41.0298C24.22 40.5798 24.68 39.3098 24.23 38.3898L17.83 23.9898C17.51 23.2698 16.79 22.7998 16 22.7998C15.21 22.7998 14.49 23.2698 14.17 23.9898Z" fill="black"/>
<path d="M64.0002 44.7998C64.0002 48.3298 61.1302 51.1998 57.6002 51.1998H32.0002V12.7998H57.6002C61.1302 12.7998 64.0002 15.6648 64.0002 19.1998V44.7998ZM50.0002 24.7998C50.0002 23.6098 49.1002 22.7998 48.0002 22.7998C46.8102 22.7998 46.0002 23.6098 46.0002 24.7998V25.1998H40.8002C39.6102 25.1998 38.8002 26.0098 38.8002 27.1998C38.8002 28.2998 39.6102 29.1998 40.8002 29.1998H51.5102C50.7802 30.8698 49.7702 32.3898 48.5302 33.6098L48.4702 33.6398L47.0102 32.1898C46.2302 31.3998 44.9702 31.3998 44.1902 32.1898C43.4002 32.9698 43.4002 34.2298 44.1902 35.0098L45.4002 36.2298C44.8102 36.5098 44.1902 36.9198 43.5502 37.2098L43.1902 37.3698C42.1802 37.8198 41.7202 38.9998 42.1702 40.0098C42.6202 41.0198 43.8002 41.4798 44.8102 41.0298L45.1802 40.8698C46.3802 40.3298 47.5202 39.6798 48.5702 38.9298C48.9102 39.2298 49.4402 39.5098 49.8802 39.7798L51.7702 40.9098C52.7202 41.4798 53.9502 41.1798 54.5202 40.2298C55.0802 39.2798 54.7802 38.0498 53.8302 37.4898L51.9402 36.3498C51.8502 36.2098 51.7602 36.2398 51.6702 36.1898C53.3902 34.3098 54.7502 32.0098 55.6402 29.6498L55.8002 29.1998H56.0002C57.1002 29.1998 58.0002 28.2998 58.0002 27.1998C58.0002 26.0098 57.1002 25.1998 56.0002 25.1998H50.0002V24.7998ZM16.0002 22.7998C16.7902 22.7998 17.5102 23.2698 17.8302 23.9898L24.2302 38.3898C24.6802 39.3098 24.2202 40.5798 23.2102 41.0298C22.2002 41.4798 21.0202 41.0198 20.5702 40.0098L19.6802 37.9098H12.3202L11.4302 40.0098C10.9802 41.0198 9.79721 41.4798 8.78821 41.0298C7.77821 40.5798 7.32421 39.3098 7.77221 38.3898L14.1702 23.9898C14.4902 23.2698 15.2102 22.7998 16.0002 22.7998ZM14.0102 33.9998H17.9002L16.0002 29.7198L14.0102 33.9998Z" fill="black" fill-opacity="0.4"/>
</svg>
