<svg width="64" height="64" viewBox="0 0 64 64" fill="none" xmlns="http://www.w3.org/2000/svg">
<path d="M44.8 25.5999V51.1999H57.6V25.5999H44.8ZM12.8 12.7999H44.8V15.9999H51.2V11.1999C51.2 8.5499 49.05 6.4119 46.412 6.3999H11.19C8.55 6.4124 6.4 8.5499 6.4 11.1999V35.1999H1.6C0.7125 35.1999 0 35.9099 0 36.7999V38.3999C0.0125 41.9249 2.863 44.7879 6.388 44.7999H35.2V35.1999H12.8V12.7999Z" fill="black"/>
<path d="M60.3999 19.1099H41.9999C40.0099 19.1099 38.3999 20.8099 38.3999 22.7999V53.9999C38.3999 55.9899 40.0099 57.5999 41.9999 57.5999H60.3999C62.3899 57.5999 63.9999 55.9899 63.9999 53.9999V22.7999C63.9999 20.8099 62.3899 19.1099 60.3999 19.1099ZM57.5999 51.1999H44.7999V25.5999H57.5999V51.1999Z" fill="black" fill-opacity="0.4"/>
</svg>
