<svg width="64" height="64" viewBox="0 0 64 64" fill="none" xmlns="http://www.w3.org/2000/svg">
<g clip-path="url(#clip0_1067_203)">
<path d="M36.6125 34.9752L55.6125 26.2002L62.2625 29.2752C63.325 29.7627 64 30.8252 64 31.8877C64 33.1627 63.325 34.2252 62.2625 34.7252L34.9375 47.3502C33.075 48.2127 30.925 48.2127 29.0625 47.3502L1.74125 34.7252C0.67975 34.2252 0 33.1627 0 31.8877C0 30.8252 0.679625 29.7627 1.74125 29.2752L8.39125 26.2002L27.3875 34.9752C30.3125 36.3377 33.6875 36.3377 36.6125 34.9752Z" fill="black" fill-opacity="0.4"/>
<path d="M29.0625 0.646332C30.925 -0.214793 33.075 -0.214793 34.9375 0.646332L62.2625 13.2755C63.325 13.763 64 14.8255 64 15.888C64 17.163 63.325 18.2255 62.2625 18.7255L34.9375 31.3505C33.075 32.213 30.925 32.213 29.0625 31.3505L1.74125 18.7255C0.67975 18.2255 0 17.163 0 15.888C0 14.8255 0.679625 13.763 1.74125 13.2755L29.0625 0.646332ZM62.2625 45.2755C63.325 45.763 64 46.8255 64 47.888C64 49.163 63.325 50.2255 62.2625 50.7255L34.9375 63.3505C33.075 64.213 30.925 64.213 29.0625 63.3505L1.74125 50.7255C0.67975 50.2255 0 49.163 0 47.888C0 46.8255 0.679625 45.763 1.74125 45.2755L8.39125 42.2005L27.3875 50.9755C30.3125 52.338 33.6875 52.338 36.6125 50.9755L55.6125 42.2005L62.2625 45.2755Z" fill="black"/>
</g>
<defs>
<clipPath id="clip0_1067_203">
<rect width="64" height="64" fill="white"/>
</clipPath>
</defs>
</svg>
