<svg width="64" height="64" viewBox="0 0 64 64" fill="none" xmlns="http://www.w3.org/2000/svg">
<g clip-path="url(#clip0_1067_111)">
<path d="M26.8375 21.1875L12.4 6.74375C17.8125 2.5325 24.6 0 32 0C39.4 0 46.1875 2.5325 51.6 6.74375L37.1625 21.1875C37.175 21.175 37.15 21.2 37.1625 21.1875C35.6 20.4375 33.85 20 32 20C30.15 20 28.4 20.4375 26.8375 21.1875C26.85 21.2 26.825 21.175 26.8375 21.1875ZM21.1875 37.1625L6.74375 51.6C2.5325 46.1875 0 39.4 0 31.8875C0 24.6 2.5325 17.8125 6.74375 12.3988L21.1875 26.8375C21.2 26.85 21.175 26.825 21.1875 26.8375C20.4375 28.4 20 30.15 20 31.8875C20 33.85 20.4375 35.6 21.1875 37.1625C21.2 37.15 21.175 37.175 21.1875 37.1625ZM64 32C64 39.4 61.4625 46.1875 57.2625 51.6L42.8125 37.1625C42.825 37.175 42.8 37.15 42.8125 37.1625C43.5625 35.6 44 33.85 44 32C44 30.15 43.5625 28.4 42.8125 26.8375C42.825 26.825 42.8 26.85 42.8125 26.8375L57.2625 12.4C61.4625 17.8125 64 24.6125 64 32ZM37.1625 42.8125L51.6 57.2625C46.1875 61.4625 39.3875 64 31.8875 64C24.6 64 17.8125 61.4625 12.3988 57.2625L26.8375 42.8125C26.85 42.8 26.825 42.825 26.8375 42.8125C28.4 43.5625 30.15 44 31.8875 44C33.85 44 35.6 43.5625 37.1625 42.8125C37.175 42.825 37.15 42.8 37.1625 42.8125Z" fill="black"/>
<path d="M37.1624 21.1877C37.1749 21.1752 37.1499 21.2002 37.1624 21.1877L53.1749 5.17143C54.7374 3.61018 57.2624 3.61018 58.8249 5.17143C60.3874 6.73518 60.3874 9.26643 58.8249 10.8277L42.8124 26.8377C42.8249 26.8252 42.7999 26.8502 42.8124 26.8377C41.6249 24.3627 39.6374 22.2627 37.1624 21.1877ZM26.8374 42.8127C26.8499 42.8002 26.8249 42.8252 26.8374 42.8127L10.8274 58.8252C10.0474 59.6127 9.02368 60.0002 7.99993 60.0002C6.97618 60.0002 5.95368 59.6127 5.17243 58.8252C3.60993 57.2627 3.60993 54.7377 5.17243 53.1752L21.1874 37.1627C21.1999 37.1502 21.1749 37.1752 21.1874 37.1627C22.2624 39.6377 24.3624 41.6252 26.8374 42.8127ZM58.8249 53.1752C60.3874 54.7377 60.3874 57.2627 58.8249 58.8252C58.0499 59.6127 57.0249 60.0002 55.9999 60.0002C54.9749 60.0002 53.9499 59.6127 53.1749 58.8252L37.1624 42.8127C37.1749 42.8252 37.1499 42.8002 37.1624 42.8127C39.6374 41.6252 41.6249 39.6377 42.8124 37.1627C42.8249 37.1752 42.7999 37.1502 42.8124 37.1627L58.8249 53.1752ZM26.8374 21.1877C26.8499 21.2002 26.8249 21.1752 26.8374 21.1877C24.3624 22.2627 22.2624 24.3627 21.1874 26.8377C21.1999 26.8502 21.1749 26.8252 21.1874 26.8377L5.17118 10.8289C3.60993 9.26643 3.60993 6.73518 5.17118 5.17268C6.73493 3.61018 9.26493 3.61018 10.8274 5.17268L26.8374 21.1877Z" fill="black" fill-opacity="0.4"/>
</g>
<defs>
<clipPath id="clip0_1067_111">
<rect width="64" height="64" fill="white"/>
</clipPath>
</defs>
</svg>
