<svg width="64" height="64" viewBox="0 0 64 64" fill="none" xmlns="http://www.w3.org/2000/svg">
<path d="M20 12C20 9.79125 21.7875 8 24 8H60C62.2125 8 64 9.79125 64 12C64 14.2125 62.2125 16 60 16H24C21.7875 16 20 14.2125 20 12ZM36 32C36 29.7875 37.7875 28 40 28H60C62.2125 28 64 29.7875 64 32C64 34.2125 62.2125 36 60 36H40C37.7875 36 36 34.2125 36 32ZM60 48C62.2125 48 64 49.7875 64 52C64 54.2125 62.2125 56 60 56H40C37.7875 56 36 54.2125 36 52C36 49.7875 37.7875 48 40 48H60Z" fill="black" fill-opacity="0.4"/>
<path d="M9 6C10.6562 6 12 7.34375 12 9V15C12 16.6625 10.6562 18 9 18V29H16C16 27.3375 17.3375 26 19 26H25C26.6625 26 28 27.3375 28 29V35C28 36.6625 26.6625 38 25 38H19C17.3375 38 16 36.6625 16 35H9V48C9 48.55 9.4475 49 10 49H16C16 47.3375 17.3375 46 19 46H25C26.6625 46 28 47.3375 28 49V55C28 56.6625 26.6625 58 25 58H19C17.3375 58 16 56.6625 16 55H10C6.13375 55 3 51.8625 3 48V18C1.34375 18 0 16.6625 0 15V9C0 7.34375 1.34375 6 3 6H9Z" fill="black"/>
</svg>
