<svg width="64" height="64" viewBox="0 0 64 64" fill="none" xmlns="http://www.w3.org/2000/svg">
<path d="M29.0375 62.4C22.5125 54.375 8 34.925 8 24C8 10.745 18.745 0 32 0C45.25 0 56 10.745 56 24C56 34.925 41.375 54.375 34.9625 62.4C33.425 64.3125 30.575 64.3125 29.0375 62.4ZM32 34C37.525 34 42 29.525 42 24C42 18.475 37.525 14 32 14C26.475 14 22 18.475 22 24C22 29.525 26.475 34 32 34Z" fill="black" fill-opacity="0.4"/>
<path d="M38 24C38 27.3125 35.3125 30 32 30C28.6875 30 26 27.3125 26 24C26 20.6875 28.6875 18 32 18C35.3125 18 38 20.6875 38 24Z" fill="black"/>
</svg>
