<svg width="64" height="64" viewBox="0 0 64 64" fill="none" xmlns="http://www.w3.org/2000/svg">
<g clip-path="url(#clip0_1067_115)">
<path d="M56 0H8C3.57875 0 0 3.5775 0 7.8875V43.775C0 48.425 3.57875 51.8875 8 51.8875H20V62.275C20 63.5091 21.4062 64.215 22.39 63.4811L38 51.8875H56C60.4225 51.8875 64 48.3087 64 44V7.8875C64 3.5775 60.425 0 56 0ZM31.1375 40C29.425 40 28 38.575 28 36.75C28 34.925 29.425 33.5 31.1375 33.5C33.075 33.5 34.5 34.925 34.5 36.75C34.5 38.575 33.075 40 31.1375 40ZM38.4625 25.425L33.6712 28.3162V28.5227C33.6712 29.8652 32.5252 31.0015 31.1712 31.0015C29.8175 31.0015 28.6712 29.8655 28.6712 28.5227V26.7625C28.6712 25.9364 29.0877 25.11 29.9212 24.5937L35.8587 21.0825C36.5875 20.775 37 20.05 37 19.225C37 17.9857 35.9583 16.9537 34.7088 16.9537H29.2875C28.0375 16.9537 26.9963 17.9862 26.9963 19.225C26.9963 20.5675 25.8505 21.7037 24.4963 21.7037C23.142 21.7037 22 20.575 22 19.225C22 15.2 25.225 12 29.2875 12H34.7038C38.775 12 42 15.2 42 19.225C42 21.7125 40.65 24.0875 38.4625 25.425Z" fill="black"/>
<path d="M31.1375 33.5C29.425 33.5 28 34.925 28 36.75C28 38.575 29.425 40 31.1375 40C33.075 40 34.5 38.575 34.5 36.75C34.5 34.925 33.075 33.5 31.1375 33.5ZM34.7125 12H29.2875C25.225 12 22 15.2 22 19.225C22 20.5675 23.1458 21.7038 24.5 21.7038C25.8542 21.7038 27 20.575 27 19.225C27 17.9858 28.0418 16.9538 29.2913 16.9538H34.7075C35.9575 16.9538 36.9987 17.9863 36.9987 19.225C36.9987 20.0509 36.582 20.7738 35.853 21.1875L29.9125 24.7C29.079 25.2164 28.6625 26.0425 28.6625 26.8687V28.5212C28.6625 29.8637 29.8083 31 31.1625 31C32.5163 31 33.6625 29.864 33.6625 28.5212V28.3125L38.4538 25.4212C40.65 24.0875 42 21.7125 42 19.225C42 15.2 38.775 12 34.7125 12Z" fill="black" fill-opacity="0.4"/>
</g>
<defs>
<clipPath id="clip0_1067_115">
<rect width="64" height="64" fill="white"/>
</clipPath>
</defs>
</svg>
