<svg width="64" height="64" viewBox="0 0 64 64" fill="none" xmlns="http://www.w3.org/2000/svg">
<path d="M51.2 12.7998C54.73 12.7998 57.6 15.6648 57.6 19.1998V25.6598C56.08 25.8598 54.62 26.5398 53.46 27.7098L35.33 45.8298C34.51 46.6498 33.93 47.6798 33.65 48.8098L33.05 51.1998H6.4C2.865 51.1998 0 48.3298 0 44.7998V19.1998C0 15.6648 2.865 12.7998 6.4 12.7998H51.2ZM27.2 35.1998C26.32 35.1998 25.6 35.9198 25.6 36.7998C25.6 37.6798 26.32 38.3998 27.2 38.3998H33.6C34.48 38.3998 35.2 37.6798 35.2 36.7998C35.2 35.9198 34.48 35.1998 33.6 35.1998H27.2ZM27.2 28.7998H43.2C44.08 28.7998 44.8 28.0798 44.8 27.1998C44.8 26.3198 44.08 25.5998 43.2 25.5998H27.2C26.32 25.5998 25.6 26.3198 25.6 27.1998C25.6 28.0798 26.32 28.7998 27.2 28.7998ZM16.41 22.3998C16.41 21.2898 15.51 20.3898 14.4 20.3898C13.29 20.3898 12.39 21.2898 12.39 22.3998V22.9998C11.83 23.1198 11.21 23.2898 10.8 23.5098C9.306 24.1898 8.007 25.4498 7.691 27.2798C7.515 28.2998 7.608 29.2898 8.032 30.1798C8.447 31.0598 9.1 31.6798 9.763 32.1298C10.92 32.9198 12.45 33.3798 13.62 33.7298L13.84 33.7898C15.24 34.2198 16.18 34.5298 16.77 34.9598C17.02 35.1398 17.11 35.2798 17.14 35.3698C17.18 35.4498 17.24 35.6298 17.17 36.0298C17.11 36.3798 16.92 36.6798 16.37 36.9098C15.76 37.1698 14.77 37.2998 13.49 37.0998C12.89 36.9998 11.82 36.6398 10.87 36.3198C10.65 36.2398 10.43 36.1698 10.23 36.0998C9.184 35.7498 8.051 36.3198 7.702 37.3698C7.353 38.4198 7.92 39.5498 8.968 39.8098C9.089 39.9398 9.239 39.9898 9.411 40.0498C10.11 40.3198 11.44 40.7398 12.39 40.9598V41.5998C12.39 42.7098 13.29 43.6098 14.31 43.6098C15.51 43.6098 16.41 42.7098 16.41 41.5998V41.0498C16.94 40.9498 17.46 40.7098 17.94 40.5898C19.52 39.9198 20.78 38.6198 21.11 36.7198C21.29 35.6798 21.21 34.6798 20.81 33.7698C20.42 32.8698 19.79 32.2098 19.12 31.7298C17.91 30.8398 16.29 30.3598 15.08 29.9898L14.91 29.9698C13.58 29.5398 12.62 29.2398 12.01 28.8198C11.75 28.6398 11.67 28.5198 11.65 28.4698C11.63 28.4298 11.57 28.3098 11.63 27.9698C11.67 27.7698 11.82 27.4398 12.45 27.1598C13.01 26.8698 14.09 26.7098 15.31 26.8098C15.75 26.9698 17.1 27.2298 17.49 27.3298C18.55 27.6198 19.65 26.9798 19.93 25.9098C20.22 24.8498 19.58 23.7498 18.51 23.4698C18.07 23.3498 17.07 23.1498 16.41 23.0298V22.3998Z" fill="black"/>
<path d="M55.72 29.9698C57.28 28.4098 59.81 28.4098 61.38 29.9698L62.81 31.4098C64.38 32.9698 64.38 35.4998 62.81 37.0698L59.87 40.0098L52.78 32.9098L55.72 29.9698ZM57.61 42.2698L44.69 55.1898C44.28 55.5998 43.76 55.8898 43.2 56.0298L37.19 57.5398C36.64 57.6698 36.07 57.5098 35.67 57.1198C35.27 56.7198 35.11 56.1398 35.25 55.5098L36.75 49.5798C36.89 49.0198 37.18 48.5098 37.59 48.0098L50.51 35.1798L57.61 42.2698Z" fill="black" fill-opacity="0.4"/>
</svg>
