<svg width="64" height="64" viewBox="0 0 64 64" fill="none" xmlns="http://www.w3.org/2000/svg">
<path d="M33.2002 15.1988C33.2002 18.0698 35.5302 20.3098 38.4002 20.3098H48.1102C48.4502 22.1498 49.4902 23.6498 50.9402 24.5898C51.1102 24.8298 51.3102 25.0598 51.5202 25.2798C53.5502 27.3098 56.8502 27.3098 58.8802 25.2798L60.8002 23.3498V44.7998C60.8002 48.3298 57.9302 51.1998 54.4002 51.1998H30.2102C30.5902 50.4798 30.7102 49.6698 30.7102 48.7098C30.7102 45.9298 28.4702 43.5098 25.5102 43.5098H15.8902C15.5502 41.8498 14.5102 40.3498 13.0602 39.4098C12.8902 39.1698 12.6902 38.9398 12.4802 38.7198C10.4502 36.6898 7.15419 36.6898 5.1232 38.7198L3.2002 40.6498V19.1998C3.2002 15.6648 6.0652 12.7998 9.60019 12.7998H33.7902C33.4102 13.5178 33.2002 14.3338 33.2002 15.1988ZM9.60019 19.1098V25.5098C13.1302 25.5098 16.0002 22.7298 16.0002 19.1098H9.60019ZM54.4002 38.3098C50.8702 38.3098 48.0002 41.2698 48.0002 44.7998H54.4002V38.3098ZM32.0002 22.3098C26.6102 22.3098 22.4002 26.6098 22.4002 31.9098C22.4002 37.2998 26.6102 41.5998 32.0002 41.5998C37.3002 41.5998 41.6002 37.2998 41.6002 31.9098C41.6002 26.6098 37.3002 22.3098 32.0002 22.3098Z" fill="black"/>
<path d="M55.81 12.7099L53.5 10.4969C52.57 9.55989 52.57 8.03989 53.5 7.10289C54.44 6.16559 55.96 6.16559 56.81 7.10279L63.21 13.5019C63.75 13.9519 64 14.5629 64 15.1989C64 15.8359 63.75 16.4499 63.21 16.8099L56.81 23.2099C55.96 24.2299 54.44 24.2299 53.5 23.2099C52.57 22.3599 52.57 20.8399 53.5 19.8999L55.81 17.5099H38.4C37.07 17.5099 36 16.5199 36 15.1989C36 13.8739 37.07 12.7989 38.4 12.7989L55.81 12.7099ZM25.51 46.3099C26.93 46.3099 27.91 47.4699 27.91 48.7099C27.91 50.1199 26.93 51.1099 25.51 51.1099L8.195 51.1999L10.41 53.4999C11.43 54.4399 11.43 55.9599 10.41 56.8099C9.56 57.8299 8.04 57.8299 7.103 56.8099L0.7029 50.4099C0.2528 50.0499 -2.99973e-05 49.4399 2.66947e-09 48.7099C2.66947e-09 48.1599 0.2529 47.5499 0.703 47.0999L7.103 40.6999C8.04 39.7699 9.56 39.7699 10.41 40.6999C11.43 41.6399 11.43 43.1599 10.41 44.0099L8.194 46.3999L25.51 46.3099Z" fill="black" fill-opacity="0.4"/>
</svg>
