<svg width="64" height="64" viewBox="0 0 64 64" fill="none" xmlns="http://www.w3.org/2000/svg">
<path d="M4.8 42.3995C4.8 46.3795 8.024 49.5995 12 49.5995H52C53.33 49.5995 54.4 50.6695 54.4 51.9995C54.4 53.3295 53.33 54.3995 52 54.3995H12C5.373 54.3995 0 49.0295 0 42.3995V18.3995C0 17.0695 1.075 15.9995 2.4 15.9995C3.725 15.9995 4.8 17.0695 4.8 18.3995V42.3995ZM22.4 15.9995H51.2C51.2 19.5295 54.07 22.3995 57.6 22.3995V31.9995C54.07 31.9995 51.2 34.8695 51.2 38.3995H22.4C22.4 34.8695 19.53 31.9995 16 31.9995V22.3995C19.53 22.3995 22.4 19.5295 22.4 15.9995ZM36.8 19.1995C32.38 19.1995 28.8 22.7795 28.8 27.1995C28.8 31.6195 32.38 35.1995 36.8 35.1995C41.22 35.1995 44.8 31.6195 44.8 27.1995C44.8 22.7795 41.22 19.1995 36.8 19.1995Z" fill="black" fill-opacity="0.4"/>
<path d="M57.6001 9.59961C61.1301 9.59961 64.0001 12.4646 64.0001 15.9996V38.3996C64.0001 41.9296 61.1301 44.7996 57.6001 44.7996H16.0001C12.4701 44.7996 9.6001 41.9296 9.6001 38.3996V15.9996C9.6001 12.4646 12.4701 9.59961 16.0001 9.59961H57.6001ZM51.2001 15.9996H22.4001C22.4001 19.5296 19.5301 22.3996 16.0001 22.3996V31.9996C19.5301 31.9996 22.4001 34.8696 22.4001 38.3996H51.2001C51.2001 34.8696 54.0701 31.9996 57.6001 31.9996V22.3996C54.0701 22.3996 51.2001 19.5296 51.2001 15.9996Z" fill="black"/>
</svg>
