<svg width="64" height="64" viewBox="0 0 64 64" fill="none" xmlns="http://www.w3.org/2000/svg">
<path d="M60 4H16C13.7875 4 12 5.79125 12 8V54C12 57.3125 9.31375 60 6 60H56C60.4187 60 64 56.4187 64 52V8C64 5.79125 62.2125 4 60 4ZM34 52H22C20.9 52 20 51.1 20 50C20 48.9 20.9 48 22 48H34C35.1045 48 36 48.8952 36 50C36 51.1 35.1 52 34 52ZM34 40H22C20.9 40 20 39.1 20 38C20 36.9 20.9 36 22 36H34C35.1 36 36 36.9 36 38C36 39.1 35.1 40 34 40ZM54 52H42C40.8955 52 40 51.1045 40 50C40 48.8952 40.8955 48 42 48H54C55.1045 48 56 48.8952 56 50C56 51.1 55.1 52 54 52ZM54 40H42C40.9 40 40 39.1 40 38C40 36.9 40.9 36 42 36H54C55.1 36 56 36.9 56 38C56 39.1 55.1 40 54 40ZM56 26C56 27.1 55.1 28 54 28H22C20.9 28 20 27.1 20 26V14C20 12.9 20.9 12 22 12H54C55.1 12 56 12.9 56 14V26Z" fill="black"/>
<path d="M0 16V54C0 57.3125 2.68625 60 6 60C9.31375 60 12 57.3125 12 54V12H4C1.79125 12 0 13.7875 0 16ZM34 36H22C20.9 36 20 36.9 20 38C20 39.1 20.9 40 22 40H34C35.1045 40 36 39.1045 36 38C36 36.9 35.1 36 34 36ZM42 40H54C55.1045 40 56 39.1045 56 38C56 36.9 55.1 36 54 36H42C40.9 36 40 36.9 40 38C40 39.1 40.9 40 42 40ZM34 48H22C20.9 48 20 48.9 20 50C20 51.1 20.9 52 22 52H34C35.1045 52 36 51.1045 36 50C36 48.9 35.1 48 34 48ZM54 48H42C40.8955 48 40 48.8952 40 50C40 51.1045 40.8955 52 42 52H54C55.1045 52 56 51.1045 56 50C56 48.9 55.1 48 54 48Z" fill="black" fill-opacity="0.4"/>
</svg>
