<svg width="64" height="64" viewBox="0 0 64 64" fill="none" xmlns="http://www.w3.org/2000/svg">
<g clip-path="url(#clip0_1067_163)">
<path d="M0 20C0 13.2625 5.3725 8 12 8H24C26.2125 8 28 9.79125 28 12C28 14.2125 26.2125 16 24 16H12C9.79125 16 8 17.7875 8 20V52C8 54.2125 9.79125 56 12 56H44C46.2125 56 48 54.2125 48 52V40C48 37.7875 49.7875 36 52 36C54.2125 36 56 37.7875 56 40V52C56 58.625 50.625 64 44 64H12C5.3725 64 0 58.625 0 52V20Z" fill="black" fill-opacity="0.4"/>
<path d="M49.0498 2.70738C51.7873 -0.0268087 56.2123 -0.0268087 58.9498 2.70738L61.2873 5.04988C64.0248 7.78363 64.0248 12.2161 61.2873 14.9499L57.5373 18.7124L45.2873 6.46488L49.0498 2.70738ZM54.7123 21.5374L33.7873 42.4499C33.0248 43.2249 32.0873 43.7999 31.0498 44.1499L19.9498 47.8499C18.7623 48.1999 17.6873 47.9249 16.8748 47.0124C16.0748 46.3124 15.7998 45.1249 16.1498 44.0499L19.8498 32.9499C20.1998 31.9124 20.7748 30.9749 21.5498 30.2124L42.4623 9.29238L54.7123 21.5374Z" fill="black"/>
</g>
<defs>
<clipPath id="clip0_1067_163">
<rect width="64" height="64" fill="white"/>
</clipPath>
</defs>
</svg>
