<svg width="64" height="64" viewBox="0 0 64 64" fill="none" xmlns="http://www.w3.org/2000/svg">
<path d="M63.2625 15.375C54.6 8.125 43.425 4 32 4C20.575 4 9.40625 8.125 0.734375 15.375C0.265625 15.7625 0 16.3375 0 16.95V24C0 25.1094 0.890625 26 2 26H10.7662C11.5162 26 12.2187 25.5781 12.5475 24.8906L16 16C20.985 13.8438 26.4062 13 32 13C37.5938 13 43.0125 13.85 48 16L51.4525 24.89C51.7875 25.575 52.4875 26 53.2375 26H62C63.1125 26 64 25.1125 64 24V16.95C64 16.3375 63.7375 15.7625 63.2625 15.375ZM32 30C27.0312 30 23 34.0312 23 39C23 43.9688 27.0375 48 32 48C36.9625 48 41 43.9688 41 39C41 34.0312 36.975 30 32 30Z" fill="black"/>
<path d="M59.475 47.075L46.3 24.025C44.7625 21.525 42.2375 20 39.3625 20H24.6375C21.7625 20 19.1225 21.5312 17.7 24.0312L4.525 47.0812C4.1875 47.6875 4 48.3625 4 49.0625V56C4 58.2025 5.7975 60 8 60H56C58.2025 60 60 58.2025 60 56V49.0625C60 48.3625 59.8125 47.6875 59.475 47.075ZM32 48C27.0312 48 23 43.9688 23 39C23 34.0312 27.0375 30 32 30C36.9625 30 41 34.0312 41 39C41 43.9688 36.975 48 32 48Z" fill="black" fill-opacity="0.4"/>
</svg>
