<svg width="64" height="64" viewBox="0 0 64 64" fill="none" xmlns="http://www.w3.org/2000/svg">
<g clip-path="url(#clip0_1067_207)">
<path d="M22.1002 20.0501L20.6902 13.6861C24.9502 10.6741 30.1302 9.24911 35.3402 9.65811C40.5402 10.0671 45.4302 12.2851 49.1702 15.9261C48.4402 17.9401 48.0602 20.0701 48.0502 22.2101V25.2301C46.9602 22.8901 45.3302 20.8501 43.2802 19.2801C41.2302 17.7201 38.8302 16.6701 36.2902 16.2311C33.7502 15.7931 31.1402 15.9791 28.6902 16.7701C26.2402 17.5601 24.0102 18.9401 22.2102 20.7801C22.1702 20.5401 22.1802 20.3001 22.1002 20.0501ZM42.6502 22.9501C45.0502 25.3501 46.4002 28.6101 46.4002 31.9101C46.4002 34.5301 45.6502 37.0101 44.2402 39.1101C42.8402 41.2201 40.8402 42.8601 38.4102 43.8301C36.1602 44.7901 33.5902 45.0501 31.1002 44.5501C28.6202 44.0601 26.3402 42.8401 24.5502 41.0501C22.7602 39.2601 21.5402 36.9801 21.0502 34.4101C20.5502 32.0101 20.8102 29.4401 21.7702 27.1001C22.7402 24.7601 24.3802 22.7601 26.4902 21.3601C28.5902 19.9501 31.0702 19.1101 33.6002 19.1101C36.9902 19.1101 40.2502 20.5501 42.6502 22.9501ZM53.8402 41.5601C52.1702 45.1201 49.5902 48.1701 46.3602 50.4101C43.1302 52.6501 39.3602 54.0101 35.4502 54.3301C31.5302 54.6501 27.5902 53.9401 24.0402 52.2601C20.4902 50.5801 17.4402 47.9901 15.2002 44.7601V32.4901C16.0702 32.1801 16.9002 31.7601 17.6802 31.2401C17.6602 31.4101 17.6002 31.7401 17.6002 31.9101C17.5102 35.7401 18.9002 39.3601 21.2902 42.2401C23.6902 45.1101 27.0102 47.0501 30.6902 47.7301C34.3702 48.4101 38.1602 47.7701 41.4202 45.9301C44.6802 44.0101 47.1902 41.1801 48.5102 37.6801C48.8302 38.4401 49.2102 39.1301 49.8802 39.7201C50.9402 40.7801 52.3502 41.4301 53.8402 41.5601Z" fill="black" fill-opacity="0.4"/>
<path d="M13.0302 29.7801H12.0002V53.6001C12.0002 54.2401 11.7502 54.8501 11.2102 55.2101C10.8502 55.7501 10.2402 56.0001 9.60019 56.0001C8.96319 56.0001 8.35319 55.7501 7.90319 55.2101C7.45319 54.8501 7.20019 54.2401 7.20019 53.6001V29.7801H6.18619C4.38619 29.4301 2.76419 28.4701 1.51019 27.0601C0.900886 26.1801 0.410886 25.1601 0.167986 24.0701C-0.0750237 22.9801 -0.0645637 21.8501 0.198586 20.7601L2.78719 9.07509C2.86319 8.74809 3.05619 8.45909 3.33019 8.26409C3.60419 8.07009 3.94019 7.98309 4.27519 8.01909C4.60919 8.05609 4.91819 8.21409 5.14319 8.46409C5.36919 8.71309 5.49519 9.03709 5.49819 9.37309V21.7201H6.98919L8.45419 9.02109C8.48819 8.74009 8.62319 8.48109 8.83419 8.29309C9.04619 8.10509 9.31919 8.00109 9.60219 8.00109C9.88419 8.00109 10.1602 8.10509 10.3702 8.29309C10.5802 8.48109 10.7202 8.74009 10.7502 9.02109L12.2102 21.7201H13.7002V9.37309C13.7102 9.03709 13.8302 8.71309 14.0602 8.46409C14.2802 8.21409 14.5902 8.05609 14.9302 8.01909C15.2602 7.98309 15.5102 8.07009 15.8702 8.26409C16.1402 8.45909 16.3402 8.74809 16.4102 9.07509L19.0002 20.7601C19.2702 21.8401 19.2802 22.9701 19.0402 24.0601C18.8002 25.1501 18.3102 26.1701 17.6202 27.0501C16.4502 28.4601 14.8302 29.4301 13.0302 29.7801ZM62.4302 8.20809C62.7402 8.34109 63.0302 8.53509 63.2602 8.77909C63.5002 9.02209 63.6902 9.31009 63.8202 9.62609C63.9402 9.94309 64.0002 10.2801 64.0002 10.6211V53.6001C64.0002 54.2401 63.7502 54.8501 63.2102 55.2101C62.8502 55.7501 62.2402 56.0001 61.6002 56.0001C60.9602 56.0001 60.3502 55.7501 59.9002 55.2101C59.4502 54.8501 59.2002 54.2401 59.2002 53.6001V38.4001H54.4002C53.5502 38.4001 52.7402 38.0601 52.1402 37.4601C51.5402 36.8601 51.2002 36.0501 51.2002 35.2001L51.2402 22.2201C51.2202 19.2301 52.0802 16.3001 53.7302 13.8021C55.3702 11.3051 57.7202 9.35109 60.4802 8.18909C60.7802 8.06409 61.1102 7.91009 61.4402 8.00009C61.7802 8.00309 62.1202 8.07409 62.4302 8.20709V8.20809Z" fill="black"/>
</g>
<defs>
<clipPath id="clip0_1067_207">
<rect width="64" height="64" fill="white"/>
</clipPath>
</defs>
</svg>
