<svg width="64" height="64" viewBox="0 0 64 64" fill="none" xmlns="http://www.w3.org/2000/svg">
<path d="M10 4C6.6875 4 4 6.6875 4 10V22C4 25.3125 6.6875 28 10 28H22C25.3125 28 28 25.3125 28 22V10C28 6.6875 25.3125 4 22 4H10ZM20 12V20H12V12H20ZM10 36C6.6875 36 4 38.6875 4 42V54C4 57.3125 6.6875 60 10 60H22C25.3125 60 28 57.3125 28 54V42C28 38.6875 25.3125 36 22 36H10ZM20 44V52H12V44H20ZM36 10V22C36 25.3125 38.6875 28 42 28H54C57.3125 28 60 25.3125 60 22V10C60 6.6875 57.3125 4 54 4H42C38.6875 4 36 6.6875 36 10ZM44 12H52V20H44V12Z" fill="black"/>
<path d="M36 58V38C36 36.9 36.9 36 38 36H46C47.1 36 48 36.9 48 38C48 39.1 48.9 40 50 40H54C55.1 40 56 39.1 56 38C56 36.9 56.9 36 58 36C59.1 36 60 36.9 60 38V50C60 51.1 59.1 52 58 52H50C48.9 52 48 51.1 48 50C48 48.9 47.1 48 46 48C44.9 48 44 48.9 44 50V58C44 59.1 43.1 60 42 60H38C36.9 60 36 59.1 36 58ZM52 58C52 58.5304 51.7893 59.0391 51.4142 59.4142C51.0391 59.7893 50.5304 60 50 60C49.4696 60 48.9609 59.7893 48.5858 59.4142C48.2107 59.0391 48 58.5304 48 58C48 57.4696 48.2107 56.9609 48.5858 56.5858C48.9609 56.2107 49.4696 56 50 56C50.5304 56 51.0391 56.2107 51.4142 56.5858C51.7893 56.9609 52 57.4696 52 58ZM60 58C60 58.5304 59.7893 59.0391 59.4142 59.4142C59.0391 59.7893 58.5304 60 58 60C57.4696 60 56.9609 59.7893 56.5858 59.4142C56.2107 59.0391 56 58.5304 56 58C56 57.4696 56.2107 56.9609 56.5858 56.5858C56.9609 56.2107 57.4696 56 58 56C58.5304 56 59.0391 56.2107 59.4142 56.5858C59.7893 56.9609 60 57.4696 60 58Z" fill="black" fill-opacity="0.4"/>
</svg>
