<svg width="64" height="64" viewBox="0 0 64 64" fill="none" xmlns="http://www.w3.org/2000/svg">
<path d="M58.5999 6.40039C61.5811 6.40039 63.9999 9.00989 63.9999 12.229V43.3147C63.9999 46.5325 61.5811 49.1433 58.5999 49.1433H47.7999C44.8187 49.1433 42.3999 46.5325 42.3999 43.3147V12.229C42.3999 9.00989 44.8187 6.40039 47.7999 6.40039H58.5999ZM31.5999 39.429C34.5812 39.429 36.9999 42.0397 36.9999 45.2575V54.9718C36.9999 58.1897 34.5812 60.8004 31.5999 60.8004H11.7999C8.81753 60.8004 6.3999 58.1897 6.3999 54.9718V45.2575C6.3999 42.0397 8.81753 39.429 11.7999 39.429H31.5999Z" fill="black"/>
<path d="M0 9.37162C0 5.9632 2.3639 3.2002 5.28 3.2002H29.92C32.835 3.2002 35.2 5.9632 35.2 9.37162V25.8288C35.2 29.2359 32.835 32.0002 29.92 32.0002H5.28C2.3639 32.0002 0 29.2359 0 25.8288V9.37162Z" fill="black" fill-opacity="0.4"/>
</svg>
