<svg width="64" height="64" viewBox="0 0 64 64" fill="none" xmlns="http://www.w3.org/2000/svg">
<g clip-path="url(#clip0_1067_191)">
<path d="M58.3125 10.4639L34.3125 0.463852C33.7031 0.209977 32.6675 0.000976562 32.0075 0.000976562C31.3435 0.000976562 30.3138 0.209977 29.7 0.463852L5.70125 10.4639C3.4625 11.3876 2 13.5751 2 15.8876C2 48.1501 25.65 64.0001 31.9875 64.0001C38.3875 64.0001 62 47.9751 62 15.8876C62 13.5751 60.5375 11.3876 58.3125 10.4639ZM47.3 24.0126C47.3 24.5245 47.1048 25.0362 46.714 25.4264L29.425 42.8251C29.0344 43.2156 28.5225 43.4109 28.0112 43.4109C27.5 43.4109 26.9875 43.2126 26.6 42.8251L17.3 33.5376C16.9125 33.1501 16.7125 32.6376 16.7125 32.0126C16.7125 31.5007 16.9078 30.989 17.2985 30.5989L18.7122 29.1851C19.1125 28.9001 19.5125 28.7126 20.125 28.7126C20.7375 28.7126 21.15 28.9001 21.55 29.2876L28.015 35.7526L42.4775 21.2901C42.8681 20.8996 43.38 20.7044 43.8913 20.7044C44.4025 20.7044 44.9149 20.8996 45.305 21.2901L46.7188 22.7039C47.1125 23.1001 47.3 23.6126 47.3 24.0126Z" fill="black"/>
<path d="M47.2999 24.0128C47.2999 24.5247 47.1047 25.0365 46.7139 25.4266L29.4249 42.8253C29.0343 43.2158 28.5224 43.4111 28.0112 43.4111C27.4999 43.4111 26.9874 43.2128 26.5999 42.8253L17.2999 33.5378C16.9124 33.1503 16.7124 32.6378 16.7124 32.0128C16.7124 31.501 16.9077 30.9892 17.2984 30.5991L18.7122 29.1853C19.1124 28.9003 19.5124 28.7128 20.1249 28.7128C20.7374 28.7128 21.1499 28.9003 21.5499 29.2878L28.0149 35.7528L42.4774 21.2903C42.868 20.8998 43.3799 20.7046 43.8912 20.7046C44.4024 20.7046 44.9148 20.8998 45.3049 21.2903L46.7187 22.7041C47.1124 23.1003 47.2999 23.6128 47.2999 24.0128Z" fill="black" fill-opacity="0.4"/>
</g>
<defs>
<clipPath id="clip0_1067_191">
<rect width="64" height="64" fill="white"/>
</clipPath>
</defs>
</svg>
