<svg width="64" height="64" viewBox="0 0 64 64" fill="none" xmlns="http://www.w3.org/2000/svg">
<path d="M64 52C64 56.4125 60.4125 60 56 60H28V4H56C60.4125 4 64 7.58125 64 12V52Z" fill="black" fill-opacity="0.4"/>
<path d="M28 4V60H8C3.58125 60 0 56.4125 0 52V12C0 7.58125 3.58125 4 8 4H28ZM11 12C9.34375 12 8 13.3375 8 15C8 16.6625 9.34375 18 11 18H17C18.6625 18 20 16.6625 20 15C20 13.3375 18.6625 12 17 12H11ZM11 30H17C18.6625 30 20 28.6625 20 27C20 25.3375 18.6625 24 17 24H11C9.34375 24 8 25.3375 8 27C8 28.6625 9.34375 30 11 30ZM11 36C9.34375 36 8 37.3375 8 39C8 40.6625 9.34375 42 11 42H17C18.6625 42 20 40.6625 20 39C20 37.3375 18.6625 36 17 36H11Z" fill="black"/>
</svg>
