<svg width="64" height="64" viewBox="0 0 64 64" fill="none" xmlns="http://www.w3.org/2000/svg">
<path d="M7.2654 24.8465C7.7392 24.9096 8.22611 24.9475 8.70944 24.9475C10.2261 24.9475 11.6666 24.6064 12.9523 24V45.1619H51.0475V24C52.3333 24.6064 53.7618 24.9475 55.2618 24.9475C55.7618 24.9475 56.238 24.9096 56.7023 24.8465C57.4047 24.7454 58.0594 24.5685 58.6666 24.3285V53.2476C58.6666 57.7074 55.2499 61.3333 51.0475 61.3333H12.9523C8.74397 61.3333 5.33325 57.7074 5.33325 53.2476V24.3285C5.93801 24.5685 6.58325 24.7454 7.26659 24.8465H7.2654Z" fill="black" fill-opacity="0.4"/>
<path d="M54.4779 2.34756L60.8446 12.422C64.1446 17.6331 61.2223 24.8665 55.0557 25.6887C54.6223 25.7442 54.1779 25.7776 53.7112 25.7776C50.8223 25.7776 48.2446 24.5109 46.4779 22.5553C44.7112 24.5109 42.1335 25.7776 39.2335 25.7776C36.3335 25.7776 33.7557 24.5109 31.989 22.5553C30.2223 24.5109 27.6557 25.7776 24.7446 25.7776C21.8557 25.7776 19.2779 24.5109 17.5112 22.5553C15.7446 24.5109 13.1668 25.7776 10.2623 25.7776C9.81123 25.7776 9.35678 25.7442 8.91567 25.6887C2.76901 24.8665 -0.139325 17.622 3.1479 12.422L9.5179 2.34756C10.0846 1.44189 11.0968 0.888672 12.1779 0.888672H51.8223C52.9001 0.888672 53.9112 1.44178 54.4779 2.34756Z" fill="black"/>
</svg>
