<svg width="64" height="64" viewBox="0 0 64 64" fill="none" xmlns="http://www.w3.org/2000/svg">
<path d="M47.9102 38.4001H40.5252C45.1202 42.1701 48.0002 47.8101 48.0002 54.1301C48.0002 55.4101 47.6202 56.5901 47.0002 57.6001H60.8002C62.5702 57.6001 64.0002 56.1601 64.0002 54.3101C64.0002 45.5601 56.8402 38.4001 47.9102 38.4001ZM43.2002 32.0001C49.3902 32.0001 54.4002 26.9901 54.4002 20.8001C54.4002 14.6101 49.3902 9.6001 43.2002 9.6001C40.6892 9.6001 38.3962 10.4556 36.5282 11.8511C37.6802 14.0631 38.4002 16.5401 38.4002 19.2001C38.4002 22.7521 37.2072 26.0141 35.2412 28.6711C37.2702 30.7201 40.0802 32.0001 43.2002 32.0001Z" fill="black" fill-opacity="0.4"/>
<path d="M22.4 31.9999C29.47 31.9999 35.2 26.2689 35.2 19.1999C35.2 12.1309 29.47 6.3999 22.4 6.3999C15.33 6.3999 9.6 12.1309 9.6 19.1999C9.6 26.2689 15.33 31.9999 22.4 31.9999ZM27.47 36.7999H17.33C7.757 36.7999 0 44.5599 0 54.1299C0 56.0499 1.552 57.5999 3.466 57.5999H41.33C43.25 57.5999 44.8 56.0499 44.8 54.1299C44.8 44.5599 37.04 36.7999 27.47 36.7999Z" fill="black"/>
</svg>
