<svg width="64" height="64" viewBox="0 0 64 64" fill="none" xmlns="http://www.w3.org/2000/svg">
<path d="M22.31 31.9999C29.38 31.9999 35.11 26.2689 35.11 19.1999C35.11 12.1309 29.38 6.3999 22.31 6.3999C15.33 6.3999 9.6 12.1309 9.6 19.1999C9.6 26.2689 15.33 31.9999 22.31 31.9999ZM27.47 36.7999H17.33C7.761 36.7999 0 44.5699 0 54.1399C0 56.0499 1.552 57.5999 3.466 57.5999H32.106C31.9814 57.0468 31.963 56.4689 32.0777 55.8959L33.5057 48.7549C33.7 47.7826 34.1733 46.8989 34.8737 46.1989L39.4457 41.6269C36.33 38.6399 32.12 36.7999 27.47 36.7999Z" fill="black"/>
<path d="M37.14 48.4597C36.8886 48.7109 36.7173 49.0312 36.6476 49.38L35.2196 56.521C35.0938 57.1499 35.6489 57.705 36.2786 57.58L43.4206 56.151C43.7688 56.0811 44.0888 55.9104 44.3401 55.6588L56.8701 43.1288L49.6691 35.9278L37.14 48.4597ZM62.95 31.9697L60.84 29.8587C59.434 28.4527 57.155 28.4527 55.749 29.8587L51.936 33.6727L59.137 40.8737L62.95 37.0607C64.35 35.6497 64.35 33.3697 62.95 31.9697Z" fill="black" fill-opacity="0.4"/>
</svg>
