<svg width="24" height="24" viewBox="0 0 24 24" fill="none" xmlns="http://www.w3.org/2000/svg">
<path d="M23.5 9.375C23.5 9.99844 22.9984 10.5 22.375 10.5H17.125H15.625C15.0016 10.5 14.5 9.99844 14.5 9.375C14.5 8.75156 15.0016 8.25 15.625 8.25H17.125H19.6609L17.2188 5.80781C15.8969 4.49063 14.1109 3.75 12.25 3.75C8.84219 3.75 5.9125 5.81719 4.65625 8.77031C4.4125 9.34219 3.75156 9.60938 3.17969 9.36563C2.60781 9.12188 2.34062 8.46094 2.58437 7.88906C4.18281 4.13438 7.90938 1.5 12.25 1.5C14.7109 1.5 17.0687 2.475 18.8078 4.21406L21.25 6.66094V4.125V4.10625V2.625C21.25 2.00156 21.7516 1.5 22.375 1.5C22.9984 1.5 23.5 2.00156 23.5 2.625V9.375ZM2.125 13.5H7.375C7.99844 13.5 8.5 14.0016 8.5 14.625C8.5 15.2484 7.99844 15.75 7.375 15.75H4.83906L7.28125 18.1922C8.60313 19.5094 10.3891 20.25 12.25 20.25C15.6531 20.25 18.5781 18.1922 19.8391 15.2438C20.0828 14.6719 20.7437 14.4094 21.3156 14.6531C21.8875 14.8969 22.15 15.5578 21.9062 16.1297C20.3031 19.875 16.5859 22.5 12.25 22.5C9.78906 22.5 7.43125 21.525 5.69219 19.7859L3.25 17.3391V19.875C3.25 20.4984 2.74844 21 2.125 21C1.50156 21 1 20.4984 1 19.875V14.625C1 14.0016 1.50156 13.5 2.125 13.5Z" fill="black"/>
</svg>
