<svg width="24" height="25" viewBox="0 0 24 25" fill="none" xmlns="http://www.w3.org/2000/svg">
<g clip-path="url(#clip0_1104_80)">
<path d="M12 2.58325C6.61406 2.58325 2.25 6.94731 2.25 12.3333C2.25 17.7192 6.61406 22.0833 12 22.0833C12.6234 22.0833 13.125 22.5848 13.125 23.2083C13.125 23.8317 12.6234 24.3333 12 24.3333C5.37188 24.3333 0 18.9614 0 12.3333C0 5.70513 5.37188 0.333252 12 0.333252C18.6281 0.333252 24 5.70513 24 12.3333V13.6458C24 16.027 22.0687 17.9583 19.6875 17.9583C18.2297 17.9583 16.9359 17.2317 16.1578 16.1208C15.1266 17.2504 13.6453 17.9583 12 17.9583C8.89219 17.9583 6.375 15.4411 6.375 12.3333C6.375 9.22544 8.89219 6.70825 12 6.70825C13.35 6.70825 14.5875 7.18169 15.5531 7.97388C15.7547 7.6645 16.1016 7.45825 16.5 7.45825C17.1234 7.45825 17.625 7.95981 17.625 8.58325V12.3333V13.6458C17.625 14.7848 18.5484 15.7083 19.6875 15.7083C20.8266 15.7083 21.75 14.7848 21.75 13.6458V12.3333C21.75 6.94731 17.3859 2.58325 12 2.58325ZM15.375 12.3333C15.375 11.4381 15.0194 10.5797 14.3865 9.94677C13.7535 9.31383 12.8951 8.95825 12 8.95825C11.1049 8.95825 10.2465 9.31383 9.61351 9.94677C8.98058 10.5797 8.625 11.4381 8.625 12.3333C8.625 13.2284 8.98058 14.0868 9.61351 14.7197C10.2465 15.3527 11.1049 15.7083 12 15.7083C12.8951 15.7083 13.7535 15.3527 14.3865 14.7197C15.0194 14.0868 15.375 13.2284 15.375 12.3333Z" fill="black"/>
</g>
<defs>
<clipPath id="clip0_1104_80">
<rect width="24" height="24" fill="white" transform="translate(0 0.333252)"/>
</clipPath>
</defs>
</svg>
