<svg width="24" height="24" viewBox="0 0 24 24" fill="none" xmlns="http://www.w3.org/2000/svg">
<g clip-path="url(#clip0_536_8447)">
<path d="M13.5 0C14.3297 0 15 0.671719 15 1.5V4.5C15 5.32969 14.3297 6 13.5 6H9.75V7.5H6.75V6H3C2.17172 6 1.5 5.32969 1.5 4.5V1.5C1.5 0.671719 2.17172 0 3 0H13.5ZM4.5 2.25C4.08562 2.25 3.75 2.58562 3.75 3C3.75 3.41438 4.08562 3.75 4.5 3.75H12C12.4125 3.75 12.75 3.41438 12.75 3C12.75 2.58562 12.4125 2.25 12 2.25H4.5Z" fill="black"/>
<path fill-rule="evenodd" clip-rule="evenodd" d="M0 17.7375V21C0 22.6547 1.34295 24 2.99999 24H21C22.6547 24 24 22.6547 24 21V17.7375C24 17.5125 23.9812 17.2875 23.9484 17.0672L22.8844 10.05C22.664 8.58281 21.4031 7.5 19.8797 7.5H4.07952C2.59639 7.5 1.33592 8.58281 1.11374 10.05L0.0507984 17.0672C0.0169828 17.2875 0 17.5125 0 17.7375ZM21 20.25C21 20.6625 20.6625 21 20.25 21H3.74999C3.33561 21 2.99999 20.6625 2.99999 20.25C2.99999 19.8375 3.33561 19.5 3.74999 19.5H20.25C20.6625 19.5 21 19.8375 21 20.25ZM4.12499 11.25C4.12499 10.6266 4.62889 10.125 5.24999 10.125C5.87342 10.125 6.37499 10.6266 6.37499 11.25C6.37499 11.8734 5.87342 12.375 5.24999 12.375C4.62889 12.375 4.12499 11.8734 4.12499 11.25ZM10.875 11.25C10.875 11.8734 10.3734 12.375 9.74999 12.375C9.12655 12.375 8.62499 11.8734 8.62499 11.25C8.62499 10.6266 9.12655 10.125 9.74999 10.125C10.3734 10.125 10.875 10.6266 10.875 11.25ZM6.37499 15C6.37499 14.3766 6.87655 13.875 7.49999 13.875C8.12342 13.875 8.62499 14.3766 8.62499 15C8.62499 15.6234 8.12342 16.125 7.49999 16.125C6.87655 16.125 6.37499 15.6234 6.37499 15ZM15.375 11.25C15.375 11.8734 14.8734 12.375 14.25 12.375C13.6265 12.375 13.125 11.8734 13.125 11.25C13.125 10.6266 13.6265 10.125 14.25 10.125C14.8734 10.125 15.375 10.6266 15.375 11.25ZM10.875 15C10.875 14.3766 11.3765 13.875 12 13.875C12.6234 13.875 13.125 14.3766 13.125 15C13.125 15.6234 12.6234 16.125 12 16.125C11.3765 16.125 10.875 15.6234 10.875 15ZM19.875 11.25C19.875 11.8734 19.3734 12.375 18.75 12.375C18.1265 12.375 17.625 11.8734 17.625 11.25C17.625 10.6266 18.1265 10.125 18.75 10.125C19.3734 10.125 19.875 10.6266 19.875 11.25ZM15.375 15C15.375 14.3766 15.8765 13.875 16.5 13.875C17.1234 13.875 17.625 14.3766 17.625 15C17.625 15.6234 17.1234 16.125 16.5 16.125C15.8765 16.125 15.375 15.6234 15.375 15Z" fill="black"/>
</g>
<defs>
<clipPath id="clip0_536_8447">
<rect width="24" height="24" fill="white"/>
</clipPath>
</defs>
</svg>
