<svg width="18" height="18" viewBox="0 0 18 18" fill="none" xmlns="http://www.w3.org/2000/svg">
<path d="M17.2125 6.72358C17.4551 6.50562 17.55 6.1646 17.4375 5.85874C17.2828 5.44038 17.0965 5.0396 16.8821 4.65288L16.7168 4.36811C16.4848 3.9814 16.2246 3.61577 15.9399 3.27124C15.7325 3.01812 15.3879 2.93374 15.0785 3.03218L13.6793 3.47515C13.3278 3.58765 12.9481 3.51382 12.6352 3.31343C12.4629 3.20444 12.2871 3.09897 12.1043 3.00757C11.7774 2.83882 11.5243 2.54351 11.4434 2.18491L11.1305 0.754053C11.0602 0.434131 10.8141 0.181006 10.4907 0.128271C10.009 0.0438965 9.5098 0.00170898 9.00003 0.00170898C8.49027 0.00170898 7.99105 0.0438965 7.50589 0.124756C7.18246 0.17749 6.93636 0.430615 6.86605 0.750537L6.55316 2.1814C6.47581 2.53999 6.21917 2.8353 5.89222 3.00405C5.70941 3.09897 5.53363 3.20093 5.36136 3.30991C5.05199 3.5103 4.66878 3.58062 4.31722 3.47163L2.92152 3.02866C2.61214 2.93022 2.26761 3.01812 2.06019 3.26772C1.77542 3.61226 1.51527 3.97788 1.28324 4.3646L1.118 4.64936C0.903549 5.03608 0.717221 5.43687 0.562533 5.85522C0.450033 6.16108 0.544955 6.5021 0.787533 6.72007L1.87386 7.70796C2.14456 7.95757 2.27464 8.32319 2.25706 8.68882C2.25355 8.79077 2.25003 8.89272 2.25003 8.99819C2.25003 9.10366 2.25355 9.20562 2.25706 9.30757C2.27464 9.67671 2.14808 10.0423 1.87386 10.2884L0.787533 11.2798C0.544955 11.4978 0.450033 11.8388 0.562533 12.1447C0.717221 12.563 0.903549 12.9638 1.118 13.3505L1.28324 13.6353C1.51527 14.022 1.77542 14.3876 2.06019 14.7322C2.26761 14.9853 2.61214 15.0697 2.92152 14.9712L4.31722 14.5283C4.66878 14.4158 5.04847 14.4896 5.36136 14.69C5.53363 14.799 5.70941 14.9044 5.89222 14.9958C6.21917 15.1646 6.4723 15.4599 6.55316 15.8185L6.86605 17.2494C6.93636 17.5693 7.18246 17.8224 7.50589 17.8751C7.99105 17.956 8.49027 17.9982 9.00003 17.9982C9.5098 17.9982 10.009 17.956 10.4942 17.8751C10.8176 17.8224 11.0637 17.5693 11.134 17.2494L11.4469 15.8185C11.5243 15.4599 11.7774 15.1646 12.1078 14.9958C12.2907 14.9009 12.4664 14.799 12.6387 14.69C12.9481 14.4896 13.3313 14.4193 13.6828 14.5283L15.0785 14.9712C15.3879 15.0697 15.7325 14.9818 15.9399 14.7322C16.2246 14.3876 16.4848 14.022 16.7168 13.6353L16.8821 13.3505C17.0965 12.9638 17.2793 12.563 17.4375 12.1447C17.55 11.8388 17.4551 11.4978 17.2125 11.2798L16.1262 10.2919C15.8555 10.0423 15.7254 9.67671 15.743 9.31108C15.7465 9.20913 15.75 9.10718 15.75 9.00171C15.75 8.89624 15.7465 8.79429 15.743 8.69233C15.7254 8.32319 15.852 7.95757 16.1262 7.71147L17.2125 6.72358ZM9.00003 5.62671C9.89514 5.62671 10.7536 5.98229 11.3865 6.61522C12.0195 7.24816 12.375 8.1066 12.375 9.00171C12.375 9.89681 12.0195 10.7553 11.3865 11.3882C10.7536 12.0211 9.89514 12.3767 9.00003 12.3767C8.10493 12.3767 7.24648 12.0211 6.61355 11.3882C5.98061 10.7553 5.62503 9.89681 5.62503 9.00171C5.62503 8.1066 5.98061 7.24816 6.61355 6.61522C7.24648 5.98229 8.10493 5.62671 9.00003 5.62671ZM9.00003 6.75171C8.4033 6.75171 7.831 6.98876 7.40904 7.41072C6.98709 7.83268 6.75003 8.40497 6.75003 9.00171C6.75003 9.59845 6.98709 10.1707 7.40904 10.5927C7.831 11.0147 8.4033 11.2517 9.00003 11.2517C9.59677 11.2517 10.1691 11.0147 10.591 10.5927C11.013 10.1707 11.25 9.59845 11.25 9.00171C11.25 8.40497 11.013 7.83268 10.591 7.41072C10.1691 6.98876 9.59677 6.75171 9.00003 6.75171Z" fill="white"/>
</svg>
