<svg width="16" height="20" viewBox="0 0 16 20" fill="none" xmlns="http://www.w3.org/2000/svg">
<g clip-path="url(#clip0_315_8396)">
<path d="M6.2853 2.57146H9.71387V4.28575H6.2853V2.57146ZM4.57102 2.28575V4.28575H3.99959C3.2353 4.28575 2.5603 4.79289 2.34959 5.52861L0.0638733 13.5286C-0.0825553 14.0465 0.0210161 14.6036 0.342445 15.0322C0.663873 15.4608 1.17459 15.7143 1.71387 15.7143H14.2853C14.8246 15.7143 15.3317 15.4608 15.6532 15.0322C15.9746 14.6036 16.0817 14.0465 15.9317 13.5286L13.646 5.52861C13.4389 4.79289 12.7639 4.28575 11.9996 4.28575H11.4282V2.28575C11.4282 1.49646 10.7889 0.857178 9.99959 0.857178H5.99959C5.2103 0.857178 4.57102 1.49646 4.57102 2.28575ZM3.99959 6.00004H11.9996L14.2853 14H1.71387L3.99959 6.00004ZM10.2853 16.8572H5.71387C5.71387 18.1179 6.73887 19.1429 7.99959 19.1429C9.2603 19.1429 10.2853 18.1179 10.2853 16.8572Z" fill="#F4F4F4"/>
</g>
<defs>
<clipPath id="clip0_315_8396">
<rect width="16" height="18.2857" fill="white" transform="translate(0 0.857178)"/>
</clipPath>
</defs>
</svg>
