<svg width="10" height="44" viewBox="0 0 10 44" fill="none" xmlns="http://www.w3.org/2000/svg">
<path d="M10 5.93213C10 8.71741 7.76142 10.9753 5 10.9753C2.23858 10.9753 0 8.71741 0 5.93213C0 3.14684 2.23858 0.888916 5 0.888916C7.76142 0.888916 10 3.14684 10 5.93213Z" fill="black"/>
<path d="M10 22.3889C10 25.1742 7.76142 27.4321 5 27.4321C2.23858 27.4321 0 25.1742 0 22.3889C0 19.6036 2.23858 17.3457 5 17.3457C7.76142 17.3457 10 19.6036 10 22.3889Z" fill="black"/>
<path d="M10 38.8457C10 41.631 7.76142 43.8889 5 43.8889C2.23858 43.8889 0 41.631 0 38.8457C0 36.0604 2.23858 33.8025 5 33.8025C7.76142 33.8025 10 36.0604 10 38.8457Z" fill="black"/>
</svg>
