<svg width="24" height="24" viewBox="0 0 24 24" fill="none" xmlns="http://www.w3.org/2000/svg">
<path d="M3.25 4.5V19.5C3.25 19.9125 3.5875 20.25 4 20.25H19C19.4125 20.25 19.75 19.9125 19.75 19.5V7.99219C19.75 7.79531 19.6703 7.60312 19.5297 7.4625L21.1188 5.87344C21.6813 6.43594 21.9953 7.2 21.9953 7.99688V19.5C21.9953 21.1547 20.65 22.5 18.9953 22.5H4C2.34531 22.5 1 21.1547 1 19.5V4.5C1 2.84531 2.34531 1.5 4 1.5H15.5078C16.3047 1.5 17.0687 1.81406 17.6312 2.37656L21.1234 5.86875L19.5344 7.45781L16.0375 3.97031C16.0234 3.95625 16.0141 3.94688 16 3.93281V8.625C16 9.24844 15.4984 9.75 14.875 9.75H5.875C5.25156 9.75 4.75 9.24844 4.75 8.625V3.75H4C3.5875 3.75 3.25 4.0875 3.25 4.5ZM7 3.75V7.5H13.75V3.75H7ZM8.5 15C8.5 14.2044 8.81607 13.4413 9.37868 12.8787C9.94129 12.3161 10.7044 12 11.5 12C12.2956 12 13.0587 12.3161 13.6213 12.8787C14.1839 13.4413 14.5 14.2044 14.5 15C14.5 15.7956 14.1839 16.5587 13.6213 17.1213C13.0587 17.6839 12.2956 18 11.5 18C10.7044 18 9.94129 17.6839 9.37868 17.1213C8.81607 16.5587 8.5 15.7956 8.5 15Z" fill="black"/>
</svg>
