<svg width="24" height="24" viewBox="0 0 24 24" fill="none" xmlns="http://www.w3.org/2000/svg">
 <path d="M11.88 8.16C9.69295 8.16 7.92 9.93295 7.92 12.12C7.92 14.307 9.69295 16.08 11.88 16.08C14.067 16.08 15.84 14.307 15.84 12.12C15.84 9.93295 14.067 8.16 11.88 8.16Z" fill="black"/>
 <path fill-rule="evenodd" clip-rule="evenodd" d="M5.76 0C2.57884 0 0 2.57884 0 5.76V18.24C0 21.4212 2.57884 24 5.76 24H18.24C21.4212 24 24 21.4212 24 18.24V5.76C24 2.57884 21.4212 0 18.24 0H5.76ZM21.12 4.2C21.12 4.92902 20.529 5.52 19.8 5.52C19.071 5.52 18.48 4.92902 18.48 4.2C18.48 3.47098 19.071 2.88 19.8 2.88C20.529 2.88 21.12 3.47098 21.12 4.2ZM5.04 12.12C5.04 8.34237 8.10237 5.28 11.88 5.28C15.6576 5.28 18.72 8.34237 18.72 12.12C18.72 15.8976 15.6576 18.96 11.88 18.96C8.10237 18.96 5.04 15.8976 5.04 12.12Z" fill="black"/>
</svg>
