<svg width="24" height="24" viewBox="0 0 24 24" fill="none" xmlns="http://www.w3.org/2000/svg">
<path d="M12.0625 3.375C14.048 3.375 15.6562 4.9832 15.6562 6.96875V9.125H8.46875V6.96875C8.46875 4.9832 10.077 3.375 12.0625 3.375ZM5.59375 6.96875V9.125H4.875C3.28926 9.125 2 10.4143 2 12V20.625C2 22.2107 3.28926 23.5 4.875 23.5H19.25C20.8357 23.5 22.125 22.2107 22.125 20.625V12C22.125 10.4143 20.8357 9.125 19.25 9.125H18.5312V6.96875C18.5312 3.39746 15.6338 0.5 12.0625 0.5C8.49121 0.5 5.59375 3.39746 5.59375 6.96875ZM13.5 14.875V17.75C13.5 18.5451 12.8576 19.1875 12.0625 19.1875C11.2674 19.1875 10.625 18.5451 10.625 17.75V14.875C10.625 14.0799 11.2674 13.4375 12.0625 13.4375C12.8576 13.4375 13.5 14.0799 13.5 14.875Z" fill="black"/>
</svg>
