<svg width="24" height="24" viewBox="0 0 24 24" fill="none" xmlns="http://www.w3.org/2000/svg">
<path d="M18 3.66667C16.1583 3.66667 14.6667 5.15833 14.6667 7V9H16C17.4708 9 18.6667 10.1958 18.6667 11.6667V19.6667C18.6667 21.1375 17.4708 22.3333 16 22.3333H2.66667C1.19583 22.3333 0 21.1375 0 19.6667V11.6667C0 10.1958 1.19583 9 2.66667 9H12V7C12 3.6875 14.6875 1 18 1C21.3125 1 24 3.6875 24 7V9C24 9.7375 23.4042 10.3333 22.6667 10.3333C21.9292 10.3333 21.3333 9.7375 21.3333 9V7C21.3333 5.15833 19.8417 3.66667 18 3.66667ZM10.6667 17C11.4042 17 12 16.4042 12 15.6667C12 14.9292 11.4042 14.3333 10.6667 14.3333H8C7.2625 14.3333 6.66667 14.9292 6.66667 15.6667C6.66667 16.4042 7.2625 17 8 17H10.6667Z" fill="black"/>
</svg>
