<svg width="16" height="20" viewBox="0 0 16 20" fill="none" xmlns="http://www.w3.org/2000/svg">
<path d="M2.28571 3.71429C1.97143 3.71429 1.71429 3.97143 1.71429 4.28571V15.7143C1.71429 16.0286 1.97143 16.2857 2.28571 16.2857H13.7143C14.0286 16.2857 14.2857 16.0286 14.2857 15.7143V4.28571C14.2857 3.97143 14.0286 3.71429 13.7143 3.71429H2.28571ZM0 4.28571C0 3.025 1.025 2 2.28571 2H13.7143C14.975 2 16 3.025 16 4.28571V15.7143C16 16.975 14.975 18 13.7143 18H2.28571C1.025 18 0 16.975 0 15.7143V4.28571ZM4.92143 6.76071C5.20357 5.96429 5.96071 5.42857 6.80714 5.42857H8.88929C10.1357 5.42857 11.1429 6.43929 11.1429 7.68214C11.1429 8.48929 10.7107 9.23571 10.0107 9.63929L8.85714 10.3C8.85 10.7643 8.46786 11.1429 8 11.1429C7.525 11.1429 7.14286 10.7607 7.14286 10.2857V9.80357C7.14286 9.49643 7.30714 9.21429 7.575 9.06071L9.15714 8.15357C9.325 8.05714 9.42857 7.87857 9.42857 7.68571C9.42857 7.38571 9.18571 7.14643 8.88929 7.14643H6.80714C6.68571 7.14643 6.57857 7.22143 6.53929 7.33571L6.525 7.37857C6.36786 7.825 5.875 8.05714 5.43214 7.9C4.98929 7.74286 4.75357 7.25 4.91071 6.80714L4.925 6.76429L4.92143 6.76071ZM6.85714 13.4286C6.85714 13.1255 6.97755 12.8348 7.19188 12.6205C7.40621 12.4061 7.6969 12.2857 8 12.2857C8.30311 12.2857 8.59379 12.4061 8.80812 12.6205C9.02245 12.8348 9.14286 13.1255 9.14286 13.4286C9.14286 13.7317 9.02245 14.0224 8.80812 14.2367C8.59379 14.451 8.30311 14.5714 8 14.5714C7.6969 14.5714 7.40621 14.451 7.19188 14.2367C6.97755 14.0224 6.85714 13.7317 6.85714 13.4286Z" fill="#F4F4F4"/>
</svg>
