<svg width="24" height="25" viewBox="0 0 24 25" fill="none" xmlns="http://www.w3.org/2000/svg">
<path d="M3.67601 11.2999C3.84184 11.3208 4.01226 11.3333 4.18142 11.3333C4.71226 11.3333 5.21642 11.2208 5.66642 11.0208V17.9999H18.9998V11.0208C19.4498 11.2208 19.9498 11.3333 20.4748 11.3333C20.6498 11.3333 20.8164 11.3208 20.9789 11.2999C21.2248 11.2666 21.4539 11.2083 21.6664 11.1291V20.6666C21.6664 22.1374 20.4706 23.3333 18.9998 23.3333H5.66642C4.19351 23.3333 2.99976 22.1374 2.99976 20.6666V11.1291C3.21142 11.2083 3.43726 11.2666 3.67642 11.2999H3.67601Z" fill="black" fill-opacity="0.4"/>
<path d="M20.7622 2.54708L23.1497 6.325C24.3872 8.27917 23.2914 10.9917 20.9789 11.3C20.8164 11.3208 20.6497 11.3333 20.4747 11.3333C19.3914 11.3333 18.4247 10.8583 17.7622 10.125C17.0997 10.8583 16.1331 11.3333 15.0456 11.3333C13.9581 11.3333 12.9914 10.8583 12.3289 10.125C11.6664 10.8583 10.7039 11.3333 9.61225 11.3333C8.52892 11.3333 7.56225 10.8583 6.89975 10.125C6.23725 10.8583 5.27058 11.3333 4.18142 11.3333C4.01225 11.3333 3.84183 11.3208 3.67642 11.3C1.37142 10.9917 0.280791 8.275 1.5135 6.325L3.90225 2.54708C4.11475 2.20746 4.49433 2 4.89975 2H19.7664C20.1706 2 20.5497 2.20742 20.7622 2.54708Z" fill="black"/>
</svg>
