<svg width="24" height="25" viewBox="0 0 24 25" fill="none" xmlns="http://www.w3.org/2000/svg">
<path d="M12 0.375C5.37256 0.375 0 5.74756 0 12.375C0 19.0024 5.37256 24.375 12 24.375C18.6274 24.375 24 19.0024 24 12.375C24 5.74756 18.6274 0.375 12 0.375ZM17.5622 8.53597C17.3816 10.4335 16.6002 15.0381 16.2025 17.1634C16.0343 18.0626 15.7031 18.3642 15.3825 18.3936C14.6857 18.4578 14.1564 17.9331 13.4815 17.4907C12.4253 16.7984 11.8287 16.3674 10.8034 15.6918C9.61868 14.9111 10.3867 14.4821 11.0619 13.7805C11.2386 13.597 14.309 10.8042 14.3685 10.5509C14.3759 10.5192 14.383 10.4009 14.3126 10.3387C14.2423 10.2766 14.1389 10.2976 14.0641 10.3145C13.9582 10.3386 12.271 11.4538 9.00247 13.6601C8.5236 13.989 8.08982 14.1492 7.70114 14.1408C7.27268 14.1315 6.4485 13.8986 5.83577 13.6994C5.08427 13.4551 4.48698 13.326 4.539 12.9111C4.5661 12.695 4.86368 12.474 5.43174 12.2482C8.93 10.724 11.2627 9.71921 12.4299 9.23366C15.7624 7.84752 16.4549 7.60674 16.9062 7.59871C17.0055 7.59706 17.2275 7.62165 17.3712 7.73831C17.4668 7.82141 17.5278 7.93738 17.542 8.06327C17.5664 8.21959 17.5731 8.37814 17.5622 8.53597Z" fill="black"/>
</svg>
