<svg width="24" height="24" viewBox="0 0 24 24" fill="none" xmlns="http://www.w3.org/2000/svg">
<path d="M19.5 2.25C19.5 3.22969 18.8719 4.06406 18 4.37344V5.25V8.25C18 11.5641 15.3141 14.25 12 14.25C8.68594 14.25 6 11.5641 6 8.25V5.25V4.37344C5.12812 4.06406 4.5 3.22969 4.5 2.25C4.5 1.00781 5.50781 0 6.75 0C7.42031 0 8.025 0.295312 8.4375 0.764062C8.85 0.295312 9.45469 0 10.125 0C10.9078 0 11.5969 0.398438 12 1.00781C12.4031 0.398438 13.0922 0 13.875 0C14.5453 0 15.15 0.295312 15.5625 0.764062C15.975 0.295312 16.5797 0 17.25 0C18.4922 0 19.5 1.00781 19.5 2.25ZM15.75 8.25V7.5H8.25V8.25C8.25 10.3219 9.92812 12 12 12C14.0719 12 15.75 10.3219 15.75 8.25ZM9.8625 15.9656C10.2141 16.0547 10.2469 16.5422 9.90937 16.6781L7.88437 17.4891C6.74531 17.9438 6 19.0453 6 20.2734V22.5V23.625V24H5.625H4.5H2.7C2.03906 24 1.5 23.4609 1.5 22.8C1.5 20.0437 3.26719 17.7 5.73281 16.8469C5.8875 16.7906 6 16.6453 6 16.4813V15.4781C6 15.2344 6.22969 15.0562 6.46406 15.1125L9.8625 15.9609V15.9656ZM18 24H9H7.875H7.5V23.625V22.5V20.2734C7.5 19.6594 7.875 19.1062 8.44219 18.8812L17.4844 15.2625C17.7328 15.1641 18 15.3469 18 15.6094V16.4813C18 16.6453 18.1078 16.7906 18.2672 16.8469C20.7328 17.7 22.5 20.0437 22.5 22.8C22.5 23.4609 21.9609 24 21.3 24H18ZM12 20.25C12 20.0511 11.921 19.8603 11.7803 19.7197C11.6397 19.579 11.4489 19.5 11.25 19.5C11.0511 19.5 10.8603 19.579 10.7197 19.7197C10.579 19.8603 10.5 20.0511 10.5 20.25C10.5 20.4489 10.579 20.6397 10.7197 20.7803C10.8603 20.921 11.0511 21 11.25 21C11.4489 21 11.6397 20.921 11.7803 20.7803C11.921 20.6397 12 20.4489 12 20.25ZM15.75 21C15.9489 21 16.1397 20.921 16.2803 20.7803C16.421 20.6397 16.5 20.4489 16.5 20.25C16.5 20.0511 16.421 19.8603 16.2803 19.7197C16.1397 19.579 15.9489 19.5 15.75 19.5C15.5511 19.5 15.3603 19.579 15.2197 19.7197C15.079 19.8603 15 20.0511 15 20.25C15 20.4489 15.079 20.6397 15.2197 20.7803C15.3603 20.921 15.5511 21 15.75 21Z" fill="black"/>
</svg>
