<svg width="22" height="22" viewBox="0 0 22 22" fill="none" xmlns="http://www.w3.org/2000/svg">
<path fill-rule="evenodd" clip-rule="evenodd" d="M6.85975 0L15.7418 0C17.8921 0 18.6719 0.223891 19.458 0.644311C20.2441 1.06473 20.8611 1.68168 21.2815 2.4678C21.7019 3.25392 21.9258 4.03367 21.9258 6.18397V15.066C21.9258 17.2163 21.7019 17.9961 21.2815 18.7822C20.8611 19.5683 20.2441 20.1853 19.458 20.6057C18.6719 21.0261 17.8921 21.25 15.7418 21.25H6.85975C4.70945 21.25 3.9297 21.0261 3.14358 20.6057C2.35746 20.1853 1.74051 19.5683 1.32009 18.7822C0.899672 17.9961 0.675781 17.2163 0.675781 15.066L0.675781 6.18397C0.675781 4.03367 0.899672 3.25392 1.32009 2.4678C1.74051 1.68168 2.35746 1.06473 3.14358 0.644311C3.9297 0.223891 4.70945 0 6.85975 0Z" fill="url(#paint0_linear_534_9179)"/>
<path d="M17.4406 12.9997L17.4519 16.4474C17.4575 16.6283 17.3089 16.7758 17.1268 16.7758H13.6794C13.388 16.7758 13.2394 16.4251 13.444 16.2192L16.8773 12.7715C17.0847 12.5628 17.4406 12.7075 17.4406 12.9997ZM16.9398 4.97941C17.6228 5.66222 17.6228 6.76725 16.9398 7.44709L8.12407 16.2637C7.44409 16.9465 6.33576 16.9465 5.65578 16.2637C4.97281 15.5808 4.97281 14.4758 5.65578 13.793L14.4715 4.97941C15.1545 4.29658 16.2598 4.29658 16.9398 4.97941ZM8.91635 4.46729C9.20764 4.46729 9.35609 4.8179 9.15162 5.02382L5.71774 8.47154C5.51047 8.68024 5.15476 8.53554 5.15476 8.24336L5.14355 4.79564C5.14355 4.61477 5.2892 4.46729 5.47406 4.46729H8.91635Z" fill="black"/>
<path d="M17.4406 12.9997L17.4519 16.4474C17.4575 16.6283 17.3089 16.7758 17.1268 16.7758H13.6794C13.388 16.7758 13.2394 16.4251 13.444 16.2192L16.8773 12.7715C17.0847 12.5628 17.4406 12.7075 17.4406 12.9997ZM16.9398 4.97941C17.6228 5.66222 17.6228 6.76725 16.9398 7.44709L8.12407 16.2637C7.44409 16.9465 6.33576 16.9465 5.65578 16.2637C4.97281 15.5808 4.97281 14.4758 5.65578 13.793L14.4715 4.97941C15.1545 4.29658 16.2598 4.29658 16.9398 4.97941ZM8.91635 4.46729C9.20764 4.46729 9.35609 4.8179 9.15162 5.02382L5.71774 8.47154C5.51047 8.68024 5.15476 8.53554 5.15476 8.24336L5.14355 4.79564C5.14355 4.61477 5.2892 4.46729 5.47406 4.46729H8.91635Z" fill="black"/>
<defs>
<linearGradient id="paint0_linear_534_9179" x1="0.675781" y1="0" x2="2125.68" y2="2125" gradientUnits="userSpaceOnUse">
<stop stop-color="#FFEE00"/>
<stop offset="1" stop-color="#FFCE00"/>
</linearGradient>
</defs>
</svg>
