<svg width="60" height="60" viewBox="0 0 60 60" fill="none" xmlns="http://www.w3.org/2000/svg">
<circle cx="30" cy="30" r="30" fill="black"/>
<g clip-path="url(#clip0_357_9933)">
<path d="M34.4005 24.1964C34.3568 24.071 34.338 23.9394 34.338 23.8078C34.3505 23.6762 34.3818 23.5446 34.3818 23.4255C34.4943 23.3065 34.5693 23.1999 34.6693 23.1122L42.0943 16.3802C42.288 16.2022 42.5505 16.1095 42.813 16.1226C43.0818 16.1358 43.3318 16.2542 43.5068 16.4516C43.6318 16.6491 43.7755 16.9091 43.763 17.1749C43.7505 17.4406 43.6318 17.69 43.3818 17.8686L36.013 24.6037C35.9193 24.6915 35.8005 24.7604 35.6818 24.8043C35.5568 24.8481 35.4255 24.867 35.2943 24.8607C35.163 24.8544 35.0318 24.8231 34.913 24.7667C34.7943 24.7103 34.688 24.6288 34.6005 24.5285C34.513 24.4345 34.4443 24.3217 34.4005 24.1964ZM22.113 34.75C21.988 34.75 21.8193 34.6748 21.7818 34.5808L15.3824 27.9628C13.7511 26.3272 12.6455 24.234 12.2093 21.9653C11.7729 19.6936 12.0255 17.3434 12.9343 15.217C13.063 14.9162 13.2636 14.6511 13.518 14.4458C13.7724 14.2404 14.0736 14.1006 14.3943 14.0386C14.7155 13.9767 15.0461 13.9945 15.3586 14.0906C15.6711 14.1866 15.9555 14.358 16.1861 14.5897L28.8943 27.5492C29.0693 27.731 29.1693 27.9691 29.1693 28.2198C29.1693 28.4705 29.0693 28.7086 28.8943 28.8904C28.7943 28.9906 28.6818 29.0658 28.5505 29.1222C28.4255 29.1724 28.288 29.2037 28.1505 29.2037C28.0068 29.2037 27.8693 29.1724 27.7443 29.1222C27.613 29.0658 27.4443 28.9906 27.4005 28.8904L14.7661 16.0054C14.0111 17.7633 13.8011 19.7086 14.1643 21.5893C14.5268 23.4694 15.4455 25.1928 16.8005 26.5402L23.2255 33.1895C23.363 33.3274 23.4568 33.5091 23.488 33.7034C23.5255 33.8977 23.5005 34.0982 23.4255 34.28C23.3505 34.4617 23.2193 34.6121 23.0568 34.7249C22.888 34.8315 22.6943 34.8879 22.4443 34.8879C22.3693 34.8879 22.2318 34.8565 22.113 34.75ZM37.4943 27.4364C37.4005 27.2923 37.3193 27.2421 37.263 27.1231C37.2068 27.004 37.1755 26.8724 37.1693 26.7408C37.163 26.6092 37.1818 26.4776 37.2255 26.3522C37.2693 26.2332 37.338 26.1141 37.4255 26.0201L44.1443 18.5762C44.2318 18.479 44.338 18.3994 44.463 18.343C44.5818 18.2866 44.7068 18.254 44.838 18.2478C44.9693 18.2409 45.1005 18.2609 45.2255 18.3048C45.3505 18.3493 45.463 18.4176 45.5068 18.506C45.6568 18.595 45.738 18.7015 45.7943 18.8206C45.8505 18.9396 45.8818 19.0687 45.888 19.2003C45.8943 19.332 45.8193 19.4642 45.8318 19.5883C45.788 19.7124 45.7193 19.8264 45.6318 19.9242L38.913 27.3675C38.8255 27.4615 38.7193 27.543 38.6005 27.5994C38.4818 27.6558 38.3505 27.6871 38.2193 27.6934C38.088 27.6996 37.9568 27.6808 37.838 27.637C37.713 27.5931 37.6005 27.5242 37.4443 27.4364H37.4943ZM47.5818 20.7809C47.8005 20.9376 47.9443 21.1694 47.988 21.4264C48.0318 21.6896 47.9693 21.9027 47.8193 22.1721L42.6005 29.4418C42.163 30.15 41.5755 30.7516 40.8193 31.1966C40.1755 31.6478 39.3818 31.9236 38.5568 32.0176C38.3568 32.0364 38.1568 32.0489 37.9568 32.0489C36.4255 32.0426 34.9568 31.4473 33.863 30.3756L33.4755 29.9871L17.7186 45.7861C17.5299 45.9679 17.2774 46.0682 17.0149 46.0682C16.753 46.0682 16.5018 45.9052 16.3168 45.7736C16.1311 45.5856 16.0261 45.3349 16.0236 45.0717C16.0218 44.8085 16.1224 44.5578 16.3043 44.3698L32.063 28.5707L31.6818 28.1885C31.0818 27.568 30.5693 26.8285 30.3443 26.0138C30.0568 25.1991 29.9568 24.3343 30.0443 23.4757C30.138 22.6422 30.4193 21.84 30.8193 21.1318C31.3255 20.4237 31.9318 19.8277 32.6443 19.3909L39.8443 14.1885C40.0068 14.0332 40.3255 13.9702 40.588 14.0132C40.8505 14.0563 41.088 14.2019 41.2443 14.4181C41.3943 14.6342 41.4568 14.9037 41.4193 15.1663C41.3193 15.4289 41.2255 15.6639 41.013 15.8187L33.763 21.0504C33.2818 21.3198 32.8818 21.7021 32.5755 22.1659C32.2755 22.6234 32.0818 23.1435 32.0193 23.695C31.963 24.2528 32.0255 24.8168 32.213 25.3495C32.3943 25.8822 32.6943 26.3648 33.0818 26.7721L34.1255 27.8187C34.1443 27.8312 34.163 27.8438 34.1818 27.8563C34.1943 27.8688 34.2005 27.8876 34.213 27.9064L35.263 28.9593C35.6693 29.2977 36.1505 29.6549 36.6818 29.8367C37.213 30.0184 37.7818 30.0811 38.338 30.0184C38.8193 29.962 39.388 29.774 39.838 29.4795C40.288 29.1849 40.6693 28.7901 40.938 28.3263L46.188 21.0065C46.263 20.9 46.363 20.8122 46.4755 20.7433C46.588 20.6681 46.713 20.6242 46.838 20.6054C46.9693 20.5803 47.1068 20.5866 47.2318 20.6179C47.363 20.6493 47.4818 20.6493 47.588 20.7809H47.5818ZM45.7005 44.3761C45.8818 44.5703 45.9818 44.821 45.9818 45.0278C45.9755 45.3475 45.8693 45.5981 45.6318 45.7861C45.5005 45.9679 45.1943 46.0744 44.988 46.0744C44.7255 46.0807 44.4755 45.9804 44.2818 45.7987L33.2818 34.7688C33.1005 34.5745 33.0005 34.3238 33.0068 34.0606C33.0068 33.7974 33.113 33.5467 33.2943 33.3587C33.4818 33.1206 33.7318 33.0704 33.9943 33.0642C34.2568 33.0642 34.5068 33.1644 34.7005 33.3462L45.7005 44.3761Z" fill="url(#paint0_linear_357_9933)"/>
</g>
<defs>
<linearGradient id="paint0_linear_357_9933" x1="12.001" y1="30.0373" x2="48.0017" y2="30.0373" gradientUnits="userSpaceOnUse">
<stop stop-color="#A071D0"/>
<stop offset="1" stop-color="#7CD0E3"/>
</linearGradient>
<clipPath id="clip0_357_9933">
<rect width="36" height="32.087" fill="white" transform="translate(12 14)"/>
</clipPath>
</defs>
</svg>
