<svg width="189" height="42" viewBox="0 0 189 42" fill="none" xmlns="http://www.w3.org/2000/svg">
<path d="M20.3652 33H17.002V12.4102H10.4805V33H7.36328V9.49805H30.0449V33H26.7637V12.4102H20.3652V33Z" fill="white"/>
<path d="M39.5917 25.4531V30.0469H49.3124V33H36.3105V14.502H49.2304V25.4531H39.5917ZM39.5917 22.418H46.2363V17.5371H39.5917V22.418Z" fill="white"/>
<path d="M58.6131 9.45703L55.619 9.49805V33H58.7362V18.3164L66.16 33H68.6209V9.49805H65.3397V22.5L58.6131 9.45703Z" fill="white"/>
<path d="M87.9295 14.502V33H74.9275V14.502H78.0447V30.0469H84.6482V14.502H87.9295Z" fill="white"/>
<path d="M108.509 33H104.408L98.6657 22.5H97.3532L97.3942 33H94.236V9.49805H106.418V22.5H102.808L108.509 33ZM103.136 19.5469V12.4102H97.3532V19.5469H103.136Z" fill="white"/>
<path d="M115.267 12.4922H112.273V9.49805H121.173V12.4922H118.384V29.9648H121.379V33H112.519V29.9648H115.267V12.4922Z" fill="white"/>
<path d="M171.204 33H167.841V12.4102H161.32V33H158.202V9.49805H180.884V33H177.603V12.4102H171.204V33Z" fill="white"/>
<path d="M20.3652 33H17.002V12.4102H10.4805V33H7.36328V9.49805H30.0449V33H26.7637V12.4102H20.3652V33Z" stroke="white"/>
<path d="M39.5917 25.4531V30.0469H49.3124V33H36.3105V14.502H49.2304V25.4531H39.5917ZM39.5917 22.418H46.2363V17.5371H39.5917V22.418Z" stroke="white"/>
<path d="M58.6131 9.45703L55.619 9.49805V33H58.7362V18.3164L66.16 33H68.6209V9.49805H65.3397V22.5L58.6131 9.45703Z" stroke="white"/>
<path d="M87.9295 14.502V33H74.9275V14.502H78.0447V30.0469H84.6482V14.502H87.9295Z" stroke="white"/>
<path d="M108.509 33H104.408L98.6657 22.5H97.3532L97.3942 33H94.236V9.49805H106.418V22.5H102.808L108.509 33ZM103.136 19.5469V12.4102H97.3532V19.5469H103.136Z" stroke="white"/>
<path d="M115.267 12.4922H112.273V9.49805H121.173V12.4922H118.384V29.9648H121.379V33H112.519V29.9648H115.267V12.4922Z" stroke="white"/>
<path d="M171.204 33H167.841V12.4102H161.32V33H158.202V9.49805H180.884V33H177.603V12.4102H171.204V33Z" stroke="white"/>
<path fill-rule="evenodd" clip-rule="evenodd" d="M130 9C128.895 9 128 9.89543 128 11V17C128 18.1046 128.895 19 130 19H136C137.105 19 138 18.1046 138 17V11C138 9.89543 137.105 9 136 9H130ZM131 16V12H135V16H131Z" fill="#A071D0"/>
<path fill-rule="evenodd" clip-rule="evenodd" d="M130 23C128.895 23 128 23.8954 128 25V31C128 32.1046 128.895 33 130 33H136C137.105 33 138 32.1046 138 31V25C138 23.8954 137.105 23 136 23H130ZM131 30V26H135V30H131Z" fill="#A071D0"/>
<path fill-rule="evenodd" clip-rule="evenodd" d="M142 11C142 9.89543 142.895 9 144 9H150C151.105 9 152 9.89543 152 11V17C152 18.1046 151.105 19 150 19H144C142.895 19 142 18.1046 142 17V11ZM145 16V12H149V16H145Z" fill="#A071D0"/>
<path d="M142 23V25H145V27H147V23H142Z" fill="#A071D0"/>
<path d="M150 23H152V27H150V23Z" fill="#A071D0"/>
<path d="M142 28V33H147V31H144V28H142Z" fill="#A071D0"/>
<path d="M152 31V29H148V31H152Z" fill="#A071D0"/>
<path d="M188.5 38C188.5 39.6569 187.157 41 185.5 41L175 41C174.172 41 173.5 40.3284 173.5 39.5C173.5 38.6716 174.172 38 175 38L182.5 38C184.157 38 185.5 36.6569 185.5 35L185.5 27.5C185.5 26.6716 186.172 26 187 26C187.828 26 188.5 26.6716 188.5 27.5L188.5 38Z" fill="white"/>
<path d="M1.31134e-07 5C5.87108e-08 3.34315 1.34315 2 3 2L13.5 2C14.3284 2 15 2.67157 15 3.5C15 4.32843 14.3284 5 13.5 5L6 5C4.34315 5 3 6.34315 3 8L3 15.5C3 16.3284 2.32843 17 1.5 17C0.671574 17 6.26315e-07 16.3284 5.90104e-07 15.5L1.31134e-07 5Z" fill="white"/>
</svg>
