<svg width="96" height="96" viewBox="0 0 96 96" fill="none" xmlns="http://www.w3.org/2000/svg">
<path d="M95.9388 49.2141C94.9436 71.1034 77.0326 89.4294 50.166 95.029C23.2994 100.629 3.39778 81.7936 0.412674 44.1235C-2.57243 6.45355 10.3632 -3.18812 48.1759 0.853936C85.9887 4.89599 96.9341 27.3248 95.9388 49.2141Z" fill="url(#paint0_linear_285_8381)"/>
<rect x="20" y="19" width="55" height="55" fill="white"/>
<path d="M41.4147 32.3387H34.4147V39.3387H41.4147V32.3387Z" fill="#373737"/>
<path d="M41.4147 51.3387H34.4147V58.3387H41.4147V51.3387Z" fill="#373737"/>
<path d="M60.4147 32.3387H53.4147V39.3387H60.4147V32.3387Z" fill="#373737"/>
<path fill-rule="evenodd" clip-rule="evenodd" d="M22.4147 14.3387C19.6533 14.3387 17.4147 16.5773 17.4147 19.3387V72.3387C17.4147 75.1002 19.6533 77.3387 22.4147 77.3387H72.4147C75.1762 77.3387 77.4147 75.1002 77.4147 72.3387V19.3387C77.4147 16.5773 75.1762 14.3387 72.4147 14.3387H22.4147ZM67.4147 22.3387C69.0716 22.3387 70.4147 23.6819 70.4147 25.3387V35.8387C70.4147 36.6672 69.7432 37.3387 68.9147 37.3387C68.0863 37.3387 67.4147 36.6672 67.4147 35.8387V28.3387C67.4147 26.6819 66.0716 25.3387 64.4147 25.3387L56.9147 25.3387C56.0863 25.3387 55.4147 24.6672 55.4147 23.8387C55.4147 23.0103 56.0863 22.3387 56.9147 22.3387H67.4147ZM70.4147 65.3387C70.4147 66.9956 69.0716 68.3387 67.4147 68.3387H56.9147C56.0863 68.3387 55.4147 67.6672 55.4147 66.8387C55.4147 66.0103 56.0863 65.3387 56.9147 65.3387H64.4147C66.0716 65.3387 67.4147 63.9956 67.4147 62.3387V54.8387C67.4147 54.0103 68.0863 53.3387 68.9147 53.3387C69.7432 53.3387 70.4147 54.0103 70.4147 54.8387V65.3387ZM27.4147 68.3387C25.7579 68.3387 24.4147 66.9956 24.4147 65.3387L24.4148 54.8387C24.4148 54.0103 25.0863 53.3387 25.9148 53.3387C26.7432 53.3387 27.4148 54.0103 27.4148 54.8387L27.4148 62.3387C27.4148 63.9956 28.7579 65.3387 30.4147 65.3387L37.9147 65.3387C38.7432 65.3387 39.4147 66.0103 39.4147 66.8387C39.4147 67.6672 38.7432 68.3387 37.9147 68.3387L27.4147 68.3387ZM24.4147 25.3387C24.4147 23.6819 25.7579 22.3387 27.4147 22.3387H37.9147C38.7432 22.3387 39.4147 23.0103 39.4147 23.8387C39.4147 24.6672 38.7432 25.3387 37.9147 25.3387H30.4147C28.7579 25.3387 27.4147 26.6819 27.4147 28.3387V35.8387C27.4147 36.6672 26.7432 37.3387 25.9147 37.3387C25.0863 37.3387 24.4147 36.6672 24.4147 35.8387V25.3387ZM34.4147 29.3387C32.7579 29.3387 31.4147 30.6819 31.4147 32.3387V39.3387C31.4147 40.9956 32.7579 42.3387 34.4147 42.3387H41.4147C43.0716 42.3387 44.4147 40.9956 44.4147 39.3387V32.3387C44.4147 30.6819 43.0716 29.3387 41.4147 29.3387H34.4147ZM34.4147 48.3387C32.7579 48.3387 31.4147 49.6819 31.4147 51.3387V58.3387C31.4147 59.9956 32.7579 61.3387 34.4147 61.3387H41.4147C43.0716 61.3387 44.4147 59.9956 44.4147 58.3387V51.3387C44.4147 49.6819 43.0716 48.3387 41.4147 48.3387H34.4147ZM53.4147 29.3387C51.7579 29.3387 50.4147 30.6819 50.4147 32.3387V39.3387C50.4147 40.9956 51.7579 42.3387 53.4147 42.3387H60.4147C62.0716 42.3387 63.4147 40.9956 63.4147 39.3387V32.3387C63.4147 30.6819 62.0716 29.3387 60.4147 29.3387H53.4147Z" fill="#373737"/>
<path d="M14.4147 21.3387C14.4147 20.7865 14.8625 20.3387 15.4147 20.3387H19.4147C19.967 20.3387 20.4147 20.7865 20.4147 21.3387V22.3387C20.4147 22.891 19.967 23.3387 19.4147 23.3387H15.4147C14.8625 23.3387 14.4147 22.891 14.4147 22.3387V21.3387Z" fill="#696969"/>
<path d="M14.4147 29.3387C14.4147 28.7865 14.8625 28.3387 15.4147 28.3387H19.4147C19.967 28.3387 20.4147 28.7865 20.4147 29.3387V30.3387C20.4147 30.891 19.967 31.3387 19.4147 31.3387H15.4147C14.8625 31.3387 14.4147 30.891 14.4147 30.3387V29.3387Z" fill="#696969"/>
<path d="M14.4147 37.3387C14.4147 36.7865 14.8625 36.3387 15.4147 36.3387H19.4147C19.967 36.3387 20.4147 36.7865 20.4147 37.3387V38.3387C20.4147 38.891 19.967 39.3387 19.4147 39.3387H15.4147C14.8625 39.3387 14.4147 38.891 14.4147 38.3387V37.3387Z" fill="#696969"/>
<path d="M14.4147 45.3387C14.4147 44.7865 14.8625 44.3387 15.4147 44.3387H19.4147C19.967 44.3387 20.4147 44.7865 20.4147 45.3387V46.3387C20.4147 46.891 19.967 47.3387 19.4147 47.3387H15.4147C14.8625 47.3387 14.4147 46.891 14.4147 46.3387V45.3387Z" fill="#696969"/>
<path d="M14.4147 53.3387C14.4147 52.7865 14.8625 52.3387 15.4147 52.3387H19.4147C19.967 52.3387 20.4147 52.7865 20.4147 53.3387V54.3387C20.4147 54.891 19.967 55.3387 19.4147 55.3387H15.4147C14.8625 55.3387 14.4147 54.891 14.4147 54.3387V53.3387Z" fill="#696969"/>
<path d="M14.4147 61.3387C14.4147 60.7865 14.8625 60.3387 15.4147 60.3387H19.4147C19.967 60.3387 20.4147 60.7865 20.4147 61.3387V62.3387C20.4147 62.891 19.967 63.3387 19.4147 63.3387H15.4147C14.8625 63.3387 14.4147 62.891 14.4147 62.3387V61.3387Z" fill="#696969"/>
<path d="M14.4147 69.3387C14.4147 68.7865 14.8625 68.3387 15.4147 68.3387H19.4147C19.967 68.3387 20.4147 68.7865 20.4147 69.3387V70.3387C20.4147 70.891 19.967 71.3387 19.4147 71.3387H15.4147C14.8625 71.3387 14.4147 70.891 14.4147 70.3387V69.3387Z" fill="#696969"/>
<path d="M57.8668 61.3387H55.9391V49.9496H52.2013V61.3387H50.4147V48.3387H63.4147V61.3387H61.5341V49.9496H57.8668V61.3387Z" fill="#A171D0" stroke="#A171D0"/>
<defs>
<linearGradient id="paint0_linear_285_8381" x1="-1.78814e-07" y1="48" x2="96" y2="48" gradientUnits="userSpaceOnUse">
<stop stop-color="#A071D0"/>
<stop offset="1" stop-color="#7CD0E3"/>
</linearGradient>
</defs>
</svg>
