<svg width="64" height="64" viewBox="0 0 64 64" fill="none" xmlns="http://www.w3.org/2000/svg">
<rect x="3.41475" y="0.338745" width="60" height="63" rx="5" fill="#373737"/>
<path d="M0.414749 7.33875C0.414749 6.78646 0.862464 6.33875 1.41475 6.33875H5.41475C5.96703 6.33875 6.41475 6.78646 6.41475 7.33875V8.33875C6.41475 8.89103 5.96703 9.33875 5.41475 9.33875H1.41475C0.862465 9.33875 0.414749 8.89103 0.414749 8.33875V7.33875Z" fill="#696969"/>
<path d="M0.414749 15.3387C0.414749 14.7865 0.862464 14.3387 1.41475 14.3387H5.41475C5.96703 14.3387 6.41475 14.7865 6.41475 15.3387V16.3387C6.41475 16.891 5.96703 17.3387 5.41475 17.3387H1.41475C0.862465 17.3387 0.414749 16.891 0.414749 16.3387V15.3387Z" fill="#696969"/>
<path d="M0.414749 23.3387C0.414749 22.7865 0.862464 22.3387 1.41475 22.3387H5.41475C5.96703 22.3387 6.41475 22.7865 6.41475 23.3387V24.3387C6.41475 24.891 5.96703 25.3387 5.41475 25.3387H1.41475C0.862465 25.3387 0.414749 24.891 0.414749 24.3387V23.3387Z" fill="#696969"/>
<path d="M0.414749 31.3387C0.414749 30.7865 0.862464 30.3387 1.41475 30.3387H5.41475C5.96703 30.3387 6.41475 30.7865 6.41475 31.3387V32.3387C6.41475 32.891 5.96703 33.3387 5.41475 33.3387H1.41475C0.862465 33.3387 0.414749 32.891 0.414749 32.3387V31.3387Z" fill="#696969"/>
<path d="M0.414749 39.3387C0.414749 38.7865 0.862464 38.3387 1.41475 38.3387H5.41475C5.96703 38.3387 6.41475 38.7865 6.41475 39.3387V40.3387C6.41475 40.891 5.96703 41.3387 5.41475 41.3387H1.41475C0.862465 41.3387 0.414749 40.891 0.414749 40.3387V39.3387Z" fill="#696969"/>
<path d="M0.414749 47.3387C0.414749 46.7865 0.862464 46.3387 1.41475 46.3387H5.41475C5.96703 46.3387 6.41475 46.7865 6.41475 47.3387V48.3387C6.41475 48.891 5.96703 49.3387 5.41475 49.3387H1.41475C0.862465 49.3387 0.414749 48.891 0.414749 48.3387V47.3387Z" fill="#696969"/>
<path d="M0.414749 55.3387C0.414749 54.7865 0.862464 54.3387 1.41475 54.3387H5.41475C5.96703 54.3387 6.41475 54.7865 6.41475 55.3387V56.3387C6.41475 56.891 5.96703 57.3387 5.41475 57.3387H1.41475C0.862465 57.3387 0.414749 56.891 0.414749 56.3387V55.3387Z" fill="#696969"/>
<g filter="url(#filter0_d_29_3)">
<path d="M43.8668 47.3387H41.9391V35.9496H38.2013V47.3387H36.4147V34.3387H49.4147V47.3387H47.5341V35.9496H43.8668V47.3387Z" fill="#A171D0" stroke="#A171D0"/>
<path d="M56.4147 51.3387C56.4147 52.9956 55.0716 54.3387 53.4147 54.3387L42.9147 54.3387C42.0863 54.3387 41.4147 53.6672 41.4147 52.8387C41.4147 52.0103 42.0863 51.3387 42.9147 51.3387L50.4147 51.3387C52.0716 51.3387 53.4147 49.9956 53.4147 48.3387L53.4147 40.8387C53.4147 40.0103 54.0863 39.3387 54.9147 39.3387C55.7431 39.3387 56.4147 40.0103 56.4147 40.8387L56.4147 51.3387Z" fill="#EBEBEB"/>
<path d="M53.4147 8.33875C55.0716 8.33875 56.4147 9.68189 56.4147 11.3387L56.4147 21.8387C56.4147 22.6672 55.7431 23.3387 54.9147 23.3387C54.0863 23.3387 53.4147 22.6672 53.4147 21.8387L53.4147 14.3387C53.4147 12.6819 52.0716 11.3387 50.4147 11.3387L42.9147 11.3387C42.0863 11.3387 41.4147 10.6672 41.4147 9.83875C41.4147 9.01032 42.0863 8.33875 42.9147 8.33875L53.4147 8.33875Z" fill="#EBEBEB"/>
<path d="M13.4147 54.3387C11.7579 54.3387 10.4147 52.9956 10.4147 51.3387L10.4148 40.8387C10.4148 40.0103 11.0863 39.3387 11.9148 39.3387C12.7432 39.3387 13.4148 40.0103 13.4148 40.8387L13.4148 48.3387C13.4147 49.9956 14.7579 51.3387 16.4147 51.3387L23.9147 51.3387C24.7432 51.3387 25.4147 52.0103 25.4147 52.8387C25.4147 53.6672 24.7432 54.3387 23.9147 54.3387L13.4147 54.3387Z" fill="#EBEBEB"/>
<path d="M10.4147 11.3387C10.4147 9.68189 11.7579 8.33875 13.4147 8.33875L23.9147 8.33875C24.7432 8.33875 25.4147 9.01032 25.4147 9.83875C25.4147 10.6672 24.7432 11.3387 23.9147 11.3387L16.4147 11.3387C14.7579 11.3387 13.4147 12.6819 13.4147 14.3387L13.4147 21.8387C13.4147 22.6672 12.7432 23.3387 11.9147 23.3387C11.0863 23.3387 10.4147 22.6672 10.4147 21.8387L10.4147 11.3387Z" fill="#EBEBEB"/>
<rect x="18.9147" y="16.8387" width="10" height="10" rx="1.5" stroke="#EBEBEB" stroke-width="3"/>
<rect x="18.9147" y="35.8387" width="10" height="10" rx="1.5" stroke="#EBEBEB" stroke-width="3"/>
<rect x="37.9147" y="16.8387" width="10" height="10" rx="1.5" stroke="#EBEBEB" stroke-width="3"/>
</g>
<defs>
<filter id="filter0_d_29_3" x="6.41475" y="8.33875" width="54" height="55" filterUnits="userSpaceOnUse" color-interpolation-filters="sRGB">
<feFlood flood-opacity="0" result="BackgroundImageFix"/>
<feColorMatrix in="SourceAlpha" type="matrix" values="0 0 0 0 0 0 0 0 0 0 0 0 0 0 0 0 0 0 127 0" result="hardAlpha"/>
<feOffset dy="5"/>
<feGaussianBlur stdDeviation="2"/>
<feComposite in2="hardAlpha" operator="out"/>
<feColorMatrix type="matrix" values="0 0 0 0 0 0 0 0 0 0 0 0 0 0 0 0 0 0 1 0"/>
<feBlend mode="normal" in2="BackgroundImageFix" result="effect1_dropShadow_29_3"/>
<feBlend mode="normal" in="SourceGraphic" in2="effect1_dropShadow_29_3" result="shape"/>
</filter>
</defs>
</svg>
