<svg width="64" height="64" viewBox="0 0 64 64" fill="none" xmlns="http://www.w3.org/2000/svg">
<rect x="6" y="5" width="55" height="55" fill="white"/>
<path d="M27.4147 18.3387H20.4147V25.3387H27.4147V18.3387Z" fill="#373737"/>
<path d="M27.4147 37.3387H20.4147V44.3387H27.4147V37.3387Z" fill="#373737"/>
<path d="M46.4147 18.3387H39.4147V25.3387H46.4147V18.3387Z" fill="#373737"/>
<path fill-rule="evenodd" clip-rule="evenodd" d="M8.41473 0.338745C5.65331 0.338745 3.41473 2.57732 3.41473 5.33874V58.3387C3.41473 61.1002 5.65331 63.3387 8.41473 63.3387H58.4147C61.1762 63.3387 63.4147 61.1002 63.4147 58.3387V5.33875C63.4147 2.57732 61.1762 0.338745 58.4147 0.338745H8.41473ZM53.4147 8.33875C55.0716 8.33875 56.4147 9.68189 56.4147 11.3387V21.8387C56.4147 22.6672 55.7431 23.3387 54.9147 23.3387C54.0863 23.3387 53.4147 22.6672 53.4147 21.8387V14.3387C53.4147 12.6819 52.0716 11.3387 50.4147 11.3387L42.9147 11.3387C42.0863 11.3387 41.4147 10.6672 41.4147 9.83875C41.4147 9.01032 42.0863 8.33875 42.9147 8.33875H53.4147ZM56.4147 51.3387C56.4147 52.9956 55.0716 54.3387 53.4147 54.3387H42.9147C42.0863 54.3387 41.4147 53.6672 41.4147 52.8387C41.4147 52.0103 42.0863 51.3387 42.9147 51.3387H50.4147C52.0716 51.3387 53.4147 49.9956 53.4147 48.3387V40.8387C53.4147 40.0103 54.0863 39.3387 54.9147 39.3387C55.7431 39.3387 56.4147 40.0103 56.4147 40.8387V51.3387ZM13.4147 54.3387C11.7579 54.3387 10.4147 52.9956 10.4147 51.3387L10.4147 40.8387C10.4147 40.0103 11.0863 39.3387 11.9147 39.3387C12.7432 39.3387 13.4147 40.0103 13.4147 40.8387L13.4147 48.3387C13.4147 49.9956 14.7579 51.3387 16.4147 51.3387L23.9147 51.3387C24.7432 51.3387 25.4147 52.0103 25.4147 52.8387C25.4147 53.6672 24.7432 54.3387 23.9147 54.3387L13.4147 54.3387ZM10.4147 11.3387C10.4147 9.68189 11.7579 8.33875 13.4147 8.33875H23.9147C24.7432 8.33875 25.4147 9.01032 25.4147 9.83875C25.4147 10.6672 24.7432 11.3387 23.9147 11.3387H16.4147C14.7579 11.3387 13.4147 12.6819 13.4147 14.3387V21.8387C13.4147 22.6672 12.7432 23.3387 11.9147 23.3387C11.0863 23.3387 10.4147 22.6672 10.4147 21.8387V11.3387ZM20.4147 15.3387C18.7579 15.3387 17.4147 16.6819 17.4147 18.3387V25.3387C17.4147 26.9956 18.7579 28.3387 20.4147 28.3387H27.4147C29.0716 28.3387 30.4147 26.9956 30.4147 25.3387V18.3387C30.4147 16.6819 29.0716 15.3387 27.4147 15.3387H20.4147ZM20.4147 34.3387C18.7579 34.3387 17.4147 35.6819 17.4147 37.3387V44.3387C17.4147 45.9956 18.7579 47.3387 20.4147 47.3387H27.4147C29.0716 47.3387 30.4147 45.9956 30.4147 44.3387V37.3387C30.4147 35.6819 29.0716 34.3387 27.4147 34.3387H20.4147ZM39.4147 15.3387C37.7579 15.3387 36.4147 16.6819 36.4147 18.3387V25.3387C36.4147 26.9956 37.7579 28.3387 39.4147 28.3387H46.4147C48.0716 28.3387 49.4147 26.9956 49.4147 25.3387V18.3387C49.4147 16.6819 48.0716 15.3387 46.4147 15.3387H39.4147Z" fill="#373737"/>
<path d="M0.414734 7.33875C0.414734 6.78646 0.862449 6.33875 1.41473 6.33875H5.41473C5.96702 6.33875 6.41473 6.78646 6.41473 7.33875V8.33875C6.41473 8.89103 5.96702 9.33875 5.41473 9.33875H1.41473C0.862449 9.33875 0.414734 8.89103 0.414734 8.33875V7.33875Z" fill="#696969"/>
<path d="M0.414734 15.3387C0.414734 14.7865 0.862449 14.3387 1.41473 14.3387H5.41473C5.96702 14.3387 6.41473 14.7865 6.41473 15.3387V16.3387C6.41473 16.891 5.96702 17.3387 5.41473 17.3387H1.41473C0.862449 17.3387 0.414734 16.891 0.414734 16.3387V15.3387Z" fill="#696969"/>
<path d="M0.414734 23.3387C0.414734 22.7865 0.862449 22.3387 1.41473 22.3387H5.41473C5.96702 22.3387 6.41473 22.7865 6.41473 23.3387V24.3387C6.41473 24.891 5.96702 25.3387 5.41473 25.3387H1.41473C0.862449 25.3387 0.414734 24.891 0.414734 24.3387V23.3387Z" fill="#696969"/>
<path d="M0.414734 31.3387C0.414734 30.7865 0.862449 30.3387 1.41473 30.3387H5.41473C5.96702 30.3387 6.41473 30.7865 6.41473 31.3387V32.3387C6.41473 32.891 5.96702 33.3387 5.41473 33.3387H1.41473C0.862449 33.3387 0.414734 32.891 0.414734 32.3387V31.3387Z" fill="#696969"/>
<path d="M0.414734 39.3387C0.414734 38.7865 0.862449 38.3387 1.41473 38.3387H5.41473C5.96702 38.3387 6.41473 38.7865 6.41473 39.3387V40.3387C6.41473 40.891 5.96702 41.3387 5.41473 41.3387H1.41473C0.862449 41.3387 0.414734 40.891 0.414734 40.3387V39.3387Z" fill="#696969"/>
<path d="M0.414734 47.3387C0.414734 46.7865 0.862449 46.3387 1.41473 46.3387H5.41473C5.96702 46.3387 6.41473 46.7865 6.41473 47.3387V48.3387C6.41473 48.891 5.96702 49.3387 5.41473 49.3387H1.41473C0.862449 49.3387 0.414734 48.891 0.414734 48.3387V47.3387Z" fill="#696969"/>
<path d="M0.414734 55.3387C0.414734 54.7865 0.862449 54.3387 1.41473 54.3387H5.41473C5.96702 54.3387 6.41473 54.7865 6.41473 55.3387V56.3387C6.41473 56.891 5.96702 57.3387 5.41473 57.3387H1.41473C0.862449 57.3387 0.414734 56.891 0.414734 56.3387V55.3387Z" fill="#696969"/>
<path d="M43.8668 47.3387H41.9391V35.9496H38.2013V47.3387H36.4147V34.3387H49.4147V47.3387H47.534V35.9496H43.8668V47.3387Z" fill="#A171D0" stroke="#A171D0"/>
</svg>
