<svg width="62" height="30" viewBox="0 0 62 30" fill="none" xmlns="http://www.w3.org/2000/svg">
<path d="M0.789551 7.9082C0.789551 5.95508 1.59684 4.24935 3.21143 2.79102C4.61768 1.54102 6.1932 0.916016 7.93799 0.916016V5.99414C7.20882 5.99414 6.58382 6.31966 6.06299 6.9707C5.6984 7.49154 5.51611 8.10352 5.51611 8.80664L0.789551 7.9082ZM1.60986 28.2598L1.60986 22.8691H17.3911V28.2598H1.60986ZM1.60986 20.8379C1.60986 19.0931 2.76872 17.3353 5.08643 15.5645C5.42497 15.304 5.9458 14.9264 6.64893 14.4316C7.29997 13.9889 7.7557 13.6634 8.01611 13.4551C8.27653 13.2467 8.68018 12.9473 9.22705 12.5566C10.9458 11.3327 12.0005 10.3822 12.3911 9.70508C12.5994 9.31445 12.7036 8.94987 12.7036 8.61133C12.7036 7.25716 12.0786 6.42383 10.8286 6.11133C10.5682 6.0332 10.3208 5.99414 10.0864 5.99414V0.916016C13.3937 0.916016 15.6854 2.20508 16.9614 4.7832C17.5083 5.92904 17.7817 7.19206 17.7817 8.57227C17.7817 10.6035 17.0916 12.3353 15.7114 13.7676C15.0343 14.4707 14.1359 15.2259 13.0161 16.0332C12.5994 16.3457 11.9744 16.7624 11.1411 17.2832C9.47445 18.403 8.45882 19.2363 8.09424 19.7832C7.8859 20.1478 7.78174 20.4993 7.78174 20.8379H1.60986ZM27.6255 28.2598C23.9015 28.2598 21.5578 25.6686 20.5942 20.4863C20.2817 18.7676 20.1255 16.8014 20.1255 14.5879C20.1255 6.25456 22.2479 1.72331 26.4927 0.994141C26.8573 0.942057 27.2349 0.916016 27.6255 0.916016V6.15039C26.2974 6.46289 25.5682 8.35091 25.438 11.8145C25.4119 12.4134 25.3989 13.1947 25.3989 14.1582V15.0176C25.3989 18.6113 25.7114 20.929 26.3364 21.9707C26.675 22.5436 27.1047 22.8952 27.6255 23.0254V28.2598ZM29.7739 28.2598V23.0254C31.1021 22.7129 31.8312 20.8249 31.9614 17.3613C31.9875 16.7624 32.0005 15.9811 32.0005 15.0176V14.1582C32.0005 10.5645 31.688 8.24674 31.063 7.20508C30.7244 6.63216 30.2948 6.2806 29.7739 6.15039V0.916016C33.4979 0.916016 35.8416 3.50716 36.8052 8.68945C37.1177 10.4082 37.2739 12.3743 37.2739 14.5879C37.2739 22.9212 35.1515 27.4525 30.9067 28.1816C30.5422 28.2337 30.1646 28.2598 29.7739 28.2598ZM39.4614 5.79883C39.4614 4.28841 40.0864 3.11654 41.3364 2.2832C42.0656 1.81445 42.8468 1.58008 43.6802 1.58008C45.1906 1.58008 46.3625 2.20508 47.1958 3.45508C47.6646 4.18424 47.8989 4.96549 47.8989 5.79883C47.8989 7.30924 47.2739 8.48112 46.0239 9.31445C45.2948 9.7832 44.5135 10.0176 43.6802 10.0176C42.1698 10.0176 40.9979 9.39258 40.1646 8.14258C39.6958 7.41341 39.4614 6.63216 39.4614 5.79883ZM44.6958 29.1582L51.5317 0.291016H56.4536L49.6567 29.1582H44.6958ZM53.563 23.6895C53.563 22.179 54.188 21.0072 55.438 20.1738C56.1672 19.7051 56.9484 19.4707 57.7817 19.4707C59.2922 19.4707 60.464 20.0957 61.2974 21.3457C61.7661 22.0749 62.0005 22.8561 62.0005 23.6895C62.0005 25.1999 61.3755 26.3717 60.1255 27.2051C59.3963 27.6738 58.6151 27.9082 57.7817 27.9082C56.2713 27.9082 55.0994 27.2832 54.2661 26.0332C53.7974 25.304 53.563 24.5228 53.563 23.6895Z" fill="#F8D069"/>
</svg>
