<svg width="55" height="178" viewBox="0 0 55 178" fill="none" xmlns="http://www.w3.org/2000/svg">
<path d="M17.2488 173.674C10.9091 152.322 8.73322 129.806 10.7552 107.705C12.7648 85.4389 18.8065 63.5978 28.6592 43.6941C34.163 32.5421 40.8778 21.984 48.7513 12.439C51.1198 9.55016 46.6628 5.65324 44.2943 8.54208C29.7883 26.3923 19.0784 47.0966 12.2194 69.1529C5.51398 91.0336 2.91461 114.334 4.5406 137.3C5.50306 150.231 7.86985 162.994 11.5518 175.513C12.819 179.101 18.3499 177.272 17.2488 173.674Z" fill="black"/>
<path d="M5.66224 28.0818C18.4922 16.8257 34.682 9.28221 51.7399 6.6824C50.7991 5.23989 49.7816 3.88522 48.8408 2.44272C43.3561 16.0913 39.8477 30.5377 38.6871 45.1771C38.5554 46.7669 39.4194 48.2972 41.0267 48.6176C42.4681 48.9479 44.3086 47.9222 44.4402 46.3324C45.6378 32.1904 48.8514 18.2611 54.1179 5.04183C54.8119 3.16875 53.6065 0.409919 51.2189 0.802171C32.6031 3.74474 15.2886 11.8549 1.12839 24.2727C-0.0483165 25.2588 0.367175 27.4819 1.43687 28.4172C2.85078 29.4984 4.40873 29.1557 5.66224 28.0818Z" fill="black"/>
</svg>
