<svg width="47" height="219" viewBox="0 0 47 219" fill="none" xmlns="http://www.w3.org/2000/svg">
<path d="M3.90968 7.42012C22.3388 19.02 30.6086 45.2046 31.6196 70.5689C32.2617 86.2164 30.4853 101.992 28.1326 117.656C25.7799 133.319 23.1967 148.937 19.6915 164.374C15.845 181.553 10.3851 198.415 1.95445 213.339C1.03683 214.967 1.87777 217.392 3.03164 218.221C4.53123 219.118 6.17016 218.083 7.08777 216.455C22.8309 188.649 28.1636 154.733 33.1849 123.016C38.0069 92.3156 40.7518 60.0022 30.261 32.3273C25.2184 18.9817 17.2721 7.62867 6.62975 0.870718C3.45697 -1.25825 0.593209 5.41368 3.90968 7.42012Z" fill="black"/>
<path d="M42.1672 182.192C30.3019 193.881 17.2799 203.534 3.38851 210.907C4.62916 211.904 5.86984 212.901 7.22575 213.92C8.16564 197.528 8.01144 181.222 6.50424 165.104C6.29787 163.104 5.14256 161.672 3.41536 161.936C1.9471 162.101 0.367944 164.052 0.574307 166.051C2.08151 182.17 2.35096 198.497 1.29582 214.867C1.18635 217.257 3.40726 218.747 5.13302 217.88C19.427 210.284 32.9669 200.431 45.2917 188.23C46.6134 186.982 47.1554 184.828 46.2874 183.151C45.4195 181.473 43.5173 180.799 42.1672 182.192Z" fill="black"/>
</svg>
