<svg width="88" height="52" viewBox="0 0 88 52" fill="none" xmlns="http://www.w3.org/2000/svg">
<path d="M6.59581 49.1519C6.64476 49.5765 6.61491 49.9664 6.50627 50.3218C6.39077 50.6718 6.21174 50.9574 5.96917 51.1786C5.72046 51.4006 5.42111 51.5348 5.07113 51.5814L4.96791 50.6862C5.26583 50.6207 5.50697 50.4682 5.69133 50.2288C5.86882 49.9839 5.93344 49.6522 5.8852 49.2339C5.83909 48.834 5.70447 48.5316 5.48134 48.3266C5.25136 48.1162 4.97948 48.0291 4.6657 48.0653C4.4196 48.0937 4.22745 48.1844 4.08925 48.3375C3.95105 48.4906 3.85366 48.6733 3.79709 48.8855C3.74052 49.0978 3.68595 49.3815 3.63339 49.7367C3.5716 50.174 3.50023 50.5282 3.41928 50.7994C3.33762 51.0644 3.19054 51.3027 2.97803 51.5142C2.75866 51.7203 2.44902 51.8464 2.04911 51.8925C1.69842 51.9329 1.37744 51.8795 1.08616 51.7323C0.794879 51.5851 0.556965 51.3601 0.372417 51.0572C0.18716 50.7481 0.0704112 50.3844 0.022171 49.966C-0.0473516 49.3631 0.0466297 48.8535 0.304115 48.4373C0.560891 48.0149 0.935614 47.7504 1.42829 47.6437L1.5347 48.5666C1.29215 48.6257 1.09171 48.7798 0.933386 49.0287C0.768909 49.2783 0.708308 49.5908 0.751582 49.9661C0.792019 50.3168 0.917293 50.5922 1.1274 50.7924C1.33136 50.9933 1.59638 51.075 1.92246 51.0374C2.15625 51.0104 2.33953 50.9239 2.47229 50.7776C2.60434 50.6253 2.69936 50.4491 2.75735 50.2491C2.80848 50.0437 2.86304 49.76 2.92105 49.398C2.98899 48.96 3.06652 48.6051 3.15362 48.3332C3.23457 48.062 3.38437 47.8203 3.60303 47.6081C3.81554 47.3965 4.12483 47.2674 4.53089 47.2205C4.84466 47.1844 5.14956 47.2334 5.44557 47.3675C5.74158 47.5017 5.99452 47.7219 6.20439 48.0282C6.41426 48.3344 6.54473 48.709 6.59581 49.1519Z" fill="black"/>
<path d="M2.98315 39.3364C2.36621 39.2006 1.8434 38.9397 1.41472 38.5536C0.979981 38.1663 0.676083 37.703 0.503022 37.164C0.331292 36.6189 0.309991 36.053 0.43912 35.4663C0.590879 34.7767 0.889667 34.2115 1.33548 33.7706C1.7813 33.3297 2.33562 33.0586 2.99842 32.9571L2.78077 33.946C2.36111 34.0376 2.01185 34.2271 1.73299 34.5145C1.45546 34.7958 1.2661 35.1663 1.16493 35.626C1.06775 36.0675 1.08338 36.4863 1.21182 36.8824C1.34025 37.2785 1.57303 37.6182 1.91015 37.9017C2.24122 38.1838 2.66079 38.3808 3.16886 38.4926C3.67088 38.6031 4.13438 38.6005 4.55936 38.4848C4.97829 38.3677 5.32919 38.1564 5.61205 37.8509C5.8949 37.5453 6.08492 37.1718 6.1821 36.7303C6.28327 36.2706 6.27 35.8555 6.14229 35.4849C6.00986 35.107 5.77243 34.7884 5.42998 34.5291L5.64763 33.5402C6.20056 33.9092 6.58678 34.3874 6.80629 34.9747C7.01975 35.5607 7.0506 36.1985 6.89884 36.888C6.76971 37.4747 6.51581 37.98 6.13713 38.404C5.75374 38.8206 5.28646 39.1141 4.7353 39.2845C4.18414 39.4549 3.60009 39.4722 2.98315 39.3364Z" fill="black"/>
<path d="M11.941 23.965L8.87772 23.9017L8.34528 24.7739L10.6051 26.1534L10.1646 26.875L4.63802 23.5012L5.72711 21.7172C5.98204 21.2996 6.268 20.9916 6.58498 20.7933C6.90518 20.5897 7.23043 20.4907 7.56071 20.4965C7.891 20.5022 8.21208 20.6002 8.52396 20.7906C8.90456 21.023 9.17245 21.3389 9.32765 21.7384C9.48608 22.1326 9.47895 22.5781 9.30626 23.0749L12.4686 23.1007L11.941 23.965ZM7.76645 24.4206L8.41507 23.3581C8.65387 22.9669 8.73781 22.6154 8.66691 22.3037C8.59073 21.9887 8.39141 21.7328 8.06896 21.536C7.74122 21.3359 7.42779 21.2788 7.12867 21.3646C6.83277 21.4452 6.56382 21.6837 6.32179 22.0802L5.67318 23.1427L7.76645 24.4206Z" fill="black"/>
<path d="M19.1075 15.648C18.6411 16.0266 18.1277 16.2638 17.5674 16.3597C17.0032 16.4507 16.45 16.3932 15.9078 16.1871C15.3666 15.9724 14.8969 15.6197 14.4988 15.1292C14.1007 14.6388 13.8542 14.109 13.7593 13.54C13.6652 12.9622 13.7228 12.4091 13.9318 11.8804C14.137 11.347 14.4728 10.891 14.9392 10.5124C15.4104 10.1299 15.9282 9.89316 16.4924 9.80212C17.0527 9.70627 17.6015 9.76333 18.1389 9.97329C18.6762 10.1833 19.1459 10.5359 19.5479 11.0312C19.9499 11.5265 20.1984 12.0586 20.2933 12.6276C20.3882 13.1967 20.3331 13.7479 20.128 14.2813C19.9189 14.81 19.5788 15.2655 19.1075 15.648ZM18.645 15.0782C18.9961 14.7933 19.2447 14.4559 19.3909 14.066C19.5419 13.6723 19.5738 13.2595 19.4866 12.8278C19.4042 12.3921 19.201 11.9747 18.8771 11.5756C18.5492 11.1717 18.1826 10.887 17.7771 10.7216C17.3725 10.5474 16.9644 10.4918 16.5528 10.5547C16.1412 10.6176 15.7575 10.7934 15.4017 11.0822C15.0459 11.371 14.7948 11.7104 14.6486 12.1003C14.5024 12.4901 14.4705 12.9029 14.5529 13.3385C14.6362 13.7654 14.8418 14.1809 15.1696 14.5848C15.4936 14.9839 15.8578 15.2705 16.2624 15.4447C16.6718 15.6149 17.0823 15.6686 17.4939 15.6057C17.9103 15.5389 18.294 15.3631 18.645 15.0782Z" fill="black"/>
<path d="M28.9573 8.64096L31.0712 7.82275L31.3193 8.46384L28.4171 9.58721L26.0798 3.54879L26.8682 3.24364L28.9573 8.64096Z" fill="black"/>
<path d="M38.017 6.08737L40.2665 5.80905L40.3509 6.4913L37.2624 6.87341L36.4674 0.447427L37.3064 0.343628L38.017 6.08737Z" fill="black"/>
<path d="M65.4787 5.53606C66.0809 5.90464 66.5317 6.33667 66.8311 6.83216C67.139 7.3256 67.2815 7.8521 67.2585 8.41166C67.2407 8.97445 67.0589 9.53845 66.713 10.1036C66.367 10.6688 65.9475 11.0874 65.4544 11.3592C64.9698 11.6289 64.4377 11.7389 63.8582 11.6892C63.2872 11.6374 62.7006 11.4272 62.0985 11.0587L60.3791 10.0063L63.7593 4.48366L65.4787 5.53606ZM62.4622 10.4644C63.1753 10.9009 63.8341 11.0464 64.4387 10.9009C65.0466 10.7501 65.559 10.334 65.9761 9.65262C66.3964 8.96593 66.5344 8.31338 66.3901 7.69499C66.2511 7.07983 65.8277 6.55563 65.1198 6.12239L64.1215 5.51132L61.4638 9.85334L62.4622 10.4644Z" fill="black"/>
<path d="M72.6235 19.8502C72.2544 19.3763 72.0276 18.8582 71.943 18.2961C71.8633 17.7302 71.932 17.1782 72.1489 16.6404C72.3745 16.1035 72.7365 15.6411 73.2349 15.2529C73.7333 14.8648 74.2679 14.6289 74.8387 14.5455C75.4182 14.4631 75.9701 14.5317 76.4944 14.7513C77.0236 14.9672 77.4728 15.3121 77.8419 15.786C78.2149 16.2649 78.4412 16.7873 78.5208 17.3532C78.6054 17.9153 78.5373 18.4629 78.3166 18.9959C78.0959 19.5289 77.7339 19.9914 77.2306 20.3833C76.7273 20.7753 76.1903 21.013 75.6194 21.0965C75.0486 21.18 74.4986 21.1138 73.9694 20.898C73.4451 20.6783 72.9965 20.3291 72.6235 19.8502ZM73.2025 19.3993C73.4803 19.756 73.8127 20.0113 74.1995 20.1653C74.5902 20.3242 75.0022 20.3644 75.4356 20.2859C75.8728 20.2123 76.2942 20.0176 76.6997 19.7017C77.1102 19.3821 77.4022 19.0212 77.5757 18.6191C77.758 18.2182 77.8218 17.8113 77.7672 17.3985C77.7126 16.9857 77.5445 16.5985 77.2629 16.237C76.9813 15.8754 76.6471 15.6176 76.2602 15.4636C75.8734 15.3096 75.4614 15.2694 75.0242 15.343C74.5956 15.4177 74.1762 15.6149 73.7657 15.9345C73.3602 16.2504 73.0663 16.6088 72.884 17.0098C72.7056 17.4156 72.6437 17.825 72.6983 18.2378C72.7567 18.6554 72.9248 19.0426 73.2025 19.3993Z" fill="black"/>
<path d="M87.2098 35.6604L80.471 35.4744L80.2324 34.5574L84.8972 31.7889L79.4606 31.5905L79.2154 30.6848L85.0347 27.2992L85.2616 28.1713L80.3037 30.9201L86.01 31.0482L86.2486 31.9653L81.3273 34.7813L86.9806 34.7793L87.2098 35.6604Z" fill="black"/>
<path d="M80.8947 50.4715L81.0075 49.6337L86.5707 46.9516L81.4609 46.264L81.5737 45.4262L88 46.2909L87.8873 47.1287L82.3333 49.8121L87.4338 50.4984L87.3211 51.3362L80.8947 50.4715Z" fill="black"/>
</svg>
