<svg width="153" height="38" viewBox="0 0 153 38" fill="none" xmlns="http://www.w3.org/2000/svg">
<path d="M16.1154 35.415C15.8171 35.415 15.6182 35.1791 15.5187 34.7072L14.5242 29.2977C14.4579 28.8595 14.3253 28.1855 14.1264 27.2754C13.9607 26.3654 13.7452 25.3712 13.48 24.2926C13.0491 24.4274 12.5021 24.6802 11.8391 25.051C11.2092 25.388 10.2313 25.9441 8.90528 26.7193C7.74503 27.3597 6.84997 27.8653 6.22012 28.236C5.59027 28.5731 5.05986 28.8932 4.62891 29.1966C4.19796 29.4662 3.66756 29.8033 3.0377 30.2077C2.87195 30.7133 2.68963 31.32 2.49073 32.0277C2.29182 32.7355 2.09292 33.4096 1.89402 34.05C1.69512 34.623 1.42992 34.9094 1.09842 34.9094C0.601165 34.9094 0.352539 34.5387 0.352539 33.7972C0.352539 33.6961 0.369114 33.595 0.402264 33.4939C0.402264 33.3928 0.418839 33.2916 0.45199 33.1905L1.19787 30.9155C1.03212 30.6459 0.949242 30.4268 0.949242 30.2583C0.949242 30.0897 0.998967 29.9549 1.09842 29.8538V29.8033C1.09842 29.3651 1.38019 28.9607 1.94375 28.5899C2.14265 28.1518 2.32497 27.7473 2.49073 27.3766C2.45757 27.3766 2.5073 27.1575 2.6399 26.7193C2.7725 26.2475 3.05428 25.3375 3.48523 23.9893L4.97699 19.5403C5.24219 18.7651 5.55712 17.754 5.92177 16.507C6.28642 15.2599 6.75052 13.7601 7.31408 12.0074L7.41353 11.8558L8.70638 8.67073C8.77268 8.33368 8.88871 7.89553 9.05446 7.35626C9.25336 6.78329 9.46884 6.12606 9.70089 5.38456C9.73404 5.21604 9.76719 5.04752 9.80034 4.879C9.86664 4.71048 9.91636 4.55881 9.94951 4.42399C10.1153 3.81732 10.3307 3.42972 10.5959 3.2612C10.7285 3.19379 10.8446 3.16009 10.944 3.16009C11.2755 3.16009 11.5407 3.39602 11.7396 3.86788C11.9717 4.30603 12.0711 4.67678 12.038 4.98011C12.2369 5.75531 12.4358 6.69903 12.6347 7.81127C12.8336 8.8898 13.0491 10.12 13.2811 11.5019L13.3308 11.6535C13.4966 12.0917 13.6292 12.631 13.7286 13.2713C13.8281 13.9117 13.9275 14.6532 14.027 15.4958L14.6734 21.6131L15.3696 21.3098C15.4359 21.2761 15.5353 21.2592 15.6679 21.2592C16.0657 21.2592 16.2646 21.6468 16.2646 22.422C16.2646 22.7591 16.1983 23.0119 16.0657 23.1804C15.9331 23.3489 15.8337 23.4669 15.7674 23.5343L14.922 23.9387C14.9552 24.0735 15.0049 24.3095 15.0712 24.6465C15.1707 24.9836 15.2867 25.4386 15.4193 26.0115L16.016 28.4888C16.1817 29.1292 16.3475 29.9044 16.5132 30.8144C16.679 31.6907 16.8447 32.685 17.0105 33.7972C17.0768 34.2354 17.0105 34.6061 16.8116 34.9094C16.6127 35.2465 16.3806 35.415 16.1154 35.415ZM4.08193 27.326C4.11508 27.2923 4.41344 27.1238 4.97699 26.8204C5.57369 26.4834 6.28642 26.0789 7.11517 25.6071C7.97708 25.1352 8.83898 24.6634 9.70089 24.1915C10.5628 23.7197 11.3087 23.3152 11.9385 22.9782C12.6015 22.6074 12.9993 22.3883 13.1319 22.3209C13.1319 22.1524 13.1154 21.9502 13.0822 21.7143C13.0822 21.4783 13.0656 21.1918 13.0325 20.8548C12.9662 20.0796 12.8667 19.3044 12.7341 18.5292C12.6347 17.7203 12.5187 16.9283 12.3861 16.1531L11.8391 12.4624C11.7396 11.6873 11.491 10.3559 11.0932 8.4685L10.7948 7.10348C10.6954 7.33941 10.5628 7.6596 10.397 8.06405C10.2644 8.4685 10.0987 8.95721 9.89979 9.53018L8.60693 12.968C8.37488 13.7095 8.07653 14.6869 7.71188 15.9003C7.34722 17.1136 6.88312 18.5966 6.31957 20.3492C5.65657 22.4389 5.17589 23.9724 4.87754 24.9499C4.57919 25.8936 4.38028 26.5171 4.28083 26.8204C4.18138 27.0901 4.11508 27.2586 4.08193 27.326Z" fill="#3C3B3B"/>
<path d="M18.66 34.4039C18.0301 34.4039 17.7152 34.0837 17.7152 33.4433C17.7483 32.0277 17.8975 30.3257 18.1627 28.3371C18.3285 27.0564 18.4777 25.9778 18.6103 25.1015C18.7429 24.2252 18.8257 23.568 18.8589 23.1298C18.9252 22.658 19.1572 22.422 19.555 22.422C19.9197 22.422 20.102 22.6411 20.102 23.0793C20.102 24.2926 20.102 25.2869 20.102 26.0621C20.102 26.8036 20.0854 27.326 20.0523 27.6293V27.7305C20.0523 28.0675 20.1849 28.236 20.4501 28.236C20.5827 28.236 20.7153 28.1349 20.8479 27.9327C22.0413 26.0452 23.3342 25.1015 24.7265 25.1015C25.3563 25.1015 25.8204 25.5397 26.1188 26.416C26.1851 26.5845 26.2679 26.9047 26.3674 27.3766C26.5 27.8147 26.6326 28.4045 26.7652 29.146C26.8646 29.5842 27.0801 29.8033 27.4116 29.8033C27.6105 29.8033 27.8757 29.6853 28.2072 29.4494C28.373 29.3483 28.6216 29.1629 28.9531 28.8932C29.3178 28.6236 29.7653 28.2697 30.2957 27.8316C32.5499 26.0452 33.9091 25.1521 34.3732 25.1521C35.1688 25.1521 35.782 26.416 36.213 28.9438C36.6108 31.1009 37.0417 32.1794 37.5059 32.1794C37.6385 32.1794 37.9202 32.23 38.3512 32.3311C38.749 32.3648 38.9976 32.3648 39.0971 32.3311C39.1634 32.2974 39.2297 32.2805 39.296 32.2805C39.3623 32.2468 39.4286 32.23 39.4949 32.23C39.9258 32.23 40.1413 32.4322 40.1413 32.8366C40.1413 33.3085 39.7766 33.6961 39.0473 33.9994C38.5169 34.2354 37.8539 34.3028 37.0583 34.2017C36.2959 34.2017 35.666 33.6792 35.1688 32.6344C34.9699 32.1626 34.6715 31.1851 34.2737 29.7021C34.0085 28.6236 33.7267 28.0843 33.4284 28.0843C33.0306 28.0843 32.4505 28.3034 31.688 28.7416C30.9255 29.1797 30.1631 29.6853 29.4006 30.2583C28.6382 30.8312 28.0249 31.3705 27.5608 31.8761C27.4282 32.0446 27.1796 32.1289 26.8149 32.1289C26.0856 32.1289 25.6712 31.9603 25.5718 31.6233C24.9419 29.1629 24.4115 27.9327 23.9806 27.9327C22.8866 27.9327 21.9087 28.6405 21.0468 30.056C20.8147 30.4268 20.5827 30.9155 20.3506 31.5222C20.1186 32.1289 19.87 32.8703 19.6048 33.7467C19.4722 34.0837 19.3561 34.2185 19.2567 34.1511C19.0909 34.3196 18.892 34.4039 18.66 34.4039Z" fill="#3C3B3B"/>
<path d="M43.4779 17.4675C42.9807 17.4675 42.7486 17.1642 42.7818 16.5575L43.279 14.6364C43.3785 14.2656 43.6105 14.0802 43.9752 14.0802C44.7376 14.0802 45.0526 14.4004 44.92 15.0408C44.8868 15.5127 44.7708 16.0351 44.5719 16.6081C44.373 17.181 44.0083 17.4675 43.4779 17.4675ZM41.7375 33.3928C41.4392 33.3928 41.2403 33.2579 41.1408 32.9883C41.0082 32.6176 40.9254 32.1626 40.8922 31.6233C40.8591 31.084 40.8591 30.4773 40.8922 29.8033C40.9585 29.0281 41.1408 28.0506 41.4392 26.871C41.7707 25.6913 42.2182 24.3263 42.7818 22.7759C42.9144 22.4389 43.1464 22.2704 43.4779 22.2704C44.1078 22.2704 44.3233 22.5569 44.1244 23.1298C43.9918 23.568 43.8757 24.0061 43.7763 24.4443C43.6768 24.8824 43.5774 25.3206 43.4779 25.7588C43.3122 26.534 43.1796 27.2249 43.0801 27.8316C42.9807 28.4382 42.931 28.9775 42.931 29.4494C42.931 31.1009 42.9475 31.9603 42.9807 32.0277C43.0801 32.3648 42.9807 32.685 42.6823 32.9883C42.384 33.2579 42.069 33.3928 41.7375 33.3928Z" fill="#3C3B3B"/>
<path d="M47.9474 33.8478C47.4501 33.8478 47.2678 33.3928 47.4004 32.4827C47.4998 31.3031 47.6656 29.8538 47.8977 28.1349C48.1629 26.3823 48.4778 24.36 48.8424 22.0681C49.0082 21.5626 49.2734 21.3098 49.638 21.3098C50.1021 21.3098 50.3342 21.5289 50.3342 21.967C50.3342 22.0007 50.3342 22.0681 50.3342 22.1693C50.3342 22.2367 50.3176 22.3209 50.2845 22.422C50.2182 22.7254 50.1519 23.0624 50.0856 23.4332C50.0524 23.7702 50.0358 24.141 50.0358 24.5454C50.0358 25.0173 50.0524 25.5228 50.0856 26.0621C50.1519 26.6014 50.2513 27.1743 50.3839 27.781C50.5828 27.781 51.395 27.0564 52.8205 25.6071C54.2459 24.2252 55.4062 23.3995 56.3012 23.1298V23.0793C56.4007 23.0456 56.5001 23.0287 56.5996 23.0287C56.699 23.0287 56.7819 23.0287 56.8482 23.0287C57.4781 23.0287 57.8924 23.3321 58.0913 23.9387L58.7875 28.6405C59.0858 30.6964 59.6328 31.7244 60.4284 31.7244C60.7599 31.7244 61.0914 31.6064 61.4229 31.3705C61.887 31.0335 62.3345 30.6796 62.7655 30.3088C63.1965 29.9044 63.5777 29.4831 63.9092 29.0449C64.1081 28.9775 64.2407 28.9438 64.307 28.9438C64.539 28.9438 64.6551 29.0955 64.6551 29.3988C64.6551 29.601 64.5225 29.8707 64.2573 30.2077C63.8263 30.747 63.3788 31.3031 62.9147 31.8761C62.4506 32.4153 61.9865 32.8366 61.5224 33.14C60.8925 33.5107 60.3621 33.6961 59.9312 33.6961C59.0361 33.6961 58.3565 32.9546 57.8924 31.4716L57.0471 27.3766C56.7487 25.9947 56.3675 25.3712 55.9034 25.506C55.8703 25.506 55.8205 25.506 55.7542 25.506C55.7211 25.4723 55.6714 25.4554 55.6051 25.4554C55.4725 25.4554 55.3067 25.4891 55.1078 25.5565C54.9421 25.6239 54.7763 25.7419 54.6106 25.9104L53.4172 27.1743C52.3895 28.2529 51.5276 29.2977 50.8314 30.3088C50.1353 31.3199 49.5717 32.2637 49.1408 33.14C48.8756 33.6118 48.4778 33.8478 47.9474 33.8478Z" fill="#3C3B3B"/>
<path d="M88.16 35.5667C87.9942 35.5667 87.845 35.4993 87.7124 35.3645L84.7289 31.2188C84.5632 30.8818 84.3145 30.4773 83.983 30.0055C83.6847 29.4999 83.3035 28.927 82.8394 28.2866C82.7731 28.1518 82.4913 27.5114 81.994 26.3654C81.4968 25.2195 80.784 23.5511 79.8558 21.3604C79.7895 21.1918 79.6238 21.0402 79.3586 20.9054C79.0602 20.7368 78.9111 20.5346 78.9111 20.2987L78.9608 19.9448C79.7564 19.0348 80.552 18.0742 81.3476 17.0631C82.7399 15.5464 84.4306 13.7769 86.4196 11.7547C86.7511 11.485 87.1489 11.1143 87.613 10.6424C88.1102 10.1706 88.6738 9.59759 89.3036 8.92351C89.5025 8.68758 89.7512 8.40109 90.0495 8.06405C90.3479 7.6933 90.6794 7.2383 91.044 6.69903C91.1103 6.4631 91.2098 6.17661 91.3424 5.83957C91.5081 5.50253 91.6904 5.11493 91.8893 4.67678C92.0882 4.17121 92.3535 3.91843 92.685 3.91843C93.1822 3.91843 93.4308 4.28918 93.4308 5.03067C93.4308 5.36771 93.0496 6.39569 92.2872 8.1146C91.9557 8.8561 91.2263 9.79982 90.0992 10.9458C89.7014 11.4513 88.7567 12.4119 87.2649 13.8275C85.9389 15.0745 84.8284 16.1531 83.9333 17.0631C83.0383 17.9394 82.3587 18.664 81.8946 19.237C81.8283 19.2707 81.6128 19.6077 81.2481 20.2481L81.1984 20.2987C81.1984 20.3998 81.3642 20.7368 81.6957 21.3098L82.9388 23.3826L84.1322 26.416C84.2317 26.6519 84.4306 27.0227 84.7289 27.5282C85.0273 28.0338 85.4085 28.6742 85.8726 29.4494C86.2372 30.0223 86.6516 30.6459 87.1157 31.32C87.613 31.994 88.1765 32.7018 88.8064 33.4433H88.7567C88.9224 33.6792 89.0053 33.9489 89.0053 34.2522C89.0053 35.1285 88.7235 35.5667 88.16 35.5667ZM73.2921 34.96C72.7948 34.96 72.5462 34.5556 72.5462 33.7467C72.5462 33.3085 72.6954 32.9377 72.9938 32.6344C73.259 32.4322 73.6568 31.994 74.1872 31.32C74.4855 30.8144 74.7176 30.1909 74.8833 29.4494C75.0491 28.6742 75.2148 27.8821 75.3806 27.0732C75.5132 26.5677 75.6623 25.8936 75.8281 25.051C75.9938 24.1747 76.1762 23.113 76.3751 21.8659C76.4082 21.1244 76.4745 20.147 76.574 18.9337C76.6734 17.6866 76.7894 16.1868 76.9221 14.4341C77.0215 13.5915 77.1209 12.6815 77.2204 11.7041C77.3199 10.693 77.4359 9.59759 77.5685 8.41794L77.8668 5.28345C77.9331 4.40714 78.2481 3.96899 78.8116 3.96899C79.4083 3.96899 79.6569 4.44085 79.5575 5.38456L79.6072 5.33401L79.2591 8.51906L78.5133 14.5353C78.4801 15.2767 78.4138 16.271 78.3144 17.5181C78.2149 18.7314 78.0823 20.1976 77.9166 21.9165C77.8834 22.5569 77.784 23.3658 77.6182 24.3432C77.4856 25.2869 77.3033 26.3991 77.0712 27.6799L76.4745 30.2077C76.2425 31.2188 75.8944 32.0783 75.4303 32.7861C75.2977 33.022 75.1485 33.2411 74.9828 33.4433C74.8502 33.6118 74.701 33.7635 74.5352 33.8983L73.6899 34.7578C73.5573 34.8926 73.4247 34.96 73.2921 34.96Z" fill="#3C3B3B"/>
<path d="M91.8688 34.6061C91.04 34.6061 90.5759 34.2185 90.4765 33.4433C90.4102 32.9715 90.3604 32.4659 90.3273 31.9266C90.2941 31.3537 90.2776 30.747 90.2776 30.1066C90.2776 27.7136 90.4433 25.1015 90.7748 22.2704C91.1395 19.4055 91.6533 16.3216 92.3163 13.0186C92.7472 11.03 93.0787 9.42907 93.3108 8.21572C93.576 7.00237 93.7583 6.21032 93.8578 5.83957C94.5208 3.34546 95.3164 1.6434 96.2446 0.733383C96.6424 0.328934 97.1065 0.126709 97.6369 0.126709C98.4325 0.126709 99.1452 0.564864 99.7751 1.44117C100.405 2.31748 100.72 3.44657 100.72 4.82844C100.72 5.73846 100.571 6.68218 100.272 7.6596C100.04 8.36739 99.6259 9.2437 99.0292 10.2885C98.4656 11.2997 97.7032 12.4962 96.7418 13.878C94.786 16.6418 93.7086 18.3944 93.5097 19.1359L92.8135 22.1187C92.6809 22.7254 92.5815 23.3152 92.5152 23.8882C92.482 24.4611 92.4655 25.0173 92.4655 25.5565C92.4655 25.7925 92.4655 26.0284 92.4655 26.2643C92.4655 26.4665 92.482 26.6856 92.5152 26.9216C92.6146 27.8316 92.8798 28.2866 93.3108 28.2866C93.576 28.2866 93.8412 28.1686 94.1064 27.9327L96.6921 25.7588C98.0513 24.6465 98.9297 24.0904 99.3275 24.0904C100.024 24.0904 100.372 24.7813 100.372 26.1632C100.372 29.3988 100.935 31.084 102.062 31.2188C102.195 31.2525 102.328 31.2694 102.46 31.2694C102.593 31.2694 102.725 31.2694 102.858 31.2694C104.582 31.2694 105.858 30.7133 106.687 29.601C106.886 29.3651 107.068 29.2471 107.234 29.2471C107.433 29.2471 107.532 29.4157 107.532 29.7527C107.532 29.9886 107.433 30.2414 107.234 30.511C106.836 30.9829 106.057 31.5896 104.897 32.3311C103.571 33.14 102.493 33.5444 101.665 33.5444C101.366 33.5444 101.118 33.4939 100.919 33.3928H100.819C100.156 32.9883 99.6259 31.9098 99.2281 30.1572C98.8966 28.6068 98.4159 27.8821 97.7861 27.9832C96.4932 28.5225 95.4987 29.3314 94.8026 30.4099C94.471 30.8818 93.9738 31.9266 93.3108 33.5444C93.0124 34.2522 92.5318 34.6061 91.8688 34.6061ZM94.9517 7.50793L94.2556 14.788C94.9849 14.2151 95.6147 13.5915 96.1451 12.9175C96.7087 12.2097 97.2059 11.485 97.6369 10.7435C97.8689 10.3054 98.1176 9.74926 98.3828 9.07518C98.6811 8.40109 98.996 7.59219 99.3275 6.64847C99.5264 6.14291 99.6259 5.60364 99.6259 5.03067C99.6259 4.08695 99.3773 3.27805 98.88 2.60397C98.3828 1.92988 97.8689 1.6771 97.3385 1.84562C96.3109 2.18266 95.5153 4.0701 94.9517 7.50793Z" fill="#3C3B3B"/>
<path d="M119.277 34.8083C119.111 34.8083 118.962 34.7409 118.83 34.6061C117.935 33.6624 117.47 32.2805 117.437 30.4605C117.437 30.3257 117.454 30.174 117.487 30.0055C117.52 29.8033 117.537 29.5842 117.537 29.3483L117.586 28.2866V28.1349C117.586 27.5282 117.371 27.3091 116.94 27.4777C116.277 27.9495 115.382 28.6405 114.255 29.5505C113.161 30.4268 111.835 31.5053 110.277 32.7861C109.614 33.4265 108.768 33.7467 107.741 33.7467C107.144 33.7467 106.63 33.4265 106.199 32.7861C105.802 32.112 105.652 31.4716 105.752 30.8649C105.851 29.9886 106.199 29.0449 106.796 28.0338C107.393 26.989 108.122 25.961 108.984 24.9499C109.879 23.905 110.824 22.995 111.818 22.2198C112.846 21.4109 113.824 20.8379 114.752 20.5009C115.117 20.3661 115.465 20.265 115.796 20.1976C116.128 20.1302 116.459 20.0964 116.791 20.0964C118.216 20.0964 118.929 20.602 118.929 21.6131C118.929 21.9502 118.796 22.1187 118.531 22.1187C118.432 22.1187 118.332 22.1187 118.233 22.1187C118.133 22.085 118.034 22.0344 117.935 21.967C117.338 21.4615 116.791 21.2087 116.294 21.2087C115.796 21.2087 115.067 21.512 114.106 22.1187C113.343 22.5906 112.597 23.1804 111.868 23.8882C111.139 24.596 110.443 25.388 109.78 26.2643C109.15 27.1069 108.652 27.8653 108.288 28.5394C107.923 29.1797 107.708 29.7527 107.641 30.2583C107.608 30.3931 107.592 30.5616 107.592 30.7638C107.592 31.3031 107.807 31.5727 108.238 31.5727C108.768 31.5727 109.763 31.084 111.222 30.1066C114.702 27.7473 117.122 25.6576 118.481 23.8376C118.813 23.3995 119.111 22.8096 119.377 22.0681C119.542 21.5963 119.89 21.3604 120.421 21.3604C121.017 21.3604 121.316 21.6974 121.316 22.3715C121.316 22.9108 121.067 23.5848 120.57 24.3937C119.774 26.8541 119.377 28.5562 119.377 29.4999C119.443 30.9492 119.791 32.112 120.421 32.9883C120.52 33.0894 120.57 33.2242 120.57 33.3928C120.57 33.6961 120.421 33.9994 120.122 34.3028C119.824 34.6398 119.542 34.8083 119.277 34.8083Z" fill="#3C3B3B"/>
<path d="M127.838 37.6395C126.711 37.6732 125.816 36.8474 125.153 35.1622C124.523 33.477 124.208 30.9492 124.208 27.5788C124.208 25.6576 124.357 23.5174 124.656 21.1581C124.987 18.7651 125.468 16.1362 126.098 13.2713C127.722 5.6542 129.678 1.84562 131.965 1.84562C132.86 1.84562 133.507 2.67138 133.904 4.32288C134.203 5.56994 134.302 6.69903 134.203 7.71015C133.871 10.9795 131.965 15.4621 128.484 21.1581C128.252 21.4278 127.971 21.7817 127.639 22.2198C127.341 22.658 126.976 23.1804 126.545 23.7871C126.479 24.5623 126.413 25.3206 126.346 26.0621C126.313 26.8036 126.297 27.5114 126.297 28.1855C126.297 29.3988 126.396 30.6459 126.595 31.9266C126.96 33.9152 127.506 34.9094 128.236 34.9094C128.932 34.9094 129.628 34.4544 130.324 33.5444L131.766 31.1683C131.932 30.8986 132.148 30.7638 132.413 30.7638C132.744 30.7638 132.91 30.9324 132.91 31.2694C132.91 31.3368 132.893 31.4042 132.86 31.4716C132.86 31.539 132.844 31.6064 132.811 31.6738C132.446 32.5164 132.114 33.2411 131.816 33.8478C131.551 34.4207 131.302 34.8757 131.07 35.2128C130.042 36.8306 128.965 37.6395 127.838 37.6395ZM131.915 4.37344C129.628 5.38457 127.921 10.9458 126.794 21.057C126.893 20.9559 127.042 20.7537 127.241 20.4503C130.921 15.1251 132.761 10.8783 132.761 7.71015C132.761 7.47422 132.744 7.22144 132.711 6.95181C132.678 6.64847 132.628 6.31143 132.562 5.94068C132.363 5.03067 132.148 4.50826 131.915 4.37344Z" fill="#3C3B3B"/>
<path d="M136.081 17.4675C135.584 17.4675 135.352 17.1642 135.385 16.5575L135.883 14.6364C135.982 14.2656 136.214 14.0802 136.579 14.0802C137.341 14.0802 137.656 14.4004 137.524 15.0408C137.49 15.5127 137.374 16.0351 137.175 16.6081C136.977 17.181 136.612 17.4675 136.081 17.4675ZM134.341 33.3928C134.043 33.3928 133.844 33.2579 133.744 32.9883C133.612 32.6176 133.529 32.1626 133.496 31.6233C133.463 31.084 133.463 30.4773 133.496 29.8033C133.562 29.0281 133.744 28.0506 134.043 26.871C134.374 25.6913 134.822 24.3263 135.385 22.7759C135.518 22.4389 135.75 22.2704 136.081 22.2704C136.711 22.2704 136.927 22.5569 136.728 23.1298C136.595 23.568 136.479 24.0061 136.38 24.4443C136.28 24.8824 136.181 25.3206 136.081 25.7588C135.916 26.534 135.783 27.2249 135.684 27.8316C135.584 28.4382 135.535 28.9775 135.535 29.4494C135.535 31.1009 135.551 31.9603 135.584 32.0277C135.684 32.3648 135.584 32.685 135.286 32.9883C134.988 33.2579 134.673 33.3928 134.341 33.3928Z" fill="#3C3B3B"/>
<path d="M143.037 37.6395C141.91 37.6732 141.015 36.8474 140.352 35.1622C139.722 33.477 139.407 30.9492 139.407 27.5788C139.407 25.6576 139.556 23.5174 139.855 21.1581C140.186 18.7651 140.667 16.1362 141.297 13.2713C142.921 5.6542 144.877 1.84562 147.164 1.84562C148.059 1.84562 148.706 2.67138 149.104 4.32288C149.402 5.56994 149.501 6.69903 149.402 7.71015C149.071 10.9795 147.164 15.4621 143.684 21.1581C143.452 21.4278 143.17 21.7817 142.838 22.2198C142.54 22.658 142.175 23.1804 141.744 23.7871C141.678 24.5623 141.612 25.3206 141.545 26.0621C141.512 26.8036 141.496 27.5114 141.496 28.1855C141.496 29.3988 141.595 30.6459 141.794 31.9266C142.159 33.9152 142.706 34.9094 143.435 34.9094C144.131 34.9094 144.827 34.4544 145.523 33.5444L146.966 31.1683C147.131 30.8986 147.347 30.7638 147.612 30.7638C147.943 30.7638 148.109 30.9324 148.109 31.2694C148.109 31.3368 148.093 31.4042 148.059 31.4716C148.059 31.539 148.043 31.6064 148.01 31.6738C147.645 32.5164 147.314 33.2411 147.015 33.8478C146.75 34.4207 146.501 34.8757 146.269 35.2128C145.242 36.8306 144.164 37.6395 143.037 37.6395ZM147.115 4.37344C144.827 5.38457 143.12 10.9458 141.993 21.057C142.092 20.9559 142.242 20.7537 142.441 20.4503C146.12 15.1251 147.96 10.8783 147.96 7.71015C147.96 7.47422 147.943 7.22144 147.91 6.95181C147.877 6.64847 147.827 6.31143 147.761 5.94068C147.562 5.03067 147.347 4.50826 147.115 4.37344Z" fill="#3C3B3B"/>
<path d="M151.281 17.4675C150.783 17.4675 150.551 17.1642 150.585 16.5575L151.082 14.6364C151.181 14.2656 151.413 14.0802 151.778 14.0802C152.54 14.0802 152.855 14.4004 152.723 15.0408C152.69 15.5127 152.574 16.0351 152.375 16.6081C152.176 17.181 151.811 17.4675 151.281 17.4675ZM149.54 33.3928C149.242 33.3928 149.043 33.2579 148.944 32.9883C148.811 32.6176 148.728 32.1626 148.695 31.6233C148.662 31.084 148.662 30.4773 148.695 29.8033C148.761 29.0281 148.944 28.0506 149.242 26.871C149.573 25.6913 150.021 24.3263 150.585 22.7759C150.717 22.4389 150.949 22.2704 151.281 22.2704C151.911 22.2704 152.126 22.5569 151.927 23.1298C151.795 23.568 151.679 24.0061 151.579 24.4443C151.48 24.8824 151.38 25.3206 151.281 25.7588C151.115 26.534 150.982 27.2249 150.883 27.8316C150.783 28.4382 150.734 28.9775 150.734 29.4494C150.734 31.1009 150.75 31.9603 150.783 32.0277C150.883 32.3648 150.783 32.685 150.485 32.9883C150.187 33.2579 149.872 33.3928 149.54 33.3928Z" fill="#3C3B3B"/>
</svg>
