<svg width="128" height="61" viewBox="0 0 128 61" fill="none" xmlns="http://www.w3.org/2000/svg">
<path d="M5.76881 54.0271L10.1058 51.0452C10.2743 51.674 10.5986 52.1802 11.0788 52.5638C11.5591 52.9474 11.9955 53.1675 12.3881 53.224L12.9871 53.3466L14.3014 58.2517C12.1633 58.8246 10.0902 58.3825 8.08219 56.9255C6.83469 55.9927 6.06357 55.0265 5.76881 54.0271ZM2.53212 40.7402C1.79071 37.9732 2.41691 35.5812 4.41071 33.5641C5.3171 32.6203 6.24486 32.0077 7.19399 31.7265L8.52852 36.707C7.94685 37.0516 7.60281 37.6291 7.49642 38.4394C7.45647 38.6928 7.47019 38.9452 7.53759 39.1968C7.81393 40.2281 8.81704 40.9029 10.5469 41.2212C10.9144 41.2846 11.5033 41.3694 12.3136 41.4758C13.6491 41.6302 14.6088 41.7909 15.1928 41.958C17.5538 42.6194 19.2424 43.488 20.2586 44.5638C21.0245 45.41 21.5693 46.4368 21.8928 47.6442C22.5061 49.9332 22.164 52.1278 20.8665 54.2279C19.7598 56.0342 18.2632 57.1901 16.3766 57.6956L15.0623 52.7905C16.0096 52.4019 16.5632 51.7009 16.723 50.6875C16.7913 50.2378 16.7614 49.7741 16.6333 49.2961C16.2896 48.0133 15.0506 47.2129 12.9165 46.895C12.5239 46.8385 11.9132 46.773 11.0844 46.6985C10.1231 46.6325 9.44281 46.5587 9.04347 46.477C6.60385 46.0253 4.86314 45.0628 3.82133 43.5895C3.25842 42.7968 2.82869 41.847 2.53212 40.7402ZM10.6038 36.151L9.26922 31.1704C11.3822 30.6042 13.3948 31.022 15.3072 32.4238C16.4204 33.2579 17.1041 34.0992 17.3584 34.9477L12.8881 37.8844C12.605 36.8279 11.8972 36.2492 10.7648 36.1483C10.6574 36.1501 10.6038 36.151 10.6038 36.151ZM24.6271 49.0953L21.9884 39.2474C21.6581 38.0148 21.8754 36.6625 22.6403 35.1904C23.6144 33.3927 25.142 32.2015 27.2231 31.6169L28.5374 36.522C27.4324 36.9259 26.9568 37.5656 27.1105 38.4411L29.4662 47.2325C29.7793 48.2001 30.5178 48.5414 31.6817 48.2565L32.996 53.1616C30.5309 53.8221 28.3529 53.3408 26.4621 51.7176C25.4814 50.875 24.8698 50.0009 24.6271 49.0953ZM34.7316 52.6965L33.4173 47.7914C34.4401 47.3826 34.8906 46.7496 34.7688 45.8926L32.3552 37.0358C31.9365 36.1774 31.2298 35.8545 30.2353 36.0671L28.921 31.162C31.2855 30.5284 33.3905 30.9889 35.2359 32.5434C36.2166 33.386 36.8316 34.2726 37.081 35.2034L39.7197 45.0513C40.0567 46.309 39.8462 47.6865 39.0881 49.1837C38.1642 50.968 36.7121 52.1389 34.7316 52.6965ZM44.3053 50.0908L37.0665 23.0751L42.4998 21.6192L49.7387 48.635L44.3053 50.0908ZM50.8883 42.0587L48.2596 32.2485C47.968 31.0595 48.1669 29.7391 48.8563 28.2872C49.7298 26.5164 51.0939 25.3691 52.9486 24.8451L54.1937 24.5115L55.4979 29.3789L54.2528 29.7125C53.5435 29.9834 53.1977 30.4535 53.2153 31.1228L55.7731 40.6689C55.8473 40.9456 56.0941 41.1625 56.5137 41.3197C56.8057 41.4032 57.1152 41.4012 57.4422 41.3136L58.6118 41.0002L59.9262 45.9053L58.7565 46.2187C56.4674 46.832 54.4085 46.2918 52.5797 44.5981C51.6812 43.7604 51.1174 42.9139 50.8883 42.0587ZM61.9259 45.3694L54.6871 18.3537L59.9318 16.9484L67.1329 43.9742L61.9259 45.3694ZM76.8582 33.4824L73.5319 21.0688C73.1747 19.7356 73.3767 18.2256 74.1379 16.5388C75.1619 14.3233 76.8276 12.8929 79.1351 12.2477L80.5606 17.5678C79.536 17.8693 79.0119 18.6299 78.9882 19.8494C78.9851 20.039 78.9936 20.1715 79.0138 20.247L82.1783 32.0569C82.4546 33.0882 83.2093 33.6409 84.4424 33.7149C84.6319 33.7181 84.7644 33.7095 84.8399 33.6893L86.2755 39.0472C84.8418 39.4313 83.2698 39.2999 81.5596 38.6527C79.1177 37.6894 77.5506 35.966 76.8582 33.4824ZM88.3508 38.4911L86.9151 33.1332C87.3176 33.0254 87.7131 32.6903 88.1016 32.1278C88.465 31.5721 88.5783 30.9891 88.4417 30.3786L85.2773 18.5687C85.1559 18.1159 84.8141 17.6953 84.2516 17.3068C83.7346 16.987 83.1834 16.892 82.5981 17.0219L81.1726 11.7018C83.7132 11.021 86.0439 11.5693 88.1647 13.3465C89.3821 14.3684 90.1391 15.4327 90.4356 16.5395L93.7619 28.9531C94.51 31.7452 93.8378 34.217 91.7452 36.3684C90.6393 37.4735 89.5079 38.1811 88.3508 38.4911ZM97.0743 29.8449L92.8382 14.0354L97.9696 12.6605L102.044 27.8662C102.35 28.8086 103.06 29.1441 104.174 28.8727L105.519 33.891C103.053 34.5515 100.87 34.0987 98.9672 32.5325C97.9614 31.6967 97.3304 30.8008 97.0743 29.8449ZM107.254 33.4259L105.91 28.4076C106.958 27.992 107.417 27.3431 107.289 26.4609L103.214 11.2552L108.346 9.88018L112.582 25.6897C112.899 26.8719 112.665 28.215 111.882 29.719C110.878 31.6057 109.335 32.8413 107.254 33.4259ZM111.612 14.2218L110.308 9.35445L112.949 8.64674L111.473 3.13795L116.529 1.78319L118.005 7.29199L120.495 6.62472L121.81 11.5298L119.319 12.1971L121.999 22.1959C122.291 23.088 122.882 23.4287 123.769 23.2179L124.863 22.9247L127.39 27.8284L125.126 28.435C121.831 29.3179 119.485 28.612 118.088 26.3172C117.594 25.479 117.178 24.4311 116.841 23.1734L114.253 13.5141L111.612 14.2218Z" fill="#FFC8C8"/>
</svg>
