<svg width="170" height="27" viewBox="0 0 170 27" fill="none" xmlns="http://www.w3.org/2000/svg">
<path d="M0.424805 5.08398L0.424805 1.17578H12.6875V5.08398H8.55273L8.55273 21H4.55957L4.55957 5.08398H0.424805ZM14.1885 16.6104V9.21875C14.1885 8.29362 14.5944 7.38737 15.4062 6.5C16.4258 5.42383 17.7191 4.8763 19.2861 4.85742V8.53906C18.4365 8.61458 17.9834 8.97331 17.9268 9.61523V16.2139C17.9645 16.9502 18.4176 17.3278 19.2861 17.3467V21.0283C17.4359 21.0283 16.001 20.2826 14.9814 18.791C14.4528 18.0169 14.1885 17.29 14.1885 16.6104ZM20.5889 21.0283V17.3467C21.3818 17.2523 21.8161 16.8936 21.8916 16.2705L21.8633 9.61523C21.7311 8.93555 21.2969 8.57682 20.5605 8.53906V4.85742C22.3353 4.85742 23.723 5.57487 24.7236 7.00977C25.2523 7.78385 25.5166 8.52018 25.5166 9.21875V16.6104C25.5166 17.5544 25.1107 18.4795 24.2988 19.3857C23.3171 20.4619 22.0804 21.0094 20.5889 21.0283ZM27.4424 16.6104V9.24707C27.4613 8.3597 27.8483 7.47233 28.6035 6.58496C29.5475 5.50879 30.7181 4.96126 32.1152 4.94238H33.0498V8.5957H32.1152C31.5677 8.65234 31.2373 8.91667 31.124 9.38867V16.5537C31.124 16.7614 31.2562 16.9596 31.5205 17.1484C31.7093 17.2617 31.9264 17.3184 32.1719 17.3184H33.0498V21H32.1719C30.4538 21 29.1133 20.2354 28.1504 18.7061C27.6784 17.9508 27.4424 17.2523 27.4424 16.6104ZM34.5508 21V0.722656H38.4873L38.459 21H34.5508ZM40.3564 17.2617C40.3564 18.3568 40.8757 19.2819 41.9141 20.0371C42.8014 20.679 43.8776 21 45.1426 21V17.5166C44.1797 17.5166 43.6416 17.29 43.5283 16.8369C43.5094 16.7236 43.5 16.6104 43.5 16.4971V16.1006C43.5189 15.7796 43.6416 15.5625 43.8682 15.4492C43.9626 15.3926 44.3118 15.2887 44.916 15.1377C46.3887 14.7223 47.3799 14.3636 47.8896 14.0615V16.3838C47.8896 16.9502 47.6253 17.3089 47.0967 17.46C46.9645 17.4977 46.8229 17.5166 46.6719 17.5166V21C47.8424 20.9811 48.7959 20.679 49.5322 20.0937C50.2308 20.6979 51.1559 21 52.3076 21V17.4883C51.7979 17.4505 51.5335 17.1484 51.5146 16.582V9.19043C51.5146 8.15202 51.0804 7.18913 50.2119 6.30176C49.249 5.33887 48.0596 4.85742 46.6436 4.85742V8.34082C47.4554 8.39746 47.8708 8.76562 47.8896 9.44531V10.0967C47.8896 10.6253 46.8796 11.2295 44.8594 11.9092C43.1224 12.5133 42.1312 12.8815 41.8857 13.0137C40.8851 13.6745 40.3753 14.609 40.3564 15.8174V17.2617ZM40.5547 8.90723L43.8398 10.1533C43.8587 8.96387 44.3024 8.3597 45.1709 8.34082V4.85742C43.8682 4.85742 42.7259 5.32943 41.7441 6.27344C40.9701 7.06641 40.5736 7.94434 40.5547 8.90723ZM53.2139 4.85742H57.292L61.0586 17.4316L57.9717 26.6641H54.0635L56.8955 17.375L53.2139 4.85742ZM59.8408 8.65234L61.0303 4.85742H65.1084L61.9082 14.4297H61.54L59.8408 8.65234ZM66.0146 7.83105V0.15625H69.6113V7.83105H66.0146ZM71.0273 16.752L74.5391 16.1006C74.5391 16.7236 74.86 17.1673 75.502 17.4316C75.7285 17.5072 75.9362 17.5544 76.125 17.5732V21.1416C73.9349 21.1416 72.415 20.3675 71.5654 18.8193C71.2067 18.1774 71.0273 17.4883 71.0273 16.752ZM71.1973 9.27539C71.1973 7.51953 72.0186 6.2168 73.6611 5.36719C74.473 4.93294 75.2754 4.71582 76.0684 4.71582V8.22754C75.1432 8.24642 74.6807 8.5957 74.6807 9.27539C74.6807 9.99284 75.5492 10.6253 77.2861 11.1729C77.9281 11.3805 78.6833 11.5788 79.5518 11.7676C80.8545 12.013 81.7796 12.7399 82.3271 13.9482C82.6104 14.5713 82.752 15.2604 82.752 16.0156C82.752 17.9792 81.9779 19.4235 80.4297 20.3486C79.5423 20.8773 78.5322 21.1416 77.3994 21.1416V17.5732C78.0602 17.5732 78.5511 17.3561 78.8721 16.9219C79.0231 16.7142 79.0986 16.4876 79.0986 16.2422C79.0986 15.6569 78.3812 15.1471 76.9463 14.7129C76.7197 14.6562 76.3704 14.5618 75.8984 14.4297C74.8978 14.1654 74.2087 13.9482 73.8311 13.7783C72.4528 13.0798 71.6221 12.0508 71.3389 10.6914C71.2445 10.2383 71.1973 9.76628 71.1973 9.27539ZM77.3428 8.22754L77.3711 4.71582C79.0703 4.71582 80.4391 5.33887 81.4775 6.58496C82.1383 7.39681 82.4688 8.25586 82.4688 9.16211L78.9854 9.75684C78.9854 8.90723 78.5322 8.4069 77.626 8.25586C77.5127 8.23698 77.4183 8.22754 77.3428 8.22754ZM90.3984 16.5254L93.9951 15.251C93.9951 15.723 94.1273 16.1383 94.3916 16.4971C94.6559 16.8558 94.9202 17.0918 95.1846 17.2051L95.5811 17.4033V21.085C93.9762 21.085 92.6074 20.3864 91.4746 18.9893C90.776 18.1019 90.4173 17.2806 90.3984 16.5254ZM90.625 6.61328C90.625 4.53646 91.5124 2.97884 93.2871 1.94043C94.099 1.44954 94.8636 1.19466 95.5811 1.17578V4.91406C95.109 5.04622 94.7598 5.38607 94.5332 5.93359C94.4577 6.10352 94.4199 6.28288 94.4199 6.47168C94.4199 7.24577 94.9958 7.90658 96.1475 8.4541C96.3929 8.56738 96.7894 8.7373 97.3369 8.96387C98.2432 9.32259 98.8851 9.61523 99.2627 9.8418C100.792 10.748 101.812 11.6732 102.321 12.6172C102.699 13.3535 102.888 14.1748 102.888 15.0811C102.888 16.7992 102.236 18.2718 100.934 19.499C99.8197 20.5563 98.5547 21.085 97.1387 21.085V17.4033C97.875 17.3089 98.3942 16.9219 98.6963 16.2422C98.8285 15.9401 98.8945 15.6097 98.8945 15.251C98.8945 14.2881 98.1771 13.4951 96.7422 12.8721C96.4779 12.7588 96.0625 12.5983 95.4961 12.3906C94.8353 12.1641 94.3727 11.9847 94.1084 11.8525C92.4847 11.0785 91.4463 10.0778 90.9932 8.85059C90.7477 8.18978 90.625 7.44401 90.625 6.61328ZM97.1387 4.91406V1.17578C98.7246 1.17578 100.056 1.84603 101.132 3.18652C101.755 3.97949 102.076 4.69694 102.095 5.33887L98.4131 6.55664C98.4131 5.76367 98.026 5.22559 97.252 4.94238C97.1764 4.9235 97.1387 4.91406 97.1387 4.91406ZM109.968 21V17.3184H110.931C111.554 17.2806 111.931 17.0257 112.063 16.5537V9.30371C112.063 9.05827 111.912 8.85059 111.61 8.68066C111.403 8.58626 111.176 8.53906 110.931 8.53906H109.968V4.85742H110.931C112.705 4.85742 114.084 5.61263 115.065 7.12305C115.556 7.89714 115.802 8.60514 115.802 9.24707V16.6104C115.802 17.4788 115.424 18.3662 114.669 19.2725C113.668 20.4053 112.422 20.9811 110.931 21H109.968ZM104.559 26.6357V4.85742H108.552V26.6357H104.559ZM118.152 16.6104V9.19043C118.171 8.2653 118.596 7.35905 119.427 6.47168C120.446 5.41439 121.692 4.8763 123.165 4.85742V8.42578C122.618 8.42578 122.24 8.66178 122.032 9.13379C121.976 9.24707 121.947 9.35091 121.947 9.44531V10.8613H126.167V9.47363C126.148 8.77507 125.657 8.42578 124.694 8.42578V4.85742C126.073 4.85742 127.281 5.32943 128.319 6.27344C129.226 7.10417 129.688 8.06706 129.707 9.16211V14.5146H121.947V16.6104C122.079 17.1579 122.495 17.46 123.193 17.5166V21C121.419 21 120.012 20.2731 118.974 18.8193C118.426 18.0452 118.152 17.3089 118.152 16.6104ZM124.694 21V17.5449C125.714 17.526 126.365 17.0446 126.648 16.1006L129.735 17.2617C129.452 18.4701 128.735 19.4424 127.583 20.1787C126.696 20.7262 125.733 21 124.694 21ZM131.888 16.6104V9.19043C131.907 8.20866 132.322 7.28353 133.134 6.41504C134.116 5.37663 135.371 4.85742 136.9 4.85742V8.48242C136.107 8.53906 135.673 8.79395 135.598 9.24707V16.6104C135.598 17.0635 135.928 17.3184 136.589 17.375C136.702 17.3939 136.815 17.4033 136.929 17.4033V21C134.927 21 133.455 20.2165 132.511 18.6494C132.095 17.9508 131.888 17.2712 131.888 16.6104ZM138.203 8.51074V4.85742C139.695 4.85742 140.903 5.43327 141.828 6.58496C142.489 7.39681 142.819 8.3125 142.819 9.33203L139.364 10.6631V9.72852C139.326 8.93555 138.939 8.52962 138.203 8.51074ZM138.203 21.0283V17.375C139.015 17.375 139.487 17.1579 139.619 16.7236C139.676 16.5537 139.704 16.3555 139.704 16.1289V15.1943L143.159 16.5254C143.178 17.8092 142.593 18.9326 141.403 19.8955C140.422 20.6885 139.355 21.0661 138.203 21.0283ZM145.142 2.56348C145.142 1.78939 145.491 1.2041 146.189 0.807617C146.51 0.618815 146.85 0.524414 147.209 0.524414C148.002 0.524414 148.597 0.873698 148.993 1.57227C149.163 1.89323 149.248 2.22363 149.248 2.56348C149.248 3.35645 148.899 3.95117 148.2 4.34766C147.879 4.51758 147.549 4.60254 147.209 4.60254C146.397 4.60254 145.793 4.24382 145.396 3.52637C145.227 3.22428 145.142 2.90332 145.142 2.56348ZM145.34 21V5.70703H149.135V21H145.34ZM151.372 17.2617C151.372 18.3568 151.891 19.2819 152.93 20.0371C153.817 20.679 154.893 21 156.158 21V17.5166C155.195 17.5166 154.657 17.29 154.544 16.8369C154.525 16.7236 154.516 16.6104 154.516 16.4971V16.1006C154.535 15.7796 154.657 15.5625 154.884 15.4492C154.978 15.3926 155.327 15.2887 155.932 15.1377C157.404 14.7223 158.396 14.3636 158.905 14.0615V16.3838C158.905 16.9502 158.641 17.3089 158.112 17.46C157.98 17.4977 157.839 17.5166 157.688 17.5166V21C158.858 20.9811 159.812 20.679 160.548 20.0937C161.246 20.6979 162.172 21 163.323 21V17.4883C162.813 17.4505 162.549 17.1484 162.53 16.582V9.19043C162.53 8.15202 162.096 7.18913 161.228 6.30176C160.265 5.33887 159.075 4.85742 157.659 4.85742V8.34082C158.471 8.39746 158.886 8.76562 158.905 9.44531V10.0967C158.905 10.6253 157.895 11.2295 155.875 11.9092C154.138 12.5133 153.147 12.8815 152.901 13.0137C151.901 13.6745 151.391 14.609 151.372 15.8174V17.2617ZM151.57 8.90723L154.855 10.1533C154.874 8.96387 155.318 8.3597 156.187 8.34082V4.85742C154.884 4.85742 153.742 5.32943 152.76 6.27344C151.986 7.06641 151.589 7.94434 151.57 8.90723ZM165.221 21V0.722656H169.299V21H165.221Z" fill="#F8D069"/>
</svg>
