<svg width="482" height="960" viewBox="0 0 482 960" fill="none" xmlns="http://www.w3.org/2000/svg">
<g clip-path="url(#clip0_304_1856)">
<g filter="url(#filter0_i_304_1856)">
<path fill-rule="evenodd" clip-rule="evenodd" d="M408 0H74C34.7878 0 2 32.7878 2 72V888C2 927.212 34.7878 960 74 960H408C447.212 960 480 927.212 480 888V72C480 32.7878 447.212 0 408 0ZM10 72C10 37.2061 39.2061 8 74 8H408C442.794 8 472 37.2061 472 72V888C472 922.794 442.794 952 408 952H74C39.2061 952 10 922.794 10 888V72Z" fill="#272727"/>
</g>
<g filter="url(#filter1_i_304_1856)">
<path fill-rule="evenodd" clip-rule="evenodd" d="M472 72C472 36.6538 443.346 8 408 8H74C38.6538 8 10 36.6538 10 72V888C10 923.346 38.6538 952 74 952H408C443.346 952 472 923.346 472 888V72ZM74 22C48.9086 22 24 46.9086 24 72V888C24 914.091 47.9086 938 74 938H408C434.091 938 458 914.091 458 888V72C458 46.9086 433.091 22 408 22C296.667 22 185.333 22 74 22Z" fill="#1F1F1F"/>
</g>
<path d="M408 8.25C443.208 8.25 471.75 36.7918 471.75 72V888C471.75 923.208 443.208 951.75 408 951.75H74C38.7918 951.75 10.25 923.208 10.25 888V72C10.25 36.7919 38.7918 8.25 74 8.25H408ZM74 21.75C61.3734 21.75 48.813 28.0149 39.414 37.414C30.0149 46.813 23.75 59.3734 23.75 72V888C23.75 914.229 47.7705 938.25 74 938.25H408C434.229 938.25 458.25 914.229 458.25 888V72C458.25 59.3734 451.985 46.813 442.586 37.414C433.187 28.0149 420.627 21.75 408 21.75H407.348H406.695H406.043H405.391H404.738H404.086H403.434H402.781H402.129H401.477H400.824H400.172H399.52H398.867H398.215H397.562H396.91H396.258H395.605H394.953H394.301H393.648H392.996H392.344H391.691H391.039H390.387H389.734H389.082H388.43H387.777H387.125H386.473H385.82H385.168H384.516H383.863H383.211H382.559H381.906H381.254H380.602H379.949H379.297H378.645H377.992H377.34H376.688H376.035H375.383H374.73H374.078H373.426H372.773H372.121H371.469H370.816H370.164H369.512H368.859H368.207H367.555H366.902H366.25H365.598H364.945H364.293H363.641H362.988H362.336H361.684H361.031H360.379H359.727H359.074H358.422H357.77H357.117H356.465H355.812H355.16H354.508H353.855H353.203H352.551H351.898H351.246H350.594H349.941H349.289H348.637H347.984H347.332H346.68H346.027H345.375H344.723H344.07H343.418H342.766H342.113H341.461H340.809H340.156H339.504H338.852H338.199H337.547H336.895H336.242H335.59H334.938H334.285H333.633H332.98H332.328H331.676H331.023H330.371H329.719H329.066H328.414H327.762H327.109H326.457H325.805H325.152H324.5H323.848H323.195H322.543H321.891H321.238H320.586H319.934H319.281H318.629H317.977H317.324H316.672H316.02H315.367H314.715H314.062H313.41H312.758H312.105H311.453H310.801H310.148H309.496H308.844H308.191H307.539H306.887H306.234H305.582H304.93H304.277H303.625H302.973H302.32H301.668H301.016H300.363H299.711H299.059H298.406H297.754H297.102H296.449H295.797H295.145H294.492H293.84H293.188H292.535H291.883H291.23H290.578H289.926H289.273H288.621H287.969H287.316H286.664H286.012H285.359H284.707H284.055H283.402H282.75H282.098H281.445H280.793H280.141H279.488H278.836H278.184H277.531H276.879H276.227H275.574H274.922H274.27H273.617H272.965H272.312H271.66H271.008H270.355H269.703H269.051H268.398H267.746H267.094H266.441H265.789H265.137H264.484H263.832H263.18H262.527H261.875H261.223H260.57H259.918H259.266H258.613H257.961H257.309H256.656H256.004H255.352H254.699H254.047H253.395H252.742H252.09H251.438H250.785H250.133H249.48H248.828H248.176H247.523H246.871H246.219H245.566H244.914H244.262H243.609H242.957H242.305H241.652H241H240.348H239.695H239.043H238.391H237.738H237.086H236.434H235.781H235.129H234.477H233.824H233.172H232.52H231.867H231.215H230.562H229.91H229.258H228.605H227.953H227.301H226.648H225.996H225.344H224.691H224.039H223.387H222.734H222.082H221.43H220.777H220.125H219.473H218.82H218.168H217.516H216.863H216.211H215.559H214.906H214.254H213.602H212.949H212.297H211.645H210.992H210.34H209.688H209.035H208.383H207.73H207.078H206.426H205.773H205.121H204.469H203.816H203.164H202.512H201.859H201.207H200.555H199.902H199.25H198.598H197.945H197.293H196.641H195.988H195.336H194.684H194.031H193.379H192.727H192.074H191.422H190.77H190.117H189.465H188.812H188.16H187.508H186.855H186.203H185.551H184.898H184.246H183.594H182.941H182.289H181.637H180.984H180.332H179.68H179.027H178.375H177.723H177.07H176.418H175.766H175.113H174.461H173.809H173.156H172.504H171.852H171.199H170.547H169.895H169.242H168.59H167.938H167.285H166.633H165.98H165.328H164.676H164.023H163.371H162.719H162.066H161.414H160.762H160.109H159.457H158.805H158.152H157.5H156.848H156.195H155.543H154.891H154.238H153.586H152.934H152.281H151.629H150.977H150.324H149.672H149.02H148.367H147.715H147.062H146.41H145.758H145.105H144.453H143.801H143.148H142.496H141.844H141.191H140.539H139.887H139.234H138.582H137.93H137.277H136.625H135.973H135.32H134.668H134.016H133.363H132.711H132.059H131.406H130.754H130.102H129.449H128.797H128.145H127.492H126.84H126.188H125.535H124.883H124.23H123.578H122.926H122.273H121.621H120.969H120.316H119.664H119.012H118.359H117.707H117.055H116.402H115.75H115.098H114.445H113.793H113.141H112.488H111.836H111.184H110.531H109.879H109.227H108.574H107.922H107.27H106.617H105.965H105.312H104.66H104.008H103.355H102.703H102.051H101.398H100.746H100.094H99.4414H98.7891H98.1367H97.4844H96.832H96.1797H95.5273H94.875H94.2227H93.5703H92.918H92.2656H91.6133H90.9609H90.3086H89.6562H89.0039H88.3516H87.6992H87.0469H86.3945H85.7422H85.0898H84.4375H83.7852H83.1328H82.4805H81.8281H81.1758H80.5234H79.8711H79.2188H78.5664H77.9141H77.2617H76.6094H75.957H75.3047H74.6523H74Z" stroke="#3F3F3F" stroke-width="0.5"/>
<g filter="url(#filter2_ii_304_1856)">
<path d="M478 229.903C478 226.648 478.425 223.407 479.263 220.262V220.262C479.462 219.518 480.136 219 480.907 219H481.504C481.778 219 482 219.222 482 219.496V320.504C482 320.778 481.778 321 481.504 321H480.907C480.136 321 479.462 320.482 479.263 319.738V319.738C478.425 316.593 478 313.352 478 310.097V229.903Z" fill="#1F1F1F"/>
</g>
<g filter="url(#filter3_ii_304_1856)">
<path d="M4 290.136C4 287.835 3.52277 285.559 2.59846 283.452V283.452C2.47788 283.178 2.20615 283 1.90601 283H0.562527C0.251852 283 0 283.252 0 283.563V344.437C0 344.748 0.251852 345 0.562528 345H1.90601C2.20615 345 2.47788 344.822 2.59846 344.548V344.548C3.52277 342.441 4 340.165 4 337.864V290.136Z" fill="#1F1F1F"/>
</g>
<g filter="url(#filter4_ii_304_1856)">
<path d="M4 202.136C4 199.835 3.52277 197.559 2.59846 195.452V195.452C2.47788 195.178 2.20615 195 1.90601 195H0.562527C0.251852 195 0 195.252 0 195.563V256.437C0 256.748 0.251852 257 0.562528 257H1.90601C2.20615 257 2.47788 256.822 2.59846 256.548V256.548C3.52277 254.441 4 252.165 4 249.864V202.136Z" fill="#1F1F1F"/>
</g>
<g filter="url(#filter5_ii_304_1856)">
<path d="M4 136.219C4 134.711 3.46356 133.251 2.48655 132.102V132.102C2.43164 132.037 2.35114 132 2.26637 132H0.724593C0.324411 132 0 132.324 0 132.725V163.275C0 163.676 0.324412 164 0.724594 164H2.26637C2.35114 164 2.43164 163.963 2.48655 163.898V163.898C3.46356 162.749 4 161.289 4 159.781V136.219Z" fill="#1F1F1F"/>
</g>
<rect x="472" y="91" width="8" height="10" fill="#7E818A"/>
<rect x="472" y="855" width="8" height="10" fill="#7E818A"/>
<rect x="2" y="91" width="8" height="10" fill="#7E818A"/>
<rect x="2" y="855" width="8" height="10" fill="#7E818A"/>
<rect x="186" y="30" width="110" height="30" rx="15" fill="#181818"/>
<circle cx="280" cy="45" r="6" fill="#3F3F3F" stroke="#1B1B1B" stroke-width="2"/>
<circle cx="280" cy="45" r="4" transform="rotate(-90 280 45)" fill="url(#paint0_linear_304_1856)"/>
<rect x="206.25" y="41.25" width="52.5" height="7.5" rx="3.75" fill="#3F3F3F" stroke="#1B1B1B" stroke-width="0.5"/>
</g>
<defs>
<filter id="filter0_i_304_1856" x="2" y="0" width="478" height="960" filterUnits="userSpaceOnUse" color-interpolation-filters="sRGB">
<feFlood flood-opacity="0" result="BackgroundImageFix"/>
<feBlend mode="normal" in="SourceGraphic" in2="BackgroundImageFix" result="shape"/>
<feColorMatrix in="SourceAlpha" type="matrix" values="0 0 0 0 0 0 0 0 0 0 0 0 0 0 0 0 0 0 127 0" result="hardAlpha"/>
<feOffset/>
<feGaussianBlur stdDeviation="4"/>
<feComposite in2="hardAlpha" operator="arithmetic" k2="-1" k3="1"/>
<feColorMatrix type="matrix" values="0 0 0 0 0.879152 0 0 0 0 0.879152 0 0 0 0 0.879152 0 0 0 0.56 0"/>
<feBlend mode="normal" in2="shape" result="effect1_innerShadow_304_1856"/>
</filter>
<filter id="filter1_i_304_1856" x="10" y="8" width="462" height="947" filterUnits="userSpaceOnUse" color-interpolation-filters="sRGB">
<feFlood flood-opacity="0" result="BackgroundImageFix"/>
<feBlend mode="normal" in="SourceGraphic" in2="BackgroundImageFix" result="shape"/>
<feColorMatrix in="SourceAlpha" type="matrix" values="0 0 0 0 0 0 0 0 0 0 0 0 0 0 0 0 0 0 127 0" result="hardAlpha"/>
<feOffset dy="3"/>
<feGaussianBlur stdDeviation="4"/>
<feComposite in2="hardAlpha" operator="arithmetic" k2="-1" k3="1"/>
<feColorMatrix type="matrix" values="0 0 0 0 0 0 0 0 0 0 0 0 0 0 0 0 0 0 0.04 0"/>
<feBlend mode="normal" in2="shape" result="effect1_innerShadow_304_1856"/>
</filter>
<filter id="filter2_ii_304_1856" x="477.5" y="219" width="4.5" height="102" filterUnits="userSpaceOnUse" color-interpolation-filters="sRGB">
<feFlood flood-opacity="0" result="BackgroundImageFix"/>
<feBlend mode="normal" in="SourceGraphic" in2="BackgroundImageFix" result="shape"/>
<feColorMatrix in="SourceAlpha" type="matrix" values="0 0 0 0 0 0 0 0 0 0 0 0 0 0 0 0 0 0 127 0" result="hardAlpha"/>
<feOffset dx="-0.5"/>
<feGaussianBlur stdDeviation="0.5"/>
<feComposite in2="hardAlpha" operator="arithmetic" k2="-1" k3="1"/>
<feColorMatrix type="matrix" values="0 0 0 0 1 0 0 0 0 1 0 0 0 0 1 0 0 0 0.4 0"/>
<feBlend mode="normal" in2="shape" result="effect1_innerShadow_304_1856"/>
<feColorMatrix in="SourceAlpha" type="matrix" values="0 0 0 0 0 0 0 0 0 0 0 0 0 0 0 0 0 0 127 0" result="hardAlpha"/>
<feOffset/>
<feGaussianBlur stdDeviation="1"/>
<feComposite in2="hardAlpha" operator="arithmetic" k2="-1" k3="1"/>
<feColorMatrix type="matrix" values="0 0 0 0 0 0 0 0 0 0 0 0 0 0 0 0 0 0 0.08 0"/>
<feBlend mode="normal" in2="effect1_innerShadow_304_1856" result="effect2_innerShadow_304_1856"/>
</filter>
<filter id="filter3_ii_304_1856" x="0" y="283" width="4.5" height="62" filterUnits="userSpaceOnUse" color-interpolation-filters="sRGB">
<feFlood flood-opacity="0" result="BackgroundImageFix"/>
<feBlend mode="normal" in="SourceGraphic" in2="BackgroundImageFix" result="shape"/>
<feColorMatrix in="SourceAlpha" type="matrix" values="0 0 0 0 0 0 0 0 0 0 0 0 0 0 0 0 0 0 127 0" result="hardAlpha"/>
<feOffset dx="0.5"/>
<feGaussianBlur stdDeviation="0.5"/>
<feComposite in2="hardAlpha" operator="arithmetic" k2="-1" k3="1"/>
<feColorMatrix type="matrix" values="0 0 0 0 1 0 0 0 0 1 0 0 0 0 1 0 0 0 0.4 0"/>
<feBlend mode="normal" in2="shape" result="effect1_innerShadow_304_1856"/>
<feColorMatrix in="SourceAlpha" type="matrix" values="0 0 0 0 0 0 0 0 0 0 0 0 0 0 0 0 0 0 127 0" result="hardAlpha"/>
<feOffset/>
<feGaussianBlur stdDeviation="1"/>
<feComposite in2="hardAlpha" operator="arithmetic" k2="-1" k3="1"/>
<feColorMatrix type="matrix" values="0 0 0 0 0 0 0 0 0 0 0 0 0 0 0 0 0 0 0.08 0"/>
<feBlend mode="normal" in2="effect1_innerShadow_304_1856" result="effect2_innerShadow_304_1856"/>
</filter>
<filter id="filter4_ii_304_1856" x="0" y="195" width="4.5" height="62" filterUnits="userSpaceOnUse" color-interpolation-filters="sRGB">
<feFlood flood-opacity="0" result="BackgroundImageFix"/>
<feBlend mode="normal" in="SourceGraphic" in2="BackgroundImageFix" result="shape"/>
<feColorMatrix in="SourceAlpha" type="matrix" values="0 0 0 0 0 0 0 0 0 0 0 0 0 0 0 0 0 0 127 0" result="hardAlpha"/>
<feOffset dx="0.5"/>
<feGaussianBlur stdDeviation="0.5"/>
<feComposite in2="hardAlpha" operator="arithmetic" k2="-1" k3="1"/>
<feColorMatrix type="matrix" values="0 0 0 0 1 0 0 0 0 1 0 0 0 0 1 0 0 0 0.4 0"/>
<feBlend mode="normal" in2="shape" result="effect1_innerShadow_304_1856"/>
<feColorMatrix in="SourceAlpha" type="matrix" values="0 0 0 0 0 0 0 0 0 0 0 0 0 0 0 0 0 0 127 0" result="hardAlpha"/>
<feOffset/>
<feGaussianBlur stdDeviation="1"/>
<feComposite in2="hardAlpha" operator="arithmetic" k2="-1" k3="1"/>
<feColorMatrix type="matrix" values="0 0 0 0 0 0 0 0 0 0 0 0 0 0 0 0 0 0 0.08 0"/>
<feBlend mode="normal" in2="effect1_innerShadow_304_1856" result="effect2_innerShadow_304_1856"/>
</filter>
<filter id="filter5_ii_304_1856" x="0" y="132" width="4.5" height="32" filterUnits="userSpaceOnUse" color-interpolation-filters="sRGB">
<feFlood flood-opacity="0" result="BackgroundImageFix"/>
<feBlend mode="normal" in="SourceGraphic" in2="BackgroundImageFix" result="shape"/>
<feColorMatrix in="SourceAlpha" type="matrix" values="0 0 0 0 0 0 0 0 0 0 0 0 0 0 0 0 0 0 127 0" result="hardAlpha"/>
<feOffset dx="0.5"/>
<feGaussianBlur stdDeviation="0.5"/>
<feComposite in2="hardAlpha" operator="arithmetic" k2="-1" k3="1"/>
<feColorMatrix type="matrix" values="0 0 0 0 1 0 0 0 0 1 0 0 0 0 1 0 0 0 0.4 0"/>
<feBlend mode="normal" in2="shape" result="effect1_innerShadow_304_1856"/>
<feColorMatrix in="SourceAlpha" type="matrix" values="0 0 0 0 0 0 0 0 0 0 0 0 0 0 0 0 0 0 127 0" result="hardAlpha"/>
<feOffset/>
<feGaussianBlur stdDeviation="1"/>
<feComposite in2="hardAlpha" operator="arithmetic" k2="-1" k3="1"/>
<feColorMatrix type="matrix" values="0 0 0 0 0 0 0 0 0 0 0 0 0 0 0 0 0 0 0.08 0"/>
<feBlend mode="normal" in2="effect1_innerShadow_304_1856" result="effect2_innerShadow_304_1856"/>
</filter>
<linearGradient id="paint0_linear_304_1856" x1="280" y1="41" x2="280" y2="49" gradientUnits="userSpaceOnUse">
<stop stop-color="#353535" stop-opacity="0.97"/>
<stop offset="1" stop-color="#11142C" stop-opacity="0.65"/>
</linearGradient>
<clipPath id="clip0_304_1856">
<rect width="482" height="960" fill="white"/>
</clipPath>
</defs>
</svg>
