<svg width="185" height="73" viewBox="0 0 185 73" fill="none" xmlns="http://www.w3.org/2000/svg">
<path d="M44.3252 16.8516C48.8096 16.8516 52.3997 18.8535 55.0957 22.8574C56.5371 25.2598 57.2578 27.9023 57.2578 30.7852C57.2578 35.7767 54.4951 40.1143 48.9697 43.7979C46.3538 45.1859 44.1517 45.8799 42.3633 45.8799H41.2422C38.3594 45.8799 35.7168 44.5319 33.3145 41.8359C31.4993 39.5404 30.5918 36.751 30.5918 33.4678V33.2676C30.5918 30.5449 32.18 27.2083 35.3564 23.2578V23.1777C32.0999 24.112 29.057 25.2064 26.2275 26.4609C22.8643 27.9824 19.5277 29.9043 16.2178 32.2266C10.1318 36.9512 7.08887 41.6357 7.08887 46.2803C7.08887 53.0602 10.1719 59.6934 16.3379 66.1797C16.8451 66.7402 17.0986 67.3675 17.0986 68.0615V68.6621C17.0986 70.237 16.2445 71.2913 14.5361 71.8252L13.8955 71.8652C12.6943 71.8652 11.5599 71.0778 10.4922 69.5029C6.00781 64.0576 3.08496 58.2119 1.72363 51.9658C1.21647 49.3499 0.962891 47.2012 0.962891 45.5195C0.962891 36.7376 7.36914 29.2236 20.1816 22.9775C29.4974 18.8936 37.5452 16.8516 44.3252 16.8516ZM36.8779 33.5078V33.9883C36.8779 37.138 38.3727 39.2734 41.3623 40.3945L42.6836 40.5947C44.6589 40.5947 46.9277 39.2334 49.4902 36.5107C51.1185 34.3486 51.9326 32.3734 51.9326 30.585C51.9326 28.3962 50.6247 26.2607 48.0088 24.1787C46.9678 23.6715 46.2337 23.418 45.8066 23.418C44.1784 23.418 41.8561 25.153 38.8398 28.623C37.5319 30.5449 36.8779 32.1732 36.8779 33.5078Z" fill="white"/>
<path d="M70.1104 42.3164C71.2848 39.9408 73.7939 38.9798 77.6377 39.4336C78.9456 39.5671 79.8532 40.1143 80.3604 41.0752C80.8675 42.0094 80.9743 42.917 80.6807 43.7979C80.4137 44.6787 79.8398 45.3193 78.959 45.7197C78.0781 46.0934 76.0895 46.2002 72.9932 46.04C69.8968 45.9066 68.9359 44.6654 70.1104 42.3164ZM74.2344 22.5771C76.5566 22.7907 78.0781 24.3389 78.7988 27.2217C78.9056 28.236 78.9189 29.1569 78.8389 29.9844C78.3584 35.5098 75.3288 42.3031 69.75 50.3643C67.9616 52.9268 64.7585 56.3167 60.1406 60.5342C55.416 64.8317 52.3864 67.1673 51.0518 67.541L50.4512 67.501C49.4635 67.4209 48.6761 66.7269 48.0889 65.4189C47.902 65.0719 47.8353 64.6315 47.8887 64.0977L47.9287 63.9375C48.0622 62.416 49.0765 61.0814 50.9717 59.9336C53.0003 58.1986 55.2025 56.1966 57.5781 53.9277C60.9414 50.7246 63.4372 47.8018 65.0654 45.1592C61.5954 43.7178 60.0472 41.4089 60.4209 38.2324C60.3942 34.8158 62.8499 30.4648 67.7881 25.1797C70.057 23.2578 72.2057 22.3903 74.2344 22.5771ZM67.4678 36.3906C66.8538 37.9922 67.1875 38.9131 68.4688 39.1533C69.1628 38.6729 70.1104 36.8177 71.3115 33.5879L72.0723 30.3848C69.6432 32.7604 68.1084 34.7624 67.4678 36.3906Z" fill="white"/>
<path d="M87.4473 44.0781C84.5378 45.653 81.3079 46.2803 77.7578 45.96C75.5156 45.7197 74.4613 44.6787 74.5947 42.8369C74.7282 40.9684 75.7425 39.8874 77.6377 39.5938C82.2021 39.5137 85.5254 38.5394 87.6074 36.6709C89.6895 34.8024 90.984 32.0931 91.4912 28.543C92.0251 24.9928 93.0127 22.764 94.4541 21.8564C94.4541 21.6963 94.8545 21.6029 95.6553 21.5762C98.5114 22.1367 99.4323 24.2855 98.418 28.0225C97.377 32.9339 96.0156 36.444 94.334 38.5527C92.6523 40.6348 90.3568 42.4766 87.4473 44.0781ZM92.1719 51.4053C93.026 51.4053 93.6533 51.779 94.0537 52.5264L93.1328 55.249C92.9193 56.1566 87.3405 57.2109 76.3965 58.4121H76.1162C73.7939 58.4121 72.6328 57.7181 72.6328 56.3301C72.6328 54.5684 73.9408 53.3939 76.5566 52.8066L92.1719 51.4053Z" fill="white"/>
<path d="M124.203 22.8174C125.378 22.8174 126.299 23.418 126.966 24.6191C127.153 24.9928 127.246 25.4066 127.246 25.8604V25.9805C127.246 26.6745 126.846 27.5954 126.045 28.7432C124.577 31.2256 122.989 33.7347 121.28 36.2705C120.186 38.1924 118.438 40.568 116.035 43.3975C111.738 49.0296 106.452 55.3691 100.18 62.416C97.4036 65.459 94.9346 68.1149 92.7725 70.3838C91.7581 71.5316 91.0775 72.1055 90.7305 72.1055C90.4102 72.2656 89.9964 72.3457 89.4893 72.3457C88.2614 72.3457 87.3271 71.6784 86.6865 70.3438C86.5531 69.9967 86.4863 69.6764 86.4863 69.3828V69.1426C86.4863 68.1816 87.0736 67.2074 88.248 66.2197C88.248 66.1396 90.5036 63.8975 95.0146 59.4932C99.766 54.7152 102.756 51.5254 103.983 49.9238C107.48 45.8132 110.443 41.9427 112.872 38.3125C115.968 33.668 118.891 28.9167 121.641 24.0586C122.308 23.2311 123.162 22.8174 124.203 22.8174Z" fill="white"/>
<path d="M136.255 42.3164C137.429 39.9408 139.938 38.9798 143.782 39.4336C145.09 39.5671 145.998 40.1143 146.505 41.0752C147.012 42.0094 147.119 42.917 146.825 43.7979C146.558 44.6787 145.984 45.3193 145.104 45.7197C144.223 46.0934 142.234 46.2002 139.138 46.04C136.041 45.9066 135.08 44.6654 136.255 42.3164ZM140.379 22.5771C142.701 22.7907 144.223 24.3389 144.943 27.2217C145.05 28.236 145.063 29.1569 144.983 29.9844C144.503 35.5098 141.473 42.3031 135.895 50.3643C134.106 52.9268 130.903 56.3167 126.285 60.5342C121.561 64.8317 118.531 67.1673 117.196 67.541L116.596 67.501C115.608 67.4209 114.821 66.7269 114.233 65.4189C114.047 65.0719 113.98 64.6315 114.033 64.0977L114.073 63.9375C114.207 62.416 115.221 61.0814 117.116 59.9336C119.145 58.1986 121.347 56.1966 123.723 53.9277C127.086 50.7246 129.582 47.8018 131.21 45.1592C127.74 43.7178 126.192 41.4089 126.565 38.2324C126.539 34.8158 128.994 30.4648 133.933 25.1797C136.201 23.2578 138.35 22.3903 140.379 22.5771ZM133.612 36.3906C132.998 37.9922 133.332 38.9131 134.613 39.1533C135.307 38.6729 136.255 36.8177 137.456 33.5879L138.217 30.3848C135.788 32.7604 134.253 34.7624 133.612 36.3906Z" fill="white"/>
<path d="M157.556 33.8682C157.315 34.6423 157.222 35.71 157.275 37.0713C157.329 38.4059 158.276 39.1934 160.118 39.4336C161.8 39.3001 162.868 40.2744 163.321 42.3564V43.0771C162.894 45.0257 161.786 46 159.998 46C155.594 46.0267 153.165 44.3984 152.711 41.1152C151.536 42.9303 150.322 44.1982 149.067 44.9189C147.813 45.6396 146.265 46.04 144.423 46.1201C142.047 45.7464 140.939 44.5719 141.1 42.5967C141.233 40.6214 142.301 39.4736 144.303 39.1533C147.452 39.1533 149.855 36.6709 151.51 31.7061C153.191 26.7412 154.499 23.765 155.434 22.7773C156.368 21.7897 157.409 21.4694 158.557 21.8164C160.772 22.9375 161.092 25.0996 159.518 28.3027C158.45 31.2122 157.796 33.0674 157.556 33.8682ZM156.635 0.956055C158.583 0.956055 160.238 2.2373 161.6 4.7998V5.60059C161.6 6.90853 160.425 7.81608 158.076 8.32324H157.275C155.247 8.32324 154.019 6.77507 153.592 3.67871C153.592 2.13053 154.606 1.22298 156.635 0.956055Z" fill="white"/>
<path d="M178.056 23.2979H178.256C179.964 23.2979 181.379 24.1387 182.5 25.8203C183.648 27.502 184.168 29.9443 184.062 33.1475C183.981 36.3239 183.101 39.2601 181.419 41.9561C179.737 44.652 177.028 46.04 173.291 46.1201C169.981 45.8532 167.699 44.4919 166.444 42.0361C163.989 44.9723 161.733 46.2803 159.678 45.96C157.996 45.5062 157.129 44.5586 157.075 43.1172C156.995 41.6491 157.382 40.6481 158.236 40.1143C159.09 39.5537 160.011 39.2201 160.999 39.1133C162.013 38.9798 163.121 38.1657 164.322 36.6709C165.523 35.1761 167.392 32.5736 169.928 28.8633C172.464 25.153 175.173 23.2979 178.056 23.2979ZM172.931 40.1143C174.452 40.5146 175.934 40.0342 177.375 38.6729C178.843 37.2848 179.524 35.7233 179.417 33.9883C179.337 32.2266 178.736 31.1055 177.615 30.625C176.494 30.1445 175.039 31.1055 173.251 33.5078C171.463 35.9102 170.435 37.4717 170.168 38.1924C170.488 39.0732 171.409 39.7139 172.931 40.1143Z" fill="white"/>
</svg>
