<svg width="596" height="580" viewBox="0 0 596 580" fill="none" xmlns="http://www.w3.org/2000/svg">
<rect x="52.9607" y="63.9538" width="511.31" height="511.469" rx="20" fill="#2C2C2C"/>
<mask id="path-2-outside-1_932_13137" maskUnits="userSpaceOnUse" x="0.858643" y="-0.577637" width="595" height="580" fill="black">
<rect fill="white" x="0.858643" y="-0.577637" width="595" height="580"/>
<path d="M382.931 505.693C379.826 510.345 374.86 514.428 368.033 517.94C361.412 521.142 354.382 520.258 346.94 515.288C342.909 512.596 338.261 504.783 332.996 491.85C327.421 478.71 321.176 462.88 314.26 444.36C307.552 425.53 300.378 406.389 292.74 386.938C288.301 375.454 283.038 360.503 276.949 342.088C270.551 323.465 263.895 303.549 256.981 282.339C249.964 260.613 242.844 239.714 235.619 219.642C228.601 199.26 221.84 181.516 215.336 166.41C211.826 158.236 208.108 151.045 204.183 144.836C200.258 138.627 196.28 134.177 192.249 131.485C186.358 127.55 180.102 127.184 173.482 130.386C166.552 133.381 158.946 141.082 150.665 153.488C144.041 163.414 136.379 178.252 127.679 198.002C118.877 217.236 110.124 239.417 101.421 264.546C92.925 289.365 85.0486 315.27 77.792 342.262C71.7792 364.704 66.5937 387.25 62.2353 409.899C58.084 432.239 55.2778 453.235 53.8167 472.887C52.0456 492.331 52.0342 509.14 53.7825 523.312C54.5038 526.933 55.7938 530.709 57.6524 534.641C59.408 538.055 61.5261 540.591 64.0066 542.248C66.1772 543.697 68.9687 544.216 72.3814 543.805C75.4839 543.186 78.6914 540.396 82.0037 535.433C84.6949 531.401 86.8157 529.902 88.3661 530.938C88.9862 531.352 89.0888 532.542 88.6739 534.507C88.2589 536.472 87.2754 538.281 85.7232 539.935C72.1702 550.166 60.6364 556.364 51.1217 558.53C41.814 560.386 34.2145 559.346 28.3231 555.412C23.672 552.305 21.196 543.925 20.8951 530.271C20.5942 516.618 22.1569 499.5 25.5832 478.918C28.6995 458.13 33.3164 435.429 39.434 410.815C45.4485 385.684 52.4973 360.347 60.5802 334.803C70.943 301.814 82.7528 270.015 96.0094 239.407C108.956 208.592 122.675 182.328 137.166 160.616C151.037 139.835 165.161 125.053 179.541 116.271C193.817 106.971 207.621 106.774 220.954 115.679C226.846 119.613 232.993 128.203 239.395 141.447C245.694 154.174 252.094 170.107 258.595 189.248C264.994 207.87 271.391 227.838 277.788 249.15C284.185 270.463 290.53 291.516 296.823 312.311C302.807 332.899 308.429 351.677 313.692 368.644C318.954 385.611 323.804 399.165 328.244 409.304C329.896 412.202 331.653 414.272 333.513 415.514L333.978 415.825C335.839 417.067 337.338 417.172 338.476 416.138C339.614 415.105 339.822 413.45 339.1 411.174C336.109 400.207 332.552 385.052 328.429 365.706C324.306 346.361 320.132 324.74 315.909 300.843C311.686 276.946 308.238 252.895 305.566 228.689C302.791 203.966 301.566 180.95 301.89 159.642C302.004 144.024 303.772 129.285 307.194 115.427C310.616 101.569 314.707 91.0726 319.469 83.9388C321.953 80.2167 325.626 77.7367 330.487 76.4988C335.554 74.9507 340.57 74.4887 345.533 75.1126C350.393 75.2194 353.908 75.9976 356.078 77.4472C361.97 81.3818 368.066 89.0402 374.365 100.422C380.355 111.598 386.654 124.997 393.261 140.62C400.075 155.934 407.458 172.075 415.409 189.044C423.566 205.703 432.396 221.69 441.899 237.005C451.092 252.113 461.269 264.739 472.43 274.883C473.05 275.297 473.825 275.815 474.755 276.436C475.685 277.058 476.512 277.162 477.237 276.748C478.582 275.405 479.719 275.043 480.65 275.665C482.51 276.907 481.888 279.855 478.782 284.507C473.814 291.951 467.144 292.878 458.772 287.286C455.671 285.216 452.622 282.731 449.625 279.833C446.526 276.417 443.374 272.743 440.171 268.81C430.666 257.529 421.626 245.886 413.051 233.882C404.374 221.36 396.885 209.408 390.585 198.026C384.492 186.333 378.296 174.796 371.996 163.414C365.593 151.514 358.414 139.769 350.46 128.179C346.638 122.487 342.556 118.192 338.215 115.293C333.564 112.187 329.274 110.891 325.344 111.405C321.415 111.92 318.415 113.728 316.344 116.829C310.858 125.721 308.16 139.839 308.25 159.181C308.34 178.524 310.393 200.971 314.409 226.523C318.114 251.867 323.111 278.299 329.4 305.817C335.689 333.335 342.444 359.82 349.665 385.27C356.886 410.72 363.799 433.274 370.403 452.932C376.698 472.382 381.858 486.815 385.885 496.23C386.4 498.817 385.415 501.971 382.931 505.693ZM573.915 207.46C572.673 209.321 569.776 211.646 565.224 214.436C560.983 217.433 555.087 220.222 547.537 222.802C541.538 225.074 534.197 223.31 525.515 217.512C522.724 215.648 519.882 213.526 516.988 211.145C514.302 208.454 511.46 205.659 508.463 202.761C501.644 195.516 494.773 186.667 487.852 176.215C480.931 165.763 474.424 155.364 468.33 145.016C462.133 134.151 456.711 124.476 452.063 115.991C447.623 107.196 444.473 100.832 442.615 96.9004C440.446 92.7614 438.432 89.3983 436.573 86.8112C434.92 83.9138 433.422 81.7923 432.079 80.4467L431.149 79.8255C429.598 78.7901 427.944 78.5821 426.186 79.2015C424.634 79.5108 423.548 80.803 422.926 83.0782C422.097 85.6635 422.558 92.0252 424.309 102.163C425.75 112.094 427.346 121.456 429.098 130.249C431.675 141.836 435.543 155.854 440.702 172.304C445.551 188.547 450.762 204.583 456.335 220.413C462.116 235.932 467.535 248.969 472.595 259.523C473.937 262.213 474.298 264.024 473.677 264.954C473.47 265.264 473.056 265.212 472.436 264.798C471.816 264.384 470.783 263.246 469.337 261.383C467.787 259.003 465.412 253.829 462.212 245.862C458.702 237.688 454.934 228.894 450.907 219.478C446.881 210.063 443.423 201.475 440.533 193.716C437.333 185.749 435.423 180.886 434.804 179.127C425.72 155.124 418.343 131.587 412.671 108.517C407.207 85.1362 402.208 61.3941 397.674 37.2903C400.157 36.2576 402.588 34.294 404.968 31.3994C407.349 28.5048 409.677 26.0239 411.953 23.9567C413.505 22.3028 415.574 21.2181 418.16 20.7027C420.435 19.9802 423.123 20.6543 426.224 22.7252C430.255 25.4173 434.078 29.7642 437.693 35.766C443.065 43.8377 449.21 54.4441 456.129 67.5853C462.945 80.2092 469.916 93.6089 477.041 107.785C484.063 121.443 490.672 134.377 496.868 146.587C502.754 158.589 507.504 168.264 511.119 175.61C519.173 191.752 528.162 203.136 538.084 209.763C546.766 215.561 553.281 215.204 557.628 208.69C560.319 204.658 561.927 197.884 562.45 188.368C562.452 185.679 561.576 181.282 559.822 175.178C558.276 168.764 556.366 163.229 554.095 158.573C553.165 156.607 553.063 155.417 553.787 155.004C554.718 154.28 555.752 154.747 556.888 156.402C558.954 160.024 561.071 163.904 563.24 168.043C565.305 171.665 567.267 175.442 569.126 179.374C572.224 185.478 574.237 190.859 575.164 195.514C576.402 200.376 575.985 204.358 573.915 207.46Z"/>
</mask>
<path d="M382.931 505.693C379.826 510.345 374.86 514.428 368.033 517.94C361.412 521.142 354.382 520.258 346.94 515.288C342.909 512.596 338.261 504.783 332.996 491.85C327.421 478.71 321.176 462.88 314.26 444.36C307.552 425.53 300.378 406.389 292.74 386.938C288.301 375.454 283.038 360.503 276.949 342.088C270.551 323.465 263.895 303.549 256.981 282.339C249.964 260.613 242.844 239.714 235.619 219.642C228.601 199.26 221.84 181.516 215.336 166.41C211.826 158.236 208.108 151.045 204.183 144.836C200.258 138.627 196.28 134.177 192.249 131.485C186.358 127.55 180.102 127.184 173.482 130.386C166.552 133.381 158.946 141.082 150.665 153.488C144.041 163.414 136.379 178.252 127.679 198.002C118.877 217.236 110.124 239.417 101.421 264.546C92.925 289.365 85.0486 315.27 77.792 342.262C71.7792 364.704 66.5937 387.25 62.2353 409.899C58.084 432.239 55.2778 453.235 53.8167 472.887C52.0456 492.331 52.0342 509.14 53.7825 523.312C54.5038 526.933 55.7938 530.709 57.6524 534.641C59.408 538.055 61.5261 540.591 64.0066 542.248C66.1772 543.697 68.9687 544.216 72.3814 543.805C75.4839 543.186 78.6914 540.396 82.0037 535.433C84.6949 531.401 86.8157 529.902 88.3661 530.938C88.9862 531.352 89.0888 532.542 88.6739 534.507C88.2589 536.472 87.2754 538.281 85.7232 539.935C72.1702 550.166 60.6364 556.364 51.1217 558.53C41.814 560.386 34.2145 559.346 28.3231 555.412C23.672 552.305 21.196 543.925 20.8951 530.271C20.5942 516.618 22.1569 499.5 25.5832 478.918C28.6995 458.13 33.3164 435.429 39.434 410.815C45.4485 385.684 52.4973 360.347 60.5802 334.803C70.943 301.814 82.7528 270.015 96.0094 239.407C108.956 208.592 122.675 182.328 137.166 160.616C151.037 139.835 165.161 125.053 179.541 116.271C193.817 106.971 207.621 106.774 220.954 115.679C226.846 119.613 232.993 128.203 239.395 141.447C245.694 154.174 252.094 170.107 258.595 189.248C264.994 207.87 271.391 227.838 277.788 249.15C284.185 270.463 290.53 291.516 296.823 312.311C302.807 332.899 308.429 351.677 313.692 368.644C318.954 385.611 323.804 399.165 328.244 409.304C329.896 412.202 331.653 414.272 333.513 415.514L333.978 415.825C335.839 417.067 337.338 417.172 338.476 416.138C339.614 415.105 339.822 413.45 339.1 411.174C336.109 400.207 332.552 385.052 328.429 365.706C324.306 346.361 320.132 324.74 315.909 300.843C311.686 276.946 308.238 252.895 305.566 228.689C302.791 203.966 301.566 180.95 301.89 159.642C302.004 144.024 303.772 129.285 307.194 115.427C310.616 101.569 314.707 91.0726 319.469 83.9388C321.953 80.2167 325.626 77.7367 330.487 76.4988C335.554 74.9507 340.57 74.4887 345.533 75.1126C350.393 75.2194 353.908 75.9976 356.078 77.4472C361.97 81.3818 368.066 89.0402 374.365 100.422C380.355 111.598 386.654 124.997 393.261 140.62C400.075 155.934 407.458 172.075 415.409 189.044C423.566 205.703 432.396 221.69 441.899 237.005C451.092 252.113 461.269 264.739 472.43 274.883C473.05 275.297 473.825 275.815 474.755 276.436C475.685 277.058 476.512 277.162 477.237 276.748C478.582 275.405 479.719 275.043 480.65 275.665C482.51 276.907 481.888 279.855 478.782 284.507C473.814 291.951 467.144 292.878 458.772 287.286C455.671 285.216 452.622 282.731 449.625 279.833C446.526 276.417 443.374 272.743 440.171 268.81C430.666 257.529 421.626 245.886 413.051 233.882C404.374 221.36 396.885 209.408 390.585 198.026C384.492 186.333 378.296 174.796 371.996 163.414C365.593 151.514 358.414 139.769 350.46 128.179C346.638 122.487 342.556 118.192 338.215 115.293C333.564 112.187 329.274 110.891 325.344 111.405C321.415 111.92 318.415 113.728 316.344 116.829C310.858 125.721 308.16 139.839 308.25 159.181C308.34 178.524 310.393 200.971 314.409 226.523C318.114 251.867 323.111 278.299 329.4 305.817C335.689 333.335 342.444 359.82 349.665 385.27C356.886 410.72 363.799 433.274 370.403 452.932C376.698 472.382 381.858 486.815 385.885 496.23C386.4 498.817 385.415 501.971 382.931 505.693ZM573.915 207.46C572.673 209.321 569.776 211.646 565.224 214.436C560.983 217.433 555.087 220.222 547.537 222.802C541.538 225.074 534.197 223.31 525.515 217.512C522.724 215.648 519.882 213.526 516.988 211.145C514.302 208.454 511.46 205.659 508.463 202.761C501.644 195.516 494.773 186.667 487.852 176.215C480.931 165.763 474.424 155.364 468.33 145.016C462.133 134.151 456.711 124.476 452.063 115.991C447.623 107.196 444.473 100.832 442.615 96.9004C440.446 92.7614 438.432 89.3983 436.573 86.8112C434.92 83.9138 433.422 81.7923 432.079 80.4467L431.149 79.8255C429.598 78.7901 427.944 78.5821 426.186 79.2015C424.634 79.5108 423.548 80.803 422.926 83.0782C422.097 85.6635 422.558 92.0252 424.309 102.163C425.75 112.094 427.346 121.456 429.098 130.249C431.675 141.836 435.543 155.854 440.702 172.304C445.551 188.547 450.762 204.583 456.335 220.413C462.116 235.932 467.535 248.969 472.595 259.523C473.937 262.213 474.298 264.024 473.677 264.954C473.47 265.264 473.056 265.212 472.436 264.798C471.816 264.384 470.783 263.246 469.337 261.383C467.787 259.003 465.412 253.829 462.212 245.862C458.702 237.688 454.934 228.894 450.907 219.478C446.881 210.063 443.423 201.475 440.533 193.716C437.333 185.749 435.423 180.886 434.804 179.127C425.72 155.124 418.343 131.587 412.671 108.517C407.207 85.1362 402.208 61.3941 397.674 37.2903C400.157 36.2576 402.588 34.294 404.968 31.3994C407.349 28.5048 409.677 26.0239 411.953 23.9567C413.505 22.3028 415.574 21.2181 418.16 20.7027C420.435 19.9802 423.123 20.6543 426.224 22.7252C430.255 25.4173 434.078 29.7642 437.693 35.766C443.065 43.8377 449.21 54.4441 456.129 67.5853C462.945 80.2092 469.916 93.6089 477.041 107.785C484.063 121.443 490.672 134.377 496.868 146.587C502.754 158.589 507.504 168.264 511.119 175.61C519.173 191.752 528.162 203.136 538.084 209.763C546.766 215.561 553.281 215.204 557.628 208.69C560.319 204.658 561.927 197.884 562.45 188.368C562.452 185.679 561.576 181.282 559.822 175.178C558.276 168.764 556.366 163.229 554.095 158.573C553.165 156.607 553.063 155.417 553.787 155.004C554.718 154.28 555.752 154.747 556.888 156.402C558.954 160.024 561.071 163.904 563.24 168.043C565.305 171.665 567.267 175.442 569.126 179.374C572.224 185.478 574.237 190.859 575.164 195.514C576.402 200.376 575.985 204.358 573.915 207.46Z" fill="url(#paint0_linear_932_13137)"/>
<path d="M382.931 505.693C379.826 510.345 374.86 514.428 368.033 517.94C361.412 521.142 354.382 520.258 346.94 515.288C342.909 512.596 338.261 504.783 332.996 491.85C327.421 478.71 321.176 462.88 314.26 444.36C307.552 425.53 300.378 406.389 292.74 386.938C288.301 375.454 283.038 360.503 276.949 342.088C270.551 323.465 263.895 303.549 256.981 282.339C249.964 260.613 242.844 239.714 235.619 219.642C228.601 199.26 221.84 181.516 215.336 166.41C211.826 158.236 208.108 151.045 204.183 144.836C200.258 138.627 196.28 134.177 192.249 131.485C186.358 127.55 180.102 127.184 173.482 130.386C166.552 133.381 158.946 141.082 150.665 153.488C144.041 163.414 136.379 178.252 127.679 198.002C118.877 217.236 110.124 239.417 101.421 264.546C92.925 289.365 85.0486 315.27 77.792 342.262C71.7792 364.704 66.5937 387.25 62.2353 409.899C58.084 432.239 55.2778 453.235 53.8167 472.887C52.0456 492.331 52.0342 509.14 53.7825 523.312C54.5038 526.933 55.7938 530.709 57.6524 534.641C59.408 538.055 61.5261 540.591 64.0066 542.248C66.1772 543.697 68.9687 544.216 72.3814 543.805C75.4839 543.186 78.6914 540.396 82.0037 535.433C84.6949 531.401 86.8157 529.902 88.3661 530.938C88.9862 531.352 89.0888 532.542 88.6739 534.507C88.2589 536.472 87.2754 538.281 85.7232 539.935C72.1702 550.166 60.6364 556.364 51.1217 558.53C41.814 560.386 34.2145 559.346 28.3231 555.412C23.672 552.305 21.196 543.925 20.8951 530.271C20.5942 516.618 22.1569 499.5 25.5832 478.918C28.6995 458.13 33.3164 435.429 39.434 410.815C45.4485 385.684 52.4973 360.347 60.5802 334.803C70.943 301.814 82.7528 270.015 96.0094 239.407C108.956 208.592 122.675 182.328 137.166 160.616C151.037 139.835 165.161 125.053 179.541 116.271C193.817 106.971 207.621 106.774 220.954 115.679C226.846 119.613 232.993 128.203 239.395 141.447C245.694 154.174 252.094 170.107 258.595 189.248C264.994 207.87 271.391 227.838 277.788 249.15C284.185 270.463 290.53 291.516 296.823 312.311C302.807 332.899 308.429 351.677 313.692 368.644C318.954 385.611 323.804 399.165 328.244 409.304C329.896 412.202 331.653 414.272 333.513 415.514L333.978 415.825C335.839 417.067 337.338 417.172 338.476 416.138C339.614 415.105 339.822 413.45 339.1 411.174C336.109 400.207 332.552 385.052 328.429 365.706C324.306 346.361 320.132 324.74 315.909 300.843C311.686 276.946 308.238 252.895 305.566 228.689C302.791 203.966 301.566 180.95 301.89 159.642C302.004 144.024 303.772 129.285 307.194 115.427C310.616 101.569 314.707 91.0726 319.469 83.9388C321.953 80.2167 325.626 77.7367 330.487 76.4988C335.554 74.9507 340.57 74.4887 345.533 75.1126C350.393 75.2194 353.908 75.9976 356.078 77.4472C361.97 81.3818 368.066 89.0402 374.365 100.422C380.355 111.598 386.654 124.997 393.261 140.62C400.075 155.934 407.458 172.075 415.409 189.044C423.566 205.703 432.396 221.69 441.899 237.005C451.092 252.113 461.269 264.739 472.43 274.883C473.05 275.297 473.825 275.815 474.755 276.436C475.685 277.058 476.512 277.162 477.237 276.748C478.582 275.405 479.719 275.043 480.65 275.665C482.51 276.907 481.888 279.855 478.782 284.507C473.814 291.951 467.144 292.878 458.772 287.286C455.671 285.216 452.622 282.731 449.625 279.833C446.526 276.417 443.374 272.743 440.171 268.81C430.666 257.529 421.626 245.886 413.051 233.882C404.374 221.36 396.885 209.408 390.585 198.026C384.492 186.333 378.296 174.796 371.996 163.414C365.593 151.514 358.414 139.769 350.46 128.179C346.638 122.487 342.556 118.192 338.215 115.293C333.564 112.187 329.274 110.891 325.344 111.405C321.415 111.92 318.415 113.728 316.344 116.829C310.858 125.721 308.16 139.839 308.25 159.181C308.34 178.524 310.393 200.971 314.409 226.523C318.114 251.867 323.111 278.299 329.4 305.817C335.689 333.335 342.444 359.82 349.665 385.27C356.886 410.72 363.799 433.274 370.403 452.932C376.698 472.382 381.858 486.815 385.885 496.23C386.4 498.817 385.415 501.971 382.931 505.693ZM573.915 207.46C572.673 209.321 569.776 211.646 565.224 214.436C560.983 217.433 555.087 220.222 547.537 222.802C541.538 225.074 534.197 223.31 525.515 217.512C522.724 215.648 519.882 213.526 516.988 211.145C514.302 208.454 511.46 205.659 508.463 202.761C501.644 195.516 494.773 186.667 487.852 176.215C480.931 165.763 474.424 155.364 468.33 145.016C462.133 134.151 456.711 124.476 452.063 115.991C447.623 107.196 444.473 100.832 442.615 96.9004C440.446 92.7614 438.432 89.3983 436.573 86.8112C434.92 83.9138 433.422 81.7923 432.079 80.4467L431.149 79.8255C429.598 78.7901 427.944 78.5821 426.186 79.2015C424.634 79.5108 423.548 80.803 422.926 83.0782C422.097 85.6635 422.558 92.0252 424.309 102.163C425.75 112.094 427.346 121.456 429.098 130.249C431.675 141.836 435.543 155.854 440.702 172.304C445.551 188.547 450.762 204.583 456.335 220.413C462.116 235.932 467.535 248.969 472.595 259.523C473.937 262.213 474.298 264.024 473.677 264.954C473.47 265.264 473.056 265.212 472.436 264.798C471.816 264.384 470.783 263.246 469.337 261.383C467.787 259.003 465.412 253.829 462.212 245.862C458.702 237.688 454.934 228.894 450.907 219.478C446.881 210.063 443.423 201.475 440.533 193.716C437.333 185.749 435.423 180.886 434.804 179.127C425.72 155.124 418.343 131.587 412.671 108.517C407.207 85.1362 402.208 61.3941 397.674 37.2903C400.157 36.2576 402.588 34.294 404.968 31.3994C407.349 28.5048 409.677 26.0239 411.953 23.9567C413.505 22.3028 415.574 21.2181 418.16 20.7027C420.435 19.9802 423.123 20.6543 426.224 22.7252C430.255 25.4173 434.078 29.7642 437.693 35.766C443.065 43.8377 449.21 54.4441 456.129 67.5853C462.945 80.2092 469.916 93.6089 477.041 107.785C484.063 121.443 490.672 134.377 496.868 146.587C502.754 158.589 507.504 168.264 511.119 175.61C519.173 191.752 528.162 203.136 538.084 209.763C546.766 215.561 553.281 215.204 557.628 208.69C560.319 204.658 561.927 197.884 562.45 188.368C562.452 185.679 561.576 181.282 559.822 175.178C558.276 168.764 556.366 163.229 554.095 158.573C553.165 156.607 553.063 155.417 553.787 155.004C554.718 154.28 555.752 154.747 556.888 156.402C558.954 160.024 561.071 163.904 563.24 168.043C565.305 171.665 567.267 175.442 569.126 179.374C572.224 185.478 574.237 190.859 575.164 195.514C576.402 200.376 575.985 204.358 573.915 207.46Z" stroke="#383838" stroke-width="40" mask="url(#path-2-outside-1_932_13137)"/>
<defs>
<linearGradient id="paint0_linear_932_13137" x1="20.8586" y1="289.922" x2="575.859" y2="289.922" gradientUnits="userSpaceOnUse">
<stop stop-color="#97C7D1"/>
<stop offset="1" stop-color="#9C84B4"/>
</linearGradient>
</defs>
</svg>
