<svg width="291" height="291" viewBox="0 0 291 291" fill="none" xmlns="http://www.w3.org/2000/svg">
<path d="M3.49732 120.976C-10.9891 208.958 31.9703 270.445 93.9112 282.943C155.852 295.44 188.322 295.44 236.276 249.949L237.081 249.186C284.514 204.193 309.504 180.489 273.74 96.4805C237.774 11.9976 177.332 5.49888 147.86 0.499897C118.388 -4.49909 17.9837 32.9933 3.49732 120.976Z" fill="#313131"/>
<path d="M120.26 120.852L124.998 118.058L120.26 120.852C120.964 122.044 121.398 123.376 121.534 124.755L131.063 221.512C131.957 230.585 139.586 237.5 148.703 237.5C158.492 237.5 166.427 229.564 166.427 219.775V116.794C166.427 106.875 175.991 99.7619 185.49 102.615C192.176 104.623 196.551 111.03 195.987 117.988L187.784 219.317C186.99 229.113 194.726 237.5 204.554 237.5C213.327 237.5 220.628 230.759 221.326 222.014L230.169 111.27C232.226 85.513 212.446 63.2147 186.627 62.1848L96.7499 58.5997C66.702 57.4012 43.7769 85.1621 50.6356 114.441L76.3853 224.363C78.1879 232.059 85.0513 237.5 92.9549 237.5C102.884 237.5 110.705 229.035 109.92 219.136L102.568 126.44C101.77 116.374 115.131 112.153 120.26 120.852Z" fill="url(#paint0_linear_935_13203)" stroke="#3D3D3D" stroke-width="11"/>
<defs>
<linearGradient id="paint0_linear_935_13203" x1="44" y1="147" x2="228" y2="147" gradientUnits="userSpaceOnUse">
<stop stop-color="#97C7D1"/>
<stop offset="1" stop-color="#9C84B4"/>
</linearGradient>
</defs>
</svg>
