<svg width="240" height="240" viewBox="0 0 240 240" fill="none" xmlns="http://www.w3.org/2000/svg">
<rect width="240" height="240" rx="20" fill="#2C2C2C"/>
<mask id="path-2-outside-1_908_13975" maskUnits="userSpaceOnUse" x="23" y="32" width="194" height="176" fill="black">
<rect fill="white" x="23" y="32" width="194" height="176"/>
<path d="M105.917 89.9617V197.649H100.284V89.9617C100.284 88.4466 100.023 87.1666 99.5018 86.1217C99.0324 85.0245 98.4065 84.1886 97.6241 83.6139C96.8417 83.0392 95.7986 82.5951 94.4946 82.2816C93.2428 81.9159 92.0171 81.7069 90.8174 81.6546C89.6178 81.5501 88.1313 81.4979 86.3579 81.4979C84.5845 81.4979 83.098 81.5501 81.8984 81.6546C80.6987 81.7069 79.4469 81.9159 78.143 82.2816C76.8912 82.5951 75.8741 83.0392 75.0917 83.6139C74.3094 84.1886 73.6574 85.0245 73.1358 86.1217C72.6664 87.1666 72.4317 88.4466 72.4317 89.9617V197.649H66.7986V89.9617C66.7986 80.5575 73.3183 75.8553 86.3579 75.8553C99.3975 75.8553 105.917 80.5575 105.917 89.9617ZM117.183 89.9617V197.649H111.55V89.9617C111.55 83.3265 109.203 78.3893 104.509 75.15C99.8669 71.8585 93.8165 70.2128 86.3579 70.2128C78.8993 70.2128 72.8228 71.8585 68.1286 75.15C63.4865 78.3893 61.1655 83.3265 61.1655 89.9617V197.649H55.5324V89.9617C55.5324 84.4759 56.9406 79.7738 59.7572 75.8553C62.5737 71.9369 66.2509 69.0895 70.7887 67.3131C75.3786 65.4845 80.5683 64.5702 86.3579 64.5702C92.1475 64.5702 97.3111 65.4845 101.849 67.3131C106.439 69.0895 110.142 71.9369 112.959 75.8553C115.775 79.7738 117.183 84.4759 117.183 89.9617ZM128.45 89.9617V197.649H122.817V89.9617C122.817 85.0506 121.852 80.6097 119.922 76.639C118.044 72.6683 115.436 69.403 112.098 66.8429C108.76 64.2829 104.9 62.3237 100.519 60.9653C96.1376 59.6069 91.4173 58.9277 86.3579 58.9277C81.2986 58.9277 76.5782 59.6069 72.1969 60.9653C67.8156 62.3237 63.9559 64.2829 60.6178 66.8429C57.2797 69.403 54.6457 72.6683 52.7158 76.639C50.8381 80.6097 49.8993 85.0506 49.8993 89.9617V197.649H44.2662V89.9617C44.2662 84.2669 45.3615 79.0946 47.5522 74.4447C49.795 69.7948 52.8201 65.9547 56.6277 62.9245C60.4353 59.842 64.8948 57.4648 70.0063 55.7929C75.1178 54.121 80.5683 53.2851 86.3579 53.2851C92.1475 53.2851 97.598 54.121 102.71 55.7929C107.821 57.4648 112.281 59.842 116.088 62.9245C119.896 65.9547 122.895 69.7948 125.085 74.4447C127.328 79.0946 128.45 84.2669 128.45 89.9617ZM139.716 197.649H134.083V89.9617C134.083 84.2669 132.805 78.8072 130.249 73.5826C127.745 68.3581 124.355 63.8649 120.078 60.1032C115.801 56.2893 110.716 53.259 104.822 51.0124C98.9281 48.7658 92.7734 47.6426 86.3579 47.6426C77.5432 47.6426 69.5369 49.3144 62.339 52.6582C55.1933 55.9497 49.4559 60.8608 45.1268 67.3915C40.7977 73.87 38.6331 81.3934 38.6331 89.9617V197.649H33V89.9617C33 82.7518 34.4083 76.1166 37.2248 70.056C40.0414 63.9955 43.8489 58.9277 48.6475 54.8525C53.4982 50.7773 59.1574 47.6164 65.625 45.3699C72.1448 43.1233 79.0558 42 86.3579 42C99.2932 42 110.507 45.2654 120 51.7961C129.493 45.2654 140.707 42 153.642 42C160.944 42 167.829 43.1233 174.297 45.3699C180.817 47.6164 186.476 50.7773 191.274 54.8525C196.125 58.9277 199.959 63.9955 202.775 70.056C205.592 76.1166 207 82.7518 207 89.9617V197.649H201.367V89.9617C201.367 81.4457 199.202 73.9484 194.873 67.4699C190.544 60.9391 184.781 56.0019 177.583 52.6582C170.437 49.3144 162.457 47.6426 153.642 47.6426C142.585 47.6426 132.935 50.2549 124.694 55.4794C125.894 56.5244 127.224 57.8828 128.684 59.5546C135.83 55.375 144.149 53.2851 153.642 53.2851C159.432 53.2851 164.882 54.121 169.994 55.7929C175.105 57.4648 179.565 59.842 183.372 62.9245C187.18 65.9547 190.179 69.7948 192.37 74.4447C194.612 79.0946 195.734 84.2669 195.734 89.9617V197.649H190.101V89.9617C190.101 85.0506 189.136 80.6097 187.206 76.639C185.328 72.6683 182.72 69.403 179.382 66.8429C176.044 64.2829 172.184 62.3237 167.803 60.9653C163.422 59.6069 158.701 58.9277 153.642 58.9277C145.349 58.9277 138.177 60.6257 132.127 64.0216C133.066 65.4845 134.004 67.1042 134.943 68.8805C140.055 66.007 146.288 64.5702 153.642 64.5702C159.432 64.5702 164.595 65.4845 169.133 67.3131C173.723 69.0895 177.426 71.9369 180.243 75.8553C183.059 79.7738 184.468 84.4759 184.468 89.9617V197.649H178.835V89.9617C178.835 83.3265 176.487 78.3893 171.793 75.15C167.151 71.8585 161.101 70.2128 153.642 70.2128C146.862 70.2128 141.359 71.4667 137.134 73.9745C137.812 75.9598 138.334 77.8407 138.699 79.6171C141.985 77.1092 146.966 75.8553 153.642 75.8553C166.682 75.8553 173.201 80.5575 173.201 89.9617V197.649H167.568V89.9617C167.568 88.4466 167.308 87.1666 166.786 86.1217C166.317 85.0245 165.691 84.1886 164.908 83.6139C164.126 83.0392 163.083 82.5951 161.779 82.2816C160.527 81.9159 159.301 81.7069 158.102 81.6546C156.902 81.5501 155.415 81.4979 153.642 81.4979C151.869 81.4979 150.382 81.5501 149.183 81.6546C147.983 81.7069 146.731 81.9159 145.427 82.2816C144.175 82.5951 143.158 83.0392 142.376 83.6139C141.594 84.1886 140.942 85.0245 140.42 86.1217C139.951 87.1666 139.716 88.4466 139.716 89.9617V197.649Z"/>
</mask>
<path d="M105.917 89.9617V197.649H100.284V89.9617C100.284 88.4466 100.023 87.1666 99.5018 86.1217C99.0324 85.0245 98.4065 84.1886 97.6241 83.6139C96.8417 83.0392 95.7986 82.5951 94.4946 82.2816C93.2428 81.9159 92.0171 81.7069 90.8174 81.6546C89.6178 81.5501 88.1313 81.4979 86.3579 81.4979C84.5845 81.4979 83.098 81.5501 81.8984 81.6546C80.6987 81.7069 79.4469 81.9159 78.143 82.2816C76.8912 82.5951 75.8741 83.0392 75.0917 83.6139C74.3094 84.1886 73.6574 85.0245 73.1358 86.1217C72.6664 87.1666 72.4317 88.4466 72.4317 89.9617V197.649H66.7986V89.9617C66.7986 80.5575 73.3183 75.8553 86.3579 75.8553C99.3975 75.8553 105.917 80.5575 105.917 89.9617ZM117.183 89.9617V197.649H111.55V89.9617C111.55 83.3265 109.203 78.3893 104.509 75.15C99.8669 71.8585 93.8165 70.2128 86.3579 70.2128C78.8993 70.2128 72.8228 71.8585 68.1286 75.15C63.4865 78.3893 61.1655 83.3265 61.1655 89.9617V197.649H55.5324V89.9617C55.5324 84.4759 56.9406 79.7738 59.7572 75.8553C62.5737 71.9369 66.2509 69.0895 70.7887 67.3131C75.3786 65.4845 80.5683 64.5702 86.3579 64.5702C92.1475 64.5702 97.3111 65.4845 101.849 67.3131C106.439 69.0895 110.142 71.9369 112.959 75.8553C115.775 79.7738 117.183 84.4759 117.183 89.9617ZM128.45 89.9617V197.649H122.817V89.9617C122.817 85.0506 121.852 80.6097 119.922 76.639C118.044 72.6683 115.436 69.403 112.098 66.8429C108.76 64.2829 104.9 62.3237 100.519 60.9653C96.1376 59.6069 91.4173 58.9277 86.3579 58.9277C81.2986 58.9277 76.5782 59.6069 72.1969 60.9653C67.8156 62.3237 63.9559 64.2829 60.6178 66.8429C57.2797 69.403 54.6457 72.6683 52.7158 76.639C50.8381 80.6097 49.8993 85.0506 49.8993 89.9617V197.649H44.2662V89.9617C44.2662 84.2669 45.3615 79.0946 47.5522 74.4447C49.795 69.7948 52.8201 65.9547 56.6277 62.9245C60.4353 59.842 64.8948 57.4648 70.0063 55.7929C75.1178 54.121 80.5683 53.2851 86.3579 53.2851C92.1475 53.2851 97.598 54.121 102.71 55.7929C107.821 57.4648 112.281 59.842 116.088 62.9245C119.896 65.9547 122.895 69.7948 125.085 74.4447C127.328 79.0946 128.45 84.2669 128.45 89.9617ZM139.716 197.649H134.083V89.9617C134.083 84.2669 132.805 78.8072 130.249 73.5826C127.745 68.3581 124.355 63.8649 120.078 60.1032C115.801 56.2893 110.716 53.259 104.822 51.0124C98.9281 48.7658 92.7734 47.6426 86.3579 47.6426C77.5432 47.6426 69.5369 49.3144 62.339 52.6582C55.1933 55.9497 49.4559 60.8608 45.1268 67.3915C40.7977 73.87 38.6331 81.3934 38.6331 89.9617V197.649H33V89.9617C33 82.7518 34.4083 76.1166 37.2248 70.056C40.0414 63.9955 43.8489 58.9277 48.6475 54.8525C53.4982 50.7773 59.1574 47.6164 65.625 45.3699C72.1448 43.1233 79.0558 42 86.3579 42C99.2932 42 110.507 45.2654 120 51.7961C129.493 45.2654 140.707 42 153.642 42C160.944 42 167.829 43.1233 174.297 45.3699C180.817 47.6164 186.476 50.7773 191.274 54.8525C196.125 58.9277 199.959 63.9955 202.775 70.056C205.592 76.1166 207 82.7518 207 89.9617V197.649H201.367V89.9617C201.367 81.4457 199.202 73.9484 194.873 67.4699C190.544 60.9391 184.781 56.0019 177.583 52.6582C170.437 49.3144 162.457 47.6426 153.642 47.6426C142.585 47.6426 132.935 50.2549 124.694 55.4794C125.894 56.5244 127.224 57.8828 128.684 59.5546C135.83 55.375 144.149 53.2851 153.642 53.2851C159.432 53.2851 164.882 54.121 169.994 55.7929C175.105 57.4648 179.565 59.842 183.372 62.9245C187.18 65.9547 190.179 69.7948 192.37 74.4447C194.612 79.0946 195.734 84.2669 195.734 89.9617V197.649H190.101V89.9617C190.101 85.0506 189.136 80.6097 187.206 76.639C185.328 72.6683 182.72 69.403 179.382 66.8429C176.044 64.2829 172.184 62.3237 167.803 60.9653C163.422 59.6069 158.701 58.9277 153.642 58.9277C145.349 58.9277 138.177 60.6257 132.127 64.0216C133.066 65.4845 134.004 67.1042 134.943 68.8805C140.055 66.007 146.288 64.5702 153.642 64.5702C159.432 64.5702 164.595 65.4845 169.133 67.3131C173.723 69.0895 177.426 71.9369 180.243 75.8553C183.059 79.7738 184.468 84.4759 184.468 89.9617V197.649H178.835V89.9617C178.835 83.3265 176.487 78.3893 171.793 75.15C167.151 71.8585 161.101 70.2128 153.642 70.2128C146.862 70.2128 141.359 71.4667 137.134 73.9745C137.812 75.9598 138.334 77.8407 138.699 79.6171C141.985 77.1092 146.966 75.8553 153.642 75.8553C166.682 75.8553 173.201 80.5575 173.201 89.9617V197.649H167.568V89.9617C167.568 88.4466 167.308 87.1666 166.786 86.1217C166.317 85.0245 165.691 84.1886 164.908 83.6139C164.126 83.0392 163.083 82.5951 161.779 82.2816C160.527 81.9159 159.301 81.7069 158.102 81.6546C156.902 81.5501 155.415 81.4979 153.642 81.4979C151.869 81.4979 150.382 81.5501 149.183 81.6546C147.983 81.7069 146.731 81.9159 145.427 82.2816C144.175 82.5951 143.158 83.0392 142.376 83.6139C141.594 84.1886 140.942 85.0245 140.42 86.1217C139.951 87.1666 139.716 88.4466 139.716 89.9617V197.649Z" fill="url(#paint0_linear_908_13975)"/>
<path d="M105.917 89.9617V197.649H100.284V89.9617C100.284 88.4466 100.023 87.1666 99.5018 86.1217C99.0324 85.0245 98.4065 84.1886 97.6241 83.6139C96.8417 83.0392 95.7986 82.5951 94.4946 82.2816C93.2428 81.9159 92.0171 81.7069 90.8174 81.6546C89.6178 81.5501 88.1313 81.4979 86.3579 81.4979C84.5845 81.4979 83.098 81.5501 81.8984 81.6546C80.6987 81.7069 79.4469 81.9159 78.143 82.2816C76.8912 82.5951 75.8741 83.0392 75.0917 83.6139C74.3094 84.1886 73.6574 85.0245 73.1358 86.1217C72.6664 87.1666 72.4317 88.4466 72.4317 89.9617V197.649H66.7986V89.9617C66.7986 80.5575 73.3183 75.8553 86.3579 75.8553C99.3975 75.8553 105.917 80.5575 105.917 89.9617ZM117.183 89.9617V197.649H111.55V89.9617C111.55 83.3265 109.203 78.3893 104.509 75.15C99.8669 71.8585 93.8165 70.2128 86.3579 70.2128C78.8993 70.2128 72.8228 71.8585 68.1286 75.15C63.4865 78.3893 61.1655 83.3265 61.1655 89.9617V197.649H55.5324V89.9617C55.5324 84.4759 56.9406 79.7738 59.7572 75.8553C62.5737 71.9369 66.2509 69.0895 70.7887 67.3131C75.3786 65.4845 80.5683 64.5702 86.3579 64.5702C92.1475 64.5702 97.3111 65.4845 101.849 67.3131C106.439 69.0895 110.142 71.9369 112.959 75.8553C115.775 79.7738 117.183 84.4759 117.183 89.9617ZM128.45 89.9617V197.649H122.817V89.9617C122.817 85.0506 121.852 80.6097 119.922 76.639C118.044 72.6683 115.436 69.403 112.098 66.8429C108.76 64.2829 104.9 62.3237 100.519 60.9653C96.1376 59.6069 91.4173 58.9277 86.3579 58.9277C81.2986 58.9277 76.5782 59.6069 72.1969 60.9653C67.8156 62.3237 63.9559 64.2829 60.6178 66.8429C57.2797 69.403 54.6457 72.6683 52.7158 76.639C50.8381 80.6097 49.8993 85.0506 49.8993 89.9617V197.649H44.2662V89.9617C44.2662 84.2669 45.3615 79.0946 47.5522 74.4447C49.795 69.7948 52.8201 65.9547 56.6277 62.9245C60.4353 59.842 64.8948 57.4648 70.0063 55.7929C75.1178 54.121 80.5683 53.2851 86.3579 53.2851C92.1475 53.2851 97.598 54.121 102.71 55.7929C107.821 57.4648 112.281 59.842 116.088 62.9245C119.896 65.9547 122.895 69.7948 125.085 74.4447C127.328 79.0946 128.45 84.2669 128.45 89.9617ZM139.716 197.649H134.083V89.9617C134.083 84.2669 132.805 78.8072 130.249 73.5826C127.745 68.3581 124.355 63.8649 120.078 60.1032C115.801 56.2893 110.716 53.259 104.822 51.0124C98.9281 48.7658 92.7734 47.6426 86.3579 47.6426C77.5432 47.6426 69.5369 49.3144 62.339 52.6582C55.1933 55.9497 49.4559 60.8608 45.1268 67.3915C40.7977 73.87 38.6331 81.3934 38.6331 89.9617V197.649H33V89.9617C33 82.7518 34.4083 76.1166 37.2248 70.056C40.0414 63.9955 43.8489 58.9277 48.6475 54.8525C53.4982 50.7773 59.1574 47.6164 65.625 45.3699C72.1448 43.1233 79.0558 42 86.3579 42C99.2932 42 110.507 45.2654 120 51.7961C129.493 45.2654 140.707 42 153.642 42C160.944 42 167.829 43.1233 174.297 45.3699C180.817 47.6164 186.476 50.7773 191.274 54.8525C196.125 58.9277 199.959 63.9955 202.775 70.056C205.592 76.1166 207 82.7518 207 89.9617V197.649H201.367V89.9617C201.367 81.4457 199.202 73.9484 194.873 67.4699C190.544 60.9391 184.781 56.0019 177.583 52.6582C170.437 49.3144 162.457 47.6426 153.642 47.6426C142.585 47.6426 132.935 50.2549 124.694 55.4794C125.894 56.5244 127.224 57.8828 128.684 59.5546C135.83 55.375 144.149 53.2851 153.642 53.2851C159.432 53.2851 164.882 54.121 169.994 55.7929C175.105 57.4648 179.565 59.842 183.372 62.9245C187.18 65.9547 190.179 69.7948 192.37 74.4447C194.612 79.0946 195.734 84.2669 195.734 89.9617V197.649H190.101V89.9617C190.101 85.0506 189.136 80.6097 187.206 76.639C185.328 72.6683 182.72 69.403 179.382 66.8429C176.044 64.2829 172.184 62.3237 167.803 60.9653C163.422 59.6069 158.701 58.9277 153.642 58.9277C145.349 58.9277 138.177 60.6257 132.127 64.0216C133.066 65.4845 134.004 67.1042 134.943 68.8805C140.055 66.007 146.288 64.5702 153.642 64.5702C159.432 64.5702 164.595 65.4845 169.133 67.3131C173.723 69.0895 177.426 71.9369 180.243 75.8553C183.059 79.7738 184.468 84.4759 184.468 89.9617V197.649H178.835V89.9617C178.835 83.3265 176.487 78.3893 171.793 75.15C167.151 71.8585 161.101 70.2128 153.642 70.2128C146.862 70.2128 141.359 71.4667 137.134 73.9745C137.812 75.9598 138.334 77.8407 138.699 79.6171C141.985 77.1092 146.966 75.8553 153.642 75.8553C166.682 75.8553 173.201 80.5575 173.201 89.9617V197.649H167.568V89.9617C167.568 88.4466 167.308 87.1666 166.786 86.1217C166.317 85.0245 165.691 84.1886 164.908 83.6139C164.126 83.0392 163.083 82.5951 161.779 82.2816C160.527 81.9159 159.301 81.7069 158.102 81.6546C156.902 81.5501 155.415 81.4979 153.642 81.4979C151.869 81.4979 150.382 81.5501 149.183 81.6546C147.983 81.7069 146.731 81.9159 145.427 82.2816C144.175 82.5951 143.158 83.0392 142.376 83.6139C141.594 84.1886 140.942 85.0245 140.42 86.1217C139.951 87.1666 139.716 88.4466 139.716 89.9617V197.649Z" stroke="#222222" stroke-width="20" mask="url(#path-2-outside-1_908_13975)"/>
<defs>
<linearGradient id="paint0_linear_908_13975" x1="33" y1="119.824" x2="207" y2="119.824" gradientUnits="userSpaceOnUse">
<stop stop-color="#97C7D1"/>
<stop offset="1" stop-color="#9C84B4"/>
</linearGradient>
</defs>
</svg>
