<svg width="349" height="47" viewBox="0 0 349 47" fill="none" xmlns="http://www.w3.org/2000/svg">
<path d="M317.724 3C317.724 1.34315 319.067 0 320.724 0H346C347.657 0 349 1.34315 349 3V28.1684C349 29.8253 347.657 31.1684 346 31.1684H308.809C307.153 31.1684 305.809 32.5116 305.809 34.1684V44C305.809 45.6568 304.466 47 302.809 47H295.902C294.245 47 292.902 45.6568 292.902 44V22.7895C292.902 21.1326 294.245 19.7895 295.902 19.7895H314.724C316.381 19.7895 317.724 18.4463 317.724 16.7895V3Z" fill="white"/>
<path d="M24.8222 3C24.8222 1.34315 26.1653 0 27.8222 0H53.0981C54.755 0 56.0981 1.34315 56.0981 3V28.1684C56.0981 29.8253 54.755 31.1684 53.0981 31.1684H15.9075C14.2507 31.1684 12.9075 32.5116 12.9075 34.1684V44C12.9075 45.6568 11.5644 47 9.90754 47H3C1.34315 47 0 45.6568 0 44V22.7895C0 21.1326 1.34314 19.7895 3 19.7895H21.8222C23.479 19.7895 24.8222 18.4463 24.8222 16.7895V3Z" fill="white"/>
<path d="M201.578 27.7053C199.921 27.7053 198.578 26.3621 198.578 24.7053V3C198.578 1.34315 199.921 3.00239e-06 201.578 2.93022e-06L223.378 1.98055e-06C225.035 1.90838e-06 226.378 1.34315 226.378 3V44C226.378 45.6569 225.035 47 223.378 47H202.57C200.914 47 199.57 45.6569 199.57 44V39.6105C199.57 37.9537 200.914 36.6105 202.57 36.6105H211.96C213.617 36.6105 214.96 35.2674 214.96 33.6105V30.7053C214.96 29.0484 213.617 27.7053 211.96 27.7053H201.578Z" fill="white"/>
<path d="M70.0199 27.7053C68.3631 27.7053 67.0199 26.3621 67.0199 24.7053V3C67.0199 1.34315 68.3631 3.0024e-06 70.0199 2.93023e-06L91.8208 1.98056e-06C93.4776 1.90838e-06 94.8208 1.34315 94.8208 3V44C94.8208 45.6569 93.4776 47 91.8208 47H71.0128C69.3559 47 68.0128 45.6569 68.0128 44V39.6105C68.0128 37.9537 69.3559 36.6105 71.0128 36.6105H80.4026C82.0594 36.6105 83.4026 35.2674 83.4026 33.6105V30.7053C83.4026 29.0484 82.0594 27.7053 80.4026 27.7053H70.0199Z" fill="white"/>
<path d="M189.145 3C189.145 1.34315 187.802 0 186.145 0H178.245C176.588 0 175.245 1.34315 175.245 3V30.6421C175.245 32.299 173.902 33.6421 172.245 33.6421H168.812C167.155 33.6421 165.812 34.9853 165.812 36.6421V44C165.812 45.6569 167.155 47 168.812 47L186.145 47C187.802 47 189.145 45.6569 189.145 44V3Z" fill="white"/>
<path d="M165.316 3C165.316 1.34315 163.973 0 162.316 0H141.011C139.355 0 138.011 1.34315 138.011 3V30.6421C138.011 32.299 136.668 33.6421 135.011 33.6421H121.65C119.993 33.6421 118.65 32.299 118.65 30.6421V16.3579C118.65 14.701 117.307 13.3579 115.65 13.3579H108.246C106.589 13.3579 105.246 14.701 105.246 16.3579V44C105.246 45.6569 106.589 47 108.246 47H148.415C150.072 47 151.415 45.6569 151.415 44V16.3579C151.415 14.701 152.758 13.3579 154.415 13.3579H162.316C163.973 13.3579 165.316 12.0147 165.316 10.3579V3Z" fill="white"/>
<path d="M236.307 3C236.307 1.34315 237.65 0 239.307 0H245.222C246.879 0 248.222 1.34314 248.222 3V32.6211C248.222 34.2779 249.565 35.6211 251.222 35.6211H268.555C270.212 35.6211 271.555 34.2779 271.555 32.6211V3C271.555 1.34315 272.898 0 274.555 0H280.469C282.126 0 283.469 1.34315 283.469 3V44C283.469 45.6569 282.126 47 280.469 47H239.307C237.65 47 236.307 45.6569 236.307 44V3Z" fill="white"/>
<path d="M266.094 20.8106C266.094 19.1537 264.751 17.8106 263.094 17.8106H256.683C255.026 17.8106 253.683 19.1537 253.683 20.8106V27.179C253.683 28.8359 255.026 30.179 256.683 30.179H263.094C264.751 30.179 266.094 28.8359 266.094 27.179V20.8106Z" fill="white"/>
<path d="M70.0199 27.7053C68.363 27.7053 67.0199 26.3621 67.0199 24.7053V3C67.0199 1.34315 68.363 1.15253e-06 70.0199 1.08035e-06L91.8208 1.30683e-07C93.4776 5.85089e-08 94.8208 1.34315 94.8208 3V44C94.8208 45.6569 93.4776 47 91.8208 47H71.0128C69.3559 47 68.0128 45.6569 68.0128 44V39.6105C68.0128 37.9537 69.3559 36.6105 71.0128 36.6105H80.4025C82.0594 36.6105 83.4025 35.2674 83.4025 33.6105V30.7053C83.4025 29.0484 82.0594 27.7053 80.4025 27.7053H70.0199Z" fill="#9C84B4"/>
</svg>
