<svg width="373" height="372" viewBox="0 0 373 372" fill="none" xmlns="http://www.w3.org/2000/svg">
<path d="M43.8223 145.915C29.3359 233.897 72.2952 295.385 134.236 307.882C196.177 320.38 228.647 320.38 276.601 274.889L277.406 274.125C324.839 229.133 349.829 205.429 314.065 121.42C278.099 36.9371 217.657 30.4385 188.185 25.4395C158.713 20.4405 58.3087 57.9329 43.8223 145.915Z" fill="#313131"/>
<mask id="mask0_944_13115" style="mask-type:alpha" maskUnits="userSpaceOnUse" x="41" y="25" width="290" height="290">
<path d="M43.8223 145.915C29.3359 233.897 72.2952 295.385 134.236 307.882C196.177 320.38 228.647 320.38 276.601 274.889L277.406 274.125C324.839 229.133 349.829 205.429 314.065 121.42C278.099 36.9371 217.657 30.4385 188.185 25.4395C158.713 20.4405 58.3087 57.9329 43.8223 145.915Z" fill="#313131"/>
</mask>
<g mask="url(#mask0_944_13115)">
<path d="M168.705 162.141L171.63 240.555C171.95 249.143 179.005 255.94 187.599 255.94C196.194 255.94 203.25 249.142 203.569 240.553L207.248 141.577C207.584 132.553 216.355 126.279 225.003 128.877C231.234 130.749 235.31 136.718 234.785 143.203L226.613 244.135C225.75 254.804 234.175 263.94 244.879 263.94C254.434 263.94 262.386 256.598 263.146 247.073L271.93 137.076C274.073 110.24 252.872 87.2791 225.951 87.2791C207.634 87.2791 193.024 71.9879 193.858 53.6899L200.461 -91.0849C201.477 -113.374 183.681 -132 161.369 -132C137.483 -132 119.169 -110.786 122.656 -87.156L144.446 60.5372C146.382 73.6621 135.447 85.1021 122.249 83.7599C99.1171 81.4077 80.3779 102.231 85.1475 124.987L115.921 271.81C117.402 278.878 123.635 283.94 130.856 283.94C139.726 283.94 146.727 276.403 146.074 267.557L138.421 163.822C137.229 147.666 158.796 141.143 166.758 155.252C167.947 157.36 168.615 159.722 168.705 162.141Z" fill="url(#paint0_linear_944_13115)" stroke="#474747" stroke-width="14"/>
</g>
<g filter="url(#filter0_d_944_13115)">
<path d="M31.4883 143.884C16.166 236.944 61.778 306.015 131.764 320.135C162.776 326.393 188.511 330.032 212.982 325.415C237.981 320.697 260.171 307.704 285.204 283.958C285.204 283.958 285.204 283.958 285.204 283.958L286.008 283.194C286.518 282.711 287.026 282.23 287.532 281.749C309.947 260.496 330.02 241.463 338.734 216.527C347.972 190.095 343.895 159.578 325.566 116.524C306.543 71.8383 280.578 46.8963 254.714 32.6706C231.413 19.855 208.78 16.1511 194.148 13.7566C192.786 13.5337 191.493 13.3221 190.275 13.1155C180.06 11.3828 166.04 13.4357 151.599 17.8219C136.726 22.3394 119.898 29.7918 103.606 40.3067C71.1173 61.2741 39.4836 95.3254 31.4883 143.884Z" stroke="url(#paint1_linear_944_13115)" stroke-width="25"/>
</g>
<defs>
<filter id="filter0_d_944_13115" x="0.0427246" y="0.00360107" width="371.962" height="371.99" filterUnits="userSpaceOnUse" color-interpolation-filters="sRGB">
<feFlood flood-opacity="0" result="BackgroundImageFix"/>
<feColorMatrix in="SourceAlpha" type="matrix" values="0 0 0 0 0 0 0 0 0 0 0 0 0 0 0 0 0 0 127 0" result="hardAlpha"/>
<feOffset dy="16"/>
<feGaussianBlur stdDeviation="8"/>
<feColorMatrix type="matrix" values="0 0 0 0 0 0 0 0 0 0 0 0 0 0 0 0 0 0 0.25 0"/>
<feBlend mode="normal" in2="BackgroundImageFix" result="effect1_dropShadow_944_13115"/>
<feBlend mode="normal" in="SourceGraphic" in2="effect1_dropShadow_944_13115" result="shape"/>
</filter>
<linearGradient id="paint0_linear_944_13115" x1="84.325" y1="75.9695" x2="268.325" y2="75.9695" gradientUnits="userSpaceOnUse">
<stop stop-color="#97C7D1"/>
<stop offset="1" stop-color="#9C84B4"/>
</linearGradient>
<linearGradient id="paint1_linear_944_13115" x1="41" y1="170" x2="331" y2="170" gradientUnits="userSpaceOnUse">
<stop stop-color="#97C7D1"/>
<stop offset="1" stop-color="#9C84B4"/>
</linearGradient>
</defs>
</svg>
