<svg width="240" height="240" viewBox="0 0 240 240" fill="none" xmlns="http://www.w3.org/2000/svg">
<g clip-path="url(#clip0_933_13150)">
<path d="M0 40C0 17.9086 17.9086 0 40 0H200C222.091 0 240 17.9086 240 40V200C240 222.091 222.091 240 200 240H40C17.9086 240 0 222.091 0 200V40Z" fill="#2C2C2C"/>
<mask id="path-3-outside-1_933_13150" maskUnits="userSpaceOnUse" x="53" y="31" width="167" height="170" fill="black">
<rect fill="white" x="53" y="31" width="167" height="170"/>
<path d="M81.6364 194C80.6061 194 79.7045 193.806 78.9318 193.419V193.613C72.2348 193.484 67.4053 191.097 64.4432 186.452C61.4811 181.935 60 175.935 60 168.452C60 162 61.1591 155.871 63.4773 150.065C65.7955 144.129 69.2727 138.839 73.9091 134.194C74.9394 133.161 75.9697 132.452 77 132.065C78.1591 131.548 79.5758 131.29 81.25 131.29C84.3409 131.29 87.303 131.935 90.1364 133.226C91.6818 133.871 93.2273 135.548 94.7727 138.258C96.447 140.839 97.2841 143.226 97.2841 145.419C97.2841 147.742 96.6402 150.194 95.3523 152.774C94.1932 155.226 92.5833 157.355 90.5227 159.161C88.4621 160.839 86.1439 161.677 83.5682 161.677C81.8939 161.677 80.0909 161.226 78.1591 160.323C76.3561 159.29 75.4545 157.419 75.4545 154.71C75.4545 152.516 76.2917 150.581 77.9659 148.903C79.7689 147.226 81.6364 146.258 83.5682 146H83.9545C85.1136 146 85.6932 146.581 85.6932 147.742C85.6932 148.903 85.178 149.484 84.1477 149.484C82.8598 149.742 81.7008 150.452 80.6705 151.613C79.6402 152.645 79.125 153.677 79.125 154.71C79.125 156.903 80.6061 158 83.5682 158C85.8864 158 88.1402 156.645 90.3295 153.935C92.5189 151.226 93.6136 148.452 93.6136 145.613C93.6136 142.903 92.197 140.71 89.3636 139.032C86.5303 137.355 83.8902 136.516 81.4432 136.516C80.1553 136.516 79.1894 136.774 78.5455 137.29C77.9015 137.806 77.1288 138.516 76.2273 139.419C72.6212 143.419 69.9811 147.806 68.3068 152.581C66.7614 157.355 65.9886 162.645 65.9886 168.452C65.9886 174 66.8902 178.516 68.6932 182C70.625 185.484 74.1667 187.226 79.3182 187.226C82.4091 187.226 84.9205 186.323 86.8523 184.516C88.9129 182.839 90.6515 180.71 92.0682 178.129C93.4848 175.677 94.7727 173.355 95.9318 171.161C98.6364 166.258 100.955 160.323 102.886 153.355C104.818 146.258 106.428 139.097 107.716 131.871C109.133 124.516 110.292 118.065 111.193 112.516C111.708 109.548 112.288 106.645 112.932 103.806C113.576 100.968 114.155 98.1936 114.67 95.4839C112.61 91.2258 110.42 87.0323 108.102 82.9032C105.913 78.6452 104.045 74.3226 102.5 69.9355C100.955 65.5484 100.182 60.9677 100.182 56.1936C100.182 54.6452 100.697 52.4516 101.727 49.6129C102.758 46.6452 104.11 44 105.784 41.6774C107.458 39.2258 109.261 38 111.193 38C114.284 38 116.86 39.1613 118.92 41.4839C120.981 43.6774 122.655 46.5161 123.943 50C125.231 53.3548 126.197 56.7097 126.841 60.0645C127.485 63.2903 127.871 66 128 68.1935C128 69.0968 128 70 128 70.9032C128.129 71.6774 128.193 72.4516 128.193 73.2258C128.193 77.6129 127.936 81.9355 127.42 86.1936C126.905 90.4516 126.261 94.7097 125.489 98.9677C127.936 105.29 130.447 111.613 133.023 117.935C135.598 124.258 137.53 130.839 138.818 137.677C139.076 139.097 139.398 140.581 139.784 142.129C140.299 143.677 140.621 145.29 140.75 146.968C141.265 146.323 141.716 145.742 142.102 145.226C142.489 144.581 142.811 143.935 143.068 143.29C144.227 141.742 145.322 140.194 146.352 138.645C147.511 136.968 148.606 135.226 149.636 133.419C151.697 129.677 153.758 126.129 155.818 122.774C158.008 119.419 160.068 116.129 162 112.903C161.614 110.452 161.227 107.935 160.841 105.355C160.455 102.774 160.261 99.8065 160.261 96.4516C160.261 93.4839 160.39 90.6452 160.648 87.9355C161.034 85.2258 161.42 82.5161 161.807 79.8065C161.936 78.3871 162.322 76.2581 162.966 73.4194C163.61 70.5806 164.318 67.4839 165.091 64.129C165.992 60.7742 166.83 57.6774 167.602 54.8387C168.504 51.871 169.277 49.7419 169.92 48.4516C170.822 46.5161 172.11 44.6452 173.784 42.8387C175.587 41.0323 177.905 40.129 180.739 40.129C183.057 40.129 184.731 40.8387 185.761 42.2581C186.92 43.6774 187.629 45.3548 187.886 47.2903C188.273 49.2258 188.466 51.0968 188.466 52.9032C188.466 64.129 186.92 74.5806 183.83 84.2581C180.867 93.8065 177.068 103.161 172.432 112.323C172.947 114.387 173.462 116.452 173.977 118.516C174.492 120.452 174.879 122.645 175.136 125.097C175.909 131.032 176.489 136.581 176.875 141.742C177.39 146.774 178.485 151.742 180.159 156.645C181.189 159.871 182.606 163.548 184.409 167.677C186.341 171.806 188.788 174.774 191.75 176.581C192.652 177.226 193.424 177.548 194.068 177.548C195.098 177.548 196.386 177.097 197.932 176.194C199.606 175.419 201.152 174.516 202.568 173.484C204.114 172.452 205.144 171.677 205.659 171.161C207.076 169.742 207.977 168.258 208.364 166.71C208.879 165.161 209.201 163.355 209.33 161.29C209.33 160.903 209.136 159.613 208.75 157.419C208.492 155.097 208.235 153.613 207.977 152.968C207.848 152.323 207.205 151.29 206.045 149.871C205.015 148.323 203.92 146.903 202.761 145.613C201.602 144.323 200.765 143.742 200.25 143.871C198.705 143.871 197.417 144.323 196.386 145.226C195.485 146.129 194.905 147.226 194.648 148.516C194.648 149.548 194.068 150.065 192.909 150.065C191.621 150.065 190.977 149.355 190.977 147.935C190.977 145.742 191.75 143.677 193.295 141.742C194.841 139.677 197.03 138.645 199.864 138.645C201.667 138.645 203.341 139.355 204.886 140.774C206.561 142.065 207.784 143.355 208.557 144.645C209.973 146.839 211.004 149.548 211.648 152.774C212.42 155.871 212.871 158.71 213 161.29C213 163.742 212.678 166 212.034 168.065C211.519 170 210.36 171.871 208.557 173.677C207.784 174.452 206.496 175.548 204.693 176.968C202.89 178.516 200.958 179.871 198.898 181.032C196.966 182.323 195.292 182.968 193.875 182.968C191.428 182.968 188.981 182.065 186.534 180.258C184.216 178.452 182.027 176.258 179.966 173.677C178.034 170.968 176.36 168.323 174.943 165.742C173.655 163.161 172.754 161.097 172.239 159.548C170.564 154.258 168.955 149.161 167.409 144.258C165.992 139.226 164.898 133.742 164.125 127.806C163.223 129.484 162.258 131.226 161.227 133.032C160.197 134.71 159.167 136.452 158.136 138.258C155.689 142.645 152.92 146.839 149.83 150.839C146.867 154.839 144.485 159.161 142.682 163.806C142.811 166.645 142.682 169.548 142.295 172.516C141.909 175.484 140.75 178 138.818 180.065C138.174 180.71 137.273 181.032 136.114 181.032C135.212 181.032 134.246 180.774 133.216 180.258C132.314 179.742 131.799 179.032 131.67 178.129C131.542 177.484 131.413 176.774 131.284 176C131.284 175.226 131.284 174.452 131.284 173.677C131.284 169.032 132.379 164.387 134.568 159.742L133.602 156.452C133.473 153.484 132.83 150.645 131.67 147.935C130.64 145.226 129.867 142.452 129.352 139.613C128.451 135.355 127.356 131.226 126.068 127.226C124.909 123.097 123.621 119.032 122.205 115.032C121.174 120.968 119.629 127.613 117.568 134.968C115.636 142.323 113.383 149.613 110.807 156.839C108.231 163.935 105.462 170.129 102.5 175.419C101.47 177.226 99.7311 179.613 97.2841 182.581C94.8371 185.548 92.197 188.194 89.3636 190.516C86.5303 192.839 83.9545 194 81.6364 194ZM116.602 82.5161C116.86 80.4516 116.989 78.3226 116.989 76.129C117.117 73.8065 117.117 71.4194 116.989 68.9677C116.989 68.1936 116.924 66.5807 116.795 64.129C116.667 61.6774 116.409 59.0323 116.023 56.1936C115.765 53.3548 115.25 50.9032 114.477 48.8387C113.833 46.7742 112.803 45.7419 111.386 45.7419C110.356 45.7419 109.39 46.4516 108.489 47.871C107.716 49.2903 107.072 50.8387 106.557 52.5161C106.17 54.0645 105.977 55.2903 105.977 56.1936C105.977 60.7097 107.072 65.2258 109.261 69.7419C111.451 74.129 113.898 78.3871 116.602 82.5161ZM169.92 97.2258H170.114C172.689 91.5484 174.879 85.5484 176.682 79.2258C178.485 72.9032 179.708 65.871 180.352 58.129C180.481 56.7097 180.61 55.8065 180.739 55.4194C180.867 54.9032 180.867 54 180.739 52.7097C180.739 52.0645 180.739 51.4839 180.739 50.9677C180.867 50.3226 180.932 49.7419 180.932 49.2258C180.932 48.4516 180.867 47.871 180.739 47.4839C180.739 47.2258 180.803 46.9677 180.932 46.7097C181.189 46.4516 181.189 46.3226 180.932 46.3226C179.386 46.3226 178.034 47.3548 176.875 49.4194C175.716 51.4839 174.75 54.0645 173.977 57.1613C173.205 60.2581 172.561 63.4839 172.045 66.8387C171.53 70.1936 171.08 73.1613 170.693 75.7419C170.436 78.1936 170.242 79.871 170.114 80.7742C169.727 83.4839 169.534 86.1936 169.534 88.9032C169.534 90.1936 169.534 91.5484 169.534 92.9677C169.663 94.3871 169.792 95.8065 169.92 97.2258Z"/>
</mask>
<path d="M81.6364 194C80.6061 194 79.7045 193.806 78.9318 193.419V193.613C72.2348 193.484 67.4053 191.097 64.4432 186.452C61.4811 181.935 60 175.935 60 168.452C60 162 61.1591 155.871 63.4773 150.065C65.7955 144.129 69.2727 138.839 73.9091 134.194C74.9394 133.161 75.9697 132.452 77 132.065C78.1591 131.548 79.5758 131.29 81.25 131.29C84.3409 131.29 87.303 131.935 90.1364 133.226C91.6818 133.871 93.2273 135.548 94.7727 138.258C96.447 140.839 97.2841 143.226 97.2841 145.419C97.2841 147.742 96.6402 150.194 95.3523 152.774C94.1932 155.226 92.5833 157.355 90.5227 159.161C88.4621 160.839 86.1439 161.677 83.5682 161.677C81.8939 161.677 80.0909 161.226 78.1591 160.323C76.3561 159.29 75.4545 157.419 75.4545 154.71C75.4545 152.516 76.2917 150.581 77.9659 148.903C79.7689 147.226 81.6364 146.258 83.5682 146H83.9545C85.1136 146 85.6932 146.581 85.6932 147.742C85.6932 148.903 85.178 149.484 84.1477 149.484C82.8598 149.742 81.7008 150.452 80.6705 151.613C79.6402 152.645 79.125 153.677 79.125 154.71C79.125 156.903 80.6061 158 83.5682 158C85.8864 158 88.1402 156.645 90.3295 153.935C92.5189 151.226 93.6136 148.452 93.6136 145.613C93.6136 142.903 92.197 140.71 89.3636 139.032C86.5303 137.355 83.8902 136.516 81.4432 136.516C80.1553 136.516 79.1894 136.774 78.5455 137.29C77.9015 137.806 77.1288 138.516 76.2273 139.419C72.6212 143.419 69.9811 147.806 68.3068 152.581C66.7614 157.355 65.9886 162.645 65.9886 168.452C65.9886 174 66.8902 178.516 68.6932 182C70.625 185.484 74.1667 187.226 79.3182 187.226C82.4091 187.226 84.9205 186.323 86.8523 184.516C88.9129 182.839 90.6515 180.71 92.0682 178.129C93.4848 175.677 94.7727 173.355 95.9318 171.161C98.6364 166.258 100.955 160.323 102.886 153.355C104.818 146.258 106.428 139.097 107.716 131.871C109.133 124.516 110.292 118.065 111.193 112.516C111.708 109.548 112.288 106.645 112.932 103.806C113.576 100.968 114.155 98.1936 114.67 95.4839C112.61 91.2258 110.42 87.0323 108.102 82.9032C105.913 78.6452 104.045 74.3226 102.5 69.9355C100.955 65.5484 100.182 60.9677 100.182 56.1936C100.182 54.6452 100.697 52.4516 101.727 49.6129C102.758 46.6452 104.11 44 105.784 41.6774C107.458 39.2258 109.261 38 111.193 38C114.284 38 116.86 39.1613 118.92 41.4839C120.981 43.6774 122.655 46.5161 123.943 50C125.231 53.3548 126.197 56.7097 126.841 60.0645C127.485 63.2903 127.871 66 128 68.1935C128 69.0968 128 70 128 70.9032C128.129 71.6774 128.193 72.4516 128.193 73.2258C128.193 77.6129 127.936 81.9355 127.42 86.1936C126.905 90.4516 126.261 94.7097 125.489 98.9677C127.936 105.29 130.447 111.613 133.023 117.935C135.598 124.258 137.53 130.839 138.818 137.677C139.076 139.097 139.398 140.581 139.784 142.129C140.299 143.677 140.621 145.29 140.75 146.968C141.265 146.323 141.716 145.742 142.102 145.226C142.489 144.581 142.811 143.935 143.068 143.29C144.227 141.742 145.322 140.194 146.352 138.645C147.511 136.968 148.606 135.226 149.636 133.419C151.697 129.677 153.758 126.129 155.818 122.774C158.008 119.419 160.068 116.129 162 112.903C161.614 110.452 161.227 107.935 160.841 105.355C160.455 102.774 160.261 99.8065 160.261 96.4516C160.261 93.4839 160.39 90.6452 160.648 87.9355C161.034 85.2258 161.42 82.5161 161.807 79.8065C161.936 78.3871 162.322 76.2581 162.966 73.4194C163.61 70.5806 164.318 67.4839 165.091 64.129C165.992 60.7742 166.83 57.6774 167.602 54.8387C168.504 51.871 169.277 49.7419 169.92 48.4516C170.822 46.5161 172.11 44.6452 173.784 42.8387C175.587 41.0323 177.905 40.129 180.739 40.129C183.057 40.129 184.731 40.8387 185.761 42.2581C186.92 43.6774 187.629 45.3548 187.886 47.2903C188.273 49.2258 188.466 51.0968 188.466 52.9032C188.466 64.129 186.92 74.5806 183.83 84.2581C180.867 93.8065 177.068 103.161 172.432 112.323C172.947 114.387 173.462 116.452 173.977 118.516C174.492 120.452 174.879 122.645 175.136 125.097C175.909 131.032 176.489 136.581 176.875 141.742C177.39 146.774 178.485 151.742 180.159 156.645C181.189 159.871 182.606 163.548 184.409 167.677C186.341 171.806 188.788 174.774 191.75 176.581C192.652 177.226 193.424 177.548 194.068 177.548C195.098 177.548 196.386 177.097 197.932 176.194C199.606 175.419 201.152 174.516 202.568 173.484C204.114 172.452 205.144 171.677 205.659 171.161C207.076 169.742 207.977 168.258 208.364 166.71C208.879 165.161 209.201 163.355 209.33 161.29C209.33 160.903 209.136 159.613 208.75 157.419C208.492 155.097 208.235 153.613 207.977 152.968C207.848 152.323 207.205 151.29 206.045 149.871C205.015 148.323 203.92 146.903 202.761 145.613C201.602 144.323 200.765 143.742 200.25 143.871C198.705 143.871 197.417 144.323 196.386 145.226C195.485 146.129 194.905 147.226 194.648 148.516C194.648 149.548 194.068 150.065 192.909 150.065C191.621 150.065 190.977 149.355 190.977 147.935C190.977 145.742 191.75 143.677 193.295 141.742C194.841 139.677 197.03 138.645 199.864 138.645C201.667 138.645 203.341 139.355 204.886 140.774C206.561 142.065 207.784 143.355 208.557 144.645C209.973 146.839 211.004 149.548 211.648 152.774C212.42 155.871 212.871 158.71 213 161.29C213 163.742 212.678 166 212.034 168.065C211.519 170 210.36 171.871 208.557 173.677C207.784 174.452 206.496 175.548 204.693 176.968C202.89 178.516 200.958 179.871 198.898 181.032C196.966 182.323 195.292 182.968 193.875 182.968C191.428 182.968 188.981 182.065 186.534 180.258C184.216 178.452 182.027 176.258 179.966 173.677C178.034 170.968 176.36 168.323 174.943 165.742C173.655 163.161 172.754 161.097 172.239 159.548C170.564 154.258 168.955 149.161 167.409 144.258C165.992 139.226 164.898 133.742 164.125 127.806C163.223 129.484 162.258 131.226 161.227 133.032C160.197 134.71 159.167 136.452 158.136 138.258C155.689 142.645 152.92 146.839 149.83 150.839C146.867 154.839 144.485 159.161 142.682 163.806C142.811 166.645 142.682 169.548 142.295 172.516C141.909 175.484 140.75 178 138.818 180.065C138.174 180.71 137.273 181.032 136.114 181.032C135.212 181.032 134.246 180.774 133.216 180.258C132.314 179.742 131.799 179.032 131.67 178.129C131.542 177.484 131.413 176.774 131.284 176C131.284 175.226 131.284 174.452 131.284 173.677C131.284 169.032 132.379 164.387 134.568 159.742L133.602 156.452C133.473 153.484 132.83 150.645 131.67 147.935C130.64 145.226 129.867 142.452 129.352 139.613C128.451 135.355 127.356 131.226 126.068 127.226C124.909 123.097 123.621 119.032 122.205 115.032C121.174 120.968 119.629 127.613 117.568 134.968C115.636 142.323 113.383 149.613 110.807 156.839C108.231 163.935 105.462 170.129 102.5 175.419C101.47 177.226 99.7311 179.613 97.2841 182.581C94.8371 185.548 92.197 188.194 89.3636 190.516C86.5303 192.839 83.9545 194 81.6364 194ZM116.602 82.5161C116.86 80.4516 116.989 78.3226 116.989 76.129C117.117 73.8065 117.117 71.4194 116.989 68.9677C116.989 68.1936 116.924 66.5807 116.795 64.129C116.667 61.6774 116.409 59.0323 116.023 56.1936C115.765 53.3548 115.25 50.9032 114.477 48.8387C113.833 46.7742 112.803 45.7419 111.386 45.7419C110.356 45.7419 109.39 46.4516 108.489 47.871C107.716 49.2903 107.072 50.8387 106.557 52.5161C106.17 54.0645 105.977 55.2903 105.977 56.1936C105.977 60.7097 107.072 65.2258 109.261 69.7419C111.451 74.129 113.898 78.3871 116.602 82.5161ZM169.92 97.2258H170.114C172.689 91.5484 174.879 85.5484 176.682 79.2258C178.485 72.9032 179.708 65.871 180.352 58.129C180.481 56.7097 180.61 55.8065 180.739 55.4194C180.867 54.9032 180.867 54 180.739 52.7097C180.739 52.0645 180.739 51.4839 180.739 50.9677C180.867 50.3226 180.932 49.7419 180.932 49.2258C180.932 48.4516 180.867 47.871 180.739 47.4839C180.739 47.2258 180.803 46.9677 180.932 46.7097C181.189 46.4516 181.189 46.3226 180.932 46.3226C179.386 46.3226 178.034 47.3548 176.875 49.4194C175.716 51.4839 174.75 54.0645 173.977 57.1613C173.205 60.2581 172.561 63.4839 172.045 66.8387C171.53 70.1936 171.08 73.1613 170.693 75.7419C170.436 78.1936 170.242 79.871 170.114 80.7742C169.727 83.4839 169.534 86.1936 169.534 88.9032C169.534 90.1936 169.534 91.5484 169.534 92.9677C169.663 94.3871 169.792 95.8065 169.92 97.2258Z" fill="url(#paint0_linear_933_13150)"/>
<path d="M81.6364 194C80.6061 194 79.7045 193.806 78.9318 193.419V193.613C72.2348 193.484 67.4053 191.097 64.4432 186.452C61.4811 181.935 60 175.935 60 168.452C60 162 61.1591 155.871 63.4773 150.065C65.7955 144.129 69.2727 138.839 73.9091 134.194C74.9394 133.161 75.9697 132.452 77 132.065C78.1591 131.548 79.5758 131.29 81.25 131.29C84.3409 131.29 87.303 131.935 90.1364 133.226C91.6818 133.871 93.2273 135.548 94.7727 138.258C96.447 140.839 97.2841 143.226 97.2841 145.419C97.2841 147.742 96.6402 150.194 95.3523 152.774C94.1932 155.226 92.5833 157.355 90.5227 159.161C88.4621 160.839 86.1439 161.677 83.5682 161.677C81.8939 161.677 80.0909 161.226 78.1591 160.323C76.3561 159.29 75.4545 157.419 75.4545 154.71C75.4545 152.516 76.2917 150.581 77.9659 148.903C79.7689 147.226 81.6364 146.258 83.5682 146H83.9545C85.1136 146 85.6932 146.581 85.6932 147.742C85.6932 148.903 85.178 149.484 84.1477 149.484C82.8598 149.742 81.7008 150.452 80.6705 151.613C79.6402 152.645 79.125 153.677 79.125 154.71C79.125 156.903 80.6061 158 83.5682 158C85.8864 158 88.1402 156.645 90.3295 153.935C92.5189 151.226 93.6136 148.452 93.6136 145.613C93.6136 142.903 92.197 140.71 89.3636 139.032C86.5303 137.355 83.8902 136.516 81.4432 136.516C80.1553 136.516 79.1894 136.774 78.5455 137.29C77.9015 137.806 77.1288 138.516 76.2273 139.419C72.6212 143.419 69.9811 147.806 68.3068 152.581C66.7614 157.355 65.9886 162.645 65.9886 168.452C65.9886 174 66.8902 178.516 68.6932 182C70.625 185.484 74.1667 187.226 79.3182 187.226C82.4091 187.226 84.9205 186.323 86.8523 184.516C88.9129 182.839 90.6515 180.71 92.0682 178.129C93.4848 175.677 94.7727 173.355 95.9318 171.161C98.6364 166.258 100.955 160.323 102.886 153.355C104.818 146.258 106.428 139.097 107.716 131.871C109.133 124.516 110.292 118.065 111.193 112.516C111.708 109.548 112.288 106.645 112.932 103.806C113.576 100.968 114.155 98.1936 114.67 95.4839C112.61 91.2258 110.42 87.0323 108.102 82.9032C105.913 78.6452 104.045 74.3226 102.5 69.9355C100.955 65.5484 100.182 60.9677 100.182 56.1936C100.182 54.6452 100.697 52.4516 101.727 49.6129C102.758 46.6452 104.11 44 105.784 41.6774C107.458 39.2258 109.261 38 111.193 38C114.284 38 116.86 39.1613 118.92 41.4839C120.981 43.6774 122.655 46.5161 123.943 50C125.231 53.3548 126.197 56.7097 126.841 60.0645C127.485 63.2903 127.871 66 128 68.1935C128 69.0968 128 70 128 70.9032C128.129 71.6774 128.193 72.4516 128.193 73.2258C128.193 77.6129 127.936 81.9355 127.42 86.1936C126.905 90.4516 126.261 94.7097 125.489 98.9677C127.936 105.29 130.447 111.613 133.023 117.935C135.598 124.258 137.53 130.839 138.818 137.677C139.076 139.097 139.398 140.581 139.784 142.129C140.299 143.677 140.621 145.29 140.75 146.968C141.265 146.323 141.716 145.742 142.102 145.226C142.489 144.581 142.811 143.935 143.068 143.29C144.227 141.742 145.322 140.194 146.352 138.645C147.511 136.968 148.606 135.226 149.636 133.419C151.697 129.677 153.758 126.129 155.818 122.774C158.008 119.419 160.068 116.129 162 112.903C161.614 110.452 161.227 107.935 160.841 105.355C160.455 102.774 160.261 99.8065 160.261 96.4516C160.261 93.4839 160.39 90.6452 160.648 87.9355C161.034 85.2258 161.42 82.5161 161.807 79.8065C161.936 78.3871 162.322 76.2581 162.966 73.4194C163.61 70.5806 164.318 67.4839 165.091 64.129C165.992 60.7742 166.83 57.6774 167.602 54.8387C168.504 51.871 169.277 49.7419 169.92 48.4516C170.822 46.5161 172.11 44.6452 173.784 42.8387C175.587 41.0323 177.905 40.129 180.739 40.129C183.057 40.129 184.731 40.8387 185.761 42.2581C186.92 43.6774 187.629 45.3548 187.886 47.2903C188.273 49.2258 188.466 51.0968 188.466 52.9032C188.466 64.129 186.92 74.5806 183.83 84.2581C180.867 93.8065 177.068 103.161 172.432 112.323C172.947 114.387 173.462 116.452 173.977 118.516C174.492 120.452 174.879 122.645 175.136 125.097C175.909 131.032 176.489 136.581 176.875 141.742C177.39 146.774 178.485 151.742 180.159 156.645C181.189 159.871 182.606 163.548 184.409 167.677C186.341 171.806 188.788 174.774 191.75 176.581C192.652 177.226 193.424 177.548 194.068 177.548C195.098 177.548 196.386 177.097 197.932 176.194C199.606 175.419 201.152 174.516 202.568 173.484C204.114 172.452 205.144 171.677 205.659 171.161C207.076 169.742 207.977 168.258 208.364 166.71C208.879 165.161 209.201 163.355 209.33 161.29C209.33 160.903 209.136 159.613 208.75 157.419C208.492 155.097 208.235 153.613 207.977 152.968C207.848 152.323 207.205 151.29 206.045 149.871C205.015 148.323 203.92 146.903 202.761 145.613C201.602 144.323 200.765 143.742 200.25 143.871C198.705 143.871 197.417 144.323 196.386 145.226C195.485 146.129 194.905 147.226 194.648 148.516C194.648 149.548 194.068 150.065 192.909 150.065C191.621 150.065 190.977 149.355 190.977 147.935C190.977 145.742 191.75 143.677 193.295 141.742C194.841 139.677 197.03 138.645 199.864 138.645C201.667 138.645 203.341 139.355 204.886 140.774C206.561 142.065 207.784 143.355 208.557 144.645C209.973 146.839 211.004 149.548 211.648 152.774C212.42 155.871 212.871 158.71 213 161.29C213 163.742 212.678 166 212.034 168.065C211.519 170 210.36 171.871 208.557 173.677C207.784 174.452 206.496 175.548 204.693 176.968C202.89 178.516 200.958 179.871 198.898 181.032C196.966 182.323 195.292 182.968 193.875 182.968C191.428 182.968 188.981 182.065 186.534 180.258C184.216 178.452 182.027 176.258 179.966 173.677C178.034 170.968 176.36 168.323 174.943 165.742C173.655 163.161 172.754 161.097 172.239 159.548C170.564 154.258 168.955 149.161 167.409 144.258C165.992 139.226 164.898 133.742 164.125 127.806C163.223 129.484 162.258 131.226 161.227 133.032C160.197 134.71 159.167 136.452 158.136 138.258C155.689 142.645 152.92 146.839 149.83 150.839C146.867 154.839 144.485 159.161 142.682 163.806C142.811 166.645 142.682 169.548 142.295 172.516C141.909 175.484 140.75 178 138.818 180.065C138.174 180.71 137.273 181.032 136.114 181.032C135.212 181.032 134.246 180.774 133.216 180.258C132.314 179.742 131.799 179.032 131.67 178.129C131.542 177.484 131.413 176.774 131.284 176C131.284 175.226 131.284 174.452 131.284 173.677C131.284 169.032 132.379 164.387 134.568 159.742L133.602 156.452C133.473 153.484 132.83 150.645 131.67 147.935C130.64 145.226 129.867 142.452 129.352 139.613C128.451 135.355 127.356 131.226 126.068 127.226C124.909 123.097 123.621 119.032 122.205 115.032C121.174 120.968 119.629 127.613 117.568 134.968C115.636 142.323 113.383 149.613 110.807 156.839C108.231 163.935 105.462 170.129 102.5 175.419C101.47 177.226 99.7311 179.613 97.2841 182.581C94.8371 185.548 92.197 188.194 89.3636 190.516C86.5303 192.839 83.9545 194 81.6364 194ZM116.602 82.5161C116.86 80.4516 116.989 78.3226 116.989 76.129C117.117 73.8065 117.117 71.4194 116.989 68.9677C116.989 68.1936 116.924 66.5807 116.795 64.129C116.667 61.6774 116.409 59.0323 116.023 56.1936C115.765 53.3548 115.25 50.9032 114.477 48.8387C113.833 46.7742 112.803 45.7419 111.386 45.7419C110.356 45.7419 109.39 46.4516 108.489 47.871C107.716 49.2903 107.072 50.8387 106.557 52.5161C106.17 54.0645 105.977 55.2903 105.977 56.1936C105.977 60.7097 107.072 65.2258 109.261 69.7419C111.451 74.129 113.898 78.3871 116.602 82.5161ZM169.92 97.2258H170.114C172.689 91.5484 174.879 85.5484 176.682 79.2258C178.485 72.9032 179.708 65.871 180.352 58.129C180.481 56.7097 180.61 55.8065 180.739 55.4194C180.867 54.9032 180.867 54 180.739 52.7097C180.739 52.0645 180.739 51.4839 180.739 50.9677C180.867 50.3226 180.932 49.7419 180.932 49.2258C180.932 48.4516 180.867 47.871 180.739 47.4839C180.739 47.2258 180.803 46.9677 180.932 46.7097C181.189 46.4516 181.189 46.3226 180.932 46.3226C179.386 46.3226 178.034 47.3548 176.875 49.4194C175.716 51.4839 174.75 54.0645 173.977 57.1613C173.205 60.2581 172.561 63.4839 172.045 66.8387C171.53 70.1936 171.08 73.1613 170.693 75.7419C170.436 78.1936 170.242 79.871 170.114 80.7742C169.727 83.4839 169.534 86.1936 169.534 88.9032C169.534 90.1936 169.534 91.5484 169.534 92.9677C169.663 94.3871 169.792 95.8065 169.92 97.2258Z" stroke="#393939" stroke-width="14" mask="url(#path-3-outside-1_933_13150)"/>
<rect x="31.75" y="-12.25" width="3.5" height="263.5" stroke="#6F6F6F" stroke-width="3.5" stroke-linejoin="round" stroke-dasharray="17 17"/>
</g>
<defs>
<linearGradient id="paint0_linear_933_13150" x1="60" y1="116" x2="213" y2="116" gradientUnits="userSpaceOnUse">
<stop stop-color="#97C7D1"/>
<stop offset="1" stop-color="#9C84B4"/>
</linearGradient>
<clipPath id="clip0_933_13150">
<rect width="240" height="240" fill="white"/>
</clipPath>
</defs>
</svg>
