<svg width="330" height="330" viewBox="0 0 330 330" fill="none" xmlns="http://www.w3.org/2000/svg">
<g clip-path="url(#clip0_977_13183)">
<path d="M30 70C30 47.9086 47.9086 30 70 30H260C282.091 30 300 47.9086 300 70V260C300 282.091 282.091 300 260 300H70C47.9086 300 30 282.091 30 260V70Z" fill="#2C2C2C"/>
<mask id="mask0_977_13183" style="mask-type:alpha" maskUnits="userSpaceOnUse" x="15" y="15" width="300" height="300">
<path d="M15 55C15 32.9086 32.9086 15 55 15H275C297.091 15 315 32.9086 315 55V275C315 297.091 297.091 315 275 315H55C32.9086 315 15 297.091 15 275V55Z" fill="#2C2C2C"/>
</mask>
<g mask="url(#mask0_977_13183)">
<path d="M142.118 81.5L139.118 -6L189.618 -5.5L187.618 81.5C187.618 81.5 208.618 79 225.118 98C241.618 117 239.118 135 239.118 135C239.118 135 224.118 267.5 223.118 270C222.118 272.5 219.618 275.5 212.618 275.5C205.618 275.5 202.618 272.5 201.118 266.5C199.618 260.5 202.618 182 201.118 178.5C201.118 178.5 198.118 167.5 187.618 167.5C177.118 167.5 177.618 176 177.618 176C177.118 177.5 178.618 261.5 177.618 266.5C176.618 271.5 173.118 275.5 164.118 275.5C155.118 275.5 151.618 270 151.618 266.5C151.618 263 153.118 181 151.618 178.5C151.618 178.5 149.118 167.5 139.118 167.5C129.118 167.5 128.118 176 128.118 176C127.118 178 129.118 263.5 128.118 266.5C127.118 269.5 124.118 275.5 115.618 275.5C107.118 275.5 105.118 267 105.118 267L90.1182 132C90.1182 132 87.6179 113 105.618 96C123.618 79 142.118 81.5 142.118 81.5Z" fill="#D9D9D9"/>
<mask id="mask1_977_13183" style="mask-type:alpha" maskUnits="userSpaceOnUse" x="90" y="-6" width="150" height="282">
<path d="M142.118 81.5L139.118 -6L189.618 -5.5L187.618 81.5C187.618 81.5 208.618 79 225.118 98C241.618 117 239.118 135 239.118 135C239.118 135 224.118 267.5 223.118 270C222.118 272.5 219.618 275.5 212.618 275.5C205.618 275.5 201.118 268.5 201.118 266.5C201.118 264.5 202.618 182 201.118 178.5C201.118 178.5 198.118 167.5 187.618 167.5C177.118 167.5 177.618 176 177.618 176C177.118 177.5 177.618 264.5 177.618 266.5C177.618 268.5 173.118 275.5 164.118 275.5C155.118 275.5 151.618 270 151.618 266.5C151.618 263 153.118 181 151.618 178.5C151.618 178.5 149.118 167.5 139.118 167.5C129.118 167.5 128.118 176 128.118 176C127.118 178 129.118 263.5 128.118 266.5C127.118 269.5 124.118 275.5 115.618 275.5C107.118 275.5 105.118 267 105.118 267L90.1182 132C90.1182 132 87.6179 113 105.618 96C123.618 79 142.118 81.5 142.118 81.5Z" fill="#D9D9D9"/>
</mask>
<g mask="url(#mask1_977_13183)">
<path d="M158.118 81.5L160.15 -8H190.118L189.118 81.5H158.118Z" fill="url(#paint0_linear_977_13183)" fill-opacity="0.3"/>
</g>
<mask id="mask2_977_13183" style="mask-type:alpha" maskUnits="userSpaceOnUse" x="90" y="-6" width="150" height="282">
<path d="M142.118 81.5L139.118 -6L189.618 -5.5L187.618 81.5C187.618 81.5 208.618 79 225.118 98C241.618 117 239.118 135 239.118 135C239.118 135 224.118 267.5 223.118 270C222.118 272.5 219.618 275.5 212.618 275.5C205.618 275.5 201.118 268.5 201.118 266.5C201.118 264.5 202.618 182 201.118 178.5C201.118 178.5 198.118 167.5 187.618 167.5C177.118 167.5 177.618 176 177.618 176C177.118 177.5 177.618 264.5 177.618 266.5C177.618 268.5 173.118 275.5 164.118 275.5C155.118 275.5 151.618 270 151.618 266.5C151.618 263 153.118 181 151.618 178.5C151.618 178.5 149.118 167.5 139.118 167.5C129.118 167.5 128.118 176 128.118 176C127.118 178 129.118 263.5 128.118 266.5C127.118 269.5 124.118 275.5 115.618 275.5C107.118 275.5 105.118 267 105.118 267L90.1182 132C90.1182 132 87.6179 113 105.618 96C123.618 79 142.118 81.5 142.118 81.5Z" fill="#D9D9D9"/>
</mask>
<g mask="url(#mask2_977_13183)">
<path d="M109.118 86C94.118 95.5 92.1179 110 92.1179 110L158.618 110C158.618 110 170.118 110 184.118 121C212.618 139.5 201.118 178.5 201.118 178.5C201.118 178.5 195.618 263.5 199.118 271C199.118 271 201.118 278.5 211.618 280C222.118 281.5 226.618 273 226.618 273C231.118 264.5 243.618 134 243.618 134C243.618 134 244.618 110 231.618 90C218.618 70 187.618 81.5 187.618 81.5H142.118C142.118 81.5 124.118 76.5 109.118 86Z" fill="url(#paint1_linear_977_13183)" fill-opacity="0.1"/>
</g>
<mask id="mask3_977_13183" style="mask-type:alpha" maskUnits="userSpaceOnUse" x="90" y="-6" width="150" height="282">
<path d="M142.118 81.5L139.118 -6L189.618 -5.5L187.618 81.5C187.618 81.5 208.618 79 225.118 98C241.618 117 239.118 135 239.118 135C239.118 135 224.118 267.5 223.118 270C222.118 272.5 219.618 275.5 212.618 275.5C205.618 275.5 202.618 272.5 201.118 266.5C199.618 260.5 202.618 182 201.118 178.5C201.118 178.5 198.118 167.5 187.618 167.5C177.118 167.5 177.618 176 177.618 176C177.118 177.5 178.618 261.5 177.618 266.5C176.618 271.5 173.118 275.5 164.118 275.5C155.118 275.5 151.618 270 151.618 266.5C151.618 263 153.118 181 151.618 178.5C151.618 178.5 149.118 167.5 139.118 167.5C129.118 167.5 128.118 176 128.118 176C127.118 178 129.118 263.5 128.118 266.5C127.118 269.5 124.118 275.5 115.618 275.5C107.118 275.5 105.118 267 105.118 267L90.1182 132C90.1182 132 87.6179 113 105.618 96C123.618 79 142.118 81.5 142.118 81.5Z" fill="#D9D9D9"/>
<mask id="mask4_977_13183" style="mask-type:alpha" maskUnits="userSpaceOnUse" x="90" y="-6" width="150" height="282">
<path d="M142.118 81.5L139.118 -6L189.618 -5.5L187.618 81.5C187.618 81.5 208.618 79 225.118 98C241.618 117 239.118 135 239.118 135C239.118 135 224.118 267.5 223.118 270C222.118 272.5 219.618 275.5 212.618 275.5C205.618 275.5 201.118 268.5 201.118 266.5C201.118 264.5 202.618 182 201.118 178.5C201.118 178.5 198.118 167.5 187.618 167.5C177.118 167.5 177.618 176 177.618 176C177.118 177.5 177.618 264.5 177.618 266.5C177.618 268.5 173.118 275.5 164.118 275.5C155.118 275.5 151.618 270 151.618 266.5C151.618 263 153.118 181 151.618 178.5C151.618 178.5 149.118 167.5 139.118 167.5C129.118 167.5 128.118 176 128.118 176C127.118 178 129.118 263.5 128.118 266.5C127.118 269.5 124.118 275.5 115.618 275.5C107.118 275.5 105.118 267 105.118 267L90.1182 132C90.1182 132 87.6179 113 105.618 96C123.618 79 142.118 81.5 142.118 81.5Z" fill="#D9D9D9"/>
</mask>
<g mask="url(#mask4_977_13183)">
<path d="M158.118 81.5L160.15 -8H190.118L189.118 81.5H158.118Z" fill="url(#paint2_linear_977_13183)" fill-opacity="0.3"/>
</g>
<mask id="mask5_977_13183" style="mask-type:alpha" maskUnits="userSpaceOnUse" x="90" y="-6" width="150" height="282">
<path d="M142.118 81.5L139.118 -6L189.618 -5.5L187.618 81.5C187.618 81.5 208.618 79 225.118 98C241.618 117 239.118 135 239.118 135C239.118 135 224.118 267.5 223.118 270C222.118 272.5 219.618 275.5 212.618 275.5C205.618 275.5 201.118 268.5 201.118 266.5C201.118 264.5 202.618 182 201.118 178.5C201.118 178.5 198.118 167.5 187.618 167.5C177.118 167.5 177.618 176 177.618 176C177.118 177.5 177.618 264.5 177.618 266.5C177.618 268.5 173.118 275.5 164.118 275.5C155.118 275.5 151.618 270 151.618 266.5C151.618 263 153.118 181 151.618 178.5C151.618 178.5 149.118 167.5 139.118 167.5C129.118 167.5 128.118 176 128.118 176C127.118 178 129.118 263.5 128.118 266.5C127.118 269.5 124.118 275.5 115.618 275.5C107.118 275.5 105.118 267 105.118 267L90.1182 132C90.1182 132 87.6179 113 105.618 96C123.618 79 142.118 81.5 142.118 81.5Z" fill="#D9D9D9"/>
</mask>
<g mask="url(#mask5_977_13183)">
<path d="M109.118 86C94.118 95.5 92.1179 110 92.1179 110L158.618 110C158.618 110 170.118 110 184.118 121C212.618 139.5 201.118 178.5 201.118 178.5C201.118 178.5 195.618 263.5 199.118 271C199.118 271 201.118 278.5 211.618 280C222.118 281.5 226.618 273 226.618 273C231.118 264.5 243.618 134 243.618 134C243.618 134 244.618 110 231.618 90C218.618 70 187.618 81.5 187.618 81.5H142.118C142.118 81.5 124.118 76.5 109.118 86Z" fill="url(#paint3_linear_977_13183)" fill-opacity="0.1"/>
</g>
</mask>
<g mask="url(#mask3_977_13183)">
<g style="mix-blend-mode:color-burn">
<rect x="90" y="-10" width="150" height="290" fill="url(#paint4_linear_977_13183)"/>
</g>
</g>
</g>
<g filter="url(#filter0_d_977_13183)">
<path d="M70 315H260C290.376 315 315 290.376 315 260V70C315 39.6243 290.376 15 260 15H70C39.6243 15 15 39.6243 15 70V260C15 290.376 39.6243 315 70 315Z" stroke="url(#paint5_linear_977_13183)" stroke-width="30"/>
</g>
</g>
<defs>
<filter id="filter0_d_977_13183" x="-40" y="-30" width="410" height="410" filterUnits="userSpaceOnUse" color-interpolation-filters="sRGB">
<feFlood flood-opacity="0" result="BackgroundImageFix"/>
<feColorMatrix in="SourceAlpha" type="matrix" values="0 0 0 0 0 0 0 0 0 0 0 0 0 0 0 0 0 0 127 0" result="hardAlpha"/>
<feOffset dy="10"/>
<feGaussianBlur stdDeviation="20"/>
<feColorMatrix type="matrix" values="0 0 0 0 0 0 0 0 0 0 0 0 0 0 0 0 0 0 0.45 0"/>
<feBlend mode="normal" in2="BackgroundImageFix" result="effect1_dropShadow_977_13183"/>
<feBlend mode="normal" in="SourceGraphic" in2="effect1_dropShadow_977_13183" result="shape"/>
</filter>
<linearGradient id="paint0_linear_977_13183" x1="234.118" y1="6" x2="108.618" y2="50" gradientUnits="userSpaceOnUse">
<stop stop-color="#0F0F0F"/>
<stop offset="1" stop-color="#0F0F0F" stop-opacity="0"/>
</linearGradient>
<linearGradient id="paint1_linear_977_13183" x1="240.618" y1="78" x2="170.118" y2="187.5" gradientUnits="userSpaceOnUse">
<stop/>
<stop offset="1" stop-opacity="0"/>
</linearGradient>
<linearGradient id="paint2_linear_977_13183" x1="234.118" y1="6" x2="108.618" y2="50" gradientUnits="userSpaceOnUse">
<stop stop-color="#0F0F0F"/>
<stop offset="1" stop-color="#0F0F0F" stop-opacity="0"/>
</linearGradient>
<linearGradient id="paint3_linear_977_13183" x1="240.618" y1="78" x2="170.118" y2="187.5" gradientUnits="userSpaceOnUse">
<stop/>
<stop offset="1" stop-opacity="0"/>
</linearGradient>
<linearGradient id="paint4_linear_977_13183" x1="90" y1="135" x2="240" y2="135" gradientUnits="userSpaceOnUse">
<stop stop-color="#97C7D1"/>
<stop offset="1" stop-color="#9C84B4"/>
</linearGradient>
<linearGradient id="paint5_linear_977_13183" x1="30" y1="165" x2="300" y2="165" gradientUnits="userSpaceOnUse">
<stop stop-color="#97C7D1"/>
<stop offset="1" stop-color="#9C84B4"/>
</linearGradient>
<clipPath id="clip0_977_13183">
<rect width="330" height="330" rx="71" fill="white"/>
</clipPath>
</defs>
</svg>
