<svg width="595" height="580" viewBox="0 0 595 580" fill="none" xmlns="http://www.w3.org/2000/svg">
<rect x="52.1021" y="64.5314" width="511.31" height="511.469" rx="20" fill="#EDEDED"/>
<mask id="path-2-outside-1_933_13145" maskUnits="userSpaceOnUse" x="0" y="0" width="595" height="580" fill="black">
<rect fill="white" width="595" height="580"/>
<path d="M382.072 506.27C378.967 510.923 374.001 515.005 367.174 518.518C360.554 521.72 353.523 520.836 346.081 515.866C342.05 513.174 337.402 505.361 332.137 492.428C326.563 479.287 320.317 463.457 313.402 444.938C306.693 426.108 299.52 406.967 291.881 387.516C287.442 376.031 282.179 361.081 276.091 342.665C269.692 324.042 263.036 304.126 256.122 282.917C249.106 261.191 241.985 240.291 234.76 220.22C227.743 199.838 220.982 182.094 214.478 166.988C210.967 158.814 207.25 151.623 203.324 145.414C199.399 139.205 195.421 134.755 191.39 132.062C185.499 128.128 179.243 127.762 172.623 130.964C165.693 133.959 158.088 141.659 149.807 154.066C143.182 163.992 135.52 178.829 126.821 198.58C118.018 217.813 109.265 239.994 100.562 265.124C92.0663 289.943 84.19 315.848 76.9333 342.84C70.9206 365.282 65.7351 387.827 61.3767 410.477C57.2253 432.816 54.4191 453.812 52.9581 473.464C51.187 492.909 51.1756 509.717 52.9238 523.889C53.6452 527.51 54.9352 531.287 56.7938 535.218C58.5494 538.633 60.6674 541.169 63.148 542.825C65.3185 544.275 68.1101 544.794 71.5227 544.383C74.6253 543.764 77.8327 540.973 81.145 536.011C83.8363 531.979 85.9571 530.48 87.5075 531.516C88.1276 531.93 88.2302 533.119 87.8153 535.084C87.4003 537.049 86.4167 538.859 84.8645 540.513C71.3116 550.744 59.7778 556.942 50.2631 559.108C40.9554 560.963 33.3559 559.924 27.4645 555.989C22.8134 552.883 20.3374 544.503 20.0364 530.849C19.7355 517.195 21.2982 500.078 24.7246 479.496C27.8408 458.707 32.4577 436.006 38.5753 411.392C44.5899 386.261 51.6386 360.924 59.7215 335.381C70.0844 302.392 81.8941 270.593 95.1507 239.985C108.097 209.169 121.816 182.906 136.308 161.194C150.178 140.413 164.303 125.631 178.682 116.849C192.958 107.549 206.763 107.352 220.096 116.256C225.987 120.191 232.134 128.78 238.536 142.024C244.835 154.751 251.235 170.685 257.737 189.825C264.135 208.448 270.533 228.416 276.929 249.728C283.326 271.04 289.671 292.094 295.964 312.889C301.948 333.477 307.571 352.254 312.833 369.222C318.095 386.189 322.946 399.742 327.385 409.882C329.038 412.779 330.794 414.849 332.655 416.092L333.12 416.403C334.98 417.645 336.48 417.749 337.618 416.716C338.756 415.682 338.964 414.027 338.241 411.751C335.25 400.785 331.693 385.629 327.57 366.284C323.447 346.938 319.274 325.317 315.05 301.42C310.827 277.524 307.379 253.472 304.707 229.266C301.932 204.543 300.707 181.528 301.032 160.22C301.146 144.601 302.914 129.863 306.335 116.004C309.757 102.146 313.849 91.6503 318.61 84.5164C321.094 80.7943 324.767 78.3144 329.628 77.0764C334.696 75.5284 339.711 75.0663 344.674 75.6903C349.534 75.797 353.049 76.5752 355.22 78.0248C361.111 81.9594 367.207 89.6178 373.507 101C379.497 112.175 385.795 125.575 392.403 141.198C399.217 156.511 406.599 172.652 414.55 189.621C422.708 206.28 431.538 222.267 441.041 237.582C450.233 252.69 460.41 265.317 471.571 275.461C472.191 275.875 472.966 276.393 473.896 277.014C474.827 277.635 475.654 277.739 476.378 277.326C477.723 275.982 478.861 275.621 479.791 276.242C481.651 277.485 481.029 280.432 477.924 285.085C472.955 292.529 466.285 293.455 457.913 287.864C454.812 285.793 451.764 283.309 448.767 280.41C445.667 276.995 442.516 273.321 439.313 269.388C429.807 258.107 420.767 246.464 412.193 234.46C403.515 221.938 396.027 209.986 389.727 198.604C383.634 186.911 377.437 175.374 371.137 163.991C364.734 152.092 357.556 140.347 349.601 128.757C345.779 123.065 341.698 118.77 337.357 115.87C332.706 112.764 328.415 111.468 324.486 111.983C320.556 112.497 317.556 114.305 315.486 117.407C309.999 126.299 307.301 140.416 307.391 159.759C307.482 179.102 309.534 201.549 313.55 227.1C317.255 252.445 322.252 278.876 328.541 306.395C334.83 333.913 341.585 360.397 348.806 385.848C356.027 411.298 362.94 433.852 369.545 453.509C375.839 472.96 381 487.393 385.026 496.808C385.541 499.394 384.557 502.548 382.072 506.27ZM573.057 208.038C571.814 209.899 568.917 212.224 564.366 215.014C560.124 218.01 554.228 220.799 546.678 223.38C540.679 225.651 533.338 223.888 524.656 218.09C521.866 216.226 519.024 214.104 516.13 211.723C513.443 209.031 510.601 206.237 507.605 203.338C500.785 196.093 493.915 187.245 486.994 176.793C480.073 166.341 473.565 155.941 467.471 145.593C461.274 134.728 455.852 125.053 451.205 116.568C446.764 107.773 443.615 101.41 441.756 97.478C439.588 93.339 437.573 89.976 435.714 87.3888C434.061 84.4915 432.563 82.37 431.22 81.0244L430.29 80.4031C428.74 79.3677 427.085 79.1597 425.327 79.7792C423.776 80.0884 422.689 81.3806 422.067 83.6558C421.238 86.2412 421.699 92.6028 423.45 102.741C424.891 112.672 426.487 122.034 428.239 130.827C430.816 142.414 434.685 156.432 439.844 172.882C444.693 189.125 449.904 205.161 455.477 220.991C461.257 236.51 466.677 249.547 471.736 260.101C473.079 262.791 473.44 264.601 472.818 265.532C472.611 265.842 472.198 265.79 471.578 265.376C470.958 264.962 469.924 263.823 468.478 261.96C466.928 259.58 464.554 254.407 461.354 246.44C457.843 238.266 454.075 229.471 450.049 220.056C446.022 210.64 442.564 202.053 439.674 194.293C436.474 186.326 434.564 181.464 433.945 179.705C424.862 155.701 417.484 132.164 411.813 109.094C406.348 85.7139 401.349 61.9718 396.816 37.8679C399.298 36.8353 401.73 34.8716 404.11 31.977C406.49 29.0824 408.818 26.6015 411.095 24.5343C412.647 22.8804 414.716 21.7957 417.301 21.2803C419.576 20.5578 422.265 21.232 425.365 23.3028C429.396 25.9949 433.219 30.3418 436.834 36.3436C442.206 44.4153 448.351 55.0218 455.27 68.1629C462.087 80.7868 469.057 94.1866 476.183 108.362C483.205 122.021 489.814 134.955 496.01 147.164C501.896 159.167 506.646 168.842 510.26 176.188C518.315 192.33 527.303 203.714 537.225 210.34C545.907 216.139 552.422 215.781 556.769 209.268C559.461 205.236 561.068 198.462 561.592 188.946C561.593 186.256 560.718 181.86 558.964 175.756C557.417 169.342 555.508 163.806 553.236 159.15C552.307 157.184 552.204 155.995 552.928 155.581C553.859 154.858 554.893 155.324 556.03 156.98C558.095 160.602 560.212 164.482 562.381 168.621C564.447 172.243 566.409 176.019 568.267 179.951C571.365 186.056 573.378 191.436 574.306 196.091C575.543 200.954 575.127 204.936 573.057 208.038Z"/>
</mask>
<path d="M382.072 506.27C378.967 510.923 374.001 515.005 367.174 518.518C360.554 521.72 353.523 520.836 346.081 515.866C342.05 513.174 337.402 505.361 332.137 492.428C326.563 479.287 320.317 463.457 313.402 444.938C306.693 426.108 299.52 406.967 291.881 387.516C287.442 376.031 282.179 361.081 276.091 342.665C269.692 324.042 263.036 304.126 256.122 282.917C249.106 261.191 241.985 240.291 234.76 220.22C227.743 199.838 220.982 182.094 214.478 166.988C210.967 158.814 207.25 151.623 203.324 145.414C199.399 139.205 195.421 134.755 191.39 132.062C185.499 128.128 179.243 127.762 172.623 130.964C165.693 133.959 158.088 141.659 149.807 154.066C143.182 163.992 135.52 178.829 126.821 198.58C118.018 217.813 109.265 239.994 100.562 265.124C92.0663 289.943 84.19 315.848 76.9333 342.84C70.9206 365.282 65.7351 387.827 61.3767 410.477C57.2253 432.816 54.4191 453.812 52.9581 473.464C51.187 492.909 51.1756 509.717 52.9238 523.889C53.6452 527.51 54.9352 531.287 56.7938 535.218C58.5494 538.633 60.6674 541.169 63.148 542.825C65.3185 544.275 68.1101 544.794 71.5227 544.383C74.6253 543.764 77.8327 540.973 81.145 536.011C83.8363 531.979 85.9571 530.48 87.5075 531.516C88.1276 531.93 88.2302 533.119 87.8153 535.084C87.4003 537.049 86.4167 538.859 84.8645 540.513C71.3116 550.744 59.7778 556.942 50.2631 559.108C40.9554 560.963 33.3559 559.924 27.4645 555.989C22.8134 552.883 20.3374 544.503 20.0364 530.849C19.7355 517.195 21.2982 500.078 24.7246 479.496C27.8408 458.707 32.4577 436.006 38.5753 411.392C44.5899 386.261 51.6386 360.924 59.7215 335.381C70.0844 302.392 81.8941 270.593 95.1507 239.985C108.097 209.169 121.816 182.906 136.308 161.194C150.178 140.413 164.303 125.631 178.682 116.849C192.958 107.549 206.763 107.352 220.096 116.256C225.987 120.191 232.134 128.78 238.536 142.024C244.835 154.751 251.235 170.685 257.737 189.825C264.135 208.448 270.533 228.416 276.929 249.728C283.326 271.04 289.671 292.094 295.964 312.889C301.948 333.477 307.571 352.254 312.833 369.222C318.095 386.189 322.946 399.742 327.385 409.882C329.038 412.779 330.794 414.849 332.655 416.092L333.12 416.403C334.98 417.645 336.48 417.749 337.618 416.716C338.756 415.682 338.964 414.027 338.241 411.751C335.25 400.785 331.693 385.629 327.57 366.284C323.447 346.938 319.274 325.317 315.05 301.42C310.827 277.524 307.379 253.472 304.707 229.266C301.932 204.543 300.707 181.528 301.032 160.22C301.146 144.601 302.914 129.863 306.335 116.004C309.757 102.146 313.849 91.6503 318.61 84.5164C321.094 80.7943 324.767 78.3144 329.628 77.0764C334.696 75.5284 339.711 75.0663 344.674 75.6903C349.534 75.797 353.049 76.5752 355.22 78.0248C361.111 81.9594 367.207 89.6178 373.507 101C379.497 112.175 385.795 125.575 392.403 141.198C399.217 156.511 406.599 172.652 414.55 189.621C422.708 206.28 431.538 222.267 441.041 237.582C450.233 252.69 460.41 265.317 471.571 275.461C472.191 275.875 472.966 276.393 473.896 277.014C474.827 277.635 475.654 277.739 476.378 277.326C477.723 275.982 478.861 275.621 479.791 276.242C481.651 277.485 481.029 280.432 477.924 285.085C472.955 292.529 466.285 293.455 457.913 287.864C454.812 285.793 451.764 283.309 448.767 280.41C445.667 276.995 442.516 273.321 439.313 269.388C429.807 258.107 420.767 246.464 412.193 234.46C403.515 221.938 396.027 209.986 389.727 198.604C383.634 186.911 377.437 175.374 371.137 163.991C364.734 152.092 357.556 140.347 349.601 128.757C345.779 123.065 341.698 118.77 337.357 115.87C332.706 112.764 328.415 111.468 324.486 111.983C320.556 112.497 317.556 114.305 315.486 117.407C309.999 126.299 307.301 140.416 307.391 159.759C307.482 179.102 309.534 201.549 313.55 227.1C317.255 252.445 322.252 278.876 328.541 306.395C334.83 333.913 341.585 360.397 348.806 385.848C356.027 411.298 362.94 433.852 369.545 453.509C375.839 472.96 381 487.393 385.026 496.808C385.541 499.394 384.557 502.548 382.072 506.27ZM573.057 208.038C571.814 209.899 568.917 212.224 564.366 215.014C560.124 218.01 554.228 220.799 546.678 223.38C540.679 225.651 533.338 223.888 524.656 218.09C521.866 216.226 519.024 214.104 516.13 211.723C513.443 209.031 510.601 206.237 507.605 203.338C500.785 196.093 493.915 187.245 486.994 176.793C480.073 166.341 473.565 155.941 467.471 145.593C461.274 134.728 455.852 125.053 451.205 116.568C446.764 107.773 443.615 101.41 441.756 97.478C439.588 93.339 437.573 89.976 435.714 87.3888C434.061 84.4915 432.563 82.37 431.22 81.0244L430.29 80.4031C428.74 79.3677 427.085 79.1597 425.327 79.7792C423.776 80.0884 422.689 81.3806 422.067 83.6558C421.238 86.2412 421.699 92.6028 423.45 102.741C424.891 112.672 426.487 122.034 428.239 130.827C430.816 142.414 434.685 156.432 439.844 172.882C444.693 189.125 449.904 205.161 455.477 220.991C461.257 236.51 466.677 249.547 471.736 260.101C473.079 262.791 473.44 264.601 472.818 265.532C472.611 265.842 472.198 265.79 471.578 265.376C470.958 264.962 469.924 263.823 468.478 261.96C466.928 259.58 464.554 254.407 461.354 246.44C457.843 238.266 454.075 229.471 450.049 220.056C446.022 210.64 442.564 202.053 439.674 194.293C436.474 186.326 434.564 181.464 433.945 179.705C424.862 155.701 417.484 132.164 411.813 109.094C406.348 85.7139 401.349 61.9718 396.816 37.8679C399.298 36.8353 401.73 34.8716 404.11 31.977C406.49 29.0824 408.818 26.6015 411.095 24.5343C412.647 22.8804 414.716 21.7957 417.301 21.2803C419.576 20.5578 422.265 21.232 425.365 23.3028C429.396 25.9949 433.219 30.3418 436.834 36.3436C442.206 44.4153 448.351 55.0218 455.27 68.1629C462.087 80.7868 469.057 94.1866 476.183 108.362C483.205 122.021 489.814 134.955 496.01 147.164C501.896 159.167 506.646 168.842 510.26 176.188C518.315 192.33 527.303 203.714 537.225 210.34C545.907 216.139 552.422 215.781 556.769 209.268C559.461 205.236 561.068 198.462 561.592 188.946C561.593 186.256 560.718 181.86 558.964 175.756C557.417 169.342 555.508 163.806 553.236 159.15C552.307 157.184 552.204 155.995 552.928 155.581C553.859 154.858 554.893 155.324 556.03 156.98C558.095 160.602 560.212 164.482 562.381 168.621C564.447 172.243 566.409 176.019 568.267 179.951C571.365 186.056 573.378 191.436 574.306 196.091C575.543 200.954 575.127 204.936 573.057 208.038Z" fill="url(#paint0_linear_933_13145)"/>
<path d="M382.072 506.27C378.967 510.923 374.001 515.005 367.174 518.518C360.554 521.72 353.523 520.836 346.081 515.866C342.05 513.174 337.402 505.361 332.137 492.428C326.563 479.287 320.317 463.457 313.402 444.938C306.693 426.108 299.52 406.967 291.881 387.516C287.442 376.031 282.179 361.081 276.091 342.665C269.692 324.042 263.036 304.126 256.122 282.917C249.106 261.191 241.985 240.291 234.76 220.22C227.743 199.838 220.982 182.094 214.478 166.988C210.967 158.814 207.25 151.623 203.324 145.414C199.399 139.205 195.421 134.755 191.39 132.062C185.499 128.128 179.243 127.762 172.623 130.964C165.693 133.959 158.088 141.659 149.807 154.066C143.182 163.992 135.52 178.829 126.821 198.58C118.018 217.813 109.265 239.994 100.562 265.124C92.0663 289.943 84.19 315.848 76.9333 342.84C70.9206 365.282 65.7351 387.827 61.3767 410.477C57.2253 432.816 54.4191 453.812 52.9581 473.464C51.187 492.909 51.1756 509.717 52.9238 523.889C53.6452 527.51 54.9352 531.287 56.7938 535.218C58.5494 538.633 60.6674 541.169 63.148 542.825C65.3185 544.275 68.1101 544.794 71.5227 544.383C74.6253 543.764 77.8327 540.973 81.145 536.011C83.8363 531.979 85.9571 530.48 87.5075 531.516C88.1276 531.93 88.2302 533.119 87.8153 535.084C87.4003 537.049 86.4167 538.859 84.8645 540.513C71.3116 550.744 59.7778 556.942 50.2631 559.108C40.9554 560.963 33.3559 559.924 27.4645 555.989C22.8134 552.883 20.3374 544.503 20.0364 530.849C19.7355 517.195 21.2982 500.078 24.7246 479.496C27.8408 458.707 32.4577 436.006 38.5753 411.392C44.5899 386.261 51.6386 360.924 59.7215 335.381C70.0844 302.392 81.8941 270.593 95.1507 239.985C108.097 209.169 121.816 182.906 136.308 161.194C150.178 140.413 164.303 125.631 178.682 116.849C192.958 107.549 206.763 107.352 220.096 116.256C225.987 120.191 232.134 128.78 238.536 142.024C244.835 154.751 251.235 170.685 257.737 189.825C264.135 208.448 270.533 228.416 276.929 249.728C283.326 271.04 289.671 292.094 295.964 312.889C301.948 333.477 307.571 352.254 312.833 369.222C318.095 386.189 322.946 399.742 327.385 409.882C329.038 412.779 330.794 414.849 332.655 416.092L333.12 416.403C334.98 417.645 336.48 417.749 337.618 416.716C338.756 415.682 338.964 414.027 338.241 411.751C335.25 400.785 331.693 385.629 327.57 366.284C323.447 346.938 319.274 325.317 315.05 301.42C310.827 277.524 307.379 253.472 304.707 229.266C301.932 204.543 300.707 181.528 301.032 160.22C301.146 144.601 302.914 129.863 306.335 116.004C309.757 102.146 313.849 91.6503 318.61 84.5164C321.094 80.7943 324.767 78.3144 329.628 77.0764C334.696 75.5284 339.711 75.0663 344.674 75.6903C349.534 75.797 353.049 76.5752 355.22 78.0248C361.111 81.9594 367.207 89.6178 373.507 101C379.497 112.175 385.795 125.575 392.403 141.198C399.217 156.511 406.599 172.652 414.55 189.621C422.708 206.28 431.538 222.267 441.041 237.582C450.233 252.69 460.41 265.317 471.571 275.461C472.191 275.875 472.966 276.393 473.896 277.014C474.827 277.635 475.654 277.739 476.378 277.326C477.723 275.982 478.861 275.621 479.791 276.242C481.651 277.485 481.029 280.432 477.924 285.085C472.955 292.529 466.285 293.455 457.913 287.864C454.812 285.793 451.764 283.309 448.767 280.41C445.667 276.995 442.516 273.321 439.313 269.388C429.807 258.107 420.767 246.464 412.193 234.46C403.515 221.938 396.027 209.986 389.727 198.604C383.634 186.911 377.437 175.374 371.137 163.991C364.734 152.092 357.556 140.347 349.601 128.757C345.779 123.065 341.698 118.77 337.357 115.87C332.706 112.764 328.415 111.468 324.486 111.983C320.556 112.497 317.556 114.305 315.486 117.407C309.999 126.299 307.301 140.416 307.391 159.759C307.482 179.102 309.534 201.549 313.55 227.1C317.255 252.445 322.252 278.876 328.541 306.395C334.83 333.913 341.585 360.397 348.806 385.848C356.027 411.298 362.94 433.852 369.545 453.509C375.839 472.96 381 487.393 385.026 496.808C385.541 499.394 384.557 502.548 382.072 506.27ZM573.057 208.038C571.814 209.899 568.917 212.224 564.366 215.014C560.124 218.01 554.228 220.799 546.678 223.38C540.679 225.651 533.338 223.888 524.656 218.09C521.866 216.226 519.024 214.104 516.13 211.723C513.443 209.031 510.601 206.237 507.605 203.338C500.785 196.093 493.915 187.245 486.994 176.793C480.073 166.341 473.565 155.941 467.471 145.593C461.274 134.728 455.852 125.053 451.205 116.568C446.764 107.773 443.615 101.41 441.756 97.478C439.588 93.339 437.573 89.976 435.714 87.3888C434.061 84.4915 432.563 82.37 431.22 81.0244L430.29 80.4031C428.74 79.3677 427.085 79.1597 425.327 79.7792C423.776 80.0884 422.689 81.3806 422.067 83.6558C421.238 86.2412 421.699 92.6028 423.45 102.741C424.891 112.672 426.487 122.034 428.239 130.827C430.816 142.414 434.685 156.432 439.844 172.882C444.693 189.125 449.904 205.161 455.477 220.991C461.257 236.51 466.677 249.547 471.736 260.101C473.079 262.791 473.44 264.601 472.818 265.532C472.611 265.842 472.198 265.79 471.578 265.376C470.958 264.962 469.924 263.823 468.478 261.96C466.928 259.58 464.554 254.407 461.354 246.44C457.843 238.266 454.075 229.471 450.049 220.056C446.022 210.64 442.564 202.053 439.674 194.293C436.474 186.326 434.564 181.464 433.945 179.705C424.862 155.701 417.484 132.164 411.813 109.094C406.348 85.7139 401.349 61.9718 396.816 37.8679C399.298 36.8353 401.73 34.8716 404.11 31.977C406.49 29.0824 408.818 26.6015 411.095 24.5343C412.647 22.8804 414.716 21.7957 417.301 21.2803C419.576 20.5578 422.265 21.232 425.365 23.3028C429.396 25.9949 433.219 30.3418 436.834 36.3436C442.206 44.4153 448.351 55.0218 455.27 68.1629C462.087 80.7868 469.057 94.1866 476.183 108.362C483.205 122.021 489.814 134.955 496.01 147.164C501.896 159.167 506.646 168.842 510.26 176.188C518.315 192.33 527.303 203.714 537.225 210.34C545.907 216.139 552.422 215.781 556.769 209.268C559.461 205.236 561.068 198.462 561.592 188.946C561.593 186.256 560.718 181.86 558.964 175.756C557.417 169.342 555.508 163.806 553.236 159.15C552.307 157.184 552.204 155.995 552.928 155.581C553.859 154.858 554.893 155.324 556.03 156.98C558.095 160.602 560.212 164.482 562.381 168.621C564.447 172.243 566.409 176.019 568.267 179.951C571.365 186.056 573.378 191.436 574.306 196.091C575.543 200.954 575.127 204.936 573.057 208.038Z" stroke="white" stroke-width="40" mask="url(#path-2-outside-1_933_13145)"/>
<defs>
<linearGradient id="paint0_linear_933_13145" x1="20" y1="290.5" x2="575" y2="290.5" gradientUnits="userSpaceOnUse">
<stop stop-color="#97C7D1"/>
<stop offset="1" stop-color="#9C84B4"/>
</linearGradient>
</defs>
</svg>
