<svg width="241" height="71" viewBox="0 0 241 71" fill="none" xmlns="http://www.w3.org/2000/svg">
<path d="M5.69062 67.8831C4.8284 69.961 3.94894 71 3.05224 71C2.32798 71 1.79341 70.4873 1.44852 69.4618C0.48284 67.5998 0 62.8502 0 55.2132C0 54.2147 0 53.1893 0 52.1368C0.0344886 51.0844 0.0689772 49.9914 0.103466 48.858C0.275909 43.083 0.72426 38.1176 1.44852 33.9618C2.20727 29.806 3.34539 26.4057 4.86289 23.7611C7.62198 18.4719 12.0883 14.424 18.2617 11.6174C24.2282 8.94584 27.315 7.21874 27.5219 6.43615C28.0047 4.89795 28.8325 3.68358 30.0051 2.79304C31.1777 1.87552 32.7297 1.41676 34.661 1.41676C35.1784 1.41676 35.8681 1.60566 36.7303 1.98347C37.6271 2.36127 38.6272 2.874 39.7309 3.52166C42.0071 5.03288 43.1452 6.44964 43.1452 7.77195C42.7314 11.1722 41.1966 13.2906 38.541 14.1271C36.0233 14.9097 31.9364 16.0701 26.2803 17.6083C23.6592 18.3369 21.4002 19.106 19.5033 19.9156C17.6409 20.6982 16.02 21.6292 14.6404 22.7087C13.2954 23.7611 12.14 24.989 11.1743 26.3922C10.2086 27.7955 9.36365 29.4686 8.63939 31.4116C7.3978 34.515 6.77701 38.6978 6.77701 43.9601C6.77701 44.7967 6.79425 45.6602 6.82874 46.5507C6.86323 47.4683 6.88047 48.3723 6.88047 49.2628C6.88047 52.0694 6.77701 55.0108 6.57008 58.0872C6.36314 61.1636 6.06999 64.4154 5.69062 67.8426V67.8831Z" fill="white"/>
<path d="M44.9041 42.7457C46.3182 42.6648 47.8702 42.4624 49.5601 42.1385C51.2845 41.8147 53.009 41.3964 54.7334 40.8837C56.4578 40.371 58.1478 39.7503 59.8032 39.0217C61.4587 38.32 62.9417 37.5374 64.2522 36.6739C65.5628 35.8373 66.6147 34.9333 67.408 33.9618C68.2012 32.9903 68.5978 31.9648 68.5978 30.8854C67.2872 30.6695 66.3043 30.2782 65.649 29.7115C64.9937 29.1448 64.5109 28.5106 64.2005 27.809C63.9246 27.1074 63.7866 26.3922 63.7866 25.6636C63.8211 24.935 63.9074 24.3143 64.0453 23.8016C64.2522 22.6682 64.7006 21.5483 65.3904 20.4418C66.0801 19.3084 66.9424 18.2965 67.977 17.4059C69.0462 16.5154 70.2533 15.8003 71.5983 15.2605C72.9779 14.6938 74.4609 14.4105 76.0473 14.4105C80.048 14.4105 82.0484 16.7178 82.0484 21.3324C82.0484 21.5213 82.0484 21.8181 82.0484 22.2229C82.0484 22.6007 82.0139 22.9515 81.9449 23.2754C82.2553 23.3293 82.7209 23.3698 83.3417 23.3968C83.9625 23.3968 84.8592 23.3968 86.0318 23.3968V30.8854H79.3065C71.9949 40.9781 61.3035 46.2404 47.2321 46.6722C43.197 46.5103 41.4725 45.6872 42.0588 44.203C42.1623 43.2854 43.1107 42.7997 44.9041 42.7457Z" fill="white"/>
<path d="M84.8937 23.3968C86.3422 23.3698 87.7907 23.2214 89.2392 22.9515C90.6877 22.6817 92.1708 22.2769 93.6883 21.7372C95.1713 21.2514 96.4646 20.6847 97.5682 20.0371C98.7063 19.3894 99.672 18.6878 100.465 17.9322C101.293 17.1765 101.948 16.394 102.431 15.5844C102.948 14.7748 103.311 13.9652 103.518 13.1556C104.38 13.1556 105.121 13.2771 105.742 13.52C106.397 13.7628 106.915 14.0867 107.294 14.4914C107.708 14.8962 108.018 15.3685 108.225 15.9082C108.432 16.4479 108.536 17.0011 108.536 17.5678C108.536 18.0536 108.449 18.4449 108.277 18.7417C106.966 21.98 103.931 24.8406 99.1719 27.3233C96.7922 28.5916 94.3953 29.5226 91.9811 30.1163C89.6014 30.683 87.2389 30.9394 84.8937 30.8854V23.3968ZM93.4813 38.7383C95.5506 37.7128 97.8614 36.9572 100.414 36.4715C102.966 35.9857 105.777 35.7429 108.846 35.7429C111.536 35.7429 113.623 35.9723 115.106 36.431C116.002 36.6469 116.744 36.9033 117.33 37.2001C117.916 37.5239 118.21 37.8613 118.21 38.2121C118.21 38.6978 117.796 39.0756 116.968 39.3455C116.175 39.6423 115.071 39.8178 113.657 39.8717C110.622 40.0336 107.57 40.3979 104.5 40.9647C101.465 41.5314 98.5167 42.287 95.6541 43.2315L95.7576 43.191C95.2402 43.4609 94.6539 43.5958 93.9987 43.5958C91.7914 43.5958 90.6877 42.9211 90.6877 41.5718C90.6877 40.7083 91.6189 39.7638 93.4813 38.7383Z" fill="white"/>
<path d="M114.95 44.4863C116.365 44.0006 118.02 43.218 119.917 42.1385C121.814 41.0861 123.935 39.7638 126.28 38.1716C128.625 36.6064 131.143 34.7984 133.833 32.7474C136.523 30.7235 139.386 28.4972 142.421 26.0684C144.386 24.3953 146.076 23.1135 147.49 22.2229C148.904 21.3324 150.025 20.8871 150.853 20.8871C153.233 20.8601 154.681 21.7372 155.199 23.5182C155.44 24.3548 155.285 25.1644 154.733 25.947C154.216 26.7026 153.422 27.3637 152.353 27.9304C149.939 29.2258 147.542 30.6425 145.162 32.1807C142.817 33.7189 140.558 35.3381 138.385 37.0382C130.35 43.11 124.193 46.6722 119.917 47.7246C118.641 48.0215 117.503 48.2374 116.502 48.3723C115.468 48.5072 114.519 48.5747 113.657 48.5747C111.795 48.5747 110.864 48.1969 110.864 47.4413C110.864 46.5507 112.226 45.5658 114.95 44.4863Z" fill="white"/>
<path d="M154.164 42.7457C155.578 42.6648 157.13 42.4624 158.82 42.1385C160.544 41.8147 162.269 41.3964 163.993 40.8837C165.718 40.371 167.408 39.7503 169.063 39.0217C170.719 38.32 172.202 37.5374 173.512 36.6739C174.823 35.8373 175.875 34.9333 176.668 33.9618C177.461 32.9903 177.858 31.9648 177.858 30.8854C176.547 30.6695 175.564 30.2782 174.909 29.7115C174.254 29.1448 173.771 28.5106 173.46 27.809C173.184 27.1074 173.047 26.3922 173.047 25.6636C173.081 24.935 173.167 24.3143 173.305 23.8016C173.512 22.6682 173.96 21.5483 174.65 20.4418C175.34 19.3084 176.202 18.2965 177.237 17.4059C178.306 16.5154 179.513 15.8003 180.858 15.2605C182.238 14.6938 183.721 14.4105 185.307 14.4105C189.308 14.4105 191.308 16.7178 191.308 21.3324C191.308 21.5213 191.308 21.8181 191.308 22.2229C191.308 22.6007 191.274 22.9515 191.205 23.2754C191.515 23.3293 191.981 23.3698 192.602 23.3968C193.222 23.3968 194.119 23.3968 195.292 23.3968V30.8854H188.566C181.255 40.9781 170.563 46.2404 156.492 46.6722C152.457 46.5103 150.732 45.6872 151.319 44.203C151.422 43.2854 152.371 42.7997 154.164 42.7457Z" fill="white"/>
<path d="M202.948 1.45724C204.19 0.485747 205.311 0 206.311 0C207.414 0 208.259 0.472254 208.846 1.41676L208.794 1.3358C209.449 2.22634 209.725 3.02243 209.622 3.72406C208.932 6.7195 207.311 8.21722 204.759 8.21722C202.207 8.21722 200.931 7.16477 200.931 5.05986C200.931 3.98043 201.603 2.77955 202.948 1.45724ZM194.412 23.3968C196.102 23.3968 197.671 23.1809 199.12 22.7491C200.568 22.3174 201.862 21.7507 203 21.049C204.138 20.3204 205.121 19.4973 205.949 18.5798C206.811 17.6623 207.518 16.6908 208.07 15.6653C208.277 15.3145 208.57 15.0582 208.949 14.8962C209.329 14.7073 209.742 14.6129 210.191 14.6129C210.674 14.5859 211.139 14.6264 211.588 14.7343C212.036 14.8153 212.45 14.9637 212.829 15.1796C213.208 15.4494 213.484 15.8138 213.657 16.2725C213.864 16.7313 213.967 17.217 213.967 17.7298C214.002 18.2155 213.967 18.7147 213.864 19.2275C213.795 19.7132 213.674 20.1045 213.502 20.4014C213.088 21.049 213.157 21.7102 213.709 22.3848C214.157 23.0595 215.709 23.3968 218.365 23.3968V30.8854C213.053 30.7505 209.622 29.3877 208.07 26.797C206.725 28.2273 204.845 29.2662 202.431 29.9139C200.051 30.5616 197.378 30.8854 194.412 30.8854V23.3968Z" fill="white"/>
<path d="M217.382 23.3968C218.899 23.3968 220.296 23.3024 221.572 23.1135C222.883 22.8976 224.055 22.5198 225.09 21.98C225.883 21.3324 226.538 20.5498 227.056 19.6323C227.607 18.6878 227.866 17.6623 227.832 16.5559C227.763 13.9922 228.987 12.6699 231.505 12.5889C233.815 12.454 236.04 13.3715 238.178 15.3415C240.248 17.2575 241.179 19.5243 240.972 22.142C239.903 25.3803 236.523 27.7146 230.832 29.1448C227.97 29.8195 225.417 30.2782 223.176 30.5211C220.934 30.764 219.003 30.8854 217.382 30.8854V23.3968Z" fill="white"/>
</svg>
