<svg width="512" height="512" viewBox="0 0 512 512" fill="none" xmlns="http://www.w3.org/2000/svg">
<g clip-path="url(#clip0_984_104)">
<rect width="512" height="512" rx="40" fill="#282828"/>
<path d="M128.021 190.816C128.457 189.341 130.325 188.889 131.386 190.002L262.338 327.258C263.202 328.164 264.676 328.062 265.408 327.047L437.949 87.6514C438.726 86.5734 440.319 86.5388 441.142 87.5821L671.834 380.022C672.489 380.853 672.385 382.049 671.596 382.753L298.1 716.072C297.235 716.844 295.897 716.721 295.187 715.804L62.626 415.309C62.2328 414.801 62.1076 414.135 62.2895 413.519L128.021 190.816Z" fill="url(#paint0_linear_984_104)" fill-opacity="0.2"/>
<g filter="url(#filter0_d_984_104)">
<path fill-rule="evenodd" clip-rule="evenodd" d="M102.5 44C75.1619 44 53 66.3858 53 94V384C53 411.614 75.1619 434 102.5 434C129.838 434 152 411.614 152 384V94C152 66.3858 129.838 44 102.5 44ZM102.01 109C111.034 109 118.35 101.613 118.35 92.5C118.35 83.3873 111.034 76 102.01 76C92.9857 76 85.67 83.3873 85.67 92.5C85.67 101.613 92.9857 109 102.01 109Z" fill="url(#paint1_linear_984_104)"/>
</g>
<g filter="url(#filter1_d_984_104)">
<path fill-rule="evenodd" clip-rule="evenodd" d="M74.1856 52.8692C51.477 68.5811 45.805 99.7271 61.5169 122.436L226.521 360.918C242.233 383.627 273.379 389.299 296.087 373.587C318.796 357.875 324.468 326.729 308.756 304.02L143.752 65.5379C128.04 42.8293 96.8942 37.1573 74.1856 52.8692ZM102 108C110.837 108 118 100.837 118 92C118 83.1634 110.837 76 102 76C93.1634 76 86 83.1634 86 92C86 100.837 93.1634 108 102 108Z" fill="url(#paint2_linear_984_104)"/>
</g>
<g filter="url(#filter2_d_984_104)">
<path fill-rule="evenodd" clip-rule="evenodd" d="M404 73C376.386 73 354 95.3858 354 123V394C354 421.614 376.386 444 404 444C431.614 444 454 421.614 454 394V123C454 95.3858 431.614 73 404 73ZM420 116C420 124.837 412.836 132 404 132C395.163 132 388 124.837 388 116C388 107.163 395.163 100 404 100C412.836 100 420 107.163 420 116Z" fill="url(#paint3_linear_984_104)"/>
</g>
<g filter="url(#filter3_d_984_104)">
<path fill-rule="evenodd" clip-rule="evenodd" d="M428.194 88.3973C407.108 74.1494 378.464 79.6927 364.217 100.778L228.066 302.271C213.818 323.356 219.362 352 240.447 366.248C261.533 380.496 290.177 374.953 304.425 353.867L440.575 152.375C454.823 131.289 449.28 102.645 428.194 88.3973ZM420 116C420 124.837 412.837 132 404 132C395.164 132 388 124.837 388 116C388 107.163 395.164 100 404 100C412.837 100 420 107.163 420 116ZM282 330C282 338.837 274.837 346 266 346C257.163 346 250 338.837 250 330C250 321.163 257.163 314 266 314C274.837 314 282 321.163 282 330Z" fill="white"/>
</g>
</g>
<defs>
<filter id="filter0_d_984_104" x="-7" y="4" width="239" height="530" filterUnits="userSpaceOnUse" color-interpolation-filters="sRGB">
<feFlood flood-opacity="0" result="BackgroundImageFix"/>
<feColorMatrix in="SourceAlpha" type="matrix" values="0 0 0 0 0 0 0 0 0 0 0 0 0 0 0 0 0 0 127 0" result="hardAlpha"/>
<feOffset dx="10" dy="30"/>
<feGaussianBlur stdDeviation="35"/>
<feComposite in2="hardAlpha" operator="out"/>
<feColorMatrix type="matrix" values="0 0 0 0 0 0 0 0 0 0 0 0 0 0 0 0 0 0 0.45 0"/>
<feBlend mode="normal" in2="BackgroundImageFix" result="effect1_dropShadow_984_104"/>
<feBlend mode="normal" in="SourceGraphic" in2="effect1_dropShadow_984_104" result="shape"/>
</filter>
<filter id="filter1_d_984_104" x="-7.37" y="3.9823" width="405.013" height="478.491" filterUnits="userSpaceOnUse" color-interpolation-filters="sRGB">
<feFlood flood-opacity="0" result="BackgroundImageFix"/>
<feColorMatrix in="SourceAlpha" type="matrix" values="0 0 0 0 0 0 0 0 0 0 0 0 0 0 0 0 0 0 127 0" result="hardAlpha"/>
<feOffset dx="10" dy="30"/>
<feGaussianBlur stdDeviation="35"/>
<feComposite in2="hardAlpha" operator="out"/>
<feColorMatrix type="matrix" values="0 0 0 0 0 0 0 0 0 0 0 0 0 0 0 0 0 0 0.45 0"/>
<feBlend mode="normal" in2="BackgroundImageFix" result="effect1_dropShadow_984_104"/>
<feBlend mode="normal" in="SourceGraphic" in2="effect1_dropShadow_984_104" result="shape"/>
</filter>
<filter id="filter2_d_984_104" x="294" y="33" width="240" height="511" filterUnits="userSpaceOnUse" color-interpolation-filters="sRGB">
<feFlood flood-opacity="0" result="BackgroundImageFix"/>
<feColorMatrix in="SourceAlpha" type="matrix" values="0 0 0 0 0 0 0 0 0 0 0 0 0 0 0 0 0 0 127 0" result="hardAlpha"/>
<feOffset dx="10" dy="30"/>
<feGaussianBlur stdDeviation="35"/>
<feComposite in2="hardAlpha" operator="out"/>
<feColorMatrix type="matrix" values="0 0 0 0 0 0 0 0 0 0 0 0 0 0 0 0 0 0 0.45 0"/>
<feBlend mode="normal" in2="BackgroundImageFix" result="effect1_dropShadow_984_104"/>
<feBlend mode="normal" in="SourceGraphic" in2="effect1_dropShadow_984_104" result="shape"/>
</filter>
<filter id="filter3_d_984_104" x="190.163" y="60.4938" width="288.316" height="353.658" filterUnits="userSpaceOnUse" color-interpolation-filters="sRGB">
<feFlood flood-opacity="0" result="BackgroundImageFix"/>
<feColorMatrix in="SourceAlpha" type="matrix" values="0 0 0 0 0 0 0 0 0 0 0 0 0 0 0 0 0 0 127 0" result="hardAlpha"/>
<feOffset dy="10"/>
<feGaussianBlur stdDeviation="15"/>
<feComposite in2="hardAlpha" operator="out"/>
<feColorMatrix type="matrix" values="0 0 0 0 0 0 0 0 0 0 0 0 0 0 0 0 0 0 0.15 0"/>
<feBlend mode="normal" in2="BackgroundImageFix" result="effect1_dropShadow_984_104"/>
<feBlend mode="normal" in="SourceGraphic" in2="effect1_dropShadow_984_104" result="shape"/>
</filter>
<linearGradient id="paint0_linear_984_104" x1="131" y1="158.5" x2="547" y2="533" gradientUnits="userSpaceOnUse">
<stop stop-color="#A8A8A8"/>
<stop offset="1" stop-opacity="0.59"/>
</linearGradient>
<linearGradient id="paint1_linear_984_104" x1="87.6503" y1="80.4999" x2="143.687" y2="460.839" gradientUnits="userSpaceOnUse">
<stop stop-color="white"/>
<stop offset="1" stop-color="#9C84B4"/>
</linearGradient>
<linearGradient id="paint2_linear_984_104" x1="271.603" y1="342.754" x2="93.4192" y2="76.5225" gradientUnits="userSpaceOnUse">
<stop stop-color="#97C7D1"/>
<stop offset="1" stop-color="#9C84B4"/>
</linearGradient>
<linearGradient id="paint3_linear_984_104" x1="411.502" y1="58.5001" x2="396.214" y2="498.577" gradientUnits="userSpaceOnUse">
<stop stop-color="#97C7D1"/>
<stop offset="1" stop-color="white"/>
</linearGradient>
<clipPath id="clip0_984_104">
<rect width="512" height="512" rx="40" fill="white"/>
</clipPath>
</defs>
</svg>
