<svg width="277" height="54" viewBox="0 0 277 54" fill="none" xmlns="http://www.w3.org/2000/svg">
<path d="M53.2969 44.7656C53.2969 42.0469 53.6484 39.3047 54.3516 36.5391C55.1016 33.7266 56.0156 30.9609 57.0938 28.2422C58.2188 25.5234 59.4141 22.8984 60.6797 20.3672C61.9453 17.7891 63.1406 15.375 64.2656 13.125V12.2109C63.75 12.7734 62.9297 13.6641 61.8047 14.8828C60.7266 16.0547 59.4844 17.3906 58.0781 18.8906C56.7188 20.3906 55.2656 21.9844 53.7188 23.6719C52.2188 25.3125 50.7656 26.8828 49.3594 28.3828C48 29.8828 46.7812 31.2422 45.7031 32.4609C44.625 33.6328 43.8281 34.5 43.3125 35.0625C42.7969 35.625 42.3047 36.4688 41.8359 37.5938C41.3672 38.6719 40.8516 39.7734 40.2891 40.8984C39.7266 42.0234 39.0938 43.0078 38.3906 43.8516C37.7344 44.6953 36.9844 45.1172 36.1406 45.1172C35.4375 45.1172 34.875 45.0469 34.4531 44.9062C34.0781 44.7656 33.7969 44.5547 33.6094 44.2734C33.4219 43.9453 33.3047 43.5469 33.2578 43.0781C33.2109 42.6094 33.1875 42.0469 33.1875 41.3906C33.1875 37.9219 33.6797 34.5703 34.6641 31.3359C35.6953 28.0547 36.7734 24.7266 37.8984 21.3516V20.4375C37.8047 20.5312 37.6406 20.6953 37.4062 20.9297C37.1719 21.1172 37.0312 21.2578 36.9844 21.3516C35.8594 23.0391 34.7109 24.8672 33.5391 26.8359C32.3672 28.7578 31.1484 30.6797 29.8828 32.6016C28.6172 34.4766 27.2578 36.2812 25.8047 38.0156C24.3516 39.75 22.7812 41.2969 21.0938 42.6562C19.4062 43.9688 17.5547 45.0234 15.5391 45.8203C13.5703 46.6172 11.3906 47.0156 9 47.0156C8.48438 47.0156 7.78125 46.9922 6.89062 46.9453C6.04688 46.8984 5.20312 46.7578 4.35938 46.5234C3.5625 46.2891 2.85938 45.9141 2.25 45.3984C1.6875 44.8828 1.40625 44.1562 1.40625 43.2188C1.40625 42.8438 1.61719 42.375 2.03906 41.8125C2.50781 41.2031 2.90625 40.7812 3.23438 40.5469C3.89062 41.625 4.42969 42.3516 4.85156 42.7266C5.32031 43.0547 5.97656 43.2188 6.82031 43.2188C8.22656 43.2188 9.70312 43.0078 11.25 42.5859C12.8438 42.1172 14.3672 41.5078 15.8203 40.7578C17.3203 40.0078 18.7266 39.1406 20.0391 38.1562C21.3516 37.1719 22.4531 36.1406 23.3438 35.0625C24.0469 34.125 24.8906 32.9297 25.875 31.4766C26.9062 29.9766 27.9844 28.3594 29.1094 26.625C30.2812 24.8438 31.4766 23.0391 32.6953 21.2109C33.9141 19.3828 35.0859 17.6484 36.2109 16.0078C37.3828 14.3203 38.4609 12.8203 39.4453 11.5078C40.4297 10.1953 41.2734 9.21094 41.9766 8.55469C42.6328 8.55469 43.125 8.67188 43.4531 8.90625C43.7812 9.09375 44.0156 9.375 44.1562 9.75C44.2969 10.125 44.3672 10.5703 44.3672 11.0859C44.3672 11.6016 44.3672 12.1406 44.3672 12.7031C44.3672 14.6719 44.0625 16.5938 43.4531 18.4688C42.8906 20.3438 42.2578 22.1719 41.5547 23.9531C40.8516 25.6875 40.1953 27.3984 39.5859 29.0859C39.0234 30.7734 38.7422 32.4375 38.7422 34.0781C38.7422 34.1719 38.7422 34.3359 38.7422 34.5703C38.7891 34.8047 38.8125 34.9688 38.8125 35.0625C43.2188 30.1875 47.0156 25.9688 50.2031 22.4062C53.3906 18.8438 56.0859 15.8203 58.2891 13.3359C60.5391 10.8047 62.3672 8.76562 63.7734 7.21875C65.1797 5.625 66.3047 4.40625 67.1484 3.5625C67.9922 2.67188 68.625 2.0625 69.0469 1.73438C69.5156 1.40625 69.8906 1.24219 70.1719 1.24219C70.6406 1.24219 70.9922 1.38281 71.2266 1.66406C71.4609 1.94531 71.6016 2.27344 71.6484 2.64844C71.7422 3.02344 71.7656 3.42188 71.7188 3.84375C71.7188 4.26562 71.7188 4.61719 71.7188 4.89844C71.7188 6.86719 71.3438 8.88281 70.5938 10.9453C69.8906 12.9609 68.9766 15.0469 67.8516 17.2031C66.7734 19.3125 65.5781 21.4688 64.2656 23.6719C63 25.8281 61.8047 28.0547 60.6797 30.3516C59.6016 32.6484 58.6875 34.9922 57.9375 37.3828C57.2344 39.7266 56.8828 42.1406 56.8828 44.625C56.8828 45.8906 56.9062 46.8281 56.9531 47.4375C57 48 57.1406 48.4688 57.375 48.8438C57.6094 49.2656 57.9844 49.6875 58.5 50.1094C59.0156 50.5781 59.7422 51.3047 60.6797 52.2891C59.6016 52.8984 58.5469 53.1328 57.5156 52.9922C56.5312 52.8984 55.6641 52.5 54.9141 51.7969C54.2109 51.0938 53.6953 50.1328 53.3672 48.9141C53.0391 47.6953 53.0156 46.3125 53.2969 44.7656Z" fill="white"/>
<path d="M68.2031 44.3438C67.4062 42.5625 67.0547 40.8281 67.1484 39.1406C67.2422 37.4062 67.6172 35.7891 68.2734 34.2891C68.9766 32.7422 69.8672 31.3594 70.9453 30.1406C72.0703 28.875 73.2656 27.7969 74.5312 26.9062C75.7969 25.9688 77.0625 25.2656 78.3281 24.7969C79.6406 24.3281 80.7891 24.1406 81.7734 24.2344C82.7578 24.2812 83.5312 24.6328 84.0938 25.2891C84.6562 25.9453 84.8438 26.9531 84.6562 28.3125C84.6562 30.1406 84.0703 31.7344 82.8984 33.0938C81.7734 34.4531 80.5078 35.6719 79.1016 36.75C77.7422 37.8281 76.4766 38.8125 75.3047 39.7031C74.1797 40.5469 73.6172 41.3438 73.6172 42.0938C73.6172 42.5156 73.8516 42.8438 74.3203 43.0781C74.8359 43.3125 75.4219 43.5 76.0781 43.6406C76.7344 43.7344 77.3906 43.8047 78.0469 43.8516C78.7031 43.8984 79.1719 43.9453 79.4531 43.9922C83.8594 43.0547 87.1641 42.4922 89.3672 42.3047C91.5703 42.0703 92.9531 42.0938 93.5156 42.375C94.0781 42.6094 93.9609 43.0078 93.1641 43.5703C92.4141 44.0859 91.2422 44.6484 89.6484 45.2578C88.0547 45.8203 86.2031 46.3359 84.0938 46.8047C81.9844 47.2734 79.8984 47.5547 77.8359 47.6484C75.7734 47.6953 73.8516 47.4844 72.0703 47.0156C70.3359 46.5469 69.0469 45.6562 68.2031 44.3438ZM80.5078 28.3125C79.5703 28.3125 78.6797 28.5703 77.8359 29.0859C76.9922 29.6016 76.2188 30.2578 75.5156 31.0547C74.8594 31.8047 74.2969 32.6484 73.8281 33.5859C73.3594 34.4766 73.0078 35.3203 72.7734 36.1172C72.8672 36.1641 72.9375 36.1875 72.9844 36.1875H73.1953C73.8516 36.1875 74.6016 35.9062 75.4453 35.3438C76.2891 34.7812 77.0859 34.1016 77.8359 33.3047C78.5859 32.4609 79.2188 31.5938 79.7344 30.7031C80.25 29.8125 80.5078 29.0156 80.5078 28.3125Z" fill="white"/>
<path d="M92.9531 44.8359C92.9531 44.4141 92.9531 44.0859 92.9531 43.8516C92.9531 43.6172 92.9766 43.4062 93.0234 43.2188C93.1172 42.9844 93.2344 42.75 93.375 42.5156C93.5156 42.2812 93.7031 41.9766 93.9375 41.6016C94.3125 40.9453 95.0156 39.7969 96.0469 38.1562C97.0781 36.5156 98.1797 34.7812 99.3516 32.9531C100.523 31.125 101.625 29.3906 102.656 27.75C103.734 26.1094 104.484 24.9609 104.906 24.3047C104.953 24.2578 105.07 24.2344 105.258 24.2344C105.492 24.2344 105.656 24.2344 105.75 24.2344C105.844 24.2344 106.008 24.2344 106.242 24.2344C106.477 24.2344 106.617 24.2578 106.664 24.3047C106.711 24.3516 106.805 24.4688 106.945 24.6562C107.133 24.8438 107.32 25.0547 107.508 25.2891C107.742 25.4766 107.93 25.6641 108.07 25.8516C108.258 26.0391 108.398 26.1328 108.492 26.1328C108.914 26.1328 109.359 25.9922 109.828 25.7109C110.297 25.4297 110.766 25.125 111.234 24.7969C111.75 24.4219 112.266 24.0938 112.781 23.8125C113.297 23.5312 113.836 23.3906 114.398 23.3906C115.008 23.3906 115.57 23.5312 116.086 23.8125C116.602 24.0938 117.047 24.4453 117.422 24.8672C117.797 25.2891 118.078 25.7578 118.266 26.2734C118.5 26.7891 118.617 27.3047 118.617 27.8203C118.617 28.8984 118.453 29.9297 118.125 30.9141C117.844 31.8984 117.516 32.8828 117.141 33.8672C116.766 34.8047 116.414 35.7656 116.086 36.75C115.805 37.6875 115.664 38.6719 115.664 39.7031C115.664 40.7344 115.781 41.4844 116.016 41.9531C116.25 42.375 116.906 42.5859 117.984 42.5859C119.25 42.5859 120.445 42.3984 121.57 42.0234C122.742 41.6484 123.938 41.4609 125.156 41.4609C125.156 42.5859 124.805 43.5234 124.102 44.2734C123.445 45.0234 122.602 45.6328 121.57 46.1016C120.586 46.5234 119.508 46.8281 118.336 47.0156C117.211 47.1562 116.18 47.2266 115.242 47.2266C113.461 47.2266 112.148 46.7344 111.305 45.75C110.508 44.7188 110.109 43.3594 110.109 41.6719C110.109 40.5469 110.297 39.4922 110.672 38.5078C111.094 37.5234 111.539 36.5625 112.008 35.625C112.523 34.6875 112.992 33.75 113.414 32.8125C113.836 31.875 114.047 30.8672 114.047 29.7891C114.047 29.5078 114 29.1328 113.906 28.6641C113.812 28.1953 113.508 27.9609 112.992 27.9609C111.445 27.9609 110.039 28.4531 108.773 29.4375C107.555 30.4219 106.43 31.6641 105.398 33.1641C104.414 34.6641 103.5 36.2812 102.656 38.0156C101.859 39.75 101.086 41.3672 100.336 42.8672C99.6328 44.3672 98.9531 45.6094 98.2969 46.5938C97.6406 47.5781 96.9609 48.0703 96.2578 48.0703C95.2734 48.0703 94.4766 47.7656 93.8672 47.1562C93.2578 46.5469 92.9531 45.7734 92.9531 44.8359Z" fill="white"/>
<path d="M123.75 44.4844C123.75 43.7812 123.961 42.7969 124.383 41.5312C124.805 40.2188 125.344 38.8125 126 37.3125C126.703 35.8125 127.477 34.2891 128.32 32.7422C129.211 31.1953 130.102 29.7891 130.992 28.5234C131.883 27.2578 132.727 26.2266 133.523 25.4297C134.32 24.6328 135.023 24.2344 135.633 24.2344C136.945 24.2344 137.602 24.8672 137.602 26.1328C137.602 26.6953 137.484 27.1641 137.25 27.5391C137.062 27.9141 136.828 28.2656 136.547 28.5938C136.266 28.9219 135.961 29.25 135.633 29.5781C135.305 29.8594 135.023 30.2109 134.789 30.6328C134.367 31.3359 133.852 32.2969 133.242 33.5156C132.633 34.7344 132.023 35.9297 131.414 37.1016C130.852 38.2266 130.359 39.2344 129.938 40.125C129.516 41.0156 129.305 41.5078 129.305 41.6016V42.5156C131.133 42.1875 132.891 41.4141 134.578 40.1953C136.266 38.9297 137.859 37.4531 139.359 35.7656C140.906 34.0781 142.359 32.3203 143.719 30.4922C145.125 28.6172 146.438 26.9062 147.656 25.3594C148.875 23.7656 150.023 22.4531 151.102 21.4219C152.18 20.3906 153.188 19.875 154.125 19.875C154.125 21.6094 153.773 23.1797 153.07 24.5859C152.367 25.9922 151.594 27.375 150.75 28.7344C149.953 30.0938 149.203 31.5 148.5 32.9531C147.797 34.3594 147.445 35.9531 147.445 37.7344C147.445 38.4844 147.891 39.1641 148.781 39.7734C149.719 40.3359 150.773 40.8281 151.945 41.25C153.164 41.625 154.336 41.9297 155.461 42.1641C156.586 42.3984 157.359 42.5391 157.781 42.5859V44.4141C156.703 44.4609 155.367 44.4844 153.773 44.4844C152.18 44.4375 150.586 44.25 148.992 43.9219C147.398 43.5938 145.945 43.0547 144.633 42.3047C143.367 41.5078 142.523 40.3594 142.102 38.8594C140.883 39.6562 139.711 40.5938 138.586 41.6719C137.461 42.75 136.289 43.7578 135.07 44.6953C133.898 45.6328 132.656 46.4297 131.344 47.0859C130.031 47.7422 128.602 48.0703 127.055 48.0703C126.117 48.0703 125.32 47.6719 124.664 46.875C124.055 46.0781 123.75 45.2812 123.75 44.4844Z" fill="white"/>
<path d="M172.969 42.5859C172.969 41.1797 173.25 39.8906 173.812 38.7188C174.422 37.5 175.078 36.3516 175.781 35.2734C176.484 34.1953 177.117 33.1172 177.68 32.0391C178.289 30.9609 178.594 29.8125 178.594 28.5938C178.594 28.3125 178.57 27.9844 178.523 27.6094C178.523 27.1875 178.477 26.7891 178.383 26.4141C178.336 26.0391 178.195 25.7344 177.961 25.5C177.773 25.2188 177.516 25.0781 177.188 25.0781C177.141 25.0781 177.047 25.1016 176.906 25.1484C176.812 25.1484 176.766 25.1719 176.766 25.2188C176.109 26.1094 175.312 27.1172 174.375 28.2422C173.484 29.3203 172.523 30.3984 171.492 31.4766C170.461 32.5547 169.453 33.5859 168.469 34.5703C167.484 35.5547 166.594 36.375 165.797 37.0312C165.234 37.5469 164.461 38.25 163.477 39.1406C162.539 40.0312 161.578 40.9219 160.594 41.8125C159.656 42.6562 158.812 43.4062 158.062 44.0625C157.359 44.7188 156.961 45.0469 156.867 45.0469L153.633 42.3047C154.055 42.3047 154.477 42.2109 154.898 42.0234C155.273 41.8359 155.648 41.625 156.023 41.3906C158.836 39.5156 161.367 37.3594 163.617 34.9219C165.914 32.4844 168.164 29.8594 170.367 27.0469C170.461 26.9062 170.695 26.5078 171.07 25.8516C171.492 25.1484 171.938 24.375 172.406 23.5312C172.875 22.6406 173.344 21.7734 173.812 20.9297C174.281 20.0391 174.633 19.3359 174.867 18.8203C175.148 18.2109 175.312 17.7188 175.359 17.3438C175.453 16.9688 175.523 16.6875 175.57 16.5C175.664 16.2656 175.805 16.1016 175.992 16.0078C176.18 15.9141 176.578 15.8672 177.188 15.8672C177.281 15.8672 177.492 15.8906 177.82 15.9375C178.195 15.9844 178.43 16.0312 178.523 16.0781C179.133 17.3438 179.672 18.4688 180.141 19.4531C180.609 20.4375 181.008 21.375 181.336 22.2656C181.664 23.1094 181.898 23.9766 182.039 24.8672C182.227 25.7578 182.32 26.7422 182.32 27.8203C181.711 29.3672 181.031 30.9609 180.281 32.6016C179.531 34.1953 178.898 35.7188 178.383 37.1719C177.867 38.625 177.539 39.9375 177.398 41.1094C177.305 42.2812 177.562 43.2188 178.172 43.9219C178.828 44.5781 179.906 44.9297 181.406 44.9766C182.953 45.0234 185.133 44.625 187.945 43.7812C188.695 44.1562 188.766 44.625 188.156 45.1875C187.547 45.7031 186.609 46.1953 185.344 46.6641C184.125 47.1328 182.766 47.5312 181.266 47.8594C179.812 48.1406 178.594 48.2109 177.609 48.0703C176.719 48.0703 175.969 47.9297 175.359 47.6484C174.797 47.3203 174.328 46.8984 173.953 46.3828C173.625 45.8672 173.367 45.2812 173.18 44.625C173.039 43.9688 172.969 43.2891 172.969 42.5859Z" fill="white"/>
<path d="M184.359 43.4297C184.359 42.7734 184.43 42.2109 184.57 41.7422C184.711 41.2266 184.969 40.5703 185.344 39.7734C185.672 39.3047 186.258 38.4141 187.102 37.1016C187.992 35.7891 188.906 34.4062 189.844 32.9531C190.828 31.5 191.742 30.1406 192.586 28.875C193.477 27.5625 194.086 26.6484 194.414 26.1328C194.836 25.5234 195.164 25.1953 195.398 25.1484C195.633 25.1016 196.078 25.0781 196.734 25.0781C197.156 25.0781 197.602 25.1016 198.07 25.1484C198.586 25.1953 198.914 25.5234 199.055 26.1328C198.398 27.7266 197.508 29.25 196.383 30.7031C195.305 32.1094 194.227 33.5156 193.148 34.9219C192.117 36.3281 191.203 37.7812 190.406 39.2812C189.609 40.7344 189.211 42.3047 189.211 43.9922C189.398 43.9922 189.68 44.0156 190.055 44.0625C190.477 44.1094 190.922 44.1562 191.391 44.2031C191.859 44.25 192.281 44.2969 192.656 44.3438C193.078 44.3906 193.383 44.3906 193.57 44.3438C193.852 44.2969 194.32 44.2031 194.977 44.0625C195.68 43.875 196.406 43.6875 197.156 43.5C197.953 43.3125 198.703 43.125 199.406 42.9375C200.109 42.75 200.602 42.6094 200.883 42.5156C200.883 42.6094 200.883 42.7734 200.883 43.0078C200.93 43.1953 200.953 43.3359 200.953 43.4297C200.953 44.3672 200.508 45.1406 199.617 45.75C198.773 46.3594 197.766 46.8516 196.594 47.2266C195.469 47.5547 194.297 47.7891 193.078 47.9297C191.906 48.0234 190.992 48.0703 190.336 48.0703C189.633 48.0703 188.906 48 188.156 47.8594C187.453 47.6719 186.82 47.3906 186.258 47.0156C185.695 46.6406 185.227 46.1719 184.852 45.6094C184.523 45 184.359 44.2734 184.359 43.4297ZM204.82 2.22656C205.43 2.22656 205.992 2.25 206.508 2.29688C207.023 2.34375 207.469 2.46094 207.844 2.64844C208.219 2.83594 208.523 3.11719 208.758 3.49219C208.992 3.86719 209.109 4.38281 209.109 5.03906C209.109 5.32031 209.109 5.625 209.109 5.95312C209.109 6.28125 209.062 6.60938 208.969 6.9375C208.922 7.21875 208.805 7.47656 208.617 7.71094C208.43 7.89844 208.125 7.99219 207.703 7.99219C207.047 7.99219 206.508 7.75781 206.086 7.28906C205.711 6.82031 205.43 6.28125 205.242 5.67188C205.055 5.01562 204.938 4.35938 204.891 3.70312C204.844 3.04688 204.82 2.55469 204.82 2.22656Z" fill="white"/>
<path d="M201.938 42.0938C201.938 41.9062 201.938 41.5312 201.938 40.9688C201.984 40.3594 202.008 39.9609 202.008 39.7734C203.508 36.3516 205.43 33.1875 207.773 30.2812C210.117 27.375 212.766 24.7969 215.719 22.5469C215.812 22.5469 215.953 22.5234 216.141 22.4766C216.375 22.3828 216.539 22.3359 216.633 22.3359C217.898 22.3359 218.93 22.6172 219.727 23.1797C220.57 23.6953 221.227 24.3984 221.695 25.2891C222.211 26.1328 222.562 27.0938 222.75 28.1719C222.938 29.2031 223.031 30.2109 223.031 31.1953C223.031 33.0234 222.609 34.9453 221.766 36.9609C220.922 38.9297 219.773 40.7578 218.32 42.4453C216.914 44.0859 215.297 45.4453 213.469 46.5234C211.641 47.5547 209.742 48.0703 207.773 48.0703C205.805 48.0703 204.328 47.5547 203.344 46.5234C202.406 45.4453 201.938 43.9688 201.938 42.0938ZM207.422 41.25C207.422 41.7656 207.633 42.1172 208.055 42.3047C208.477 42.4922 208.898 42.5859 209.32 42.5859C210.492 42.5859 211.617 42.2812 212.695 41.6719C213.82 41.0156 214.805 40.2188 215.648 39.2812C216.539 38.2969 217.242 37.2188 217.758 36.0469C218.273 34.875 218.531 33.75 218.531 32.6719C218.531 32.1562 218.484 31.5938 218.391 30.9844C218.344 30.3281 218.203 29.7656 217.969 29.2969C217.734 28.7812 217.359 28.3828 216.844 28.1016C216.375 27.8203 215.695 27.7734 214.805 27.9609C214.148 28.1016 213.398 28.7109 212.555 29.7891C211.711 30.8672 210.891 32.1328 210.094 33.5859C209.344 34.9922 208.711 36.4219 208.195 37.875C207.68 39.2812 207.422 40.4062 207.422 41.25Z" fill="white"/>
<path d="M259.453 48.0703C258.562 48.0703 257.742 47.9062 256.992 47.5781C256.289 47.25 255.703 46.7812 255.234 46.1719C254.766 45.5625 254.438 44.8828 254.25 44.1328C254.062 43.3359 254.086 42.4922 254.32 41.6016C254.32 40.1016 254.578 38.7188 255.094 37.4531C255.656 36.1406 256.266 34.8984 256.922 33.7266C257.625 32.5078 258.234 31.3125 258.75 30.1406C259.312 28.9219 259.594 27.6328 259.594 26.2734C258.562 26.2734 257.461 26.6016 256.289 27.2578C255.117 27.9141 253.922 28.7812 252.703 29.8594C251.531 30.9375 250.359 32.1562 249.188 33.5156C248.062 34.8281 246.984 36.1641 245.953 37.5234C244.969 38.8359 244.102 40.1016 243.352 41.3203C242.648 42.5391 242.109 43.5469 241.734 44.3438C241.641 44.3906 241.406 44.4375 241.031 44.4844C240.656 44.4844 240.422 44.4844 240.328 44.4844C239.578 44.8594 239.109 44.8594 238.922 44.4844C238.781 44.0625 238.781 43.4297 238.922 42.5859C239.109 41.7422 239.391 40.8047 239.766 39.7734C240.141 38.6953 240.492 37.6875 240.82 36.75C241.195 35.7656 241.477 34.9688 241.664 34.3594C241.852 33.7031 241.875 33.375 241.734 33.375C241.875 33.1875 242.039 32.8828 242.227 32.4609C242.414 32.0391 242.602 31.5938 242.789 31.125C242.977 30.6562 243.141 30.2344 243.281 29.8594C243.422 29.4375 243.492 29.1094 243.492 28.875C243.492 28.4531 243.328 28.1953 243 28.1016C242.719 27.9609 242.438 27.8906 242.156 27.8906C241.312 27.4219 240.398 27.7031 239.414 28.7344C238.477 29.7188 237.445 31.1484 236.32 33.0234C235.242 34.8516 234.047 36.9609 232.734 39.3516C231.469 41.6953 230.062 43.9688 228.516 46.1719C227.438 46.1719 226.617 46.0312 226.055 45.75C225.492 45.4688 225.211 44.7656 225.211 43.6406C225.586 43.125 226.148 42.1641 226.898 40.7578C227.648 39.3047 228.492 37.7109 229.43 35.9766C230.367 34.2422 231.352 32.4844 232.383 30.7031C233.461 28.9219 234.469 27.4219 235.406 26.2031C236.391 24.9375 237.258 24.0938 238.008 23.6719C238.805 23.2031 239.438 23.4141 239.906 24.3047C240.703 23.7891 241.57 23.3438 242.508 22.9688C243.492 22.5938 244.477 22.4062 245.461 22.4062C246.117 22.4062 246.656 22.6172 247.078 23.0391C247.547 23.4141 247.898 23.9062 248.133 24.5156C248.414 25.0781 248.625 25.6875 248.766 26.3438C248.906 26.9531 248.977 27.4922 248.977 27.9609C249.492 27.6328 250.336 27.0703 251.508 26.2734C252.727 25.4297 254.016 24.5859 255.375 23.7422C256.781 22.8984 258.141 22.1719 259.453 21.5625C260.812 20.9062 261.914 20.5781 262.758 20.5781C263.508 20.5781 264.141 20.8594 264.656 21.4219C265.219 21.9375 265.5 22.5938 265.5 23.3906C263.812 27.5156 262.477 30.8203 261.492 33.3047C260.555 35.7891 259.922 37.7344 259.594 39.1406C259.312 40.5 259.312 41.4844 259.594 42.0938C259.922 42.6562 260.484 43.1016 261.281 43.4297C262.547 43.4297 263.766 43.2188 264.938 42.7969C266.109 42.375 267.258 41.9062 268.383 41.3906C269.555 40.875 270.727 40.4062 271.898 39.9844C273.07 39.5625 274.312 39.3516 275.625 39.3516C275.625 39.8672 275.484 40.3594 275.203 40.8281C274.969 41.25 274.594 41.5781 274.078 41.8125C273.703 42.0469 273.023 42.4219 272.039 42.9375C271.102 43.4062 270.07 43.9219 268.945 44.4844C267.82 45 266.742 45.5156 265.711 46.0312C264.727 46.5469 264.023 46.8984 263.602 47.0859C262.664 47.5078 261.938 47.7891 261.422 47.9297C260.953 48.0234 260.297 48.0703 259.453 48.0703Z" fill="white"/>
<path d="M53.2969 44.7656C53.2969 42.0469 53.6484 39.3047 54.3516 36.5391C55.1016 33.7266 56.0156 30.9609 57.0938 28.2422C58.2188 25.5234 59.4141 22.8984 60.6797 20.3672C61.9453 17.7891 63.1406 15.375 64.2656 13.125V12.2109C63.75 12.7734 62.9297 13.6641 61.8047 14.8828C60.7266 16.0547 59.4844 17.3906 58.0781 18.8906C56.7188 20.3906 55.2656 21.9844 53.7188 23.6719C52.2188 25.3125 50.7656 26.8828 49.3594 28.3828C48 29.8828 46.7812 31.2422 45.7031 32.4609C44.625 33.6328 43.8281 34.5 43.3125 35.0625C42.7969 35.625 42.3047 36.4688 41.8359 37.5938C41.3672 38.6719 40.8516 39.7734 40.2891 40.8984C39.7266 42.0234 39.0938 43.0078 38.3906 43.8516C37.7344 44.6953 36.9844 45.1172 36.1406 45.1172C35.4375 45.1172 34.875 45.0469 34.4531 44.9062C34.0781 44.7656 33.7969 44.5547 33.6094 44.2734C33.4219 43.9453 33.3047 43.5469 33.2578 43.0781C33.2109 42.6094 33.1875 42.0469 33.1875 41.3906C33.1875 37.9219 33.6797 34.5703 34.6641 31.3359C35.6953 28.0547 36.7734 24.7266 37.8984 21.3516V20.4375C37.8047 20.5312 37.6406 20.6953 37.4062 20.9297C37.1719 21.1172 37.0312 21.2578 36.9844 21.3516C35.8594 23.0391 34.7109 24.8672 33.5391 26.8359C32.3672 28.7578 31.1484 30.6797 29.8828 32.6016C28.6172 34.4766 27.2578 36.2812 25.8047 38.0156C24.3516 39.75 22.7812 41.2969 21.0938 42.6562C19.4062 43.9688 17.5547 45.0234 15.5391 45.8203C13.5703 46.6172 11.3906 47.0156 9 47.0156C8.48438 47.0156 7.78125 46.9922 6.89062 46.9453C6.04688 46.8984 5.20312 46.7578 4.35938 46.5234C3.5625 46.2891 2.85938 45.9141 2.25 45.3984C1.6875 44.8828 1.40625 44.1562 1.40625 43.2188C1.40625 42.8438 1.61719 42.375 2.03906 41.8125C2.50781 41.2031 2.90625 40.7812 3.23438 40.5469C3.89062 41.625 4.42969 42.3516 4.85156 42.7266C5.32031 43.0547 5.97656 43.2188 6.82031 43.2188C8.22656 43.2188 9.70312 43.0078 11.25 42.5859C12.8438 42.1172 14.3672 41.5078 15.8203 40.7578C17.3203 40.0078 18.7266 39.1406 20.0391 38.1562C21.3516 37.1719 22.4531 36.1406 23.3438 35.0625C24.0469 34.125 24.8906 32.9297 25.875 31.4766C26.9062 29.9766 27.9844 28.3594 29.1094 26.625C30.2812 24.8438 31.4766 23.0391 32.6953 21.2109C33.9141 19.3828 35.0859 17.6484 36.2109 16.0078C37.3828 14.3203 38.4609 12.8203 39.4453 11.5078C40.4297 10.1953 41.2734 9.21094 41.9766 8.55469C42.6328 8.55469 43.125 8.67188 43.4531 8.90625C43.7812 9.09375 44.0156 9.375 44.1562 9.75C44.2969 10.125 44.3672 10.5703 44.3672 11.0859C44.3672 11.6016 44.3672 12.1406 44.3672 12.7031C44.3672 14.6719 44.0625 16.5938 43.4531 18.4688C42.8906 20.3438 42.2578 22.1719 41.5547 23.9531C40.8516 25.6875 40.1953 27.3984 39.5859 29.0859C39.0234 30.7734 38.7422 32.4375 38.7422 34.0781C38.7422 34.1719 38.7422 34.3359 38.7422 34.5703C38.7891 34.8047 38.8125 34.9688 38.8125 35.0625C43.2188 30.1875 47.0156 25.9688 50.2031 22.4062C53.3906 18.8438 56.0859 15.8203 58.2891 13.3359C60.5391 10.8047 62.3672 8.76562 63.7734 7.21875C65.1797 5.625 66.3047 4.40625 67.1484 3.5625C67.9922 2.67188 68.625 2.0625 69.0469 1.73438C69.5156 1.40625 69.8906 1.24219 70.1719 1.24219C70.6406 1.24219 70.9922 1.38281 71.2266 1.66406C71.4609 1.94531 71.6016 2.27344 71.6484 2.64844C71.7422 3.02344 71.7656 3.42188 71.7188 3.84375C71.7188 4.26562 71.7188 4.61719 71.7188 4.89844C71.7188 6.86719 71.3438 8.88281 70.5938 10.9453C69.8906 12.9609 68.9766 15.0469 67.8516 17.2031C66.7734 19.3125 65.5781 21.4688 64.2656 23.6719C63 25.8281 61.8047 28.0547 60.6797 30.3516C59.6016 32.6484 58.6875 34.9922 57.9375 37.3828C57.2344 39.7266 56.8828 42.1406 56.8828 44.625C56.8828 45.8906 56.9062 46.8281 56.9531 47.4375C57 48 57.1406 48.4688 57.375 48.8438C57.6094 49.2656 57.9844 49.6875 58.5 50.1094C59.0156 50.5781 59.7422 51.3047 60.6797 52.2891C59.6016 52.8984 58.5469 53.1328 57.5156 52.9922C56.5312 52.8984 55.6641 52.5 54.9141 51.7969C54.2109 51.0938 53.6953 50.1328 53.3672 48.9141C53.0391 47.6953 53.0156 46.3125 53.2969 44.7656Z" stroke="white"/>
<path d="M68.2031 44.3438C67.4062 42.5625 67.0547 40.8281 67.1484 39.1406C67.2422 37.4062 67.6172 35.7891 68.2734 34.2891C68.9766 32.7422 69.8672 31.3594 70.9453 30.1406C72.0703 28.875 73.2656 27.7969 74.5312 26.9062C75.7969 25.9688 77.0625 25.2656 78.3281 24.7969C79.6406 24.3281 80.7891 24.1406 81.7734 24.2344C82.7578 24.2812 83.5312 24.6328 84.0938 25.2891C84.6562 25.9453 84.8438 26.9531 84.6562 28.3125C84.6562 30.1406 84.0703 31.7344 82.8984 33.0938C81.7734 34.4531 80.5078 35.6719 79.1016 36.75C77.7422 37.8281 76.4766 38.8125 75.3047 39.7031C74.1797 40.5469 73.6172 41.3438 73.6172 42.0938C73.6172 42.5156 73.8516 42.8438 74.3203 43.0781C74.8359 43.3125 75.4219 43.5 76.0781 43.6406C76.7344 43.7344 77.3906 43.8047 78.0469 43.8516C78.7031 43.8984 79.1719 43.9453 79.4531 43.9922C83.8594 43.0547 87.1641 42.4922 89.3672 42.3047C91.5703 42.0703 92.9531 42.0938 93.5156 42.375C94.0781 42.6094 93.9609 43.0078 93.1641 43.5703C92.4141 44.0859 91.2422 44.6484 89.6484 45.2578C88.0547 45.8203 86.2031 46.3359 84.0938 46.8047C81.9844 47.2734 79.8984 47.5547 77.8359 47.6484C75.7734 47.6953 73.8516 47.4844 72.0703 47.0156C70.3359 46.5469 69.0469 45.6562 68.2031 44.3438ZM80.5078 28.3125C79.5703 28.3125 78.6797 28.5703 77.8359 29.0859C76.9922 29.6016 76.2188 30.2578 75.5156 31.0547C74.8594 31.8047 74.2969 32.6484 73.8281 33.5859C73.3594 34.4766 73.0078 35.3203 72.7734 36.1172C72.8672 36.1641 72.9375 36.1875 72.9844 36.1875H73.1953C73.8516 36.1875 74.6016 35.9062 75.4453 35.3438C76.2891 34.7812 77.0859 34.1016 77.8359 33.3047C78.5859 32.4609 79.2188 31.5938 79.7344 30.7031C80.25 29.8125 80.5078 29.0156 80.5078 28.3125Z" stroke="white"/>
<path d="M92.9531 44.8359C92.9531 44.4141 92.9531 44.0859 92.9531 43.8516C92.9531 43.6172 92.9766 43.4062 93.0234 43.2188C93.1172 42.9844 93.2344 42.75 93.375 42.5156C93.5156 42.2812 93.7031 41.9766 93.9375 41.6016C94.3125 40.9453 95.0156 39.7969 96.0469 38.1562C97.0781 36.5156 98.1797 34.7812 99.3516 32.9531C100.523 31.125 101.625 29.3906 102.656 27.75C103.734 26.1094 104.484 24.9609 104.906 24.3047C104.953 24.2578 105.07 24.2344 105.258 24.2344C105.492 24.2344 105.656 24.2344 105.75 24.2344C105.844 24.2344 106.008 24.2344 106.242 24.2344C106.477 24.2344 106.617 24.2578 106.664 24.3047C106.711 24.3516 106.805 24.4688 106.945 24.6562C107.133 24.8438 107.32 25.0547 107.508 25.2891C107.742 25.4766 107.93 25.6641 108.07 25.8516C108.258 26.0391 108.398 26.1328 108.492 26.1328C108.914 26.1328 109.359 25.9922 109.828 25.7109C110.297 25.4297 110.766 25.125 111.234 24.7969C111.75 24.4219 112.266 24.0938 112.781 23.8125C113.297 23.5312 113.836 23.3906 114.398 23.3906C115.008 23.3906 115.57 23.5312 116.086 23.8125C116.602 24.0938 117.047 24.4453 117.422 24.8672C117.797 25.2891 118.078 25.7578 118.266 26.2734C118.5 26.7891 118.617 27.3047 118.617 27.8203C118.617 28.8984 118.453 29.9297 118.125 30.9141C117.844 31.8984 117.516 32.8828 117.141 33.8672C116.766 34.8047 116.414 35.7656 116.086 36.75C115.805 37.6875 115.664 38.6719 115.664 39.7031C115.664 40.7344 115.781 41.4844 116.016 41.9531C116.25 42.375 116.906 42.5859 117.984 42.5859C119.25 42.5859 120.445 42.3984 121.57 42.0234C122.742 41.6484 123.938 41.4609 125.156 41.4609C125.156 42.5859 124.805 43.5234 124.102 44.2734C123.445 45.0234 122.602 45.6328 121.57 46.1016C120.586 46.5234 119.508 46.8281 118.336 47.0156C117.211 47.1562 116.18 47.2266 115.242 47.2266C113.461 47.2266 112.148 46.7344 111.305 45.75C110.508 44.7188 110.109 43.3594 110.109 41.6719C110.109 40.5469 110.297 39.4922 110.672 38.5078C111.094 37.5234 111.539 36.5625 112.008 35.625C112.523 34.6875 112.992 33.75 113.414 32.8125C113.836 31.875 114.047 30.8672 114.047 29.7891C114.047 29.5078 114 29.1328 113.906 28.6641C113.812 28.1953 113.508 27.9609 112.992 27.9609C111.445 27.9609 110.039 28.4531 108.773 29.4375C107.555 30.4219 106.43 31.6641 105.398 33.1641C104.414 34.6641 103.5 36.2812 102.656 38.0156C101.859 39.75 101.086 41.3672 100.336 42.8672C99.6328 44.3672 98.9531 45.6094 98.2969 46.5938C97.6406 47.5781 96.9609 48.0703 96.2578 48.0703C95.2734 48.0703 94.4766 47.7656 93.8672 47.1562C93.2578 46.5469 92.9531 45.7734 92.9531 44.8359Z" stroke="white"/>
<path d="M123.75 44.4844C123.75 43.7812 123.961 42.7969 124.383 41.5312C124.805 40.2188 125.344 38.8125 126 37.3125C126.703 35.8125 127.477 34.2891 128.32 32.7422C129.211 31.1953 130.102 29.7891 130.992 28.5234C131.883 27.2578 132.727 26.2266 133.523 25.4297C134.32 24.6328 135.023 24.2344 135.633 24.2344C136.945 24.2344 137.602 24.8672 137.602 26.1328C137.602 26.6953 137.484 27.1641 137.25 27.5391C137.062 27.9141 136.828 28.2656 136.547 28.5938C136.266 28.9219 135.961 29.25 135.633 29.5781C135.305 29.8594 135.023 30.2109 134.789 30.6328C134.367 31.3359 133.852 32.2969 133.242 33.5156C132.633 34.7344 132.023 35.9297 131.414 37.1016C130.852 38.2266 130.359 39.2344 129.938 40.125C129.516 41.0156 129.305 41.5078 129.305 41.6016V42.5156C131.133 42.1875 132.891 41.4141 134.578 40.1953C136.266 38.9297 137.859 37.4531 139.359 35.7656C140.906 34.0781 142.359 32.3203 143.719 30.4922C145.125 28.6172 146.438 26.9062 147.656 25.3594C148.875 23.7656 150.023 22.4531 151.102 21.4219C152.18 20.3906 153.188 19.875 154.125 19.875C154.125 21.6094 153.773 23.1797 153.07 24.5859C152.367 25.9922 151.594 27.375 150.75 28.7344C149.953 30.0938 149.203 31.5 148.5 32.9531C147.797 34.3594 147.445 35.9531 147.445 37.7344C147.445 38.4844 147.891 39.1641 148.781 39.7734C149.719 40.3359 150.773 40.8281 151.945 41.25C153.164 41.625 154.336 41.9297 155.461 42.1641C156.586 42.3984 157.359 42.5391 157.781 42.5859V44.4141C156.703 44.4609 155.367 44.4844 153.773 44.4844C152.18 44.4375 150.586 44.25 148.992 43.9219C147.398 43.5938 145.945 43.0547 144.633 42.3047C143.367 41.5078 142.523 40.3594 142.102 38.8594C140.883 39.6562 139.711 40.5938 138.586 41.6719C137.461 42.75 136.289 43.7578 135.07 44.6953C133.898 45.6328 132.656 46.4297 131.344 47.0859C130.031 47.7422 128.602 48.0703 127.055 48.0703C126.117 48.0703 125.32 47.6719 124.664 46.875C124.055 46.0781 123.75 45.2812 123.75 44.4844Z" stroke="white"/>
<path d="M172.969 42.5859C172.969 41.1797 173.25 39.8906 173.812 38.7188C174.422 37.5 175.078 36.3516 175.781 35.2734C176.484 34.1953 177.117 33.1172 177.68 32.0391C178.289 30.9609 178.594 29.8125 178.594 28.5938C178.594 28.3125 178.57 27.9844 178.523 27.6094C178.523 27.1875 178.477 26.7891 178.383 26.4141C178.336 26.0391 178.195 25.7344 177.961 25.5C177.773 25.2188 177.516 25.0781 177.188 25.0781C177.141 25.0781 177.047 25.1016 176.906 25.1484C176.812 25.1484 176.766 25.1719 176.766 25.2188C176.109 26.1094 175.312 27.1172 174.375 28.2422C173.484 29.3203 172.523 30.3984 171.492 31.4766C170.461 32.5547 169.453 33.5859 168.469 34.5703C167.484 35.5547 166.594 36.375 165.797 37.0312C165.234 37.5469 164.461 38.25 163.477 39.1406C162.539 40.0312 161.578 40.9219 160.594 41.8125C159.656 42.6562 158.812 43.4062 158.062 44.0625C157.359 44.7188 156.961 45.0469 156.867 45.0469L153.633 42.3047C154.055 42.3047 154.477 42.2109 154.898 42.0234C155.273 41.8359 155.648 41.625 156.023 41.3906C158.836 39.5156 161.367 37.3594 163.617 34.9219C165.914 32.4844 168.164 29.8594 170.367 27.0469C170.461 26.9062 170.695 26.5078 171.07 25.8516C171.492 25.1484 171.938 24.375 172.406 23.5312C172.875 22.6406 173.344 21.7734 173.812 20.9297C174.281 20.0391 174.633 19.3359 174.867 18.8203C175.148 18.2109 175.312 17.7188 175.359 17.3438C175.453 16.9688 175.523 16.6875 175.57 16.5C175.664 16.2656 175.805 16.1016 175.992 16.0078C176.18 15.9141 176.578 15.8672 177.188 15.8672C177.281 15.8672 177.492 15.8906 177.82 15.9375C178.195 15.9844 178.43 16.0312 178.523 16.0781C179.133 17.3438 179.672 18.4688 180.141 19.4531C180.609 20.4375 181.008 21.375 181.336 22.2656C181.664 23.1094 181.898 23.9766 182.039 24.8672C182.227 25.7578 182.32 26.7422 182.32 27.8203C181.711 29.3672 181.031 30.9609 180.281 32.6016C179.531 34.1953 178.898 35.7188 178.383 37.1719C177.867 38.625 177.539 39.9375 177.398 41.1094C177.305 42.2812 177.562 43.2188 178.172 43.9219C178.828 44.5781 179.906 44.9297 181.406 44.9766C182.953 45.0234 185.133 44.625 187.945 43.7812C188.695 44.1562 188.766 44.625 188.156 45.1875C187.547 45.7031 186.609 46.1953 185.344 46.6641C184.125 47.1328 182.766 47.5312 181.266 47.8594C179.812 48.1406 178.594 48.2109 177.609 48.0703C176.719 48.0703 175.969 47.9297 175.359 47.6484C174.797 47.3203 174.328 46.8984 173.953 46.3828C173.625 45.8672 173.367 45.2812 173.18 44.625C173.039 43.9688 172.969 43.2891 172.969 42.5859Z" stroke="white"/>
<path d="M184.359 43.4297C184.359 42.7734 184.43 42.2109 184.57 41.7422C184.711 41.2266 184.969 40.5703 185.344 39.7734C185.672 39.3047 186.258 38.4141 187.102 37.1016C187.992 35.7891 188.906 34.4062 189.844 32.9531C190.828 31.5 191.742 30.1406 192.586 28.875C193.477 27.5625 194.086 26.6484 194.414 26.1328C194.836 25.5234 195.164 25.1953 195.398 25.1484C195.633 25.1016 196.078 25.0781 196.734 25.0781C197.156 25.0781 197.602 25.1016 198.07 25.1484C198.586 25.1953 198.914 25.5234 199.055 26.1328C198.398 27.7266 197.508 29.25 196.383 30.7031C195.305 32.1094 194.227 33.5156 193.148 34.9219C192.117 36.3281 191.203 37.7812 190.406 39.2812C189.609 40.7344 189.211 42.3047 189.211 43.9922C189.398 43.9922 189.68 44.0156 190.055 44.0625C190.477 44.1094 190.922 44.1562 191.391 44.2031C191.859 44.25 192.281 44.2969 192.656 44.3438C193.078 44.3906 193.383 44.3906 193.57 44.3438C193.852 44.2969 194.32 44.2031 194.977 44.0625C195.68 43.875 196.406 43.6875 197.156 43.5C197.953 43.3125 198.703 43.125 199.406 42.9375C200.109 42.75 200.602 42.6094 200.883 42.5156C200.883 42.6094 200.883 42.7734 200.883 43.0078C200.93 43.1953 200.953 43.3359 200.953 43.4297C200.953 44.3672 200.508 45.1406 199.617 45.75C198.773 46.3594 197.766 46.8516 196.594 47.2266C195.469 47.5547 194.297 47.7891 193.078 47.9297C191.906 48.0234 190.992 48.0703 190.336 48.0703C189.633 48.0703 188.906 48 188.156 47.8594C187.453 47.6719 186.82 47.3906 186.258 47.0156C185.695 46.6406 185.227 46.1719 184.852 45.6094C184.523 45 184.359 44.2734 184.359 43.4297ZM204.82 2.22656C205.43 2.22656 205.992 2.25 206.508 2.29688C207.023 2.34375 207.469 2.46094 207.844 2.64844C208.219 2.83594 208.523 3.11719 208.758 3.49219C208.992 3.86719 209.109 4.38281 209.109 5.03906C209.109 5.32031 209.109 5.625 209.109 5.95312C209.109 6.28125 209.062 6.60938 208.969 6.9375C208.922 7.21875 208.805 7.47656 208.617 7.71094C208.43 7.89844 208.125 7.99219 207.703 7.99219C207.047 7.99219 206.508 7.75781 206.086 7.28906C205.711 6.82031 205.43 6.28125 205.242 5.67188C205.055 5.01562 204.938 4.35938 204.891 3.70312C204.844 3.04688 204.82 2.55469 204.82 2.22656Z" stroke="white"/>
<path d="M201.938 42.0938C201.938 41.9062 201.938 41.5312 201.938 40.9688C201.984 40.3594 202.008 39.9609 202.008 39.7734C203.508 36.3516 205.43 33.1875 207.773 30.2812C210.117 27.375 212.766 24.7969 215.719 22.5469C215.812 22.5469 215.953 22.5234 216.141 22.4766C216.375 22.3828 216.539 22.3359 216.633 22.3359C217.898 22.3359 218.93 22.6172 219.727 23.1797C220.57 23.6953 221.227 24.3984 221.695 25.2891C222.211 26.1328 222.562 27.0938 222.75 28.1719C222.938 29.2031 223.031 30.2109 223.031 31.1953C223.031 33.0234 222.609 34.9453 221.766 36.9609C220.922 38.9297 219.773 40.7578 218.32 42.4453C216.914 44.0859 215.297 45.4453 213.469 46.5234C211.641 47.5547 209.742 48.0703 207.773 48.0703C205.805 48.0703 204.328 47.5547 203.344 46.5234C202.406 45.4453 201.938 43.9688 201.938 42.0938ZM207.422 41.25C207.422 41.7656 207.633 42.1172 208.055 42.3047C208.477 42.4922 208.898 42.5859 209.32 42.5859C210.492 42.5859 211.617 42.2812 212.695 41.6719C213.82 41.0156 214.805 40.2188 215.648 39.2812C216.539 38.2969 217.242 37.2188 217.758 36.0469C218.273 34.875 218.531 33.75 218.531 32.6719C218.531 32.1562 218.484 31.5938 218.391 30.9844C218.344 30.3281 218.203 29.7656 217.969 29.2969C217.734 28.7812 217.359 28.3828 216.844 28.1016C216.375 27.8203 215.695 27.7734 214.805 27.9609C214.148 28.1016 213.398 28.7109 212.555 29.7891C211.711 30.8672 210.891 32.1328 210.094 33.5859C209.344 34.9922 208.711 36.4219 208.195 37.875C207.68 39.2812 207.422 40.4062 207.422 41.25Z" stroke="white"/>
<path d="M259.453 48.0703C258.562 48.0703 257.742 47.9062 256.992 47.5781C256.289 47.25 255.703 46.7812 255.234 46.1719C254.766 45.5625 254.438 44.8828 254.25 44.1328C254.062 43.3359 254.086 42.4922 254.32 41.6016C254.32 40.1016 254.578 38.7188 255.094 37.4531C255.656 36.1406 256.266 34.8984 256.922 33.7266C257.625 32.5078 258.234 31.3125 258.75 30.1406C259.312 28.9219 259.594 27.6328 259.594 26.2734C258.562 26.2734 257.461 26.6016 256.289 27.2578C255.117 27.9141 253.922 28.7812 252.703 29.8594C251.531 30.9375 250.359 32.1562 249.188 33.5156C248.062 34.8281 246.984 36.1641 245.953 37.5234C244.969 38.8359 244.102 40.1016 243.352 41.3203C242.648 42.5391 242.109 43.5469 241.734 44.3438C241.641 44.3906 241.406 44.4375 241.031 44.4844C240.656 44.4844 240.422 44.4844 240.328 44.4844C239.578 44.8594 239.109 44.8594 238.922 44.4844C238.781 44.0625 238.781 43.4297 238.922 42.5859C239.109 41.7422 239.391 40.8047 239.766 39.7734C240.141 38.6953 240.492 37.6875 240.82 36.75C241.195 35.7656 241.477 34.9688 241.664 34.3594C241.852 33.7031 241.875 33.375 241.734 33.375C241.875 33.1875 242.039 32.8828 242.227 32.4609C242.414 32.0391 242.602 31.5938 242.789 31.125C242.977 30.6562 243.141 30.2344 243.281 29.8594C243.422 29.4375 243.492 29.1094 243.492 28.875C243.492 28.4531 243.328 28.1953 243 28.1016C242.719 27.9609 242.438 27.8906 242.156 27.8906C241.312 27.4219 240.398 27.7031 239.414 28.7344C238.477 29.7188 237.445 31.1484 236.32 33.0234C235.242 34.8516 234.047 36.9609 232.734 39.3516C231.469 41.6953 230.062 43.9688 228.516 46.1719C227.438 46.1719 226.617 46.0312 226.055 45.75C225.492 45.4688 225.211 44.7656 225.211 43.6406C225.586 43.125 226.148 42.1641 226.898 40.7578C227.648 39.3047 228.492 37.7109 229.43 35.9766C230.367 34.2422 231.352 32.4844 232.383 30.7031C233.461 28.9219 234.469 27.4219 235.406 26.2031C236.391 24.9375 237.258 24.0938 238.008 23.6719C238.805 23.2031 239.438 23.4141 239.906 24.3047C240.703 23.7891 241.57 23.3438 242.508 22.9688C243.492 22.5938 244.477 22.4062 245.461 22.4062C246.117 22.4062 246.656 22.6172 247.078 23.0391C247.547 23.4141 247.898 23.9062 248.133 24.5156C248.414 25.0781 248.625 25.6875 248.766 26.3438C248.906 26.9531 248.977 27.4922 248.977 27.9609C249.492 27.6328 250.336 27.0703 251.508 26.2734C252.727 25.4297 254.016 24.5859 255.375 23.7422C256.781 22.8984 258.141 22.1719 259.453 21.5625C260.812 20.9062 261.914 20.5781 262.758 20.5781C263.508 20.5781 264.141 20.8594 264.656 21.4219C265.219 21.9375 265.5 22.5938 265.5 23.3906C263.812 27.5156 262.477 30.8203 261.492 33.3047C260.555 35.7891 259.922 37.7344 259.594 39.1406C259.312 40.5 259.312 41.4844 259.594 42.0938C259.922 42.6562 260.484 43.1016 261.281 43.4297C262.547 43.4297 263.766 43.2188 264.938 42.7969C266.109 42.375 267.258 41.9062 268.383 41.3906C269.555 40.875 270.727 40.4062 271.898 39.9844C273.07 39.5625 274.312 39.3516 275.625 39.3516C275.625 39.8672 275.484 40.3594 275.203 40.8281C274.969 41.25 274.594 41.5781 274.078 41.8125C273.703 42.0469 273.023 42.4219 272.039 42.9375C271.102 43.4062 270.07 43.9219 268.945 44.4844C267.82 45 266.742 45.5156 265.711 46.0312C264.727 46.5469 264.023 46.8984 263.602 47.0859C262.664 47.5078 261.938 47.7891 261.422 47.9297C260.953 48.0234 260.297 48.0703 259.453 48.0703Z" stroke="white"/>
</svg>
