<svg width="251" height="71" viewBox="0 0 251 71" fill="none" xmlns="http://www.w3.org/2000/svg">
<path d="M59.4386 15.8087C65.5855 15.8087 70.5067 17.7998 74.2022 21.7818C76.178 24.1711 77.1659 26.7992 77.1659 29.6663C77.1659 34.6306 73.379 38.9445 65.8051 42.608C62.2194 43.9884 59.2008 44.6786 56.7493 44.6786H55.2126C51.261 44.6786 47.6387 43.338 44.3457 40.6568C41.8577 38.3737 40.6136 35.5996 40.6136 32.3343V32.1352C40.6136 29.4274 42.7907 26.109 47.1448 22.18V22.1004C42.6809 23.0295 38.5098 24.118 34.6314 25.3657C30.0212 26.8789 25.4476 28.7902 20.9105 31.0998C12.5683 35.7987 8.39714 40.4577 8.39714 45.0768C8.39714 51.8198 12.6232 58.4167 21.0752 64.8676C21.7704 65.4251 22.118 66.049 22.118 66.7392V67.3365C22.118 68.9028 20.9471 69.9514 18.6054 70.4823L17.7273 70.5222C16.0808 70.5222 14.5258 69.739 13.0622 68.1727C6.9153 62.7572 2.90881 56.9434 1.04278 50.7314C0.347594 48.1297 0 45.9927 0 44.3202C0 35.5863 8.78133 28.1133 26.344 21.9013C39.1135 17.8396 50.145 15.8087 59.4386 15.8087ZM49.2303 32.3741V32.8519C49.2303 35.9845 51.2793 38.1082 55.3772 39.2232L57.1884 39.4223C59.896 39.4223 63.006 38.0684 66.5186 35.3606C68.7505 33.2103 69.8664 31.2458 69.8664 29.4672C69.8664 27.2903 68.0736 25.1666 64.4879 23.0959C63.0609 22.5915 62.0547 22.3393 61.4693 22.3393C59.2374 22.3393 56.0541 24.0649 51.9196 27.516C50.1267 29.4274 49.2303 31.0467 49.2303 32.3741Z" fill="white"/>
<path d="M94.7835 41.1346C96.3934 38.7719 99.8327 37.8162 105.102 38.2675C106.894 38.4003 108.138 38.9445 108.834 39.9002C109.529 40.8293 109.675 41.7319 109.273 42.608C108.907 43.484 108.12 44.1211 106.913 44.5193C105.705 44.891 102.979 44.9972 98.7351 44.8379C94.4907 44.7052 93.1735 43.4707 94.7835 41.1346ZM100.436 21.5031C103.62 21.7155 105.705 23.2552 106.693 26.1223C106.839 27.1311 106.858 28.0469 106.748 28.8699C106.089 34.3651 101.937 41.1213 94.2895 49.1385C91.8381 51.687 87.4474 55.0585 81.1175 59.2529C74.6413 63.527 70.4885 65.8499 68.659 66.2215L67.8358 66.1817C66.482 66.1021 65.4026 65.4119 64.5976 64.111C64.3415 63.7659 64.25 63.3279 64.3232 62.797L64.3781 62.6377C64.5611 61.1245 65.9514 59.7972 68.5492 58.6556C71.33 56.9301 74.3486 54.9391 77.605 52.6826C82.2152 49.4969 85.6362 46.59 87.8682 43.9619C83.1116 42.5283 80.9895 40.232 81.5017 37.0729C81.4651 33.6749 84.8313 29.3477 91.6002 24.0914C94.7103 22.18 97.6557 21.3173 100.436 21.5031ZM91.1612 35.2412C90.3196 36.834 90.777 37.7499 92.5332 37.9888C93.4846 37.5109 94.7835 35.6659 96.43 32.4537L97.4727 29.2681C94.1432 31.6308 92.0393 33.6218 91.1612 35.2412Z" fill="white"/>
<path d="M118.548 42.8867C114.56 44.453 110.132 45.0768 105.266 44.7583C102.193 44.5193 100.747 43.484 100.93 41.6523C101.113 39.794 102.504 38.7188 105.102 38.4268C111.358 38.3472 115.914 37.3782 118.767 35.5199C121.621 33.6616 123.396 30.9671 124.091 27.4363C124.823 23.9056 126.177 21.6889 128.153 20.7863C128.153 20.627 128.701 20.5341 129.799 20.5076C133.714 21.0651 134.976 23.2021 133.586 26.9187C132.159 31.8033 130.293 35.2943 127.988 37.3915C125.683 39.4621 122.536 41.2939 118.548 42.8867ZM125.024 50.1739C126.195 50.1739 127.055 50.5455 127.604 51.2888L126.341 53.9966C126.049 54.8992 118.402 55.9478 103.4 57.1425H103.016C99.8327 57.1425 98.2411 56.4522 98.2411 55.0718C98.2411 53.3197 100.034 52.1516 103.62 51.5676L125.024 50.1739Z" fill="white"/>
<path d="M168.931 21.742C170.541 21.742 171.803 22.3393 172.718 23.5339C172.974 23.9056 173.102 24.3171 173.102 24.7684V24.8878C173.102 25.5781 172.553 26.4939 171.455 27.6354C169.443 30.1043 167.266 32.5997 164.924 35.1217C163.424 37.0331 161.028 39.3958 157.735 42.2098C151.844 47.8112 144.599 54.1161 136.001 61.1245C132.196 64.1509 128.811 66.7923 125.847 69.0488C124.457 70.1903 123.524 70.7611 123.048 70.7611C122.609 70.9204 122.042 71 121.347 71C119.664 71 118.383 70.3363 117.505 69.009C117.322 68.6639 117.231 68.3453 117.231 68.0533V67.8144C117.231 66.8587 118.036 65.8897 119.646 64.9075C119.646 64.8278 122.737 62.5979 128.921 58.2176C135.434 53.4657 139.532 50.2933 141.215 48.7005C146.008 44.6123 150.069 40.7629 153.399 37.1526C157.643 32.5334 161.65 27.808 165.418 22.9764C166.333 22.1535 167.504 21.742 168.931 21.742Z" fill="white"/>
<path d="M185.451 41.1346C187.061 38.7719 190.5 37.8162 195.769 38.2675C197.562 38.4003 198.806 38.9445 199.501 39.9002C200.196 40.8293 200.342 41.7319 199.94 42.608C199.574 43.484 198.787 44.1211 197.58 44.5193C196.372 44.891 193.647 44.9972 189.402 44.8379C185.158 44.7052 183.841 43.4707 185.451 41.1346ZM191.104 21.5031C194.287 21.7155 196.372 23.2552 197.36 26.1223C197.507 27.1311 197.525 28.0469 197.415 28.8699C196.757 34.3651 192.604 41.1213 184.957 49.1385C182.505 51.687 178.115 55.0585 171.785 59.2529C165.308 63.527 161.156 65.8499 159.326 66.2215L158.503 66.1817C157.149 66.1021 156.07 65.4119 155.265 64.111C155.009 63.7659 154.917 63.3279 154.99 62.797L155.045 62.6377C155.228 61.1245 156.619 59.7972 159.216 58.6556C161.997 56.9301 165.016 54.9391 168.272 52.6826C172.882 49.4969 176.303 46.59 178.535 43.9619C173.779 42.5283 171.657 40.232 172.169 37.0729C172.132 33.6749 175.498 29.3477 182.267 24.0914C185.377 22.18 188.323 21.3173 191.104 21.5031ZM181.828 35.2412C180.987 36.834 181.444 37.7499 183.2 37.9888C184.152 37.5109 185.451 35.6659 187.097 32.4537L188.14 29.2681C184.81 31.6308 182.707 33.6218 181.828 35.2412Z" fill="white"/>
<path d="M214.649 32.7325C214.319 33.5023 214.191 34.5642 214.264 35.9181C214.338 37.2455 215.636 38.0286 218.161 38.2675C220.466 38.1348 221.93 39.1038 222.552 41.1744V41.8912C221.966 43.8291 220.448 44.7981 217.996 44.7981C211.959 44.8246 208.63 43.2053 208.008 39.94C206.398 41.7452 204.733 43.0062 203.013 43.7229C201.294 44.4397 199.171 44.8379 196.647 44.9176C193.39 44.5459 191.872 43.3778 192.092 41.4133C192.274 39.4489 193.738 38.3073 196.482 37.9888C200.8 37.9888 204.093 35.5199 206.361 30.5822C208.666 25.6444 210.459 22.6844 211.74 21.7022C213.02 20.7199 214.447 20.4014 216.021 20.7465C219.058 21.8615 219.497 24.0118 217.338 27.1974C215.874 30.091 214.978 31.9361 214.649 32.7325ZM213.386 0C216.057 0 218.326 1.27426 220.192 3.82277V4.61918C220.192 5.91999 218.582 6.82258 215.362 7.32698H214.264C211.484 7.32698 209.801 5.78725 209.215 2.7078C209.215 1.16807 210.606 0.26547 213.386 0Z" fill="white"/>
<path d="M242.749 22.2199H243.023C245.365 22.2199 247.304 23.0561 248.841 24.7285C250.414 26.401 251.128 28.8301 250.981 32.0157C250.872 35.1748 249.664 38.095 247.359 40.7762C245.054 43.4575 241.34 44.8379 236.218 44.9176C231.681 44.6521 228.552 43.2982 226.833 40.8559C223.467 43.776 220.375 45.0768 217.557 44.7583C215.252 44.307 214.063 43.3646 213.99 41.931C213.88 40.4709 214.411 39.4754 215.582 38.9445C216.752 38.387 218.015 38.0552 219.369 37.949C220.759 37.8162 222.277 37.0065 223.924 35.5199C225.57 34.0333 228.132 31.4449 231.608 27.7549C235.083 24.0649 238.797 22.2199 242.749 22.2199ZM235.724 38.9445C237.809 39.3427 239.84 38.8648 241.816 37.5109C243.828 36.1305 244.761 34.5775 244.615 32.8519C244.505 31.0998 243.682 29.9849 242.145 29.507C240.608 29.0292 238.614 29.9849 236.163 32.3741C233.711 34.7633 232.303 36.3163 231.937 37.0331C232.376 37.9091 233.638 38.5463 235.724 38.9445Z" fill="white"/>
</svg>
