<svg width="355" height="52" viewBox="0 0 355 52" fill="none" xmlns="http://www.w3.org/2000/svg">
<path d="M28.3955 46C28.3955 47.6569 27.0524 49 25.3955 49H24.8263C23.1695 49 21.8263 47.6569 21.8263 46V11.77C21.8263 10.1132 20.4832 8.77003 18.8263 8.77003H12.0885C10.4317 8.77003 9.08851 10.1132 9.08851 11.77V46C9.08851 47.6569 7.74537 49 6.08851 49H6C4.34314 49 3 47.6569 3 46V6.08014C3 4.42329 4.34315 3.08014 6 3.08014H44.302C45.9588 3.08014 47.3019 4.42329 47.3019 6.08014V46C47.3019 47.6569 45.9588 49 44.3019 49H43.893C42.2361 49 40.893 47.6569 40.893 46V11.77C40.893 10.1132 39.5498 8.77003 37.893 8.77003H31.3955C29.7387 8.77003 28.3955 10.1132 28.3955 11.77V46Z" fill="#222222"/>
<path d="M86.8575 42.7491C88.5143 42.7491 89.8575 44.0923 89.8575 45.7491V46C89.8575 47.6569 88.5143 49 86.8575 49H67.4619C65.8051 49 64.4619 47.6569 64.4619 46V6.07069C64.4619 4.41753 65.7993 3.07592 67.4525 3.0707L86.9679 3.00912C88.5623 3.00409 89.8575 4.29518 89.8575 5.88957V5.88957C89.8575 7.48041 88.5678 8.77003 86.977 8.77003H73.5505C71.8936 8.77003 70.5505 10.1132 70.5505 11.77V15.7073C70.5505 17.3642 71.8936 18.7073 73.5505 18.7073H86.9724C88.5658 18.7073 89.8575 19.999 89.8575 21.5923V21.5923C89.8575 23.1857 88.5658 24.4774 86.9724 24.4774H73.5505C71.8936 24.4774 70.5505 25.8205 70.5505 27.4774V39.7491C70.5505 41.406 71.8936 42.7491 73.5505 42.7491H86.8575Z" fill="#222222"/>
<path d="M111.089 3.02544C112.227 3.00985 113.275 3.63918 113.797 4.65046L120.418 17.4931C121.859 20.289 126.084 19.264 126.084 16.1184V6.08014C126.084 4.42329 127.427 3.08014 129.084 3.08014H129.493C131.15 3.08014 132.493 4.42329 132.493 6.08014V46.0238C132.493 47.6675 131.161 49 129.517 49V49C128.394 49 127.367 48.3683 126.861 47.3663L118.864 31.5434C117.439 28.7243 113.186 29.738 113.186 32.8966V46C113.186 47.6569 111.843 49 110.186 49H110.098C108.441 49 107.098 47.6569 107.098 46V6.03931C107.098 4.39849 108.416 3.06208 110.056 3.03959L111.089 3.02544Z" fill="#222222"/>
<path d="M172.129 3.08014C173.786 3.08014 175.129 4.42329 175.129 6.08014V46C175.129 47.6569 173.786 49 172.129 49H152.733C151.076 49 149.733 47.6569 149.733 46V6.08014C149.733 4.42329 151.076 3.08014 152.733 3.08014H152.822C154.479 3.08014 155.822 4.42329 155.822 6.08014V40.23C155.822 41.8868 157.165 43.23 158.822 43.23H165.72C167.377 43.23 168.72 41.8868 168.72 40.23V6.08014C168.72 4.42329 170.063 3.08014 171.72 3.08014H172.129Z" fill="#222222"/>
<path d="M217.843 44.5689C218.928 46.5678 217.48 49 215.206 49H214.016C212.919 49 211.909 48.4014 211.383 47.4391L201.478 29.3196C201.196 28.8046 200.656 28.4843 200.069 28.4843V28.4843C199.18 28.4843 198.46 29.2069 198.464 30.0959L198.526 45.9883C198.532 47.6497 197.187 49 195.526 49H195.369C193.712 49 192.369 47.6569 192.369 46V6.08014C192.369 4.42329 193.712 3.08014 195.369 3.08014H213.162C214.819 3.08014 216.162 4.42329 216.162 6.08014V25.8544C216.162 27.3068 214.985 28.4843 213.532 28.4843V28.4843C211.538 28.4843 210.269 30.6165 211.221 32.3689L217.843 44.5689ZM206.753 22.7143C208.41 22.7143 209.753 21.3711 209.753 19.7143V11.77C209.753 10.1132 208.41 8.77003 206.753 8.77003H201.457C199.8 8.77003 198.457 10.1132 198.457 11.77V19.7143C198.457 21.3711 199.8 22.7143 201.457 22.7143H206.753Z" fill="#222222"/>
<path d="M238.369 11.8544C238.369 10.2395 237.06 8.93031 235.445 8.93031V8.93031C233.83 8.93031 232.521 7.62066 232.521 6.00573V6.00573C232.521 4.39025 233.831 3.08014 235.446 3.08014H246.98C248.596 3.08014 249.905 4.38975 249.905 6.00523V6.20651C249.905 7.71082 248.686 8.93031 247.181 8.93031V8.93031C245.677 8.93031 244.458 10.1498 244.458 11.6541V40.1456C244.458 41.7605 245.767 43.0697 247.382 43.0697V43.0697C248.997 43.0697 250.306 44.3992 250.306 46.0142V46.0142C250.306 47.6518 248.978 49 247.341 49H235.967C234.329 49 233.002 47.6725 233.002 46.0348V45.7534C233.002 44.2712 234.203 43.0697 235.685 43.0697V43.0697C237.168 43.0697 238.369 41.8681 238.369 40.3859V11.8544Z" fill="#222222"/>
<path d="M271.151 39.7491C271.151 41.406 272.494 42.7491 274.151 42.7491H281.049C282.706 42.7491 284.049 41.406 284.049 39.7491V11.8502C284.049 10.1933 282.706 8.85017 281.049 8.85017H274.151C272.494 8.85017 271.151 10.1933 271.151 11.8502V39.7491ZM268.062 49C266.406 49 265.062 47.6569 265.062 46V6.08014C265.062 4.42329 266.406 3.08014 268.062 3.08014H287.458C289.115 3.08014 290.458 4.42329 290.458 6.08014V46C290.458 47.6569 289.115 49 287.458 49H268.062Z" fill="#9C84B4"/>
<path d="M333.094 46C333.094 47.6569 331.75 49 330.094 49H329.524C327.868 49 326.524 47.6569 326.524 46V11.77C326.524 10.1132 325.181 8.77003 323.524 8.77003H316.787C315.13 8.77003 313.787 10.1132 313.787 11.77V46C313.787 47.6569 312.443 49 310.787 49H310.698C309.041 49 307.698 47.6569 307.698 46V6.08014C307.698 4.42329 309.041 3.08014 310.698 3.08014H349C350.657 3.08014 352 4.42329 352 6.08014V46C352 47.6569 350.657 49 349 49H348.591C346.934 49 345.591 47.6569 345.591 46V11.77C345.591 10.1132 344.248 8.77003 342.591 8.77003H336.094C334.437 8.77003 333.094 10.1132 333.094 11.77V46Z" fill="#222222"/>
<path d="M28.3955 46C28.3955 47.6569 27.0524 49 25.3955 49H24.8263C23.1695 49 21.8263 47.6569 21.8263 46V11.77C21.8263 10.1132 20.4832 8.77003 18.8263 8.77003H12.0885C10.4317 8.77003 9.08851 10.1132 9.08851 11.77V46C9.08851 47.6569 7.74537 49 6.08851 49H6C4.34314 49 3 47.6569 3 46V6.08014C3 4.42329 4.34315 3.08014 6 3.08014H44.302C45.9588 3.08014 47.3019 4.42329 47.3019 6.08014V46C47.3019 47.6569 45.9588 49 44.3019 49H43.893C42.2361 49 40.893 47.6569 40.893 46V11.77C40.893 10.1132 39.5498 8.77003 37.893 8.77003H31.3955C29.7387 8.77003 28.3955 10.1132 28.3955 11.77V46Z" stroke="#222222" stroke-width="5"/>
<path d="M86.8575 42.7491C88.5143 42.7491 89.8575 44.0923 89.8575 45.7491V46C89.8575 47.6569 88.5143 49 86.8575 49H67.4619C65.8051 49 64.4619 47.6569 64.4619 46V6.07069C64.4619 4.41753 65.7993 3.07592 67.4525 3.0707L86.9679 3.00912C88.5623 3.00409 89.8575 4.29518 89.8575 5.88957V5.88957C89.8575 7.48041 88.5678 8.77003 86.977 8.77003H73.5505C71.8936 8.77003 70.5505 10.1132 70.5505 11.77V15.7073C70.5505 17.3642 71.8936 18.7073 73.5505 18.7073H86.9724C88.5658 18.7073 89.8575 19.999 89.8575 21.5923V21.5923C89.8575 23.1857 88.5658 24.4774 86.9724 24.4774H73.5505C71.8936 24.4774 70.5505 25.8205 70.5505 27.4774V39.7491C70.5505 41.406 71.8936 42.7491 73.5505 42.7491H86.8575Z" stroke="#222222" stroke-width="5"/>
<path d="M111.089 3.02544C112.227 3.00985 113.275 3.63918 113.797 4.65046L120.418 17.4931C121.859 20.289 126.084 19.264 126.084 16.1184V6.08014C126.084 4.42329 127.427 3.08014 129.084 3.08014H129.493C131.15 3.08014 132.493 4.42329 132.493 6.08014V46.0238C132.493 47.6675 131.161 49 129.517 49V49C128.394 49 127.367 48.3683 126.861 47.3663L118.864 31.5434C117.439 28.7243 113.186 29.738 113.186 32.8966V46C113.186 47.6569 111.843 49 110.186 49H110.098C108.441 49 107.098 47.6569 107.098 46V6.03931C107.098 4.39849 108.416 3.06208 110.056 3.03959L111.089 3.02544Z" stroke="#222222" stroke-width="5"/>
<path d="M172.129 3.08014C173.786 3.08014 175.129 4.42329 175.129 6.08014V46C175.129 47.6569 173.786 49 172.129 49H152.733C151.076 49 149.733 47.6569 149.733 46V6.08014C149.733 4.42329 151.076 3.08014 152.733 3.08014H152.822C154.479 3.08014 155.822 4.42329 155.822 6.08014V40.23C155.822 41.8868 157.165 43.23 158.822 43.23H165.72C167.377 43.23 168.72 41.8868 168.72 40.23V6.08014C168.72 4.42329 170.063 3.08014 171.72 3.08014H172.129Z" stroke="#222222" stroke-width="5"/>
<path d="M217.843 44.5689C218.928 46.5678 217.48 49 215.206 49H214.016C212.919 49 211.909 48.4014 211.383 47.4391L201.478 29.3196C201.196 28.8046 200.656 28.4843 200.069 28.4843V28.4843C199.18 28.4843 198.46 29.2069 198.464 30.0959L198.526 45.9883C198.532 47.6497 197.187 49 195.526 49H195.369C193.712 49 192.369 47.6569 192.369 46V6.08014C192.369 4.42329 193.712 3.08014 195.369 3.08014H213.162C214.819 3.08014 216.162 4.42329 216.162 6.08014V25.8544C216.162 27.3068 214.985 28.4843 213.532 28.4843V28.4843C211.538 28.4843 210.269 30.6165 211.221 32.3689L217.843 44.5689ZM206.753 22.7143C208.41 22.7143 209.753 21.3711 209.753 19.7143V11.77C209.753 10.1132 208.41 8.77003 206.753 8.77003H201.457C199.8 8.77003 198.457 10.1132 198.457 11.77V19.7143C198.457 21.3711 199.8 22.7143 201.457 22.7143H206.753Z" stroke="#222222" stroke-width="5"/>
<path d="M238.369 11.8544C238.369 10.2395 237.06 8.93031 235.445 8.93031V8.93031C233.83 8.93031 232.521 7.62066 232.521 6.00573V6.00573C232.521 4.39025 233.831 3.08014 235.446 3.08014H246.98C248.596 3.08014 249.905 4.38975 249.905 6.00523V6.20651C249.905 7.71082 248.686 8.93031 247.181 8.93031V8.93031C245.677 8.93031 244.458 10.1498 244.458 11.6541V40.1456C244.458 41.7605 245.767 43.0697 247.382 43.0697V43.0697C248.997 43.0697 250.306 44.3992 250.306 46.0142V46.0142C250.306 47.6518 248.978 49 247.341 49H235.967C234.329 49 233.002 47.6725 233.002 46.0348V45.7534C233.002 44.2712 234.203 43.0697 235.685 43.0697V43.0697C237.168 43.0697 238.369 41.8681 238.369 40.3859V11.8544Z" stroke="#222222" stroke-width="5"/>
<path d="M271.151 39.7491C271.151 41.406 272.494 42.7491 274.151 42.7491H281.049C282.706 42.7491 284.049 41.406 284.049 39.7491V11.8502C284.049 10.1933 282.706 8.85017 281.049 8.85017H274.151C272.494 8.85017 271.151 10.1933 271.151 11.8502V39.7491ZM268.062 49C266.406 49 265.062 47.6569 265.062 46V6.08014C265.062 4.42329 266.406 3.08014 268.062 3.08014H287.458C289.115 3.08014 290.458 4.42329 290.458 6.08014V46C290.458 47.6569 289.115 49 287.458 49H268.062Z" stroke="#222222" stroke-width="5"/>
<path d="M333.094 46C333.094 47.6569 331.75 49 330.094 49H329.524C327.868 49 326.524 47.6569 326.524 46V11.77C326.524 10.1132 325.181 8.77003 323.524 8.77003H316.787C315.13 8.77003 313.787 10.1132 313.787 11.77V46C313.787 47.6569 312.443 49 310.787 49H310.698C309.041 49 307.698 47.6569 307.698 46V6.08014C307.698 4.42329 309.041 3.08014 310.698 3.08014H349C350.657 3.08014 352 4.42329 352 6.08014V46C352 47.6569 350.657 49 349 49H348.591C346.934 49 345.591 47.6569 345.591 46V11.77C345.591 10.1132 344.248 8.77003 342.591 8.77003H336.094C334.437 8.77003 333.094 10.1132 333.094 11.77V46Z" stroke="#222222" stroke-width="5"/>
<path d="M271.114 39.7382C271.114 41.3951 272.457 42.7382 274.114 42.7382H281.065C282.722 42.7382 284.065 41.3951 284.065 39.7382V11.7801C284.065 10.1232 282.722 8.7801 281.065 8.7801H274.114C272.457 8.7801 271.114 10.1233 271.114 11.7801V39.7382ZM268 49C266.343 49 265 47.6569 265 46V6C265 4.34315 266.343 3 268 3H287.5C289.157 3 290.5 4.34315 290.5 6V46C290.5 47.6569 289.157 49 287.5 49H268Z" fill="#9C84B4"/>
<path d="M271.114 39.7382C271.114 41.3951 272.457 42.7382 274.114 42.7382H281.065C282.722 42.7382 284.065 41.3951 284.065 39.7382V11.7801C284.065 10.1232 282.722 8.7801 281.065 8.7801H274.114C272.457 8.7801 271.114 10.1233 271.114 11.7801V39.7382ZM268 49C266.343 49 265 47.6569 265 46V6C265 4.34315 266.343 3 268 3H287.5C289.157 3 290.5 4.34315 290.5 6V46C290.5 47.6569 289.157 49 287.5 49H268Z" stroke="#9C84B4" stroke-width="5"/>
</svg>
