<svg width="24" height="23" viewBox="0 0 24 23" fill="none" xmlns="http://www.w3.org/2000/svg">
<path d="M19.6699 4.61882C19.6638 4.60695 19.6536 4.59764 19.6412 4.59257C18.2116 3.93665 16.703 3.46892 15.153 3.2011C15.1389 3.19848 15.1244 3.20037 15.1114 3.2065C15.0985 3.21262 15.0878 3.22267 15.0809 3.23522C14.8755 3.60808 14.689 3.99107 14.5221 4.38272C12.8514 4.1291 11.1519 4.1291 9.48117 4.38272C9.31324 3.99007 9.12376 3.60699 8.91361 3.23522C8.9064 3.22295 8.89566 3.21313 8.88279 3.20704C8.86992 3.20095 8.85552 3.19888 8.84146 3.2011C7.29135 3.46836 5.78259 3.93612 4.35316 4.59261C4.34092 4.5978 4.3306 4.60666 4.32361 4.61796C1.46502 8.88689 0.681945 13.0508 1.0661 17.1633C1.06718 17.1733 1.07027 17.1831 1.0752 17.1919C1.08013 17.2008 1.08679 17.2086 1.09478 17.2148C2.75931 18.4473 4.62111 19.388 6.60072 19.9969C6.61466 20.0011 6.62955 20.0009 6.64338 19.9964C6.65721 19.9918 6.66932 19.9832 6.67808 19.9716C7.10326 19.393 7.48 18.7804 7.80447 18.14C7.80893 18.1312 7.81147 18.1216 7.81194 18.1117C7.8124 18.1019 7.81078 18.092 7.80717 18.0829C7.80356 18.0737 7.79804 18.0654 7.79099 18.0585C7.78394 18.0516 7.77551 18.0463 7.76626 18.0429C7.17217 17.8156 6.59702 17.5416 6.04621 17.2234C6.0362 17.2176 6.0278 17.2093 6.02174 17.1994C6.01568 17.1895 6.01215 17.1783 6.01147 17.1667C6.01078 17.1551 6.01296 17.1435 6.01781 17.133C6.02266 17.1224 6.03003 17.1132 6.03927 17.1062C6.15485 17.0196 6.2705 16.9296 6.38086 16.8386C6.39066 16.8305 6.40253 16.8253 6.41512 16.8236C6.4277 16.8219 6.44052 16.8238 6.45211 16.829C10.0607 18.4759 13.9675 18.4759 17.5334 16.829C17.545 16.8235 17.5579 16.8213 17.5707 16.8229C17.5835 16.8244 17.5955 16.8296 17.6055 16.8377C17.7159 16.9287 17.8315 17.0196 17.948 17.1062C17.9572 17.1132 17.9647 17.1223 17.9696 17.1328C17.9745 17.1433 17.9768 17.1549 17.9762 17.1664C17.9756 17.178 17.9722 17.1893 17.9662 17.1992C17.9602 17.2092 17.9518 17.2175 17.9419 17.2234C17.3923 17.5443 16.8167 17.8181 16.221 18.0421C16.2118 18.0456 16.2034 18.051 16.1964 18.058C16.1893 18.065 16.1839 18.0734 16.1804 18.0826C16.1768 18.0919 16.1753 18.1018 16.1758 18.1116C16.1764 18.1215 16.179 18.1312 16.1835 18.14C16.5134 18.7769 16.8896 19.3887 17.309 19.9705C17.3175 19.9825 17.3296 19.9914 17.3435 19.9961C17.3574 20.0009 17.3724 20.0011 17.3864 19.9968C19.3696 19.39 21.2346 18.4491 22.9012 17.2148C22.9093 17.2089 22.9161 17.2013 22.921 17.1926C22.926 17.1838 22.929 17.1741 22.9299 17.1641C23.3898 12.4097 22.16 8.27991 19.6699 4.61882ZM8.34338 14.6592C7.25693 14.6592 6.36173 13.6622 6.36173 12.4378C6.36173 11.2133 7.23957 10.2162 8.34338 10.2162C9.45582 10.2162 10.3424 11.222 10.325 12.4377C10.325 13.6622 9.44712 14.6592 8.34338 14.6592ZM15.6701 14.6592C14.5837 14.6592 13.6885 13.6622 13.6885 12.4378C13.6885 11.2133 14.5664 10.2162 15.6701 10.2162C16.7826 10.2162 17.6691 11.222 17.6518 12.4377C17.6518 13.6622 16.7826 14.6592 15.6701 14.6592Z" fill="black"/>
</svg>
