<svg width="24" height="24" viewBox="0 0 24 24" fill="none" xmlns="http://www.w3.org/2000/svg">
<path d="M12.0049 6.86436C8.89401 6.86436 6.38477 9.37835 6.38477 12.4951C6.38477 15.6119 8.89401 18.1259 12.0049 18.1259C15.1157 18.1259 17.625 15.6119 17.625 12.4951C17.625 9.37835 15.1157 6.86436 12.0049 6.86436ZM12.0049 16.1558C9.99455 16.1558 8.35107 14.5141 8.35107 12.4951C8.35107 10.4761 9.98966 8.83438 12.0049 8.83438C14.0201 8.83438 15.6587 10.4761 15.6587 12.4951C15.6587 14.5141 14.0152 16.1558 12.0049 16.1558ZM19.1657 6.63403C19.1657 7.36421 18.5788 7.94738 17.8549 7.94738C17.1261 7.94738 16.544 7.35931 16.544 6.63403C16.544 5.90874 17.131 5.32068 17.8549 5.32068C18.5788 5.32068 19.1657 5.90874 19.1657 6.63403ZM22.888 7.96698C22.8049 6.20768 22.4038 4.6493 21.1174 3.36535C19.8359 2.0814 18.2804 1.67955 16.5244 1.59134C14.7147 1.48843 9.2902 1.48843 7.48042 1.59134C5.72933 1.67465 4.1739 2.0765 2.88749 3.36045C1.60107 4.6444 1.20488 6.20278 1.11683 7.96208C1.01412 9.77529 1.01412 15.21 1.11683 17.0232C1.19999 18.7825 1.60107 20.3409 2.88749 21.6249C4.1739 22.9088 5.72444 23.3107 7.48042 23.3989C9.2902 23.5018 14.7147 23.5018 16.5244 23.3989C18.2804 23.3156 19.8359 22.9137 21.1174 21.6249C22.3989 20.3409 22.8 18.7825 22.888 17.0232C22.9907 15.21 22.9907 9.78019 22.888 7.96698ZM20.55 18.9688C20.1685 19.9293 19.4299 20.6693 18.4663 21.0564C17.0234 21.6298 13.5994 21.4975 12.0049 21.4975C10.4103 21.4975 6.98151 21.6249 5.54346 21.0564C4.58477 20.6742 3.84618 19.9342 3.45977 18.9688C2.88749 17.5231 3.01955 14.0927 3.01955 12.4951C3.01955 10.8975 2.89238 7.46222 3.45977 6.02146C3.84129 5.06095 4.57988 4.32096 5.54346 3.93382C6.9864 3.36045 10.4103 3.49276 12.0049 3.49276C13.5994 3.49276 17.0282 3.36535 18.4663 3.93382C19.425 4.31606 20.1636 5.05605 20.55 6.02146C21.1223 7.46713 20.9902 10.8975 20.9902 12.4951C20.9902 14.0927 21.1223 17.528 20.55 18.9688Z" fill="black"/>
</svg>
