<svg width="23" height="24" viewBox="0 0 23 24" fill="none" xmlns="http://www.w3.org/2000/svg">
<path d="M18.8547 4.55156C16.8906 2.58281 14.275 1.5 11.4953 1.5C5.75781 1.5 1.08906 6.16875 1.08906 11.9062C1.08906 13.7391 1.56719 15.5297 2.47656 17.1094L1 22.5L6.51719 21.0516C8.03594 21.8813 9.74688 22.3172 11.4906 22.3172H11.4953C17.2281 22.3172 22 17.6484 22 11.9109C22 9.13125 20.8187 6.52031 18.8547 4.55156ZM11.4953 20.5641C9.93906 20.5641 8.41562 20.1469 7.08906 19.3594L6.775 19.1719L3.50313 20.0297L4.375 16.8375L4.16875 16.5094C3.30156 15.1313 2.84688 13.5422 2.84688 11.9062C2.84688 7.13906 6.72812 3.25781 11.5 3.25781C13.8109 3.25781 15.9812 4.15781 17.6125 5.79375C19.2437 7.42969 20.2469 9.6 20.2422 11.9109C20.2422 16.6828 16.2625 20.5641 11.4953 20.5641ZM16.2391 14.0859C15.9813 13.9547 14.7016 13.3266 14.4625 13.2422C14.2234 13.1531 14.05 13.1109 13.8766 13.3734C13.7031 13.6359 13.2063 14.2172 13.0516 14.3953C12.9016 14.5688 12.7469 14.5922 12.4891 14.4609C10.9609 13.6969 9.95781 13.0969 8.95 11.3672C8.68281 10.9078 9.21719 10.9406 9.71406 9.94687C9.79844 9.77344 9.75625 9.62344 9.69062 9.49219C9.625 9.36094 9.10469 8.08125 8.88906 7.56094C8.67813 7.05469 8.4625 7.125 8.30313 7.11563C8.15313 7.10625 7.97969 7.10625 7.80625 7.10625C7.63281 7.10625 7.35156 7.17188 7.1125 7.42969C6.87344 7.69219 6.20312 8.32031 6.20312 9.6C6.20312 10.8797 7.13594 12.1172 7.2625 12.2906C7.39375 12.4641 9.09531 15.0891 11.7062 16.2188C13.3562 16.9312 14.0031 16.9922 14.8281 16.8703C15.3297 16.7953 16.3656 16.2422 16.5812 15.6328C16.7969 15.0234 16.7969 14.5031 16.7313 14.3953C16.6703 14.2781 16.4969 14.2125 16.2391 14.0859Z" fill="black"/>
</svg>
