<svg width="24" height="23" viewBox="0 0 24 23" fill="none" xmlns="http://www.w3.org/2000/svg">
<path d="M22.9023 6.17021C22.6406 5.18479 21.8695 4.40871 20.8904 4.14533C19.1159 3.66675 12 3.66675 12 3.66675C12 3.66675 4.88415 3.66675 3.10953 4.14533C2.13048 4.40875 1.3594 5.18479 1.09769 6.17021C0.622192 7.95633 0.622192 11.6829 0.622192 11.6829C0.622192 11.6829 0.622192 15.4095 1.09769 17.1956C1.3594 18.181 2.13048 18.9248 3.10953 19.1882C4.88415 19.6667 12 19.6667 12 19.6667C12 19.6667 19.1158 19.6667 20.8904 19.1882C21.8695 18.9248 22.6406 18.181 22.9023 17.1956C23.3778 15.4095 23.3778 11.6829 23.3778 11.6829C23.3778 11.6829 23.3778 7.95633 22.9023 6.17021ZM9.67269 15.0664V8.29946L15.6202 11.683L9.67269 15.0664Z" fill="black"/>
</svg>
