<svg width="80" height="80" viewBox="0 0 80 80" fill="none" xmlns="http://www.w3.org/2000/svg">
<path d="M7.24 17.12C2.68 23.6 0 31.48 0 40C0 48.52 2.68 56.4 7.24 62.88C16.92 59.8 24 50.72 24 40C24 29.28 16.92 20.2 7.24 17.12Z" fill="black"/>
<path d="M72.76 17.12C63.08 20.2 56 29.28 56 40C56 50.72 63.08 59.8 72.76 62.88C77.32 56.4 80 48.52 80 40C80 31.48 77.32 23.6 72.76 17.12Z" fill="black"/>
<path d="M48 40C48 26.88 55.88 15.64 67.16 10.68C60.04 4.08 50.52 0 40 0C29.48 0 19.96 4.08 12.84 10.68C24.12 15.64 32 26.88 32 40C32 53.12 24.12 64.36 12.84 69.32C19.96 75.92 29.48 80 40 80C50.52 80 60.04 75.92 67.16 69.32C55.88 64.36 48 53.12 48 40Z" fill="black"/>
</svg>
