<svg width="81" height="64" viewBox="0 0 81 64" fill="none" xmlns="http://www.w3.org/2000/svg">
<path fill-rule="evenodd" clip-rule="evenodd" d="M80 24C81.28 10.88 62.88 0 40.04 0C17.2 0 -1.2 10.88 0.0800002 24H80Z" fill="black"/>
<path fill-rule="evenodd" clip-rule="evenodd" d="M13.4 38C15.6 38 16.52 38.56 18 39.44C19.8 40.52 22.28 42 26.72 42C31.16 42 33.64 40.52 35.44 39.44C36.92 38.52 37.8 38 40.04 38C42.24 38 43.16 38.56 44.64 39.44C46.44 40.52 48.92 42 53.36 42C57.8 42 60.28 40.52 62.08 39.44C63.56 38.52 64.44 38 66.68 38C68.88 38 69.8 38.56 71.28 39.44C73.08 40.52 75.56 41.96 79.96 42V34.08C79.96 34.08 76.8 33.44 75.32 32.56C73.52 31.48 71.04 30 66.6 30C62.16 30 59.68 31.48 57.88 32.56C56.4 33.48 55.48 34 53.28 34C51.08 34 50.16 33.44 48.68 32.56C46.88 31.48 44.4 30 39.96 30C35.52 30 33.04 31.48 31.24 32.56C29.76 33.48 28.88 34 26.64 34C24.44 34 23.52 33.44 22.04 32.56C20.24 31.48 17.76 30 13.32 30C8.88 30 6.4 31.48 4.6 32.56C3.12 33.48 2.24 34 0 34V42C4.44 42 6.92 40.52 8.84 39.44C10.32 38.52 11.2 38 13.4 38Z" fill="black"/>
<path fill-rule="evenodd" clip-rule="evenodd" d="M0 48V56C0 60.4 3.6 64 8 64H72C76.4 64 80 60.4 80 56V48H0Z" fill="black"/>
</svg>
