<svg width="80" height="80" viewBox="0 0 80 80" fill="none" xmlns="http://www.w3.org/2000/svg">
<path d="M40 80C62.0937 80 80 62.0937 80 40C80 17.9063 62.0937 0 40 0C17.9063 0 0 17.9063 0 40C0 62.0937 17.9063 80 40 80ZM20.6094 43.9062C16.0156 39.25 16.0156 31.6875 20.6094 27.0312C25.2031 22.375 32.6406 22.375 37.2344 27.0312L40 29.8438L42.7656 27.0312C47.3594 22.375 54.7969 22.375 59.3906 27.0312C63.9844 31.6875 63.9844 39.25 59.3906 43.9062L43.5156 60.0313C42.5469 61.0156 41.2812 61.5 40 61.5C38.7188 61.5 37.4531 61.0156 36.4844 60.0313L20.6094 43.9062Z" fill="black"/>
</svg>
