<svg width="80" height="80" viewBox="0 0 80 80" fill="none" xmlns="http://www.w3.org/2000/svg">
<path d="M44.4217 6.14063C49.1717 11.0781 58.3436 16.4375 64.9686 18.125C69.2654 19.2188 73.2186 21.75 76.0623 25.5938C82.6404 34.4688 80.7811 47 71.9061 53.5781C69.1248 55.6406 65.9842 56.875 62.7811 57.3281C56.9686 58.1406 49.5779 62.4375 46.6404 67.5156C39.7342 79.4688 24.4529 83.5625 12.4842 76.6719C0.515429 69.7813 -3.54707 54.4531 3.34355 42.5C7.21855 35.7969 9.39043 25.9531 10.0779 18.25C10.4842 13.5938 12.5154 9.0625 16.1404 5.57813C24.1092 -2.07812 36.7654 -1.82812 44.4217 6.14063ZM52.4998 37.5C52.4998 32.8587 50.6561 28.4075 47.3742 25.1256C44.0923 21.8437 39.6411 20 34.9998 20C30.3585 20 25.9073 21.8437 22.6254 25.1256C19.3435 28.4075 17.4998 32.8587 17.4998 37.5C17.4998 42.1413 19.3435 46.5925 22.6254 49.8744C25.9073 53.1563 30.3585 55 34.9998 55C39.6411 55 44.0923 53.1563 47.3742 49.8744C50.6561 46.5925 52.4998 42.1413 52.4998 37.5ZM27.4998 36.25C27.4998 37.625 26.3748 38.75 24.9998 38.75C23.6248 38.75 22.4998 37.625 22.4998 36.25C22.4998 30.0313 27.5311 25 33.7498 25C35.1248 25 36.2498 26.125 36.2498 27.5C36.2498 28.875 35.1248 30 33.7498 30C30.2967 30 27.4998 32.7969 27.4998 36.25Z" fill="black"/>
</svg>
