<svg width="60" height="76" viewBox="0 0 60 76" fill="none" xmlns="http://www.w3.org/2000/svg">
<path d="M30 75.5C13.4375 75.5 0 59.5625 0 43C0 25.5 10 0.5 30 0.5C50 0.5 60 25.5 60 43C60 59.5625 46.5625 75.5 30 75.5ZM24.1875 18.9375C25.2031 18 25.2813 16.4219 24.3438 15.4063C23.4063 14.3906 21.8281 14.3125 20.8125 15.25C17.0781 18.6563 14.3906 23.4844 12.6406 28.4063C10.8906 33.3281 10 38.5781 10 43C10 44.375 11.125 45.5 12.5 45.5C13.875 45.5 15 44.375 15 43C15 39.1719 15.7812 34.5 17.3594 30.0625C18.9375 25.6094 21.2656 21.6094 24.1875 18.9375Z" fill="black"/>
</svg>
