<svg width="96" height="96" viewBox="0 0 96 96" fill="none" xmlns="http://www.w3.org/2000/svg">
<path fill-rule="evenodd" clip-rule="evenodd" d="M88 40C89.28 26.88 70.88 16 48.04 16C25.2 16 6.8 26.88 8.08 40H88Z M8 64V72C8 76.4 11.6 80 16 80H80C84.4 80 88 76.4 88 72V64H8Z M21.4 54C23.6 54 24.52 54.56 26 55.44C27.8 56.52 30.28 58 34.72 58C39.16 58 41.64 56.52 43.44 55.44C44.92 54.52 45.8 54 48.04 54C50.24 54 51.16 54.56 52.64 55.44C54.44 56.52 56.92 58 61.36 58C65.8 58 68.28 56.52 70.08 55.44C71.56 54.52 72.44 54 74.68 54C76.88 54 77.8 54.56 79.28 55.44C81.08 56.52 83.56 57.96 87.96 58V50.08C87.96 50.08 84.8 49.44 83.32 48.56C81.52 47.48 79.04 46 74.6 46C70.16 46 67.68 47.48 65.88 48.56C64.4 49.48 63.48 50 61.28 50C59.08 50 58.16 49.44 56.68 48.56C54.88 47.48 52.4 46 47.96 46C43.52 46 41.04 47.48 39.24 48.56C37.76 49.48 36.88 50 34.64 50C32.44 50 31.52 49.44 30.04 48.56C28.24 47.48 25.76 46 21.32 46C16.88 46 14.4 47.48 12.6 48.56C11.12 49.48 10.24 50 8 50V58C12.44 58 14.92 56.52 16.84 55.44C18.32 54.52 19.2 54 21.4 54Z" fill="black"/>
</svg>
