<svg width="80" height="80" viewBox="0 0 80 80" fill="none" xmlns="http://www.w3.org/2000/svg">
<path d="M29.9219 0.015625C26.9375 0.015625 24.0781 1.20313 21.9688 3.3125L3.3125 21.9688C1.20313 24.0781 0.015625 26.9375 0.015625 29.9219V50.0781C0.015625 53.0625 1.20313 55.9219 3.3125 58.0312L21.9688 76.6875C24.0781 78.7969 26.9375 79.9844 29.9219 79.9844H50.0781C53.0625 79.9844 55.9219 78.7969 58.0312 76.6875L76.6875 58.0312C78.7969 55.9219 79.9844 53.0625 79.9844 50.0781V29.9219C79.9844 26.9375 78.7969 24.0781 76.6875 21.9688L58.0312 3.3125C55.9219 1.20313 53.0625 0.015625 50.0781 0.015625H29.9219Z" fill="black"/>
</svg>
