<svg width="80" height="70" viewBox="0 0 80 70" fill="none" xmlns="http://www.w3.org/2000/svg">
<path d="M35.3907 9.51563C37.625 16.2188 35.3438 22.9844 30.2969 24.6406C25.25 26.2969 19.3438 22.2031 17.1094 15.5C14.875 8.79688 17.1563 2.03125 22.2032 0.375001C27.25 -1.28125 33.1563 2.8125 35.3907 9.51563ZM15.6875 26.0313C18.6407 31.0938 17.9219 36.9844 14.0938 39.1719C10.2657 41.3594 4.76567 39.0313 1.82817 33.9688C-1.10933 28.9063 -0.42183 23.0156 3.4063 20.8281C7.23442 18.6406 12.7344 20.9688 15.6719 26.0313H15.6875ZM10.8125 57.6875C19 35.6094 33.5469 30 40 30C46.4532 30 61 35.6094 69.1875 57.6875C69.75 59.2031 70 60.8281 70 62.4531V62.7031C70 66.7344 66.7344 70 62.7032 70C60.9063 70 59.125 69.7812 57.3907 69.3437L43.6407 65.9062C41.25 65.3125 38.75 65.3125 36.3594 65.9062L22.6094 69.3437C20.875 69.7812 19.0938 70 17.2969 70C13.2657 70 10 66.7344 10 62.7031V62.4531C10 60.8281 10.25 59.2031 10.8125 57.6875ZM65.9063 39.1719C62.0782 36.9844 61.3594 31.0938 64.3125 26.0313C67.2657 20.9688 72.75 18.6406 76.5782 20.8281C80.4063 23.0156 81.125 28.9063 78.1719 33.9688C75.2188 39.0313 69.7344 41.3594 65.9063 39.1719ZM48.4532 24.6406C43.4063 22.9844 41.125 16.2188 43.3594 9.51563C45.5938 2.8125 51.5 -1.28125 56.5469 0.375001C61.5938 2.03125 63.875 8.79688 61.6407 15.5C59.4063 22.2031 53.5 26.2969 48.4532 24.6406Z" fill="black"/>
</svg>
