<svg width="90" height="60" viewBox="0 0 90 60" fill="none" xmlns="http://www.w3.org/2000/svg">
<path d="M85 27.5C83.8125 27.5 82.7656 26.7344 82.3438 25.625C76.5625 10.6406 62.0312 0 45 0C27.9688 0 13.4375 10.6406 7.65625 25.625C7.23437 26.7344 6.1875 27.5 5 27.5C2.23437 27.5 0 29.7344 0 32.5C0 35.1875 2.125 37.3906 4.79688 37.5C7.5625 37.4219 10.2656 36.4062 12.4063 35.2812C13.5 34.7187 14.3906 34.1406 15.0156 33.7187C15.3281 33.5 15.5625 33.3281 15.7187 33.2188C15.7969 33.1563 15.8594 33.1094 15.8906 33.0937L15.9219 33.0625L19.1562 33.125L19.1875 33.1406C19.2188 33.1719 19.2656 33.2031 19.3281 33.2656C19.4687 33.375 19.6719 33.5469 19.9688 33.75C20.5469 34.1562 21.3906 34.7187 22.4844 35.2812C24.6719 36.4062 27.7031 37.5 31.25 37.5C34.7969 37.5 37.8438 36.4062 40.0156 35.2812C41.1094 34.7187 41.9531 34.1562 42.5313 33.75C42.8125 33.5469 43.0312 33.375 43.1719 33.2656C43.2344 33.2031 43.2813 33.1719 43.3125 33.1406L43.3281 33.125C44.2812 32.2812 45.7031 32.2812 46.6406 33.125L46.6563 33.1406C46.6875 33.1719 46.7344 33.2031 46.7969 33.2656C46.9375 33.375 47.1406 33.5469 47.4375 33.75C48.0156 34.1562 48.8594 34.7187 49.9531 35.2812C52.1406 36.4062 55.1719 37.5 58.7187 37.5C62.2656 37.5 65.3125 36.4062 67.4844 35.2812C68.5781 34.7187 69.4219 34.1562 70 33.75C70.2812 33.5469 70.5 33.375 70.6406 33.2656C70.7031 33.2031 70.75 33.1719 70.7812 33.1406L70.7969 33.125C71.7188 32.3125 73.0781 32.2813 74.0312 33.0625L74.0625 33.0937C74.0938 33.125 74.1563 33.1719 74.2344 33.2188C74.3906 33.3281 74.625 33.5156 74.9375 33.7187C75.5625 34.1406 76.4531 34.7187 77.5469 35.2812C79.6875 36.4062 82.4062 37.4219 85.1562 37.5C87.8281 37.3906 89.9531 35.2031 89.9531 32.5C89.9531 29.7344 87.7188 27.5 84.9531 27.5H85ZM19.1562 33.125C18.2344 32.3125 16.875 32.2813 15.9219 33.0625L19.1562 33.125ZM12.7188 53.1563C14.0781 57.2344 17.9063 60 22.2031 60H67.7969C72.0937 60 75.9219 57.25 77.2813 53.1563L81.0312 41.9219C78.8125 41.375 76.8437 40.5156 75.2812 39.7031C74.1875 39.125 73.2656 38.5625 72.5469 38.0937C71.8437 38.5781 70.9375 39.1406 69.8281 39.7188C67.1562 41.0938 63.3125 42.5 58.75 42.5C54.1875 42.5 50.3438 41.0938 47.6875 39.7188C46.6094 39.1563 45.7031 38.5938 45 38.125C44.2969 38.5938 43.4062 39.1563 42.3125 39.7188C39.6562 41.0938 35.8125 42.5 31.25 42.5C26.6875 42.5 22.8437 41.0938 20.1875 39.7188C19.0781 39.1563 18.1719 38.5781 17.4688 38.0937C16.75 38.5625 15.8281 39.1406 14.7344 39.7031C13.1719 40.5156 11.1875 41.375 8.98438 41.9219L12.7344 53.1563H12.7188ZM32.2344 13.625L29.7344 18.625C29.1094 19.8594 27.6094 20.3594 26.375 19.75C25.1406 19.1406 24.6406 17.625 25.25 16.3906L27.75 11.3906C28.375 10.1562 29.875 9.65625 31.1094 10.2656C32.3438 10.875 32.8438 12.3906 32.2344 13.625ZM62.2344 11.3906L64.7344 16.3906C65.3594 17.625 64.8438 19.125 63.6094 19.75C62.375 20.375 60.875 19.8594 60.25 18.625L57.75 13.625C57.125 12.3906 57.6406 10.8906 58.875 10.2656C60.1094 9.64062 61.6094 10.1562 62.2344 11.3906ZM47.5 12.5V17.5C47.5 18.875 46.375 20 45 20C43.625 20 42.5 18.875 42.5 17.5V12.5C42.5 11.125 43.625 10 45 10C46.375 10 47.5 11.125 47.5 12.5Z" fill="black"/>
</svg>
