<svg width="90" height="80" viewBox="0 0 90 80" fill="none" xmlns="http://www.w3.org/2000/svg">
<path d="M40 0C34.4844 0 30 4.48438 30 10V70C30 75.5156 34.4844 80 40 80H80C85.5156 80 90 75.5156 90 70V10C90 4.48438 85.5156 0 80 0H40ZM15 11.25V68.75C15 70.8281 16.6719 72.5 18.75 72.5C20.8281 72.5 22.5 70.8281 22.5 68.75V11.25C22.5 9.17187 20.8281 7.5 18.75 7.5C16.6719 7.5 15 9.17187 15 11.25ZM0 18.75V61.25C0 63.3281 1.67187 65 3.75 65C5.82813 65 7.5 63.3281 7.5 61.25V18.75C7.5 16.6719 5.82813 15 3.75 15C1.67187 15 0 16.6719 0 18.75Z" fill="black"/>
</svg>
