<svg width="80" height="80" viewBox="0 0 80 80" fill="none" xmlns="http://www.w3.org/2000/svg">
<path d="M65 62.3281C74.1406 55.9062 80 46.0625 80 35C80 15.6719 62.0937 0 40 0C17.9063 0 0 15.6719 0 35C0 46.0469 5.85938 55.9062 15 62.3281C15 62.3906 15 62.4375 15 62.5V72.5C15 76.6406 18.3594 80 22.5 80H30V72.5C30 71.125 31.125 70 32.5 70C33.875 70 35 71.125 35 72.5V80H45V72.5C45 71.125 46.125 70 47.5 70C48.875 70 50 71.125 50 72.5V80H57.5C61.6406 80 65 76.6406 65 72.5V62.5C65 62.4375 65 62.3906 65 62.3281ZM15 40C15 37.3478 16.0536 34.8043 17.9289 32.9289C19.8043 31.0536 22.3478 30 25 30C27.6522 30 30.1957 31.0536 32.0711 32.9289C33.9464 34.8043 35 37.3478 35 40C35 42.6522 33.9464 45.1957 32.0711 47.0711C30.1957 48.9464 27.6522 50 25 50C22.3478 50 19.8043 48.9464 17.9289 47.0711C16.0536 45.1957 15 42.6522 15 40ZM55 30C57.6522 30 60.1957 31.0536 62.0711 32.9289C63.9464 34.8043 65 37.3478 65 40C65 42.6522 63.9464 45.1957 62.0711 47.0711C60.1957 48.9464 57.6522 50 55 50C52.3478 50 49.8043 48.9464 47.9289 47.0711C46.0536 45.1957 45 42.6522 45 40C45 37.3478 46.0536 34.8043 47.9289 32.9289C49.8043 31.0536 52.3478 30 55 30Z" fill="black"/>
</svg>
