<svg width="70" height="70" viewBox="0 0 70 70" fill="none" xmlns="http://www.w3.org/2000/svg">
<path d="M38.4063 2.17188C37.7969 0.84375 36.4687 0 35 0C33.5313 0 32.2031 0.84375 31.5937 2.17188L22.2969 22.2969L2.17187 31.5937C0.84375 32.2031 0 33.5313 0 35C0 36.4687 0.84375 37.7969 2.17187 38.4062L22.2969 47.7031L31.5937 67.8281C32.2031 69.1563 33.5313 70 35 70C36.4687 70 37.7969 69.1563 38.4063 67.8281L47.7031 47.7031L67.8281 38.4062C69.1563 37.7969 70 36.4687 70 35C70 33.5313 69.1563 32.2031 67.8281 31.5937L47.7031 22.2969L38.4063 2.17188Z" fill="black"/>
</svg>
