<svg width="84" height="80" viewBox="0 0 84 80" fill="none" xmlns="http://www.w3.org/2000/svg">
<path d="M46.5157 2.8125C45.6875 1.09375 43.9375 0 42.0157 0C40.0938 0 38.3594 1.09375 37.5157 2.8125L27.4688 23.4844L5.03128 26.7969C3.15628 27.0781 1.59378 28.3906 1.01566 30.1875C0.437531 31.9844 0.90628 33.9687 2.25003 35.2969L18.5313 51.4062L14.6875 74.1719C14.375 76.0469 15.1563 77.9531 16.7032 79.0625C18.25 80.1719 20.2969 80.3125 21.9844 79.4219L42.0313 68.7187L62.0782 79.4219C63.7657 80.3125 65.8125 80.1875 67.3594 79.0625C68.9063 77.9375 69.6875 76.0469 69.375 74.1719L65.5157 51.4062L81.7969 35.2969C83.1407 33.9687 83.625 31.9844 83.0313 30.1875C82.4375 28.3906 80.8907 27.0781 79.0157 26.7969L56.5625 23.4844L46.5157 2.8125Z" fill="black"/>
</svg>
