<svg width="70" height="70" viewBox="0 0 70 70" fill="none" xmlns="http://www.w3.org/2000/svg">
<path d="M70 52.5V17.5C70 7.82812 54.3281 0 35 0C15.6719 0 0 7.82812 0 17.5V52.5C0 62.1719 15.6719 70 35 70C54.3281 70 70 62.1719 70 52.5ZM48.1563 26C44.3281 26.9531 39.8281 27.5 35 27.5C28.6406 27.5 22.8438 26.5469 18.4375 24.9844C20.75 22.6719 23.5625 20.8125 26.4687 19.3438C29.6719 17.7344 32.8594 16.6875 35.3594 16.0938C38.2031 20.3594 42.6406 23.8906 48.1719 26H48.1563ZM32.0469 7.5625C32.1719 8.5 32.375 9.42187 32.6406 10.3281C29.9375 11.0625 26.7969 12.1719 23.6562 13.75C19.8281 15.6719 15.8594 18.3437 12.6719 21.9844C10.9687 20.6406 10 19.125 10 17.5C10 12.375 19.6406 8.15625 32.0469 7.5625ZM38.4063 7.59375C50.5938 8.26562 60 12.4375 60 17.5C60 19.0313 59.1406 20.4844 57.5938 21.7812C46.7344 20.9219 39.8594 14.2188 38.4063 7.59375Z" fill="black"/>
</svg>
