<svg width="80" height="71" viewBox="0 0 80 71" fill="none" xmlns="http://www.w3.org/2000/svg">
<path d="M42.9376 2L49.8282 7.34375C50.7032 8.03125 51.797 8.375 52.9063 8.34375L61.6251 8.07813C63.8126 8.01563 65.7657 9.42187 66.3751 11.5312L68.8126 19.9062C69.1251 20.9687 69.797 21.9063 70.7188 22.5313L77.9063 27.4063C79.7188 28.6406 80.4532 30.9219 79.7188 32.9844L77.047 40.4375C68.922 28.6875 55.3595 21 40.0001 21C24.6407 21 11.0782 28.6875 2.95321 40.4375L0.281332 32.9844C-0.453043 30.9375 0.281332 28.6406 2.09383 27.4063L9.29696 22.5C10.2188 21.875 10.8907 20.9531 11.2032 19.875L13.6407 11.5156C14.2501 9.42187 16.2032 8 18.3907 8.0625L27.0938 8.34375C28.2032 8.375 29.297 8.03125 30.172 7.34375L37.0626 2C38.7813 0.65625 41.2032 0.65625 42.922 2H42.9376ZM80.0001 66C80.0001 68.7656 77.7657 71 75.0001 71H5.00008C2.23446 71 8.21904e-05 68.7656 8.21904e-05 66C8.21904e-05 43.9062 17.9063 26 40.0001 26C62.0938 26 80.0001 43.9062 80.0001 66ZM17.5001 61C18.1631 61 18.799 60.7366 19.2678 60.2678C19.7367 59.7989 20.0001 59.163 20.0001 58.5C20.0001 57.837 19.7367 57.2011 19.2678 56.7322C18.799 56.2634 18.1631 56 17.5001 56C16.837 56 16.2012 56.2634 15.7323 56.7322C15.2635 57.2011 15.0001 57.837 15.0001 58.5C15.0001 59.163 15.2635 59.7989 15.7323 60.2678C16.2012 60.7366 16.837 61 17.5001 61ZM30.0001 48.5C30.0001 47.837 29.7367 47.2011 29.2678 46.7322C28.799 46.2634 28.1631 46 27.5001 46C26.837 46 26.2012 46.2634 25.7323 46.7322C25.2635 47.2011 25.0001 47.837 25.0001 48.5C25.0001 49.163 25.2635 49.7989 25.7323 50.2678C26.2012 50.7366 26.837 51 27.5001 51C28.1631 51 28.799 50.7366 29.2678 50.2678C29.7367 49.7989 30.0001 49.163 30.0001 48.5Z" fill="black"/>
</svg>
