<svg width="36" height="33" viewBox="0 0 36 33" fill="none" xmlns="http://www.w3.org/2000/svg">
<path d="M22.3995 10.1964C22.3558 10.071 22.337 9.93944 22.337 9.80783C22.3495 9.67622 22.3808 9.54462 22.3808 9.42554C22.4933 9.30647 22.5683 9.19993 22.6683 9.1122L30.0933 2.3802C30.287 2.20222 30.5495 2.10947 30.812 2.12263C31.0808 2.13579 31.3308 2.25424 31.5058 2.45165C31.6308 2.64906 31.7745 2.90914 31.762 3.17486C31.7495 3.44058 31.6308 3.69 31.3808 3.86861L24.012 10.6037C23.9183 10.6915 23.7995 10.7604 23.6808 10.8043C23.5558 10.8481 23.4245 10.867 23.2933 10.8607C23.162 10.8544 23.0308 10.8231 22.912 10.7667C22.7933 10.7103 22.687 10.6288 22.5995 10.5285C22.512 10.4345 22.4433 10.3217 22.3995 10.1964ZM10.112 20.75C9.98703 20.75 9.81828 20.6748 9.78078 20.5808L3.38141 13.9628C1.75016 12.3272 0.644534 10.234 0.208347 7.96534C-0.228028 5.69356 0.0245653 3.34344 0.933284 1.21705C1.06203 0.916234 1.26266 0.651141 1.51703 0.445835C1.77141 0.240403 2.07266 0.100587 2.39328 0.0386374C2.71453 -0.0232867 3.04516 -0.00545713 3.35766 0.090622C3.67016 0.186632 3.95453 0.357972 4.18516 0.589662L16.8933 13.5492C17.0683 13.731 17.1683 13.9691 17.1683 14.2198C17.1683 14.4705 17.0683 14.7086 16.8933 14.8904C16.7933 14.9906 16.6808 15.0658 16.5495 15.1222C16.4245 15.1724 16.287 15.2037 16.1495 15.2037C16.0058 15.2037 15.8683 15.1724 15.7433 15.1222C15.612 15.0658 15.4433 14.9906 15.3995 14.8904L2.76516 2.00544C2.01016 3.76332 1.80016 5.7086 2.16328 7.58932C2.52578 9.46941 3.44453 11.1928 4.79953 12.5402L11.2245 19.1895C11.362 19.3274 11.4558 19.5091 11.487 19.7034C11.5245 19.8977 11.4995 20.0982 11.4245 20.28C11.3495 20.4617 11.2183 20.6121 11.0558 20.7249C10.887 20.8315 10.6933 20.8879 10.4433 20.8879C10.3683 20.8879 10.2308 20.8565 10.112 20.75ZM25.4933 13.4364C25.3995 13.2923 25.3183 13.2421 25.262 13.1231C25.2058 13.004 25.1745 12.8724 25.1683 12.7408C25.162 12.6092 25.1808 12.4776 25.2245 12.3522C25.2683 12.2332 25.337 12.1141 25.4245 12.0201L32.1433 4.57615C32.2308 4.47901 32.337 4.39942 32.462 4.34302C32.5808 4.28662 32.7058 4.25403 32.837 4.24776C32.9683 4.24087 33.0995 4.26092 33.2245 4.30479C33.3495 4.34929 33.462 4.4176 33.5058 4.50596C33.6558 4.59495 33.737 4.70149 33.7933 4.82057C33.8495 4.93964 33.8808 5.06874 33.887 5.20034C33.8933 5.33195 33.8183 5.46418 33.8308 5.58827C33.787 5.71236 33.7183 5.82642 33.6308 5.92418L26.912 13.3675C26.8245 13.4615 26.7183 13.543 26.5995 13.5994C26.4808 13.6558 26.3495 13.6871 26.2183 13.6934C26.087 13.6996 25.9558 13.6808 25.837 13.637C25.712 13.5931 25.5995 13.5242 25.4433 13.4364H25.4933ZM35.5808 6.78088C35.7995 6.93755 35.9433 7.16943 35.987 7.42638C36.0308 7.68959 35.9683 7.90267 35.8183 8.17215L30.5995 15.4418C30.162 16.15 29.5745 16.7516 28.8183 17.1966C28.1745 17.6478 27.3808 17.9236 26.5558 18.0176C26.3558 18.0364 26.1558 18.0489 25.9558 18.0489C24.4245 18.0426 22.9558 17.4473 21.862 16.3756L21.4745 15.9871L5.71766 31.7861C5.52891 31.9679 5.27641 32.0682 5.01391 32.0682C4.75203 32.0682 4.50078 31.9052 4.31578 31.7736C4.13016 31.5856 4.02516 31.3349 4.02266 31.0717C4.02078 30.8085 4.12141 30.5578 4.30328 30.3698L20.062 14.5707L19.6808 14.1885C19.0808 13.568 18.5683 12.8285 18.3433 12.0138C18.0558 11.1991 17.9558 10.3343 18.0433 9.47568C18.137 8.64217 18.4183 7.84 18.8183 7.13183C19.3245 6.42366 19.9308 5.82767 20.6433 5.39086L27.8433 0.188512C28.0058 0.0332227 28.3245 -0.0298482 28.587 0.013231C28.8495 0.0562852 29.087 0.201924 29.2433 0.418135C29.3933 0.63422 29.4558 0.903701 29.4183 1.16629C29.3183 1.42887 29.2245 1.66389 29.012 1.81868L21.762 7.05036C21.2808 7.31984 20.8808 7.70212 20.5745 8.16588C20.2745 8.62337 20.0808 9.14353 20.0183 9.69502C19.962 10.2528 20.0245 10.8168 20.212 11.3495C20.3933 11.8822 20.6933 12.3648 21.0808 12.7721L22.1245 13.8187C22.1433 13.8312 22.162 13.8438 22.1808 13.8563C22.1933 13.8688 22.1995 13.8876 22.212 13.9064L23.262 14.9593C23.6683 15.2977 24.1495 15.6549 24.6808 15.8367C25.212 16.0184 25.7808 16.0811 26.337 16.0184C26.8183 15.962 27.387 15.774 27.837 15.4795C28.287 15.1849 28.6683 14.7901 28.937 14.3263L34.187 7.00649C34.262 6.89995 34.362 6.81221 34.4745 6.74328C34.587 6.66807 34.712 6.6242 34.837 6.6054C34.9683 6.58033 35.1058 6.5866 35.2308 6.61794C35.362 6.64927 35.4808 6.64927 35.587 6.78088H35.5808ZM33.6995 30.3761C33.8808 30.5703 33.9808 30.821 33.9808 31.0278C33.9745 31.3475 33.8683 31.5981 33.6308 31.7861C33.4995 31.9679 33.1933 32.0744 32.987 32.0744C32.7245 32.0807 32.4745 31.9804 32.2808 31.7987L21.2808 20.7688C21.0995 20.5745 20.9995 20.3238 21.0058 20.0606C21.0058 19.7974 21.112 19.5467 21.2933 19.3587C21.4808 19.1206 21.7308 19.0704 21.9933 19.0642C22.2558 19.0642 22.5058 19.1644 22.6995 19.3462L33.6995 30.3761Z" fill="url(#paint0_linear_319_8941)"/>
<defs>
<linearGradient id="paint0_linear_319_8941" x1="-6.70566e-08" y1="16.0373" x2="36.0007" y2="16.0373" gradientUnits="userSpaceOnUse">
<stop stop-color="#A071D0"/>
<stop offset="1" stop-color="#7CD0E3"/>
</linearGradient>
</defs>
</svg>
