<svg width="24" height="24" viewBox="0 0 24 24" fill="none" xmlns="http://www.w3.org/2000/svg">
<path d="M2.96359 21.0001H21.25C21.6625 21.0001 22 21.3376 22 21.7501C22 22.1626 21.6625 22.5001 21.25 22.5001H1.74999C1.49031 22.5001 1.24867 22.3642 1.11203 22.1439C0.975366 21.9235 0.96293 21.647 1.07917 21.4126L10.8297 1.91448C11.0125 1.54417 11.4672 1.39417 11.8375 1.57933C12.2078 1.76448 12.3578 2.21495 12.1703 2.58527L2.96359 21.0001ZM14.7859 11.1985C15.0953 11.536 15.0016 12.0282 14.6359 12.2579C14.2984 12.4689 13.8578 12.3845 13.6094 12.0751C12.9437 11.2454 12.1844 10.4907 11.35 9.8298C11.0594 9.60011 10.9609 9.20167 11.125 8.86886C11.3312 8.45636 11.8562 8.32042 12.2219 8.60636C13.1453 9.36573 14.0641 10.2329 14.7859 11.1985ZM15.5078 15.1735C15.3484 14.8173 15.4656 14.3954 15.7937 14.1892C16.1641 13.9501 16.6609 14.086 16.8437 14.4892C17.3875 15.6798 17.7859 16.9548 18.0156 18.286C18.0953 18.7314 17.7437 19.1251 17.2891 19.1251C16.9094 19.1251 16.5953 18.8017 16.525 18.4689C16.3187 17.3157 15.9766 16.2142 15.5078 15.1735Z" fill="black"/>
</svg>
