<svg width="16" height="16" viewBox="0 0 16 16" fill="none" xmlns="http://www.w3.org/2000/svg">
<path d="M12.4719 10H10.5C9.67499 10 8.99999 10.675 8.99999 11.5V13.5C8.99999 14.325 9.67499 15 10.5 15H12.4719C13.2969 15 13.9719 14.325 13.9719 13.5V11.5C13.9719 10.675 13.325 10 12.4719 10ZM12.9719 13.5C12.9719 13.771 12.7429 14 12.4719 14H10.5C10.229 14 9.99999 13.771 9.99999 13.5V11.5C9.99999 11.229 10.229 11 10.5 11H12.4719C12.7429 11 12.9719 11.229 12.9719 11.5V13.5ZM14.5 1H10.5C9.67186 1 8.99999 1.67156 8.99999 2.5V6.5C8.99999 7.32812 9.67186 8 10.5 8H14.5C15.3281 8 16 7.32812 16 6.5V2.5C16 1.67156 15.3281 1 14.5 1ZM15 6.5C15 6.775 14.775 7 14.5 7H10.5C10.225 7 9.99999 6.775 9.99999 6.5V2.5C9.99999 2.22438 10.225 2 10.5 2H14.5C14.775 2 15 2.22438 15 2.5V6.5ZM4.35312 1.14656C4.1578 0.95125 3.84124 0.95125 3.64624 1.14656L0.64624 4.14656C0.450928 4.34188 0.450928 4.65844 0.64624 4.85344C0.841553 5.04844 1.15812 5.04875 1.35312 4.85344L3.49999 2.70719V14.5C3.49999 14.775 3.72499 15 3.99999 15C4.27499 15 4.49999 14.7764 4.49999 14.5V2.70719L6.64655 4.85375C6.74374 4.95 6.87187 5 6.99999 5C7.12812 5 7.25587 4.95119 7.35343 4.8535C7.54874 4.65819 7.54874 4.34162 7.35343 4.14663L4.35312 1.14656Z" fill="white"/>
</svg>
