<svg width="24" height="24" viewBox="0 0 24 24" fill="none" xmlns="http://www.w3.org/2000/svg">
<path d="M12.5994 16.2272H5.39971V7.01633L8.57546 10.1441C8.69208 10.259 8.84583 10.3181 8.99957 10.3181C9.15332 10.3181 9.30661 10.2604 9.42368 10.1449C9.65805 9.91411 9.65805 9.53999 9.42368 9.30953L5.22384 5.17312C4.98947 4.94229 4.60961 4.94229 4.37562 5.17312L0.175775 9.30953C-0.0585916 9.54036 -0.0585916 9.91448 0.175775 10.1449C0.410141 10.3754 0.790002 10.3758 1.02399 10.1449L4.19975 7.01633V16.8182C4.19975 17.1448 4.46809 17.4091 4.79973 17.4091H12.5994C12.9311 17.4091 13.1994 17.1448 13.1994 16.8182C13.1994 16.4915 12.9294 16.2272 12.5994 16.2272ZM23.8228 14.0372C23.5884 13.8063 23.2085 13.8063 22.9746 14.0372L19.7992 17.1653V7.3635C19.7992 7.03687 19.5308 6.77258 19.1992 6.77258H11.3995C11.0695 6.77258 10.7995 7.03849 10.7995 7.3635C10.7995 7.6885 11.0678 7.95441 11.3995 7.95441H18.5992V17.1653L15.4235 14.0375C15.1891 13.8067 14.8092 13.8067 14.5752 14.0375C14.3413 14.2684 14.3409 14.6425 14.5752 14.8729L18.7751 19.0093C18.8917 19.1227 19.0455 19.1818 19.1992 19.1818C19.3529 19.1818 19.5062 19.1241 19.6233 19.0087L23.8231 14.8723C24.059 14.6428 24.059 14.2661 23.8228 14.0372Z" fill="black"/>
</svg>
