<svg width="24" height="24" viewBox="0 0 24 24" fill="none" xmlns="http://www.w3.org/2000/svg">
<path d="M21.75 3C22.9922 3 24 4.00734 24 5.25V8.25C24 9.49219 22.9922 10.5 21.75 10.5H2.25C1.00734 10.5 0 9.49219 0 8.25V5.25C0 4.00734 1.00734 3 2.25 3H21.75ZM21.75 4.5H15V9H21.75C22.1625 9 22.5 8.6625 22.5 8.25V5.25C22.5 4.8375 22.1625 4.5 21.75 4.5ZM1.5 5.25V8.25C1.5 8.6625 1.83562 9 2.25 9H13.5V4.5H2.25C1.83562 4.5 1.5 4.8375 1.5 5.25ZM21.75 13.5C22.9922 13.5 24 14.5078 24 15.75V18.75C24 19.9922 22.9922 21 21.75 21H2.25C1.00734 21 0 19.9922 0 18.75V15.75C0 14.5078 1.00734 13.5 2.25 13.5H21.75ZM21.75 15H9V19.5H21.75C22.1625 19.5 22.5 19.1625 22.5 18.75V15.75C22.5 15.3375 22.1625 15 21.75 15ZM1.5 15.75V18.75C1.5 19.1625 1.83562 19.5 2.25 19.5H7.5V15H2.25C1.83562 15 1.5 15.3375 1.5 15.75Z" fill="black"/>
</svg>
