<svg width="24" height="24" viewBox="0 0 24 24" fill="none" xmlns="http://www.w3.org/2000/svg">
<path d="M6.5 2.33325C8.35833 2.33325 10.2375 2.69159 12 3.27492C13.7625 2.69159 15.6417 2.33325 17.5 2.33325C19.8083 2.33325 21.9667 2.94159 22.8708 3.23325C23.5708 3.45825 24 4.10409 24 4.79575V17.7708C24 18.8916 22.9542 19.6374 21.9583 19.4624C21.1875 19.3291 19.8208 19.1624 17.8333 19.1624C15.3792 19.1624 13.7583 20.1749 13.2 20.5833C12.8875 20.8124 12.4833 20.9833 12.025 20.9958C12.0167 20.9958 12.0042 20.9958 11.9958 20.9958C11.9917 20.9958 11.9917 20.9958 11.9875 20.9958C11.9833 20.9958 11.9792 20.9958 11.975 20.9958C11.55 20.9958 11.1583 20.8541 10.85 20.6458C10.2292 20.2291 8.41667 19.1666 6.16667 19.1666C4.28333 19.1666 2.82917 19.3499 2 19.4874C1 19.6541 0 18.8999 0 17.8124V4.79575C0 4.10409 0.429167 3.45825 1.12917 3.23325C2.03333 2.94159 4.19167 2.33325 6.5 2.33325ZM12.6667 19.3333C13.5125 18.7708 15.2958 17.8333 17.8333 17.8333C19.8958 17.8333 21.3375 18.0083 22.1833 18.1499C22.2875 18.1666 22.4208 18.1374 22.525 18.0541C22.6167 17.9791 22.6667 17.8874 22.6667 17.7708V4.79575C22.6667 4.64992 22.5792 4.54159 22.4625 4.50409C21.6083 4.22909 19.6042 3.66659 17.5 3.66659C15.8917 3.66659 14.2458 3.96242 12.6667 4.45825V19.3333ZM11.3333 4.45825C9.75417 3.95825 8.10833 3.66659 6.5 3.66659C4.39583 3.66659 2.39167 4.22909 1.5375 4.49992C1.42083 4.53742 1.33333 4.64992 1.33333 4.79159V17.8124C1.33333 17.9249 1.37917 18.0166 1.4625 18.0833C1.55417 18.1583 1.675 18.1874 1.77917 18.1708C2.66667 18.0208 4.19583 17.8291 6.16667 17.8291C8.53333 17.8291 10.45 18.8166 11.3333 19.3666V4.45825Z" fill="black"/>
</svg>
