<svg width="24" height="24" viewBox="0 0 24 24" fill="none" xmlns="http://www.w3.org/2000/svg">
<path d="M14.25 4.5H9.75C9.3375 4.5 9 4.16437 9 3.75C9 3.33562 9.3375 3 9.75 3H14.25C14.6625 3 15 3.33562 15 3.75C15 4.16437 14.6625 4.5 14.25 4.5Z" fill="black"/>
<path fill-rule="evenodd" clip-rule="evenodd" d="M17 13C17 15.7614 14.7614 18 12 18C9.23858 18 7 15.7614 7 13C7 10.2386 9.23858 8 12 8C14.7614 8 17 10.2386 17 13ZM15 13C15 14.6569 13.6569 16 12 16C10.3431 16 9 14.6569 9 13C9 11.3431 10.3431 10 12 10C13.6569 10 15 11.3431 15 13Z" fill="black"/>
<path fill-rule="evenodd" clip-rule="evenodd" d="M6 0H18C19.6547 0 21 1.34297 21 3V21C21 22.657 19.657 24 18 24H6C4.34297 24 3 22.657 3 21V3C3 1.34297 4.34297 0 6 0ZM18 22.5C18.8269 22.5 19.5 21.8269 19.5 21V3C19.5 2.17313 18.8269 1.5 18 1.5H6C5.17313 1.5 4.5 2.17313 4.5 3V21C4.5 21.8269 5.17313 22.5 6 22.5H18Z" fill="black"/>
</svg>
