<svg width="24" height="24" viewBox="0 0 24 24" fill="none" xmlns="http://www.w3.org/2000/svg">
<path d="M3 14.25V3C3 1.34297 4.34297 0 6 0H18C19.6547 0 21 1.34297 21 3V14.25C21 16.3219 19.3219 18 17.25 18H15V21C15 22.6547 13.6547 24 12 24C10.3453 24 9 22.6547 9 21V18H6.75C4.67906 18 3 16.3219 3 14.25ZM17.25 16.5C18.4922 16.5 19.5 15.4922 19.5 14.25V13.5H4.5V14.25C4.5 15.4922 5.50734 16.5 6.75 16.5H10.5V21C10.5 21.8297 11.1703 22.5 12 22.5C12.8297 22.5 13.5 21.8297 13.5 21V16.5H17.25ZM19.5 3C19.5 2.17172 18.8297 1.5 18 1.5H13.5V5.25C13.5 5.6625 13.1625 6 12.75 6C12.3375 6 12 5.6625 12 5.25V1.5H9V6.75C9 7.1625 8.6625 7.5 8.25 7.5C7.8375 7.5 7.5 7.1625 7.5 6.75V1.5H6C5.17172 1.5 4.5 2.17172 4.5 3V12H19.5V3Z" fill="black"/>
</svg>
