<svg width="24" height="23" viewBox="0 0 24 23" fill="none" xmlns="http://www.w3.org/2000/svg">
<path d="M4.66667 1C5.03333 1 5.33333 1.2985 5.33333 1.66667V3.66667H13.3333V1.66667C13.3333 1.2985 13.6333 1 14 1C14.3667 1 14.6667 1.2985 14.6667 1.66667V3.66667H16C17.4708 3.66667 18.6667 4.86042 18.6667 6.33333V9.02917C18.4458 9.00833 18.225 9 18 9C17.775 9 17.5542 9.00833 17.3333 9.02917V9H1.33333V19.6667C1.33333 20.4042 1.93042 21 2.66667 21H12.3417C12.7625 21.5042 13.2458 21.9542 13.7833 22.3333H2.66667C1.19375 22.3333 0 21.1375 0 19.6667V6.33333C0 4.86042 1.19375 3.66667 2.66667 3.66667H4V1.66667C4 1.2985 4.3 1 4.66667 1ZM16 5H2.66667C1.93042 5 1.33333 5.59583 1.33333 6.33333V7.66667H17.3333V6.33333C17.3333 5.59583 16.7375 5 16 5ZM17.9625 13C18.3667 13 18.6292 13.3 18.6292 13.6667V15.6667H20C20.3667 15.6667 20.6667 15.9667 20.6667 16.3333C20.6667 16.7 20.3667 17 20 17H17.9625C17.6333 17 17.2958 16.7 17.2958 16.3333V13.6667C17.2958 13.3 17.6333 13 17.9625 13ZM12 16.3333C12 13.0208 14.6875 10.3333 18 10.3333C21.3125 10.3333 24 13.0208 24 16.3333C24 19.6458 21.3125 22.3333 18 22.3333C14.6875 22.3333 12 19.6458 12 16.3333ZM18 21C20.5792 21 22.6667 18.9125 22.6667 16.3333C22.6667 13.7542 20.5792 11.6667 18 11.6667C15.4208 11.6667 13.3333 13.7542 13.3333 16.3333C13.3333 18.9125 15.4208 21 18 21Z" fill="black"/>
</svg>
