<svg width="25" height="24" viewBox="0 0 25 24" fill="none" xmlns="http://www.w3.org/2000/svg">
<path d="M20 12.75C20 13.1625 19.6625 13.5 19.25 13.5H11.75C11.3375 13.5 11 13.1625 11 12.75C11 12.3375 11.3375 12 11.75 12H19.25C19.6625 12 20 12.3375 20 12.75ZM5.75 19.5C5.33562 19.5 5 19.1625 5 18.75C5 18.3375 5.33562 18 5.75 18H13.25C13.6625 18 14 18.3375 14 18.75C14 19.1625 13.6625 19.5 13.25 19.5H5.75ZM9.5 12.75C9.5 13.9922 8.49219 15 7.25 15C6.00734 15 5 13.9922 5 12.75C5 11.5078 6.00734 10.5 7.25 10.5C8.49219 10.5 9.5 11.5078 9.5 12.75ZM6.5 12.75C6.5 13.1625 6.8375 13.5 7.25 13.5C7.6625 13.5 8 13.1625 8 12.75C8 12.3375 7.6625 12 7.25 12C6.8375 12 6.5 12.3375 6.5 12.75ZM15.5 18.75C15.5 17.5078 16.5078 16.5 17.75 16.5C18.9922 16.5 20 17.5078 20 18.75C20 19.9922 18.9922 21 17.75 21C16.5078 21 15.5 19.9922 15.5 18.75ZM18.5 18.75C18.5 18.3375 18.1625 18 17.75 18C17.3375 18 17 18.3375 17 18.75C17 19.1625 17.3375 19.5 17.75 19.5C18.1625 19.5 18.5 19.1625 18.5 18.75ZM7.25 0C7.6625 0 8 0.335812 8 0.75V3H17V0.75C17 0.335812 17.3375 0 17.75 0C18.1625 0 18.5 0.335812 18.5 0.75V3H20C21.6547 3 23 4.34297 23 6V21C23 22.6547 21.6547 24 20 24H5C3.34297 24 2 22.6547 2 21V6C2 4.34297 3.34297 3 5 3H6.5V0.75C6.5 0.335812 6.8375 0 7.25 0ZM21.5 9H3.5V21C3.5 21.8297 4.17172 22.5 5 22.5H20C20.8297 22.5 21.5 21.8297 21.5 21V9ZM20 4.5H5C4.17172 4.5 3.5 5.17031 3.5 6V7.5H21.5V6C21.5 5.17031 20.8297 4.5 20 4.5Z" fill="black"/>
</svg>
