<svg width="24" height="24" viewBox="0 0 24 24" fill="none" xmlns="http://www.w3.org/2000/svg">
<path d="M6.55499 21.0534C6.55124 21.0456 6.54374 21.0339 6.53624 21.0221L0.28608 9.72518C0.279893 9.71344 0.273818 9.7017 0.267818 9.68996C-0.291532 8.653 0.0527927 7.33431 1.04437 6.73561L8.27624 2.37914C9.27374 1.77755 10.5525 2.13457 11.13 3.1767L17.3925 14.4952C17.9662 15.5321 17.6287 16.8587 16.6425 17.43C16.635 17.4691 16.6237 17.473 16.6162 17.4808L9.40499 21.8243C9.39749 21.8282 9.38999 21.8321 9.37874 21.84C8.39249 22.423 7.13624 22.0747 6.55499 21.0534ZM8.78999 20.7482L8.79374 20.7443L16.0275 16.3891L16.0312 16.3852C16.4512 16.123 16.5937 15.5556 16.3462 15.1134L10.095 3.81374C9.84749 3.36491 9.29624 3.21074 8.86499 3.47017L1.65487 7.81561C1.22999 8.06996 1.08074 8.63344 1.31587 9.07952L1.31924 9.08735L7.58249 20.4078L7.58624 20.4117C7.80374 20.8421 8.36999 20.9908 8.78999 20.7482ZM13.3987 20.8617C13.4325 20.8656 13.4662 20.8695 13.5 20.8695H21.9C22.3987 20.8695 22.8 20.4508 22.8 19.9304V6.74735C22.8 6.26213 22.3987 5.80822 21.9 5.80822H13.9875L13.3012 4.60104C13.3687 4.59439 13.4325 4.55604 13.5 4.55604H21.9C23.0587 4.55604 24 5.57226 24 6.74735V19.9304C24 21.1395 23.0587 22.1217 21.9 22.1217H13.5C12.99 22.1217 12.5175 21.93 12.1537 21.5778L13.3987 20.8617Z" fill="black"/>
</svg>
