<svg width="24" height="24" viewBox="0 0 24 24" fill="none" xmlns="http://www.w3.org/2000/svg">
<g clip-path="url(#clip0_536_8459)">
<path d="M6.375 12C6.375 12.6234 5.87344 13.125 5.25 13.125C4.62891 13.125 4.125 12.6234 4.125 12C4.125 11.3766 4.62891 10.875 5.25 10.875C5.87344 10.875 6.375 11.3766 6.375 12ZM8.625 12C8.625 11.3766 9.12656 10.875 9.75 10.875C10.3734 10.875 10.875 11.3766 10.875 12C10.875 12.6234 10.3734 13.125 9.75 13.125C9.12656 13.125 8.625 12.6234 8.625 12ZM8.625 15.75C8.625 16.3734 8.12344 16.875 7.5 16.875C6.87656 16.875 6.375 16.3734 6.375 15.75C6.375 15.1266 6.87656 14.625 7.5 14.625C8.12344 14.625 8.625 15.1266 8.625 15.75ZM13.125 12C13.125 11.3766 13.6266 10.875 14.25 10.875C14.8734 10.875 15.375 11.3766 15.375 12C15.375 12.6234 14.8734 13.125 14.25 13.125C13.6266 13.125 13.125 12.6234 13.125 12ZM13.125 15.75C13.125 16.3734 12.6234 16.875 12 16.875C11.3766 16.875 10.875 16.3734 10.875 15.75C10.875 15.1266 11.3766 14.625 12 14.625C12.6234 14.625 13.125 15.1266 13.125 15.75ZM17.625 12C17.625 11.3766 18.1266 10.875 18.75 10.875C19.3734 10.875 19.875 11.3766 19.875 12C19.875 12.6234 19.3734 13.125 18.75 13.125C18.1266 13.125 17.625 12.6234 17.625 12ZM17.625 15.75C17.625 16.3734 17.1234 16.875 16.5 16.875C15.8766 16.875 15.375 16.3734 15.375 15.75C15.375 15.1266 15.8766 14.625 16.5 14.625C17.1234 14.625 17.625 15.1266 17.625 15.75ZM12.75 0C13.9922 0 15 1.00734 15 2.25V3.75C15 4.99219 13.9922 6 12.75 6H9V7.5H19.8984C21.3891 7.5 22.6547 8.59687 22.8656 10.0734L23.9719 17.7891C23.9906 17.9297 24 18.0703 24 18.2109V21C24 22.6547 22.6547 24 21 24H3C1.34297 24 0 22.6547 0 21V18.2109C0 18.0703 0.0100781 17.9297 0.03015 17.7891L1.13203 10.0734C1.34297 8.59687 2.60906 7.5 4.10203 7.5H7.5V6H3.75C2.50734 6 1.5 4.99219 1.5 3.75V2.25C1.5 1.00734 2.50734 0 3.75 0H12.75ZM12.75 1.5H3.75C3.33562 1.5 3 1.83562 3 2.25V3.75C3 4.16438 3.33562 4.5 3.75 4.5H12.75C13.1625 4.5 13.5 4.16438 13.5 3.75V2.25C13.5 1.83562 13.1625 1.5 12.75 1.5ZM3 22.5H21C21.8297 22.5 22.5 21.8297 22.5 21V19.5H1.5V21C1.5 21.8297 2.17172 22.5 3 22.5ZM19.8984 9H4.10203C3.35531 9 2.7225 9.54844 2.61703 10.2891L1.515 18H22.4859L21.3844 10.2891C21.2766 9.54844 20.6437 9 19.8984 9Z" fill="black"/>
</g>
<defs>
<clipPath id="clip0_536_8459">
<rect width="24" height="24" fill="white"/>
</clipPath>
</defs>
</svg>
