<svg width="25" height="25" viewBox="0 0 25 25" fill="none" xmlns="http://www.w3.org/2000/svg">
<path d="M2 3.90625C2 2.61182 3.00734 1.5625 4.25 1.5625H8.75C9.99219 1.5625 11 2.61182 11 3.90625V11.7188C11 13.0127 9.99219 14.0625 8.75 14.0625H4.25C3.00734 14.0625 2 13.0127 2 11.7188V3.90625ZM3.5 3.90625V11.7188C3.5 12.1484 3.83562 12.5 4.25 12.5H8.75C9.1625 12.5 9.5 12.1484 9.5 11.7188V3.90625C9.5 3.47461 9.1625 3.125 8.75 3.125H4.25C3.83562 3.125 3.5 3.47461 3.5 3.90625ZM14 13.2812C14 11.9873 15.0078 10.9375 16.25 10.9375H20.75C21.9922 10.9375 23 11.9873 23 13.2812V21.0938C23 22.3877 21.9922 23.4375 20.75 23.4375H16.25C15.0078 23.4375 14 22.3877 14 21.0938V13.2812ZM15.5 13.2812V21.0938C15.5 21.5234 15.8375 21.875 16.25 21.875H20.75C21.1625 21.875 21.5 21.5234 21.5 21.0938V13.2812C21.5 12.8516 21.1625 12.5 20.75 12.5H16.25C15.8375 12.5 15.5 12.8516 15.5 13.2812ZM8.75 15.625C9.99219 15.625 11 16.6748 11 17.9688V21.0938C11 22.3877 9.99219 23.4375 8.75 23.4375H4.25C3.00734 23.4375 2 22.3877 2 21.0938V17.9688C2 16.6748 3.00734 15.625 4.25 15.625H8.75ZM8.75 17.1875H4.25C3.83562 17.1875 3.5 17.5391 3.5 17.9688V21.0938C3.5 21.5234 3.83562 21.875 4.25 21.875H8.75C9.1625 21.875 9.5 21.5234 9.5 21.0938V17.9688C9.5 17.5391 9.1625 17.1875 8.75 17.1875ZM14 3.90625C14 2.61182 15.0078 1.5625 16.25 1.5625H20.75C21.9922 1.5625 23 2.61182 23 3.90625V7.03125C23 8.3252 21.9922 9.375 20.75 9.375H16.25C15.0078 9.375 14 8.3252 14 7.03125V3.90625ZM15.5 3.90625V7.03125C15.5 7.46094 15.8375 7.8125 16.25 7.8125H20.75C21.1625 7.8125 21.5 7.46094 21.5 7.03125V3.90625C21.5 3.47461 21.1625 3.125 20.75 3.125H16.25C15.8375 3.125 15.5 3.47461 15.5 3.90625Z" fill="black"/>
</svg>
