<svg width="24" height="25" viewBox="0 0 24 25" fill="none" xmlns="http://www.w3.org/2000/svg">
<g clip-path="url(#clip0_1065_82)">
<path d="M15.6 9.26699C15.6 5.62199 12.1088 2.66699 7.80001 2.66699C3.49126 2.66699 9.55123e-06 5.62199 9.55123e-06 9.26699C9.55123e-06 10.8225 0.640134 12.2497 1.70401 13.377C1.13513 14.5897 0.254635 15.5546 0.243385 15.5662C-0.000890464 15.8226 -0.0682029 16.2004 0.0720845 16.5289C0.215785 16.857 0.53476 17.067 0.88726 17.067C2.91938 17.067 4.55326 16.2896 5.60851 15.5981C6.30376 15.7695 7.03876 15.867 7.80001 15.867C12.1088 15.867 15.6 12.912 15.6 9.26699ZM7.80001 14.667C7.16401 14.667 6.52351 14.5883 5.89688 14.4333L5.38876 14.307L4.95001 14.5957C4.18388 15.0975 3.01576 15.6829 1.58063 15.8321C1.93227 15.378 2.41688 14.6835 2.78963 13.8889L3.13621 13.1497L2.57701 12.5557C1.67626 11.5995 1.20001 10.4632 1.20001 9.26699C1.20001 6.28949 4.12876 3.86699 7.80001 3.86699C11.4713 3.86699 14.4 6.28949 14.4 9.26699C14.4 12.2445 11.4375 14.667 7.80001 14.667ZM22.74 18.9945C23.535 17.9332 24 16.6507 24 15.267C24 11.622 20.775 8.66699 16.8 8.66699C16.7882 8.66699 16.7768 8.66853 16.765 8.6686C16.7813 8.86574 16.8 9.06449 16.8 9.26699C16.8 9.47062 16.7825 9.67049 16.7647 9.87037C16.7775 9.87074 16.7888 9.86699 16.8 9.86699C20.1083 9.86699 22.8 12.2895 22.8 15.267C22.8 16.3429 22.4466 17.3839 21.7781 18.2767L21.2876 18.9319L21.7185 19.6275C21.9648 20.0254 22.2128 20.3677 22.4164 20.6302C21.7316 20.5586 21.0495 20.3818 20.3801 20.1019L19.9043 19.9029L19.4325 20.1113C18.5963 20.4795 17.7113 20.667 16.8 20.667C13.9856 20.667 11.6363 18.9079 10.9913 16.5532C10.6125 16.6783 10.2225 16.7832 9.82126 16.8634C10.6013 19.7332 13.3913 21.867 16.8 21.867C17.9183 21.867 18.9728 21.6265 19.917 21.2092C20.8125 21.5857 21.8888 21.867 23.1113 21.867C23.4637 21.867 23.7829 21.6581 23.9261 21.33C24.0664 21.0016 23.9991 20.6235 23.7548 20.3674C23.7488 20.3595 23.235 19.797 22.74 18.9945Z" fill="black"/>
</g>
<defs>
<clipPath id="clip0_1065_82">
<rect width="24" height="24" fill="white" transform="translate(0 0.333496)"/>
</clipPath>
</defs>
</svg>
