<svg width="24" height="24" viewBox="0 0 24 24" fill="none" xmlns="http://www.w3.org/2000/svg">
<path d="M12 10.5C11.175 10.5 10.5 11.175 10.5 12C10.5 12.825 11.1741 13.5 12 13.5C12.8259 13.5 13.5 12.8259 13.5 12C13.5 11.1741 12.825 10.5 12 10.5ZM23.25 21H22.5V4.5C22.5 2.84297 21.157 1.5 19.5 1.5H4.5C2.84297 1.5 1.5 2.84297 1.5 4.5V21H0.707813C0.3375 21 0 21.3375 0 21.75C0 22.1625 0.3375 22.5 0.707813 22.5H23.2078C23.6203 22.5 23.9578 22.1625 23.9578 21.75C23.9578 21.3375 23.6625 21 23.25 21ZM21 21H3V4.5C3 3.67406 3.67406 3 4.5 3H19.5C20.3259 3 21 3.67406 21 4.5V21ZM12 4.5C7.85625 4.5 4.5 7.85625 4.5 12C4.5 16.1438 7.85719 19.5 12 19.5C16.1428 19.5 19.5 16.1423 19.5 12C19.5 7.85766 16.1438 4.5 12 4.5ZM12 18C8.68359 18 6 15.3164 6 12C6 8.68359 8.68359 6 12 6C15.3164 6 18 8.68359 18 12C17.9953 15.3094 15.3094 17.9953 12 18Z" fill="black"/>
</svg>
