<svg width="24" height="24" viewBox="0 0 24 24" fill="none" xmlns="http://www.w3.org/2000/svg">
<g clip-path="url(#clip0_436_8452)">
<path d="M18.375 1.5H5.625C5.00156 1.5 4.5 2.00156 4.5 2.625V10.4297L3.63281 9.7125C3.43594 9.55312 3.225 9.41719 3 9.30938V2.625C3 1.17656 4.17656 0 5.625 0H18.375C19.8234 0 21 1.17656 21 2.625V9.30938C20.775 9.41719 20.5641 9.55312 20.3719 9.7125L19.5 10.4297V2.625C19.5 2.00156 18.9984 1.5 18.375 1.5ZM1.64062 12C1.56562 12 1.5 12.0609 1.5 12.1406V21C1.5 21.8297 2.17031 22.5 3 22.5H21C21.8297 22.5 22.5 21.8297 22.5 21V12.1406C22.5 12.0656 22.4391 12 22.3594 12C22.3266 12 22.2984 12.0094 22.2703 12.0328L13.8047 18.9891C13.2984 19.4063 12.6562 19.6359 12 19.6359C11.3438 19.6359 10.7016 19.4063 10.1953 18.9891L1.725 12.0328C1.70156 12.0141 1.66875 12 1.63594 12H1.64062ZM0 12.1406C0 11.2359 0.73125 10.5 1.64062 10.5C2.02031 10.5 2.38594 10.6312 2.68125 10.8703L11.1469 17.8266C11.3859 18.0234 11.6906 18.1312 12 18.1312C12.3094 18.1312 12.6141 18.0234 12.8531 17.8266L21.3234 10.8703C21.6187 10.6312 21.9844 10.5 22.3641 10.5C23.2688 10.5 24.0047 11.2313 24.0047 12.1406V21C24.0047 22.6547 22.6594 24 21.0047 24H3C1.34531 24 0 22.6547 0 21V12.1406ZM8.25 6H15.75C16.1625 6 16.5 6.3375 16.5 6.75C16.5 7.1625 16.1625 7.5 15.75 7.5H8.25C7.8375 7.5 7.5 7.1625 7.5 6.75C7.5 6.3375 7.8375 6 8.25 6ZM8.25 10.5H15.75C16.1625 10.5 16.5 10.8375 16.5 11.25C16.5 11.6625 16.1625 12 15.75 12H8.25C7.8375 12 7.5 11.6625 7.5 11.25C7.5 10.8375 7.8375 10.5 8.25 10.5Z" fill="black"/>
</g>
<defs>
<clipPath id="clip0_436_8452">
<rect width="24" height="24" fill="white"/>
</clipPath>
</defs>
</svg>
