<svg width="24" height="24" viewBox="0 0 24 24" fill="none" xmlns="http://www.w3.org/2000/svg">
<path d="M7.67857 1C8.3317 1 8.85714 1.52545 8.85714 2.17857C8.85714 2.8317 8.3317 3.35714 7.67857 3.35714H3.35714V7.67857C3.35714 8.3317 2.8317 8.85714 2.17857 8.85714C1.52545 8.85714 1 8.3317 1 7.67857V2.17857C1 1.52545 1.52545 1 2.17857 1H7.67857ZM1 16.3214C1 15.6683 1.52545 15.1429 2.17857 15.1429C2.8317 15.1429 3.35714 15.6683 3.35714 16.3214V20.6429H7.67857C8.3317 20.6429 8.85714 21.1683 8.85714 21.8214C8.85714 22.4746 8.3317 23 7.67857 23H2.17857C1.52545 23 1 22.4746 1 21.8214V16.3214ZM21.8214 1C22.4746 1 23 1.52545 23 2.17857V7.67857C23 8.3317 22.4746 8.85714 21.8214 8.85714C21.1683 8.85714 20.6429 8.3317 20.6429 7.67857V3.35714H16.3214C15.6683 3.35714 15.1429 2.8317 15.1429 2.17857C15.1429 1.52545 15.6683 1 16.3214 1H21.8214ZM20.6429 16.3214C20.6429 15.6683 21.1683 15.1429 21.8214 15.1429C22.4746 15.1429 23 15.6683 23 16.3214V21.8214C23 22.4746 22.4746 23 21.8214 23H16.3214C15.6683 23 15.1429 22.4746 15.1429 21.8214C15.1429 21.1683 15.6683 20.6429 16.3214 20.6429H20.6429V16.3214Z" fill="black"/>
</svg>
