<svg width="24" height="24" viewBox="0 0 24 24" fill="none" xmlns="http://www.w3.org/2000/svg">
<g clip-path="url(#clip0_614_8528)">
<path d="M1.45503 3.19122C1.06503 2.88372 0.498778 2.95497 0.191278 3.34497C-0.116222 3.73497 -0.0449723 4.30122 0.345028 4.60872L22.545 22.0087C22.935 22.3162 23.5013 22.245 23.8088 21.855C24.1163 21.465 24.045 20.8987 23.655 20.5912L19.71 17.5012C21.195 15.9787 22.2 14.2725 22.7063 13.0612C22.83 12.765 22.83 12.435 22.7063 12.1387C22.1475 10.8 20.9738 8.84997 19.2188 7.22247C17.4563 5.57997 15.03 4.19997 12 4.19997C9.44253 4.19997 7.31253 5.18622 5.65128 6.47997L1.45503 3.19122ZM7.11753 7.62747C8.47503 6.66372 10.1063 5.99997 12 5.99997C14.445 5.99997 16.455 7.10997 17.9963 8.53872C19.44 9.88122 20.4375 11.475 20.9475 12.6C20.475 13.65 19.575 15.105 18.2888 16.3837L16.2713 14.8012C16.6125 14.1412 16.8038 13.395 16.8038 12.6C16.8038 9.94872 14.655 7.79997 12.0038 7.79997C10.7963 7.79997 9.69003 8.24622 8.84628 8.98122L7.11753 7.62747ZM14.8088 13.6575L11.7525 11.2612C11.91 10.9425 12 10.5787 12 10.2C12 9.99372 11.9738 9.79122 11.925 9.59997C11.9513 9.59997 11.9738 9.59997 12 9.59997C13.6575 9.59997 15 10.9425 15 12.6C15 12.9712 14.9325 13.3275 14.8088 13.6575ZM15.1613 18.5437C14.205 18.9525 13.1513 19.2 12 19.2C9.55503 19.2 7.54503 18.09 6.00378 16.6612C4.56003 15.3187 3.56253 13.725 3.05253 12.6C3.36378 11.91 3.85878 11.0437 4.53003 10.17L3.11628 9.05622C2.26128 10.17 1.65003 11.28 1.29378 12.1387C1.17003 12.435 1.17003 12.765 1.29378 13.0612C1.85253 14.4 3.02628 16.35 4.78128 17.9775C6.54378 19.62 8.97003 21 12 21C13.7925 21 15.3713 20.5162 16.7325 19.7812L15.1613 18.5437ZM7.20003 12.6C7.20003 15.2512 9.34878 17.4 12 17.4C12.4988 17.4 12.9788 17.325 13.4325 17.1825L11.325 15.525C10.4438 15.3225 9.70878 14.73 9.31128 13.9387L7.20753 12.2812C7.20003 12.3862 7.19628 12.4912 7.19628 12.6H7.20003Z" fill="black"/>
</g>
<defs>
<clipPath id="clip0_614_8528">
<rect width="24" height="24" fill="white"/>
</clipPath>
</defs>
</svg>
