<svg width="24" height="24" viewBox="0 0 24 24" fill="none" xmlns="http://www.w3.org/2000/svg">
<g clip-path="url(#clip0_633_8449)">
<path d="M4.67497 19.8399C5.04305 19.8399 5.34122 19.5534 5.34122 19.2359C5.34122 18.9184 5.04297 18.5959 4.67497 18.5959C4.30697 18.5959 4.00872 18.8825 4.00872 19.2359C4.00872 19.5894 4.30414 19.8399 4.67497 19.8399ZM5.34164 16.6399C5.34164 16.9932 5.64005 17.2439 6.00789 17.2439C6.37597 17.2439 6.67414 16.9574 6.67414 16.6399C6.67414 16.2864 6.37589 15.9999 6.00789 15.9999C5.63747 15.9999 5.34164 16.2879 5.34164 16.6399ZM3.34122 15.9999C2.97314 15.9999 2.71205 16.2865 2.71205 16.6399C2.71205 16.9932 3.01039 17.2439 3.3783 17.2439C3.7463 17.2439 4.04455 16.9574 4.04455 16.6399C4.00747 16.2879 3.70914 15.9999 3.34122 15.9999ZM23.8875 15.9479C23.7041 15.9679 23.525 15.9999 23.3333 15.9999C20.7541 15.9999 18.6666 13.9959 18.6666 11.5199C18.6666 11.3353 18.7006 11.1597 18.7232 10.9811C18.4083 10.9119 18.1458 10.8799 17.9666 10.8799H17.3333C17.0772 10.8867 16.8462 10.8818 16.6996 10.9137C16.3117 10.998 16.0371 11.2267 15.8171 11.4105C15.7195 11.4917 15.6192 11.5761 15.5542 11.6061C15.4813 11.6399 15.3472 11.6642 15.2157 11.688C14.9346 11.7392 14.5845 11.8024 14.2836 12.0368C13.9791 12.2718 13.8361 12.5904 13.7216 12.846C13.6682 12.9641 13.6136 13.086 13.5641 13.146C13.5146 13.206 13.404 13.2847 13.2986 13.361C13.0668 13.526 12.7806 13.731 12.6115 14.0698C12.4449 14.4048 12.4553 14.749 12.4644 15.0266C12.4683 15.1572 12.4722 15.2928 12.454 15.3703C12.4358 15.444 12.372 15.5609 12.3108 15.6734C12.1754 15.9209 12.0062 16.229 12.0049 16.6086C12.0036 16.9747 12.165 17.2786 12.2939 17.5222C12.3564 17.6409 12.4215 17.7634 12.441 17.8459C12.4592 17.9303 12.454 18.0684 12.4475 18.2022C12.4358 18.4771 12.4214 18.819 12.5815 19.151C12.7482 19.496 13.0357 19.7062 13.2661 19.8746C13.3703 19.9502 13.477 20.0289 13.5225 20.0858C13.5733 20.1483 13.628 20.2727 13.6813 20.3927C13.7933 20.6483 13.9339 20.9671 14.2334 21.2035C14.5353 21.4422 14.8855 21.509 15.1667 21.5634C15.2956 21.5878 15.4284 21.6128 15.4974 21.6465C15.5651 21.679 15.6666 21.7659 15.7656 21.8503C15.9816 22.0353 16.251 22.2655 16.6322 22.3535C17.0084 22.4385 17.3531 22.351 17.6306 22.281C17.7581 22.2485 17.8896 22.2148 17.9689 22.2148C17.9702 22.2148 17.9702 22.2148 17.9702 22.2148C18.0406 22.2154 18.1681 22.2491 18.2905 22.2823C18.4916 22.3359 18.7291 22.3999 18.9875 22.3999C19.0891 22.3999 19.1957 22.3905 19.3038 22.3668C19.6917 22.2824 19.9663 22.0537 20.1863 21.87C20.2839 21.7888 20.3841 21.7044 20.4493 21.6744C20.5221 21.6406 20.6562 21.6162 20.7876 21.5925C21.0688 21.5412 21.4189 21.4781 21.7197 21.2438C22.0243 21.0088 22.1676 20.6902 22.2818 20.4346C22.3352 20.3165 22.3899 20.1946 22.4393 20.1346C22.4888 20.0746 22.5994 19.9958 22.7048 19.9196C22.9365 19.7547 23.2227 19.5497 23.3919 19.2108C23.5585 18.8764 23.5481 18.5316 23.5389 18.2548C23.535 18.1236 23.5311 17.9879 23.5493 17.9104C23.5676 17.8367 23.6314 17.7198 23.6925 17.6073C23.8291 17.3239 23.9625 17.0519 24 16.6719C24 16.5039 23.9625 16.2519 23.8875 15.9479ZM22.25 17.6239C22.1927 17.8627 22.2005 18.0915 22.207 18.2931C22.2096 18.4168 22.2161 18.6043 22.1888 18.6587C22.1628 18.7118 22.0092 18.8212 21.909 18.8937C21.7411 19.0137 21.551 19.1493 21.3923 19.3417C21.2349 19.5329 21.1411 19.7425 21.0579 19.9273C21.0071 20.0404 20.9303 20.211 20.8822 20.2479C20.8379 20.281 20.6504 20.3148 20.5385 20.3348C20.3328 20.3723 20.0997 20.4148 19.8681 20.5223C19.6429 20.6267 19.4672 20.7742 19.311 20.9042C19.2147 20.9842 19.0702 21.1054 19.009 21.1186C18.9518 21.1373 18.7682 21.0823 18.6485 21.0504C18.448 20.9961 18.1889 20.9429 17.9664 20.9348C17.7126 20.9348 17.4847 20.9929 17.2843 21.0442C17.1685 21.0742 16.9889 21.1204 16.9394 21.1085C16.8834 21.0948 16.7377 20.9698 16.6492 20.8948C16.493 20.761 16.316 20.6098 16.0896 20.501C15.8618 20.3916 15.63 20.3472 15.4258 20.3079C15.3113 20.286 15.1213 20.2498 15.077 20.2148C15.0314 20.1779 14.9533 20.0004 14.9065 19.8941C14.8245 19.7086 14.732 19.498 14.5759 19.3037C14.421 19.1125 14.2349 18.9762 14.0709 18.8561C13.9642 18.778 13.8171 18.6705 13.7898 18.6136C13.765 18.5618 13.7729 18.3693 13.7781 18.255C13.7859 18.0506 13.7963 17.8186 13.7403 17.5742C13.6856 17.3298 13.5763 17.1234 13.48 16.9418C13.4215 16.8337 13.3355 16.67 13.3355 16.6125C13.3355 16.5475 13.4241 16.3875 13.4878 16.2706C13.5841 16.0944 13.6934 15.895 13.7507 15.6574C13.808 15.4186 13.8002 15.1898 13.7937 14.9882C13.7911 14.8644 13.7846 14.677 13.8119 14.6226C13.8379 14.5694 13.9915 14.4601 14.0917 14.3876C14.2597 14.2676 14.4497 14.1319 14.6084 13.9396C14.7658 13.7484 14.8596 13.5392 14.9428 13.354C14.9936 13.2408 15.0704 13.0702 15.1186 13.0333C15.1628 13.0002 15.3502 12.9664 15.4622 12.9464C15.6679 12.9089 15.9009 12.8664 16.1326 12.7589C16.3578 12.6546 16.5335 12.507 16.6897 12.3771C16.786 12.2971 16.9305 12.1759 16.9917 12.1628C17.0148 12.1581 17.1817 12.1566 17.3985 12.1565C17.6969 14.7185 19.7289 16.7685 22.3527 17.1845C22.3041 17.3999 22.2625 17.5759 22.25 17.6239ZM7.0583 12.1719C7.11247 12.1879 7.26247 12.3119 7.34997 12.3879C7.50414 12.4839 7.67914 12.6719 7.9083 12.7799C8.1361 12.8887 8.36789 12.933 8.57205 12.9724C8.68664 12.9943 8.87668 13.0312 8.92093 13.0655C8.96664 13.1039 9.04164 13.2439 9.09164 13.3839C9.1708 13.5719 9.26664 13.7839 9.4208 13.9759C9.57314 14.1653 9.75668 14.3022 9.91789 14.4227C10.0083 14.4879 10.1 14.5519 10.175 14.6319C10.4166 14.8959 10.8375 14.8839 11.1125 14.6879C11.3875 14.4519 11.3791 14.0479 11.1708 13.7839C11.0459 13.6483 10.8936 13.5296 10.7375 13.4133C10.6334 13.3358 10.5266 13.2558 10.4771 13.1945C10.425 13.1319 10.3708 13.0079 10.3166 12.8879C10.2041 12.6319 10.0666 12.3119 9.76664 12.0759C9.46664 11.8039 9.11664 11.7719 8.8333 11.6839C8.70447 11.6589 8.57168 11.6339 8.50272 11.6008C8.43747 11.6039 8.3333 11.5159 8.23747 11.4319C8.0208 11.2479 7.74997 11.0159 7.36664 10.9279C6.99164 10.8399 6.6458 10.9279 6.3708 10.9639C6.24164 11.0319 6.11247 11.0679 6.0333 11.0679C6.032 11.0679 6.032 11.0679 6.032 11.0679C5.9583 11.0639 5.7958 11.0319 5.7083 10.9639C5.4333 10.9239 5.0458 10.8279 4.69164 10.9119C4.3083 10.9639 4.03247 11.2279 3.81372 11.4119C3.71605 11.4932 3.61451 11.5776 3.54947 11.6076C3.47664 11.6039 3.34247 11.6639 3.2108 11.6879C2.92997 11.7399 2.57955 11.8039 2.27914 12.0359C1.97455 12.2719 1.83122 12.5879 1.71539 12.8439C1.6621 12.962 1.60739 13.0846 1.55793 13.1446C1.50847 13.2046 1.39914 13.2839 1.29247 13.3599C1.06205 13.5279 0.775803 13.7319 0.606637 14.0679C0.43997 14.4023 0.450387 14.7459 0.459512 15.0223C0.46342 15.1536 0.467324 15.2892 0.447791 15.3704C0.429562 15.4441 0.365833 15.561 0.304624 15.6735C0.169262 15.9239 0.00127424 16.2279 -2.99309e-05 16.6039C-0.0026341 16.972 0.158803 17.2763 0.28897 17.5215C0.35147 17.6396 0.416512 17.7615 0.436012 17.844C0.454241 17.9278 0.449033 18.0659 0.44252 18.2002C0.430799 18.4745 0.415178 18.8162 0.576645 19.1506C0.743228 19.4944 1.03081 19.7038 1.25998 19.8718C1.36415 19.9481 1.47215 20.0268 1.51773 20.0837C1.56852 20.1462 1.62319 20.2706 1.67656 20.3906C1.78848 20.6462 1.92902 20.965 2.22698 21.2006C2.52898 21.4393 2.87906 21.5068 3.16156 21.5605C3.2891 21.5855 3.42181 21.6105 3.49081 21.6436C3.55852 21.6761 3.66131 21.7636 3.75898 21.8474C3.97506 22.033 4.2444 22.263 4.62565 22.351C5.00048 22.436 5.34648 22.3485 5.62523 22.2785C5.75277 22.2454 5.94285 22.191 5.9636 22.2123C6.03523 22.2129 6.16281 22.2467 6.28514 22.2798C6.48747 22.3359 6.7208 22.3999 6.9833 22.3999C7.0848 22.3999 7.19155 22.3905 7.29955 22.3668C7.68743 22.2824 7.96205 22.0537 8.18205 21.87C8.27972 21.7888 8.37989 21.7044 8.4463 21.6738C8.51785 21.6406 8.65197 21.6156 8.7821 21.5925C9.06326 21.5413 9.41335 21.4782 9.71543 21.2438C10.02 21.0088 10.1633 20.6902 10.2775 20.4346C10.3309 20.3165 10.3856 20.1946 10.4338 20.1359C10.4871 20.0715 10.5978 19.9896 10.7044 19.9109C10.8568 19.7991 11.0299 19.6716 11.1794 19.4997C11.415 19.229 11.3773 18.8253 11.0961 18.5985C10.815 18.3716 10.3944 18.4085 10.1565 18.6785C10.1018 18.7422 10.0003 18.8166 9.89226 18.896C9.7296 19.0166 9.54476 19.1529 9.38851 19.3416C9.23105 19.5328 9.13739 19.7424 9.05405 19.9272C9.00326 20.0403 8.92651 20.211 8.87964 20.2472C8.83539 20.2803 8.64664 20.3147 8.53468 20.3347C8.32901 20.3722 8.09593 20.4147 7.86426 20.5222C7.6391 20.6266 7.4633 20.7741 7.30718 20.9041C7.21089 20.9841 7.06639 21.1054 7.00526 21.1185C6.94535 21.1372 6.76447 21.0822 6.64468 21.0504C6.44555 20.9966 6.22176 20.936 5.97051 20.9347C5.68814 20.9128 5.4826 20.9922 5.28093 21.0441C5.16505 21.0735 4.99847 21.1253 4.93597 21.1084C4.87914 21.0959 4.7333 20.9679 4.6458 20.8919C4.48955 20.7588 4.31255 20.6076 4.08622 20.4988C3.85843 20.3894 3.62539 20.345 3.42122 20.3057C3.30801 20.2838 3.1193 20.2476 3.07372 20.2126C3.02814 20.1757 2.9501 19.9982 2.90322 19.8919C2.82118 19.7064 2.7288 19.4958 2.57255 19.3015C2.41768 19.1103 2.23155 18.974 2.0663 18.8535C1.95955 18.7754 1.81118 18.6673 1.78514 18.6116C1.7604 18.5598 1.76821 18.3685 1.77342 18.2542C1.78253 18.0492 1.79295 17.8174 1.73696 17.5722C1.68233 17.3278 1.57296 17.1214 1.47533 16.9398C1.42204 16.8386 1.33217 16.6686 1.33217 16.6105C1.33217 16.5455 1.41942 16.3862 1.48312 16.2693C1.58079 16.0924 1.69008 15.8924 1.74608 15.6573C1.80337 15.4179 1.79687 15.1881 1.79033 14.9857C1.78705 14.8639 1.78205 14.6759 1.80914 14.6239C1.83518 14.5702 1.98876 14.4608 2.08901 14.3889C2.25689 14.2689 2.44564 14.1327 2.60443 13.9409C2.7606 13.7498 2.85564 13.541 2.93897 13.3565C2.98968 13.2434 3.0678 13.0722 3.11597 13.0346C3.16022 13.0015 3.34768 12.9678 3.45955 12.9478C3.66522 12.9103 3.8983 12.8678 4.12997 12.7602C4.35514 12.6559 4.53214 12.5078 4.6883 12.3778C4.78335 12.2978 4.9278 12.1766 4.98772 12.164C5.04997 12.1439 5.22914 12.1639 5.34997 12.2319C5.5491 12.285 5.77289 12.3457 6.02289 12.3469C6.27672 12.3294 6.51247 12.2888 6.71414 12.2376C6.82914 12.2079 7.0083 12.1599 7.0583 12.1719ZM15.3375 15.9999C14.9694 15.9999 14.7083 16.2865 14.7083 16.6399C14.7083 16.9932 15.0066 17.2439 15.3746 17.2439C15.7426 17.2439 16.0408 16.9574 16.0408 16.6399C16.0041 16.2879 15.7041 15.9999 15.3375 15.9999ZM16.6708 18.5599C16.3028 18.5599 16.0416 18.8465 16.0416 19.1999C16.0416 19.5534 16.3401 19.8039 16.7079 19.8039C17.076 19.8039 17.3741 19.5174 17.3741 19.1999C17.3741 18.8824 17.0375 18.5599 16.6708 18.5599ZM10.6708 7.67992C10.6708 7.3264 10.3726 7.03992 10.0046 7.03992C9.63647 7.03992 9.37539 7.32648 9.37539 7.67992C9.37539 8.03328 9.67372 8.28392 10.0416 8.28392C10.3375 8.31992 10.6708 8.03592 10.6708 7.67992ZM12.6958 3.38672C12.9431 3.40234 13.1854 3.3292 13.3871 3.27736C13.5028 3.24798 13.6825 3.20172 13.7319 3.213C13.7879 3.22675 13.9337 3.35176 14.0222 3.42676C14.1784 3.56052 14.3554 3.71168 14.5818 3.82044C14.8096 3.9298 15.0414 3.9742 15.2456 4.01356C15.3601 4.03544 15.5502 4.07232 15.5943 4.10668C15.6399 4.14356 15.7181 4.32104 15.7649 4.42732C15.8469 4.61296 15.9393 4.82356 16.0955 5.01812C16.2504 5.20928 16.4365 5.34556 16.6005 5.46572C16.7072 5.54384 16.8543 5.65136 16.8829 5.70884C16.9063 5.76072 16.8985 5.9526 16.8933 6.06696C16.8855 6.27132 16.8751 6.50336 16.9311 6.74736C16.9857 6.99172 17.0951 7.19816 17.1914 7.37976C17.25 7.48792 17.3375 7.65192 17.3375 7.70792C17.3375 7.77292 17.249 7.93292 17.1852 8.04972C17.0889 8.22596 16.9796 8.42536 16.9223 8.66332C16.865 8.90208 16.8702 9.13252 16.8754 9.33572L16.8767 9.53316C16.8689 9.88692 17.1618 10.1788 17.53 10.1864H17.543C17.905 10.1864 18.2018 9.90824 18.2093 9.55956L18.2067 9.3084C18.2041 9.17276 18.2015 9.03216 18.221 8.95028C18.2392 8.87592 18.3031 8.75904 18.3642 8.64652C18.4996 8.399 18.6688 8.09092 18.6701 7.71172C18.6714 7.34548 18.51 7.04172 18.3811 6.79812C18.3187 6.67936 18.2536 6.55696 18.2341 6.47444C18.2158 6.39008 18.221 6.25196 18.2275 6.11756C18.2393 5.8432 18.2536 5.50076 18.0935 5.16956C17.9268 4.82464 17.6393 4.61476 17.4089 4.44596C17.3048 4.37032 17.198 4.2916 17.1525 4.23472C17.1017 4.17224 17.0471 4.04784 16.9937 3.92784C16.8817 3.6722 16.7412 3.35344 16.4416 3.11744C16.1397 2.87932 15.7895 2.8118 15.5083 2.75808C15.3807 2.7337 15.248 2.70808 15.1776 2.67432C15.1083 2.64232 15.0083 2.55512 14.9083 2.47112C14.6922 2.28612 14.4229 2.05632 14.0416 1.96792C13.6628 1.8798 13.3204 1.96917 13.0433 2.0404C12.9132 2.07352 12.7231 2.11476 12.7036 2.10664C12.6333 2.10602 12.5058 2.07226 12.3834 2.03912C12.1041 1.96288 11.7541 1.86788 11.3666 1.95414C10.9791 2.03852 10.7041 2.2672 10.4875 2.45112C10.3875 2.53232 10.2875 2.61672 10.2208 2.64672C10.15 2.68032 10.0166 2.70472 9.8833 2.72832C9.60414 2.77952 9.25414 2.84272 8.95414 3.07712C8.6458 3.31232 8.50414 3.63072 8.39164 3.88632C8.33826 4.00444 8.28364 4.12632 8.23418 4.18632C8.18472 4.24632 8.0708 4.32512 7.96664 4.40152C7.7333 4.56632 7.44997 4.77152 7.27914 5.11032C7.11255 5.44532 7.12297 5.78952 7.1321 6.06712C7.13747 6.19592 7.14164 6.33192 7.1208 6.41192C7.10414 6.48392 7.00414 6.59992 6.97914 6.71192C6.8458 6.95992 6.67497 7.26792 6.67497 7.64792C6.6708 8.01592 6.8333 8.28392 6.96247 8.56392C7.02489 8.68268 7.09001 8.80516 7.10822 8.8858C7.12775 8.97456 7.12385 9.11016 7.11733 9.25332C7.11733 9.25582 7.11342 9.38332 7.11342 9.38644C7.10561 9.7376 7.39588 9.96764 7.76301 9.97804C8.1458 9.94392 8.43747 9.64792 8.44997 9.29592C8.45778 9.09092 8.4656 8.85912 8.41091 8.61272C8.35414 8.37192 8.2458 8.16392 8.14997 7.98392C8.09164 7.87192 8.00414 7.71192 8.00414 7.65192C8.00414 7.58692 8.0926 7.42692 8.15639 7.31004C8.25414 7.13592 8.36247 6.93592 8.4208 6.69592C8.4781 6.45724 8.4703 6.22832 8.46376 6.02672C8.46247 5.90472 8.45414 5.71712 8.4833 5.66272C8.5083 5.60952 8.66247 5.50032 8.76247 5.42752C8.93043 5.30752 9.12047 5.17188 9.27914 4.97952C9.4366 4.78828 9.53035 4.57872 9.6136 4.39392C9.66247 4.28072 9.74164 4.11032 9.78747 4.07352C9.8333 4.04032 10.0208 4.00632 10.1333 3.98632C10.339 3.94882 10.5721 3.90632 10.8037 3.7988C11.0289 3.69444 11.2046 3.547 11.3608 3.417C11.4571 3.337 11.6016 3.21576 11.6628 3.20264C11.7201 3.18389 11.9036 3.23889 12.0233 3.2714C12.2208 3.32472 12.4458 3.38512 12.6958 3.38672Z" fill="black"/>
</g>
<defs>
<clipPath id="clip0_633_8449">
<rect width="24" height="24" fill="white"/>
</clipPath>
</defs>
</svg>
