<svg width="24" height="24" viewBox="0 0 24 24" fill="none" xmlns="http://www.w3.org/2000/svg">
<path d="M17.6745 2.59875C16.9905 1.89047 16.0905 1.5 15.1275 1.5H5.51998C3.53458 1.5 1.91998 3.18234 1.91998 5.25V18.75C1.91998 20.8172 3.53458 22.5 5.51998 22.5H18.48C20.4658 22.5 22.08 20.8177 22.08 18.75V8.74219C22.08 7.74 21.7059 6.79828 21.0252 6.09L17.6745 2.59875ZM6.23998 3H14.88V7.5H6.23998V3ZM20.64 18.75C20.64 19.9908 19.6711 21 18.48 21H5.51998C4.32883 21 3.35998 19.9922 3.35998 18.75V5.25C3.35998 4.27359 3.96388 3.44859 4.79998 3.13828V7.5C4.79998 8.32828 5.44483 9 6.23998 9H14.88C15.6751 9 16.32 8.32828 16.32 7.5V3.37594C16.4399 3.45834 16.5525 3.5527 16.6547 3.6592L20.0072 7.15139C20.415 7.575 20.64 8.14219 20.64 8.74219V18.75ZM12 11.25C10.0141 11.25 8.39998 12.9323 8.39998 15C8.39998 17.0677 10.0146 18.75 12 18.75C13.9854 18.75 15.6 17.0677 15.6 15C15.6 12.9323 13.9845 11.25 12 11.25ZM12 17.25C10.8088 17.25 9.83998 16.2408 9.83998 15C9.83998 13.7592 10.8075 12.75 12 12.75C13.1925 12.75 14.16 13.7592 14.16 15C14.16 16.2408 13.1925 17.25 12 17.25Z" fill="black"/>
</svg>
