<svg width="24" height="24" viewBox="0 0 24 24" fill="none" xmlns="http://www.w3.org/2000/svg">
<g clip-path="url(#clip0_468_8435)">
<path d="M14.9333 8.77917C14.9042 8.69583 14.8917 8.60833 14.8917 8.52083C14.9 8.43333 14.9208 8.34583 14.9208 8.26667C14.9958 8.1875 15.0458 8.11667 15.1125 8.05833L20.0625 3.5825C20.1917 3.46417 20.3667 3.4025 20.5417 3.41125C20.7208 3.42 20.8875 3.49875 21.0042 3.63C21.0875 3.76125 21.1833 3.93417 21.175 4.11083C21.1667 4.2875 21.0875 4.45333 20.9208 4.57208L16.0083 9.05C15.9458 9.10833 15.8667 9.15417 15.7875 9.18333C15.7042 9.2125 15.6167 9.225 15.5292 9.22083C15.4417 9.21667 15.3542 9.19583 15.275 9.15833C15.1958 9.12083 15.125 9.06667 15.0667 9C15.0083 8.9375 14.9625 8.8625 14.9333 8.77917ZM6.74166 15.7958C6.65833 15.7958 6.54583 15.7458 6.52083 15.6833L2.25458 11.2833C1.16708 10.1958 0.429995 8.80417 0.139203 7.29583C-0.151714 5.78542 0.0166821 4.22292 0.622495 2.80917C0.708328 2.60917 0.842078 2.43292 1.01166 2.29642C1.18124 2.15983 1.38208 2.06688 1.59583 2.02569C1.80999 1.98452 2.03041 1.99637 2.23874 2.06025C2.44708 2.12408 2.63666 2.238 2.79041 2.39204L11.2625 11.0083C11.3792 11.1292 11.4458 11.2875 11.4458 11.4542C11.4458 11.6208 11.3792 11.7792 11.2625 11.9C11.1958 11.9667 11.1208 12.0167 11.0333 12.0542C10.95 12.0875 10.8583 12.1083 10.7667 12.1083C10.6708 12.1083 10.5792 12.0875 10.4958 12.0542C10.4083 12.0167 10.2958 11.9667 10.2667 11.9L1.84374 3.33333C1.34041 4.50208 1.20041 5.79542 1.44249 7.04583C1.68416 8.29583 2.29666 9.44167 3.19999 10.3375L7.48333 14.7583C7.57499 14.85 7.63749 14.9708 7.65833 15.1C7.68333 15.2292 7.66666 15.3625 7.61666 15.4833C7.56666 15.6042 7.47916 15.7042 7.37083 15.7792C7.25833 15.85 7.12916 15.8875 6.96249 15.8875C6.91249 15.8875 6.82083 15.8667 6.74166 15.7958ZM16.9958 10.9333C16.9333 10.8375 16.8792 10.8042 16.8417 10.725C16.8042 10.6458 16.7833 10.5583 16.7792 10.4708C16.775 10.3833 16.7875 10.2958 16.8167 10.2125C16.8458 10.1333 16.8917 10.0542 16.95 9.99167L21.4292 5.0425C21.4875 4.97792 21.5583 4.925 21.6417 4.8875C21.7208 4.85 21.8042 4.82833 21.8917 4.82417C21.9792 4.81958 22.0667 4.83292 22.15 4.86208C22.2333 4.89167 22.3083 4.93708 22.3375 4.99583C22.4375 5.055 22.4917 5.12583 22.5292 5.205C22.5667 5.28417 22.5875 5.37 22.5917 5.4575C22.5958 5.545 22.5458 5.63292 22.5542 5.71542C22.525 5.79792 22.4792 5.87375 22.4208 5.93875L17.9417 10.8875C17.8833 10.95 17.8125 11.0042 17.7333 11.0417C17.6542 11.0792 17.5667 11.1 17.4792 11.1042C17.3917 11.1083 17.3042 11.0958 17.225 11.0667C17.1417 11.0375 17.0667 10.9917 16.9625 10.9333H16.9958ZM23.7208 6.50833C23.8667 6.6125 23.9625 6.76667 23.9917 6.9375C24.0208 7.1125 23.9792 7.25417 23.8792 7.43333L20.4 12.2667C20.1083 12.7375 19.7167 13.1375 19.2125 13.4333C18.7833 13.7333 18.2542 13.9167 17.7042 13.9792C17.5708 13.9917 17.4375 14 17.3042 14C16.2833 13.9958 15.3042 13.6 14.575 12.8875L14.3167 12.6292L3.81208 23.1333C3.68624 23.2542 3.51791 23.3208 3.34291 23.3208C3.16833 23.3208 3.00083 23.2125 2.87749 23.125C2.75374 23 2.68374 22.8333 2.68208 22.6583C2.68083 22.4833 2.74791 22.3167 2.86916 22.1917L13.375 11.6875L13.1208 11.4333C12.7208 11.0208 12.3792 10.5292 12.2292 9.9875C12.0375 9.44583 11.9708 8.87083 12.0292 8.3C12.0917 7.74583 12.2792 7.2125 12.5458 6.74167C12.8833 6.27083 13.2875 5.87458 13.7625 5.58417L18.5625 2.12533C18.6708 2.02209 18.8833 1.98016 19.0583 2.0088C19.2333 2.03742 19.3917 2.13425 19.4958 2.278C19.5958 2.42167 19.6375 2.60083 19.6125 2.77542C19.5458 2.95 19.4833 3.10625 19.3417 3.20917L14.5083 6.6875C14.1875 6.86667 13.9208 7.12083 13.7167 7.42917C13.5167 7.73333 13.3875 8.07917 13.3458 8.44583C13.3083 8.81667 13.35 9.19167 13.475 9.54583C13.5958 9.9 13.7958 10.2208 14.0542 10.4917L14.75 11.1875C14.7625 11.1958 14.775 11.2042 14.7875 11.2125C14.7958 11.2208 14.8 11.2333 14.8083 11.2458L15.5083 11.9458C15.7792 12.1708 16.1 12.4083 16.4542 12.5292C16.8083 12.65 17.1875 12.6917 17.5583 12.65C17.8792 12.6125 18.2583 12.4875 18.5583 12.2917C18.8583 12.0958 19.1125 11.8333 19.2917 11.525L22.7917 6.65833C22.8417 6.5875 22.9083 6.52917 22.9833 6.48333C23.0583 6.43333 23.1417 6.40417 23.225 6.39167C23.3125 6.375 23.4042 6.37917 23.4875 6.4C23.575 6.42083 23.6542 6.42083 23.725 6.50833H23.7208ZM22.4667 22.1958C22.5875 22.325 22.6542 22.4917 22.6542 22.6292C22.65 22.8417 22.5792 23.0083 22.4208 23.1333C22.3333 23.2542 22.1292 23.325 21.9917 23.325C21.8167 23.3292 21.65 23.2625 21.5208 23.1417L14.1875 15.8083C14.0667 15.6792 14 15.5125 14.0042 15.3375C14.0042 15.1625 14.075 14.9958 14.1958 14.8708C14.3208 14.7125 14.4875 14.6792 14.6625 14.675C14.8375 14.675 15.0042 14.7417 15.1333 14.8625L22.4667 22.1958Z" fill="black"/>
</g>
<defs>
<clipPath id="clip0_468_8435">
<rect width="24" height="24" fill="white"/>
</clipPath>
</defs>
</svg>
