<svg width="24" height="25" viewBox="0 0 24 25" fill="none" xmlns="http://www.w3.org/2000/svg">
<g clip-path="url(#clip0_1065_86)">
<path d="M9.71719 2.10537C9.73594 2.03506 9.77813 1.97412 9.82969 1.92725C10.2938 1.86631 10.7672 1.8335 11.25 1.8335C11.7328 1.8335 12.2063 1.86631 12.6703 1.92725C12.7219 1.97412 12.7594 2.03506 12.7828 2.10537L13.425 4.34131C13.5891 4.9085 13.9969 5.33037 14.4797 5.56475C14.8359 5.7335 15.1734 5.93037 15.4969 6.15068C15.9375 6.45537 16.5141 6.596 17.0859 6.45537L19.3453 5.89287C19.4156 5.87412 19.4859 5.87881 19.5516 5.90225C19.8047 6.22568 20.0391 6.56787 20.25 6.92412L20.4516 7.271C20.6484 7.62256 20.8219 7.98818 20.9766 8.36318C20.9625 8.4335 20.9297 8.49912 20.8781 8.55068L19.2563 10.2241C18.8484 10.646 18.6844 11.2132 18.7266 11.7476C18.7406 11.9397 18.75 12.1366 18.75 12.3335C18.75 12.5304 18.7406 12.7272 18.7266 12.9194C18.6844 13.4538 18.8484 14.021 19.2563 14.4429L20.8734 16.1163C20.925 16.1679 20.9578 16.2335 20.9719 16.3038C20.8172 16.6788 20.6438 17.0444 20.4469 17.4007L20.25 17.7429C20.0344 18.0991 19.8 18.4366 19.5516 18.7647C19.4859 18.7882 19.4156 18.7882 19.3453 18.7741L17.0859 18.2116C16.5141 18.071 15.9422 18.2116 15.4969 18.5163C15.1734 18.7366 14.8359 18.9335 14.4797 19.1022C13.9969 19.3319 13.5844 19.7585 13.425 20.3257L12.7828 22.5616C12.7641 22.6319 12.7219 22.6929 12.6703 22.7397C12.2063 22.8007 11.7328 22.8335 11.25 22.8335C10.7672 22.8335 10.2938 22.8007 9.82969 22.7397C9.77813 22.6929 9.74063 22.6319 9.71719 22.5616L9.075 20.3257C8.91094 19.7585 8.50313 19.3366 8.02031 19.1022C7.66406 18.9335 7.32656 18.7366 7.00313 18.5163C6.5625 18.2116 5.98594 18.071 5.41406 18.2116L3.15469 18.7741C3.08438 18.7929 3.01406 18.7882 2.94844 18.7647C2.69531 18.4366 2.46094 18.0991 2.24531 17.7429L2.04844 17.4007C1.85156 17.0491 1.67813 16.6835 1.52344 16.3038C1.5375 16.2335 1.57031 16.1679 1.62188 16.1163L3.24375 14.4429C3.65156 14.021 3.81563 13.4538 3.77344 12.9194C3.75938 12.7272 3.75 12.5304 3.75 12.3335C3.75 12.1366 3.75938 11.9397 3.77344 11.7476C3.81563 11.2132 3.65156 10.646 3.24375 10.2241L1.62656 8.546C1.575 8.49443 1.54219 8.42881 1.52813 8.3585C1.68281 7.9835 1.85625 7.61787 2.05313 7.26162L2.25 6.91943C2.46563 6.56318 2.7 6.22568 2.95313 5.89756C3.01875 5.87412 3.08906 5.87412 3.15938 5.88818L5.41875 6.45068C5.99063 6.59131 6.5625 6.45068 7.00781 6.146C7.33125 5.92568 7.66875 5.72881 8.025 5.56006C8.50781 5.33037 8.92031 4.90381 9.07969 4.33662L9.72188 2.10068L9.71719 2.10537ZM11.25 0.333496C10.6406 0.333496 10.0359 0.380371 9.45 0.469434C9.37031 0.483496 9.29063 0.506934 9.21563 0.544434C8.77031 0.774121 8.42344 1.18193 8.27813 1.69287L7.63594 3.92881C7.60781 4.03193 7.51875 4.13975 7.37344 4.21006C6.94688 4.41162 6.53906 4.65068 6.15469 4.91318C6.02344 5.00225 5.88281 5.02568 5.77969 4.99756L3.52031 4.43506C3.00938 4.3085 2.48438 4.40693 2.0625 4.67412C1.99219 4.71631 1.93125 4.77256 1.87969 4.83818C1.54688 5.25537 1.2375 5.69131 0.960939 6.15068L0.956251 6.16475L0.750001 6.521L0.745314 6.53506C0.492189 6.98975 0.267189 7.46318 0.0750011 7.95537C0.0468761 8.03037 0.0281261 8.11006 0.0234386 8.18975C1.1365e-06 8.696 0.178126 9.20225 0.548439 9.58662L2.16563 11.2601C2.24063 11.3397 2.29219 11.4663 2.27813 11.6257C2.25938 11.8601 2.25 12.0944 2.25 12.3288C2.25 12.5632 2.25938 12.8022 2.27813 13.0319C2.29219 13.1913 2.24063 13.3226 2.16563 13.3976L0.548439 15.0804C0.178126 15.4601 1.1365e-06 15.971 0.0234386 16.4726C0.0281261 16.5522 0.0468761 16.6319 0.0750011 16.7069C0.267189 17.1991 0.492189 17.6726 0.745314 18.1319L0.750001 18.146L0.956251 18.5022L0.965626 18.5116C1.24219 18.971 1.54688 19.4116 1.88438 19.8288C1.93594 19.8944 1.99688 19.9507 2.06719 19.9929C2.48906 20.2601 3.01406 20.3585 3.525 20.2319L5.78438 19.6694C5.8875 19.6413 6.02813 19.6647 6.15938 19.7538C6.54375 20.021 6.95156 20.2554 7.37813 20.4569C7.52344 20.5272 7.60781 20.6351 7.64063 20.7382L8.27813 22.9741C8.42344 23.4804 8.77031 23.8882 9.21563 24.1226C9.29063 24.1601 9.36563 24.1882 9.45 24.1976C10.0359 24.2866 10.6406 24.3335 11.25 24.3335C11.8594 24.3335 12.4641 24.2866 13.05 24.1976C13.1297 24.1835 13.2094 24.1601 13.2844 24.1226C13.7297 23.8929 14.0766 23.4851 14.2219 22.9741L14.8641 20.7382C14.8922 20.6351 14.9813 20.5272 15.1266 20.4569C15.5531 20.2554 15.9609 20.0163 16.3453 19.7538C16.4766 19.6647 16.6172 19.6413 16.7203 19.6694L18.9797 20.2319C19.4906 20.3585 20.0156 20.2647 20.4375 19.9929C20.5078 19.9507 20.5688 19.8944 20.6203 19.8288C20.9531 19.4116 21.2578 18.9757 21.5344 18.5163L21.5391 18.5022L21.75 18.146L21.7547 18.1319C22.0078 17.6772 22.2328 17.1991 22.425 16.7069C22.4531 16.6319 22.4719 16.5522 22.4766 16.4726C22.5 15.9663 22.3219 15.4601 21.9516 15.0757L20.3344 13.4022C20.2594 13.3226 20.2078 13.196 20.2219 13.0366C20.2406 12.8022 20.25 12.5679 20.25 12.3335C20.25 12.0991 20.2406 11.8601 20.2219 11.6304C20.2078 11.471 20.2594 11.3397 20.3344 11.2647L21.9516 9.59131C22.3219 9.20693 22.5 8.70068 22.4766 8.19443C22.4719 8.11475 22.4531 8.03506 22.425 7.96006C22.2328 7.46787 22.0078 6.99443 21.7547 6.53506L21.75 6.521L21.5438 6.16475L21.5344 6.15068C21.2578 5.69131 20.9531 5.25068 20.6203 4.83818C20.5688 4.77256 20.5078 4.71631 20.4375 4.67412C20.0156 4.40693 19.4906 4.3085 18.9797 4.43506L16.7203 4.99756C16.6172 5.02568 16.4766 5.00225 16.3453 4.91318C15.9609 4.646 15.5531 4.41162 15.1266 4.21006C14.9813 4.13975 14.8969 4.03193 14.8641 3.92881L14.2219 1.69287C14.0766 1.18662 13.7297 0.778809 13.2844 0.544434C13.2094 0.506934 13.1344 0.478809 13.05 0.469434C12.4641 0.380371 11.8594 0.333496 11.25 0.333496ZM8.625 12.3335C8.625 11.6373 8.90156 10.9696 9.39385 10.4773C9.88613 9.98506 10.5538 9.7085 11.25 9.7085C11.9462 9.7085 12.6139 9.98506 13.1062 10.4773C13.5984 10.9696 13.875 11.6373 13.875 12.3335C13.875 13.0297 13.5984 13.6974 13.1062 14.1897C12.6139 14.6819 11.9462 14.9585 11.25 14.9585C10.5538 14.9585 9.88613 14.6819 9.39385 14.1897C8.90156 13.6974 8.625 13.0297 8.625 12.3335ZM15.375 12.3335C15.375 11.2395 14.9404 10.1903 14.1668 9.41668C13.3932 8.64309 12.344 8.2085 11.25 8.2085C10.156 8.2085 9.10677 8.64309 8.33319 9.41668C7.5596 10.1903 7.125 11.2395 7.125 12.3335C7.125 13.4275 7.5596 14.4767 8.33319 15.2503C9.10677 16.0239 10.156 16.4585 11.25 16.4585C12.344 16.4585 13.3932 16.0239 14.1668 15.2503C14.9404 14.4767 15.375 13.4275 15.375 12.3335Z" fill="black"/>
</g>
<defs>
<clipPath id="clip0_1065_86">
<rect width="24" height="24" fill="white" transform="translate(0 0.333496)"/>
</clipPath>
</defs>
</svg>
