<svg width="24" height="24" viewBox="0 0 24 24" fill="none" xmlns="http://www.w3.org/2000/svg">
<path d="M21 2C21 1.44772 21.4477 1 22 1C22.5523 1 23 1.44772 23 2V22C23 22.5523 22.5523 23 22 23C21.4477 23 21 22.5523 21 22V2Z" fill="black"/>
<path d="M17 3C17 2.44772 17.4477 2 18 2C18.5523 2 19 2.44772 19 3V21C19 21.5523 18.5523 22 18 22C17.4477 22 17 21.5523 17 21V3Z" fill="black" fill-opacity="0.9"/>
<path d="M13 4C13 3.44772 13.4477 3 14 3C14.5523 3 15 3.44772 15 4V20C15 20.5523 14.5523 21 14 21C13.4477 21 13 20.5523 13 20V4Z" fill="black" fill-opacity="0.8"/>
<path d="M9 4C9 3.44772 9.44772 3 10 3C10.5523 3 11 3.44772 11 4V20C11 20.5523 10.5523 21 10 21C9.44772 21 9 20.5523 9 20V4Z" fill="black" fill-opacity="0.6"/>
<path d="M5 3C5 2.44772 5.44772 2 6 2C6.55228 2 7 2.44772 7 3V21C7 21.5523 6.55228 22 6 22C5.44772 22 5 21.5523 5 21V3Z" fill="black" fill-opacity="0.5"/>
<path d="M1 2C1 1.44772 1.44772 1 2 1C2.55228 1 3 1.44772 3 2V22C3 22.5523 2.55228 23 2 23C1.44772 23 1 22.5523 1 22V2Z" fill="black" fill-opacity="0.4"/>
</svg>
