<svg width="24" height="24" viewBox="0 0 24 24" fill="none" xmlns="http://www.w3.org/2000/svg">
<path d="M1.5 2.96429C1.5 1.87902 2.34386 1 3.38571 1H5.64857C6.69043 1 7.53429 1.87902 7.53429 2.96429V5.32143C7.53429 6.4067 6.69043 7.28571 5.64857 7.28571H3.38571C2.34386 7.28571 1.5 6.4067 1.5 5.32143V2.96429ZM1.5 10.8214C1.5 9.73616 2.34386 8.85714 3.38571 8.85714H5.64857C6.69043 8.85714 7.53429 9.73616 7.53429 10.8214V13.1786C7.53429 14.2638 6.69043 15.1429 5.64857 15.1429H3.38571C2.34386 15.1429 1.5 14.2638 1.5 13.1786V10.8214ZM7.53429 18.6786V21.0357C7.53429 22.121 6.69043 23 5.64857 23H3.38571C2.34386 23 1.5 22.121 1.5 21.0357V18.6786C1.5 17.5933 2.34386 16.7143 3.38571 16.7143H5.64857C6.69043 16.7143 7.53429 17.5933 7.53429 18.6786ZM9.04286 2.96429C9.04286 1.87902 9.88671 1 10.9286 1H13.1914C14.2333 1 15.0771 1.87902 15.0771 2.96429V5.32143C15.0771 6.4067 14.2333 7.28571 13.1914 7.28571H10.9286C9.88671 7.28571 9.04286 6.4067 9.04286 5.32143V2.96429ZM15.0771 10.8214V13.1786C15.0771 14.2638 14.2333 15.1429 13.1914 15.1429H10.9286C9.88671 15.1429 9.04286 14.2638 9.04286 13.1786V10.8214C9.04286 9.73616 9.88671 8.85714 10.9286 8.85714H13.1914C14.2333 8.85714 15.0771 9.73616 15.0771 10.8214ZM9.04286 18.6786C9.04286 17.5933 9.88671 16.7143 10.9286 16.7143H13.1914C14.2333 16.7143 15.0771 17.5933 15.0771 18.6786V21.0357C15.0771 22.121 14.2333 23 13.1914 23H10.9286C9.88671 23 9.04286 22.121 9.04286 21.0357V18.6786ZM22.62 2.96429V5.32143C22.62 6.4067 21.7761 7.28571 20.7343 7.28571H18.4714C17.4296 7.28571 16.5857 6.4067 16.5857 5.32143V2.96429C16.5857 1.87902 17.4296 1 18.4714 1H20.7343C21.7761 1 22.62 1.87902 22.62 2.96429ZM16.5857 10.8214C16.5857 9.73616 17.4296 8.85714 18.4714 8.85714H20.7343C21.7761 8.85714 22.62 9.73616 22.62 10.8214V13.1786C22.62 14.2638 21.7761 15.1429 20.7343 15.1429H18.4714C17.4296 15.1429 16.5857 14.2638 16.5857 13.1786V10.8214ZM22.62 18.6786V21.0357C22.62 22.121 21.7761 23 20.7343 23H18.4714C17.4296 23 16.5857 22.121 16.5857 21.0357V18.6786C16.5857 17.5933 17.4296 16.7143 18.4714 16.7143H20.7343C21.7761 16.7143 22.62 17.5933 22.62 18.6786Z" fill="black"/>
</svg>
