<svg width="20" height="21" viewBox="0 0 20 21" fill="none" xmlns="http://www.w3.org/2000/svg">
<path d="M19.8125 10.2501C20.0417 10.4514 20.0625 10.7744 19.8299 11.0348C19.6597 11.2639 19.3056 11.2848 19.0764 11.0521L17.7778 9.90631V16.7778C17.7778 18.3126 16.5347 19.5556 15 19.5556H5.00001C3.46598 19.5556 2.22223 18.3126 2.22223 16.7778V9.90631L0.923271 11.0521C0.693063 11.2848 0.341987 11.2639 0.139 11.0348C-0.0640204 10.7744 -0.0420759 10.4514 0.187994 10.2501L9.63195 1.91679C9.84376 1.73151 10.1563 1.73151 10.3681 1.91679L19.8125 10.2501ZM5.00001 18.4445H7.22223V12.8889C7.22223 12.2744 7.71876 11.7778 8.33334 11.7778H11.6667C12.2813 11.7778 12.7778 12.2744 12.7778 12.8889V18.4445H15C15.9201 18.4445 16.6667 17.698 16.6667 16.7778V8.95492L10 3.07436L3.33334 8.95492V16.7778C3.33334 17.698 4.07987 18.4445 5.00001 18.4445ZM8.33334 18.4445H11.6667V12.8889H8.33334V18.4445Z" fill="black"/>
</svg>
