<svg width="24" height="24" viewBox="0 0 24 24" fill="none" xmlns="http://www.w3.org/2000/svg">
<path d="M6.66667 3.82612H21.3333C22.0708 3.82612 22.6667 4.44786 22.6667 5.21742V9.80003L20.275 7.30438C19.7542 6.7609 18.9083 6.7609 18.3875 7.30438L12.6667 13.2783L9.60833 10.087C9.0875 9.54351 8.24167 9.54351 7.72083 10.087L5.33333 12.5826V5.21742C5.33333 4.44786 5.92917 3.82612 6.66667 3.82612ZM24 5.21742C24 3.68264 22.8042 2.43481 21.3333 2.43481H6.66667C5.19583 2.43481 4 3.68264 4 5.21742V14.2609V14.9566C4 16.4913 5.19583 17.7392 6.66667 17.7392H10H21.3333C22.8042 17.7392 24 16.4913 24 14.9566V11.4783V5.21742ZM19.3333 8.28699L22.6667 11.7652V14.9566C22.6667 15.7261 22.0708 16.3479 21.3333 16.3479H11.6083L13.1375 14.7522L19.3333 8.28699ZM11.725 14.2609L9.725 16.3479H6.66667C5.92917 16.3479 5.33333 15.7261 5.33333 14.9566V14.5479L8.66667 11.0696L11.725 14.2609ZM1.33333 5.91308C1.33333 5.53047 1.03333 5.21742 0.666667 5.21742C0.3 5.21742 0 5.53047 0 5.91308V16.3479C0 19.4218 2.3875 21.9131 5.33333 21.9131H19.3333C19.7 21.9131 20 21.6 20 21.2174C20 20.8348 19.7 20.5218 19.3333 20.5218H5.33333C3.125 20.5218 1.33333 18.6522 1.33333 16.3479V5.91308ZM11 8.00003C11.2652 8.00003 11.5196 7.89009 11.7071 7.6944C11.8946 7.49871 12 7.2333 12 6.95655C12 6.67981 11.8946 6.41439 11.7071 6.2187C11.5196 6.02301 11.2652 5.91308 11 5.91308C10.7348 5.91308 10.4804 6.02301 10.2929 6.2187C10.1054 6.41439 10 6.67981 10 6.95655C10 7.2333 10.1054 7.49871 10.2929 7.6944C10.4804 7.89009 10.7348 8.00003 11 8.00003Z" fill="black"/>
</svg>
