<svg width="24" height="24" viewBox="0 0 24 24" fill="none" xmlns="http://www.w3.org/2000/svg">
<path d="M8.95875 15.0039C9.07875 15.3248 8.92875 15.6887 8.62125 15.8178C8.31375 15.943 7.965 15.7865 7.84125 15.4657L7.515 14.5735H4.485L4.15875 15.4657C4.035 15.7865 3.68475 15.943 3.37725 15.8178C3.06938 15.6887 2.91975 15.3248 3.04275 15.0039L5.44125 8.74305C5.535 8.46914 5.75625 8.34783 6 8.34783C6.24375 8.34783 6.465 8.46914 6.55875 8.74305L8.95875 15.0039ZM4.965 13.3565H7.035L6 10.6604L4.965 13.3565ZM18.6 9.6H21C21.33 9.6 21.6 9.88174 21.6 10.2261C21.6 10.5704 21.33 10.8522 21 10.8522H20.82L20.6625 11.3061C20.3063 12.3274 19.7475 13.243 19.0313 14.0061C19.1513 14.0922 19.2413 14.1744 19.3988 14.2526L20.1075 14.6987C20.3925 14.8748 20.4863 15.2622 20.3138 15.5557C20.145 15.853 19.7738 15.9509 19.4925 15.7709L18.7838 15.3287C18.5438 15.18 18.315 15.0157 18.09 14.8083C17.7825 15.0744 17.46 15.2778 17.115 15.4578L16.47 15.7944C16.1738 15.9509 15.81 15.8257 15.6638 15.5165C15.5138 15.2074 15.6338 14.8278 15.93 14.6752L16.5788 14.3387C16.7813 14.233 16.9725 14.1157 17.16 13.9904L16.3763 13.1726C16.14 12.93 16.14 12.5309 16.3763 12.2883C16.6088 12.0417 16.9913 12.0417 17.2238 12.2883L18.0713 13.1726L18.1013 13.2039C18.735 12.5544 19.2263 11.76 19.5338 10.8757L19.545 10.817H15C14.67 10.817 14.4 10.5704 14.4 10.1909C14.4 9.88174 14.67 9.56479 15 9.56479H17.4V8.9387C17.4 8.62957 17.67 8.31261 18 8.31261C18.33 8.31261 18.6 8.62957 18.6 8.9387V9.6ZM24 17.113C24 18.4944 22.9238 19.6174 21.6 19.6174H2.4C1.07438 19.6174 0 18.4944 0 17.113V7.09566C0 5.7124 1.07438 4.59131 2.4 4.59131H21.6C22.9238 4.59131 24 5.7124 24 7.09566V17.113ZM11.4 5.84348H2.4C1.73738 5.84348 1.2 6.40305 1.2 7.09566V17.113C1.2 17.8057 1.73738 18.3652 2.4 18.3652H11.4V5.84348ZM12.6 5.84348V18.3652H21.6C22.2638 18.3652 22.8 17.8057 22.8 17.113V7.09566C22.8 6.40305 22.2638 5.84348 21.6 5.84348H12.6Z" fill="black"/>
</svg>
