<svg width="24" height="24" viewBox="0 0 24 24" fill="none" xmlns="http://www.w3.org/2000/svg">
<path d="M18 5.12344L19.4906 4.23187C19.8422 4.01859 20.3063 4.13391 20.5172 4.48922C20.7328 4.84219 20.6156 5.30625 20.2594 5.51719L18.3844 6.64219C18.15 6.7875 17.85 6.7875 17.6156 6.64219L15.7406 5.51719C15.3844 5.30625 15.2672 4.84219 15.4828 4.48922C15.6937 4.13391 16.1578 4.01859 16.5094 4.23187L18 5.12344ZM18 12C18.4125 12 18.75 12.3375 18.75 12.75C18.75 13.1625 18.4125 13.5 18 13.5H6C5.5875 13.5 5.25 13.1625 5.25 12.75C5.25 12.3375 5.5875 12 6 12H18ZM18 16.5C18.4125 16.5 18.75 16.8375 18.75 17.25C18.75 17.6625 18.4125 18 18 18H6C5.5875 18 5.25 17.6625 5.25 17.25C5.25 16.8375 5.5875 16.5 6 16.5H18ZM0 4.5C0 2.84297 1.34297 1.5 3 1.5H21C22.6547 1.5 24 2.84297 24 4.5V19.5C24 21.1547 22.6547 22.5 21 22.5H3C1.34297 22.5 0 21.1547 0 19.5V4.5ZM1.5 4.5V7.5H22.5V4.5C22.5 3.67172 21.8297 3 21 3H3C2.17172 3 1.5 3.67172 1.5 4.5ZM1.5 19.5C1.5 20.3297 2.17172 21 3 21H21C21.8297 21 22.5 20.3297 22.5 19.5V9H1.5V19.5Z" fill="black"/>
</svg>
