<svg width="24" height="24" viewBox="0 0 24 24" fill="none" xmlns="http://www.w3.org/2000/svg">
<path d="M1.125 2.25C0.501562 2.25 0 2.75156 0 3.375V5.625C0 6.24844 0.501562 6.75 1.125 6.75V12V18C1.125 19.4484 2.30156 20.625 3.75 20.625H6C6 21.2484 6.50156 21.75 7.125 21.75H9.375C9.99844 21.75 10.5 21.2484 10.5 20.625V18.375C10.5 17.7516 9.99844 17.25 9.375 17.25H7.125C6.50156 17.25 6 17.7516 6 18.375H3.75C3.54375 18.375 3.375 18.2063 3.375 18V13.125H6C6 13.7484 6.50156 14.25 7.125 14.25H9.375C9.99844 14.25 10.5 13.7484 10.5 13.125V10.875C10.5 10.2516 9.99844 9.75 9.375 9.75H7.125C6.50156 9.75 6 10.2516 6 10.875H3.375V6.75C3.99844 6.75 4.5 6.24844 4.5 5.625V3.375C4.5 2.75156 3.99844 2.25 3.375 2.25H1.125ZM7.5 4.5C7.5 5.12344 8.00156 5.625 8.625 5.625H22.875C23.4984 5.625 24 5.12344 24 4.5C24 3.87656 23.4984 3.375 22.875 3.375H8.625C8.00156 3.375 7.5 3.87656 7.5 4.5ZM13.5 12C13.5 12.6234 14.0016 13.125 14.625 13.125H22.875C23.4984 13.125 24 12.6234 24 12C24 11.3766 23.4984 10.875 22.875 10.875H14.625C14.0016 10.875 13.5 11.3766 13.5 12ZM13.5 19.5C13.5 20.1234 14.0016 20.625 14.625 20.625H22.875C23.4984 20.625 24 20.1234 24 19.5C24 18.8766 23.4984 18.375 22.875 18.375H14.625C14.0016 18.375 13.5 18.8766 13.5 19.5Z" fill="black"/>
</svg>
