<svg width="24" height="25" viewBox="0 0 24 25" fill="none" xmlns="http://www.w3.org/2000/svg">
<g clip-path="url(#clip0_1067_80)">
<path d="M15.3958 9.45337C15.3958 11.4677 13.7643 13.0992 11.75 13.0992C9.73568 13.0992 8.10417 11.4677 8.10417 9.45337C8.10417 7.43905 9.73568 5.80754 11.75 5.80754C13.7643 5.80754 15.3958 7.43905 15.3958 9.45337ZM11.75 11.6409C12.9577 11.6409 13.9375 10.6611 13.9375 9.45337C13.9375 8.24569 12.9577 7.26587 11.75 7.26587C10.5423 7.26587 9.5625 8.24569 9.5625 9.45337C9.5625 10.6611 10.5423 11.6409 11.75 11.6409ZM20.5 9.45337C20.5 13.4364 15.168 20.5276 12.8301 23.4534C12.2695 24.1506 11.2305 24.1506 10.6699 23.4534C8.29102 20.5276 3 13.4364 3 9.45337C3 4.62082 6.91745 0.703369 11.75 0.703369C16.5807 0.703369 20.5 4.62082 20.5 9.45337ZM11.75 2.1617C7.72135 2.1617 4.45833 5.42472 4.45833 9.45337C4.45833 10.1643 4.70579 11.1396 5.21302 12.3427C5.71022 13.523 6.40885 14.8036 7.19909 16.0842C8.7513 18.6044 10.5924 21.0152 11.75 22.469C12.9076 21.0152 14.7487 18.6044 16.3027 16.0842C17.0911 14.8036 17.7884 13.523 18.2852 12.3427C18.7956 11.1396 19.0417 10.1643 19.0417 9.45337C19.0417 5.42472 15.7786 2.1617 11.75 2.1617Z" fill="black"/>
</g>
<defs>
<clipPath id="clip0_1067_80">
<rect width="24" height="24" fill="white" transform="translate(0 0.333252)"/>
</clipPath>
</defs>
</svg>
