<svg width="24" height="24" viewBox="0 0 24 24" fill="none" xmlns="http://www.w3.org/2000/svg">
<path d="M12.75 15H6.75C6.33562 15 6 15.3375 6 15.75C6 16.1625 6.33562 16.5 6.75 16.5H12.75C13.1643 16.5 13.5 16.1642 13.5 15.75C13.5 15.3358 13.1625 15 12.75 15ZM17.25 10.5H6.75C6.33562 10.5 6 10.8375 6 11.25C6 11.6625 6.33562 12 6.75 12H17.25C17.6625 12 18 11.6625 18 11.25C18 10.8375 17.6625 10.5 17.25 10.5ZM17.25 6H6.75C6.33562 6 6 6.3375 6 6.75C6 7.1625 6.33562 7.5 6.75 7.5H17.25C17.6625 7.5 18 7.1625 18 6.75C18 6.3375 17.6625 6 17.25 6ZM18 0H6C4.34297 0 3 1.34297 3 3V21C3 22.657 4.34297 24 6 24H18C19.657 24 21 22.657 21 21V3C21 1.34297 19.6547 0 18 0ZM19.5 21C19.5 21.8269 18.8269 22.5 18 22.5H6C5.17313 22.5 4.5 21.8269 4.5 21V3C4.5 2.17313 5.17313 1.5 6 1.5H18C18.8269 1.5 19.5 2.17313 19.5 3V21Z" fill="black"/>
</svg>
