<svg width="24" height="25" viewBox="0 0 24 25" fill="none" xmlns="http://www.w3.org/2000/svg">
<g clip-path="url(#clip0_1065_88)">
<path d="M12 13.4583C11.4825 13.4583 11.0625 13.8779 11.0625 14.3958C11.0625 14.9114 11.4422 15.3333 12 15.3333C12.5578 15.3333 12.9375 14.9135 12.9375 14.3958C12.9375 13.8379 12.5156 13.4583 12 13.4583ZM21 0.333252H3C1.34766 0.333252 0 1.68091 0 3.29106V16.7489C0 18.4833 1.34766 19.7911 3 19.7911H7.5V23.6864C7.5 24.1475 8.01703 24.4129 8.39625 24.1387L14.25 19.7911H21C22.6523 19.7911 24 18.4434 24 16.8333V3.29106C24 1.68091 22.6547 0.333252 21 0.333252ZM22.5 16.8333C22.5 17.6583 21.825 18.3333 21 18.3333H14.2453C13.9206 18.3333 13.6045 18.4386 13.3448 18.6335L9 21.8958V19.0833C9 18.669 8.66419 18.3333 8.25 18.3333H3C2.175 18.3333 1.5 17.6583 1.5 16.8333V3.33325C1.5 2.50825 2.175 1.83325 3 1.83325H21C21.825 1.83325 22.5 2.50825 22.5 3.33325V16.8333ZM13.0359 4.83325H10.7672C9.37969 4.83325 8.25 5.96294 8.25 7.34575C8.25 7.76031 8.58544 8.09575 9 8.09575C9.41456 8.09575 9.75 7.76031 9.75 7.34575C9.75 6.78794 10.2047 6.33325 10.7672 6.33325H13.0392C13.7063 6.33325 14.25 6.877 14.25 7.54731C14.25 8.0102 13.9936 8.42622 13.5689 8.6381L11.6531 9.62856C11.4047 9.75981 11.25 10.0176 11.25 10.2942V11.5833C11.25 11.9958 11.5875 12.3333 12 12.3333C12.4125 12.3333 12.75 11.9978 12.75 11.5833V10.7536L14.25 9.97497C15.1758 9.51208 15.75 8.57997 15.75 7.54591C15.75 6.04731 14.5313 4.83325 13.0359 4.83325Z" fill="black"/>
</g>
<defs>
<clipPath id="clip0_1065_88">
<rect width="24" height="24" fill="white" transform="translate(0 0.333252)"/>
</clipPath>
</defs>
</svg>
