<svg width="24" height="24" viewBox="0 0 24 24" fill="none" xmlns="http://www.w3.org/2000/svg">
<path d="M12 18.375C11.3761 18.375 10.875 18.8761 10.875 19.5C10.875 20.1239 11.3761 20.625 12 20.625C12.6239 20.625 13.125 20.1239 13.125 19.5C13.125 18.8761 12.6234 18.375 12 18.375ZM16.5 0H7.5C5.84297 0 4.5 1.34297 4.5 3V21C4.5 22.657 5.84297 24 7.5 24H16.5C18.157 24 19.5 22.657 19.5 21V3C19.5 1.34297 18.1547 0 16.5 0ZM18 21C18 21.8269 17.3269 22.5 16.5 22.5H7.5C6.67313 22.5 6 21.8269 6 21V3C6 2.17313 6.67313 1.5 7.5 1.5H16.5C17.3269 1.5 18 2.17313 18 3V21Z" fill="black"/>
</svg>
