<svg width="24" height="23" viewBox="0 0 24 23" fill="none" xmlns="http://www.w3.org/2000/svg">
<path d="M10.2 9.79995C10.2 7.7787 11.7788 6.19995 13.8 6.19995C15.7875 6.19995 17.4 7.7787 17.4 9.79995C17.4 11.7875 15.7875 13.4 13.8 13.4C11.7788 13.4 10.2 11.7875 10.2 9.79995ZM13.8 7.39995C12.4763 7.39995 11.4 8.4762 11.4 9.79995C11.4 11.1237 12.4763 12.2 13.8 12.2C15.1238 12.2 16.2 11.1237 16.2 9.79995C16.2 8.4762 15.1238 7.39995 13.8 7.39995ZM21.6 3.19995C22.9238 3.19995 24 4.27433 24 5.59995V14C24 15.3237 22.9238 16.4 21.6 16.4H6C4.67625 16.4 3.6 15.3237 3.6 14V5.59995C3.6 4.27433 4.67625 3.19995 6 3.19995H21.6ZM21.6 4.39995H20.4C20.4 5.72558 21.4763 6.79995 22.8 6.79995V5.59995C22.8 4.93733 22.2638 4.39995 21.6 4.39995ZM4.8 7.99995V11.6C6.7875 11.6 8.4 13.1787 8.4 15.2H19.2C19.2 13.1787 20.7788 11.6 22.8 11.6V7.99995C20.7788 7.99995 19.2 6.38745 19.2 4.39995H8.4C8.4 6.38745 6.7875 7.99995 4.8 7.99995ZM4.8 12.8V14C4.8 14.6637 5.33625 15.2 6 15.2H7.2C7.2 13.8762 6.12375 12.8 4.8 12.8ZM21.6 15.2C22.2638 15.2 22.8 14.6637 22.8 14V12.8C21.4763 12.8 20.4 13.8762 20.4 15.2H21.6ZM7.2 4.39995H6C5.33625 4.39995 4.8 4.93733 4.8 5.59995V6.79995C6.12375 6.79995 7.2 5.72558 7.2 4.39995ZM1.2 15.8C1.2 17.4575 2.54325 18.8 4.2 18.8H19.8C20.13 18.8 20.4 19.07 20.4 19.4C20.4 19.73 20.13 20 19.8 20H4.2C1.88025 20 0 18.1212 0 15.8V6.19995C0 5.86995 0.26865 5.59995 0.6 5.59995C0.9315 5.59995 1.2 5.86995 1.2 6.19995V15.8Z" fill="black"/>
</svg>
