<svg width="24" height="24" viewBox="0 0 24 24" fill="none" xmlns="http://www.w3.org/2000/svg">
<path fill-rule="evenodd" clip-rule="evenodd" d="M24 5.41176C24 4.63207 23.3679 4 22.5882 4H1.41176C0.632069 4 0 4.63207 0 5.41176V18.1176C0 18.8973 0.632069 19.5294 1.41176 19.5294H22.5882C23.3679 19.5294 24 18.8973 24 18.1176V5.41176ZM22.5882 6.82353C22.5882 6.04383 21.9562 5.41176 21.1765 5.41176H2.82353C2.04383 5.41176 1.41176 6.04383 1.41176 6.82353V16.7059C1.41176 17.4856 2.04383 18.1176 2.82353 18.1176H21.1765C21.9562 18.1176 22.5882 17.4856 22.5882 16.7059V6.82353Z" fill="black"/>
<path d="M3.30676 15.3096C2.93796 15.3096 2.75356 15.2131 2.75356 15.0201V9.1366C2.75356 9.03665 2.79837 8.96255 2.88798 8.91429C2.9776 8.86259 3.11719 8.83674 3.30676 8.83674H3.69968C3.84789 8.83674 3.97024 8.85397 4.06675 8.88844C4.16326 8.92291 4.24253 8.99012 4.30457 9.09007L6.47599 12.4351L6.72415 12.8073V9.1366C6.72415 9.03665 6.76896 8.96255 6.85857 8.91429C6.94818 8.86259 7.08778 8.83674 7.27734 8.83674H7.54102C7.73058 8.83674 7.86845 8.86259 7.95462 8.91429C8.04423 8.96255 8.08904 9.03665 8.08904 9.1366V15.0201C8.08904 15.2131 7.90637 15.3096 7.54102 15.3096H7.18945C7.0378 15.3096 6.91544 15.2941 6.82238 15.2631C6.72932 15.2286 6.65177 15.1631 6.58973 15.0666L4.31491 11.5872L4.11845 11.2977V15.0201C4.11845 15.2131 3.93578 15.3096 3.57043 15.3096H3.30676Z" fill="black"/>
<path d="M9.72794 15.2941C9.60041 15.2941 9.50735 15.2648 9.44876 15.2062C9.39017 15.1476 9.36087 15.0546 9.36087 14.927V9.22449C9.36087 9.09697 9.39017 9.00563 9.44876 8.95048C9.50735 8.89189 9.60041 8.86259 9.72794 8.86259H13.0936C13.1901 8.86259 13.2591 8.89878 13.3004 8.97116C13.3452 9.04354 13.3676 9.16073 13.3676 9.32272V9.60191C13.3676 9.7639 13.3452 9.88109 13.3004 9.95347C13.2591 10.0258 13.1901 10.062 13.0936 10.062H10.7775V11.3959H12.8455C12.942 11.3959 13.0109 11.4321 13.0523 11.5045C13.0971 11.5769 13.1195 11.694 13.1195 11.856V12.1404C13.1195 12.3024 13.0971 12.4196 13.0523 12.492C13.0109 12.5643 12.942 12.6005 12.8455 12.6005H10.7775V14.0895H13.0988C13.1953 14.0895 13.2642 14.1257 13.3056 14.1981C13.3504 14.2704 13.3728 14.3859 13.3728 14.5445V14.834C13.3728 14.996 13.3504 15.1132 13.3056 15.1855C13.2642 15.2579 13.1953 15.2941 13.0988 15.2941H9.72794Z" fill="black"/>
<path d="M15.689 15.3096C15.5408 15.3096 15.4236 15.2941 15.3374 15.2631C15.2513 15.2286 15.2013 15.1804 15.1875 15.1183L13.7347 9.21932C13.7209 9.18141 13.714 9.13488 13.714 9.07973C13.714 9.00391 13.7606 8.94531 13.8536 8.90395C13.9501 8.85914 14.0949 8.83674 14.2879 8.83674H14.5257C14.8842 8.83674 15.0893 8.93325 15.141 9.12626L15.8286 12.0835C15.8389 12.1352 15.8803 12.33 15.9527 12.6677L16.1129 13.4071C16.1543 13.1554 16.2336 12.8056 16.3508 12.3575L16.4231 12.0835L17.1831 9.0332C17.1969 8.96427 17.2452 8.91429 17.3279 8.88327C17.4141 8.85225 17.533 8.83674 17.6846 8.83674H18.0362C18.1878 8.83674 18.305 8.85225 18.3878 8.88327C18.4739 8.91429 18.5239 8.96427 18.5377 9.0332L19.2667 12.0835C19.3563 12.4627 19.4614 12.9245 19.582 13.4691C19.5958 13.4071 19.6441 13.1899 19.7268 12.8177L19.8922 12.0835L20.6057 9.12626C20.6574 8.93325 20.8625 8.83674 21.2209 8.83674H21.3243C21.5139 8.83674 21.6552 8.85914 21.7483 8.90395C21.8448 8.94531 21.893 9.00391 21.893 9.07973C21.893 9.10386 21.8913 9.12799 21.8879 9.15211C21.8844 9.17279 21.881 9.1952 21.8775 9.21932L20.3782 15.1183C20.361 15.1804 20.3058 15.2286 20.2128 15.2631C20.1197 15.2941 20.006 15.3096 19.8716 15.3096H19.1994C19.065 15.3096 18.9513 15.2941 18.8582 15.2631C18.7652 15.2286 18.7117 15.1804 18.698 15.1183L17.9431 11.9388L17.7984 11.3132L17.6381 11.9388L16.8574 15.1183C16.8402 15.1804 16.785 15.2286 16.692 15.2631C16.5989 15.2941 16.4852 15.3096 16.3508 15.3096H15.689Z" fill="black"/>
</svg>
