<svg width="24" height="24" viewBox="0 0 24 24" fill="none" xmlns="http://www.w3.org/2000/svg">
<path d="M21.75 1.5H6.75C5.50781 1.5 4.5 2.50922 4.5 3.75V19.5C4.5 20.3278 3.82687 21 3 21C2.17313 21 1.5 20.3278 1.5 19.5V5.25C1.5 4.8375 1.16438 4.5 0.75 4.5C0.335625 4.5 0 4.8375 0 5.25V19.5C0 21.1537 1.34531 22.5 3 22.5H20.25C22.3177 22.5 24 20.8181 24 18.75V3.75C24 2.50922 22.9922 1.5 21.75 1.5ZM22.5 18.75C22.5 19.9908 21.4908 21 20.25 21H5.59688C5.85469 20.5594 6 20.0484 6 19.5V3.75C6 3.33703 6.3375 3 6.75 3H21.75C22.1625 3 22.5 3.33703 22.5 3.75V18.75ZM12.75 14.25H8.25C7.8375 14.25 7.5 14.5875 7.5 15C7.5 15.4125 7.83544 15.75 8.25 15.75H12.75C13.1646 15.75 13.5 15.4146 13.5 15C13.5 14.5854 13.1625 14.25 12.75 14.25ZM20.25 14.25H15.75C15.3375 14.25 15 14.5875 15 15C15 15.4125 15.3354 15.75 15.75 15.75H20.25C20.6646 15.75 21 15.4146 21 15C21 14.5854 20.6625 14.25 20.25 14.25ZM12.75 17.25H8.25C7.8375 17.25 7.5 17.5875 7.5 18C7.5 18.4125 7.83544 18.75 8.25 18.75H12.75C13.1646 18.75 13.5 18.4146 13.5 18C13.5 17.5854 13.1625 17.25 12.75 17.25ZM20.25 17.25H15.75C15.3354 17.25 15 17.5854 15 18C15 18.4146 15.3354 18.75 15.75 18.75H20.25C20.6646 18.75 21 18.4146 21 18C21 17.5854 20.6625 17.25 20.25 17.25ZM19.5 4.5H9C8.17031 4.5 7.5 5.17031 7.5 6V10.5C7.5 11.3283 8.17172 12 9 12H19.5C20.3283 12 21 11.3283 21 10.5V6C21 5.17031 20.3297 4.5 19.5 4.5ZM19.5 10.5H9V6H19.5V10.5Z" fill="black"/>
</svg>
