<svg width="24" height="24" viewBox="0 0 24 24" fill="none" xmlns="http://www.w3.org/2000/svg">
<g clip-path="url(#clip0_713_8453)">
<path d="M1.5 3V4.5H0V3C0 1.34297 1.34297 0 3 0H4.5V1.5H3C2.17172 1.5 1.5 2.17172 1.5 3ZM10.5 1.5H6V0H10.5V1.5ZM1.5 10.5H0V6H1.5V10.5ZM1.5 12V13.5C1.5 14.3297 2.17172 15 3 15H4.5V16.5H3C1.34297 16.5 0 15.1547 0 13.5V12H1.5ZM6 16.5V15H10.5V16.5H6ZM9 18V21C9 21.8297 9.67031 22.5 10.5 22.5H21C21.8297 22.5 22.5 21.8297 22.5 21V10.5C22.5 9.67031 21.8297 9 21 9H18V7.5H21C22.6547 7.5 24 8.84531 24 10.5V21C24 22.6547 22.6547 24 21 24H10.5C8.84531 24 7.5 22.6547 7.5 21V18H9ZM16.5 10.5H15V6H16.5V10.5ZM16.5 3V4.5H15V3C15 2.17172 14.3297 1.5 13.5 1.5H12V0H13.5C15.1547 0 16.5 1.34297 16.5 3ZM12 15H13.5C14.3297 15 15 14.3297 15 13.5V12H16.5V13.5C16.5 15.1547 15.1547 16.5 13.5 16.5H12V15Z" fill="black"/>
</g>
<defs>
<clipPath id="clip0_713_8453">
<rect width="24" height="24" fill="white"/>
</clipPath>
</defs>
</svg>
