<svg width="24" height="24" viewBox="0 0 24 24" fill="none" xmlns="http://www.w3.org/2000/svg">
<g clip-path="url(#clip0_459_8457)">
<path d="M12 11.25C9.93141 11.25 8.25001 12.9319 8.25001 15C8.25001 17.0681 9.93188 18.75 12 18.75C14.0681 18.75 15.75 17.0681 15.75 15C15.75 12.9319 14.0672 11.25 12 11.25ZM12 17.25C10.7578 17.25 9.75001 16.2422 9.75001 15C9.75001 13.7578 10.7578 12.75 12 12.75C13.2422 12.75 14.25 13.7578 14.25 15C14.25 16.2422 13.2422 17.25 12 17.25ZM23.4469 5.54531C20.2359 2.96484 16.1625 1.5 12 1.5C7.83751 1.5 3.76173 2.96484 0.550791 5.54531C0.199229 5.83242 -0.00608389 6.26625 9.86388e-06 6.71719V9.75C9.86388e-06 10.1642 0.335729 10.5 0.75001 10.5H3.75001C4.16438 10.5 4.50001 10.1625 4.50001 9.75C4.50001 9.3375 4.16438 9 3.75001 9H1.50001L1.48829 6.70781C4.47095 4.31859 8.1797 3.01172 12 3C15.8203 3.00586 19.5234 4.31812 22.4578 6.71484V9H20.25C19.8375 9 19.5 9.3375 19.5 9.75C19.5 10.1625 19.8375 10.5 20.25 10.5H23.2078C23.622 10.5 23.9578 10.1642 23.9578 9.75V6.71719C24.0047 6.2625 23.7984 5.83125 23.4469 5.54531ZM17.3625 9.00937C16.8689 8.14594 15.9764 7.60781 14.9953 7.52953C14.9953 7.51875 15 7.50938 15 7.5V6C15 5.58572 14.6642 5.25 14.25 5.25C13.8358 5.25 13.5 5.58572 13.5 6V7.5H10.5V6C10.5 5.58572 10.1642 5.25 9.75001 5.25C9.33582 5.25 9.00001 5.58572 9.00001 6V7.5C9.00001 7.51117 9.00596 7.52051 9.00642 7.53158C8.02439 7.61094 7.13235 8.14752 6.63876 9.0119L1.89501 17.3135C1.63593 17.7668 1.49967 18.28 1.49967 18.8022V19.5C1.49967 21.15 2.84967 22.5 4.49967 22.5H19.4575C21.1075 22.5 22.4575 21.15 22.4575 19.5V18.7997C22.4575 18.2775 22.3212 17.7647 22.062 17.3109L17.3625 9.00937ZM20.9578 19.5C20.9578 20.3283 20.2861 21 19.4578 21H4.50001C3.67173 21 3.00001 20.3283 3.00001 19.5V18.7969C3.00001 18.5359 3.06812 18.2794 3.19768 18.0525L7.94143 9.79781C8.20782 9.29063 8.7047 9 9.24376 9H14.7609C15.2981 9 15.7941 9.28786 16.0608 9.75422L20.8045 18.0511C20.9341 18.2777 21.0023 18.5344 21.0023 18.7955V19.5H20.9578Z" fill="black"/>
</g>
<defs>
<clipPath id="clip0_459_8457">
<rect width="24" height="24" fill="white"/>
</clipPath>
</defs>
</svg>
