<svg width="24" height="24" viewBox="0 0 24 24" fill="none" xmlns="http://www.w3.org/2000/svg">
<path d="M8.06737 2.32053H3.35579C2.92389 2.32053 2.57053 2.67389 2.57053 3.10579V7.81737C2.57053 8.24926 2.92389 8.60263 3.35579 8.60263H8.06737C8.49926 8.60263 8.85263 8.24926 8.85263 7.81737V3.10579C8.85263 2.67389 8.49926 2.32053 8.06737 2.32053ZM3.35579 0.75H8.06737C9.36796 0.75 10.4232 1.8052 10.4232 3.10579V7.81737C10.4232 9.11796 9.36796 10.1732 8.06737 10.1732H3.35579C2.0552 10.1732 1 9.11796 1 7.81737V3.10579C1 1.8052 2.0552 0.75 3.35579 0.75ZM8.06737 14.8847H3.35579C2.92389 14.8847 2.57053 15.2381 2.57053 15.67V20.3816C2.57053 20.8135 2.92389 21.1668 3.35579 21.1668H8.06737C8.49926 21.1668 8.85263 20.8135 8.85263 20.3816V15.67C8.85263 15.2381 8.49926 14.8847 8.06737 14.8847ZM3.35579 13.3142H8.06737C9.36796 13.3142 10.4232 14.3694 10.4232 15.67V20.3816C10.4232 21.6822 9.36796 22.7374 8.06737 22.7374H3.35579C2.0552 22.7374 1 21.6822 1 20.3816V15.67C1 14.3694 2.0552 13.3142 3.35579 13.3142ZM15.92 2.32053C15.4881 2.32053 15.1347 2.67389 15.1347 3.10579V7.81737C15.1347 8.24926 15.4881 8.60263 15.92 8.60263H20.6316C21.0635 8.60263 21.4168 8.24926 21.4168 7.81737V3.10579C21.4168 2.67389 21.0635 2.32053 20.6316 2.32053H15.92ZM13.5642 3.10579C13.5642 1.8052 14.6194 0.75 15.92 0.75H20.6316C21.9322 0.75 22.9874 1.8052 22.9874 3.10579V7.81737C22.9874 9.11796 21.9322 10.1732 20.6316 10.1732H15.92C14.6194 10.1732 13.5642 9.11796 13.5642 7.81737V3.10579ZM13.5642 14.0995C13.5642 13.6676 13.9176 13.3142 14.3495 13.3142H17.4905C17.9224 13.3142 18.2758 13.6676 18.2758 14.0995V17.4368H21.4168V14.0995C21.4168 13.6676 21.7702 13.3142 22.2021 13.3142C22.634 13.3142 22.9874 13.6676 22.9874 14.0995V18.2221C22.9874 18.654 22.634 19.0074 22.2021 19.0074H17.4905C17.0586 19.0074 16.7053 18.654 16.7053 18.2221V14.8847H15.1347V22.3447C15.1347 22.7766 14.7814 23.13 14.3495 23.13C13.9176 23.13 13.5642 22.7766 13.5642 22.3447V14.0995ZM5.31895 4.28368H6.10421C6.53611 4.28368 6.88947 4.63705 6.88947 5.06895V5.85421C6.88947 6.28611 6.53611 6.63947 6.10421 6.63947H5.31895C4.88705 6.63947 4.53368 6.28611 4.53368 5.85421V5.06895C4.53368 4.63705 4.88705 4.28368 5.31895 4.28368ZM4.53368 17.6332C4.53368 17.2013 4.88705 16.8479 5.31895 16.8479H6.10421C6.53611 16.8479 6.88947 17.2013 6.88947 17.6332V18.4184C6.88947 18.8503 6.53611 19.2037 6.10421 19.2037H5.31895C4.88705 19.2037 4.53368 18.8503 4.53368 18.4184V17.6332ZM17.8832 4.28368H18.6684C19.1003 4.28368 19.4537 4.63705 19.4537 5.06895V5.85421C19.4537 6.28611 19.1003 6.63947 18.6684 6.63947H17.8832C17.4513 6.63947 17.0979 6.28611 17.0979 5.85421V5.06895C17.0979 4.63705 17.4513 4.28368 17.8832 4.28368ZM16.7053 21.1668C16.7053 20.7349 17.0586 20.3816 17.4905 20.3816H18.2758C18.7077 20.3816 19.0611 20.7349 19.0611 21.1668V21.9521C19.0611 22.384 18.7077 22.7374 18.2758 22.7374H17.4905C17.0586 22.7374 16.7053 22.384 16.7053 21.9521V21.1668ZM21.4168 20.3816H22.2021C22.634 20.3816 22.9874 20.7349 22.9874 21.1668V21.9521C22.9874 22.384 22.634 22.7374 22.2021 22.7374H21.4168C20.9849 22.7374 20.6316 22.384 20.6316 21.9521V21.1668C20.6316 20.7349 20.9849 20.3816 21.4168 20.3816Z" fill="black"/>
</svg>
