<svg width="16" height="17" viewBox="0 0 16 17" fill="none" xmlns="http://www.w3.org/2000/svg">
<path d="M14.975 8.22939C14.9906 8.24502 15 8.26377 15 8.28564C15 8.30752 14.9906 8.32939 14.975 8.34189L10.8531 12.2294C10.8156 12.2669 10.7625 12.2856 10.7094 12.2856C10.5938 12.2856 10.5 12.1919 10.5 12.0763V10.2856C10.5 10.0106 10.275 9.78564 10 9.78564H6.25C6.1125 9.78564 6 9.67314 6 9.53564V7.03564C6 6.89814 6.1125 6.78564 6.25 6.78564H10C10.275 6.78564 10.5 6.56064 10.5 6.28564V4.49502C10.5 4.37939 10.5938 4.28564 10.7094 4.28564C10.7625 4.28564 10.8125 4.30752 10.8531 4.34189L14.975 8.22939ZM16 8.28564C16 7.98877 15.8781 7.70439 15.6625 7.50127L11.5375 3.61377C11.3125 3.40439 11.0156 3.28564 10.7094 3.28564C10.0406 3.28564 9.5 3.82627 9.5 4.49502V5.78564H6.25C5.55937 5.78564 5 6.34502 5 7.03564V9.53564C5 10.2263 5.55937 10.7856 6.25 10.7856H9.5V12.0763C9.5 12.745 10.0406 13.2856 10.7094 13.2856C11.0188 13.2856 11.3156 13.1669 11.5375 12.9575L15.6625 9.07002C15.8781 8.86689 16 8.58252 16 8.28564ZM5.5 2.28564C5.775 2.28564 6 2.06064 6 1.78564C6 1.51064 5.775 1.28564 5.5 1.28564H2.5C1.11875 1.28564 0 2.40439 0 3.78564V12.7856C0 14.1669 1.11875 15.2856 2.5 15.2856H5.5C5.775 15.2856 6 15.0606 6 14.7856C6 14.5106 5.775 14.2856 5.5 14.2856H2.5C1.67188 14.2856 1 13.6138 1 12.7856V3.78564C1 2.95752 1.67188 2.28564 2.5 2.28564H5.5Z" fill="#FF9D9D"/>
</svg>
