<svg width="24" height="24" viewBox="0 0 24 24" fill="none" xmlns="http://www.w3.org/2000/svg">
<g clip-path="url(#clip0_665_8701)">
<path d="M6 0.75C6 0.335812 6.3375 0 6.75 0C7.1625 0 7.5 0.335812 7.5 0.75V2.25C7.5 2.66438 7.1625 3 6.75 3C6.3375 3 6 2.66438 6 2.25V0.75ZM15 0.75C15 0.335812 15.3375 0 15.75 0C16.1625 0 16.5 0.335812 16.5 0.75V2.25C16.5 2.66438 16.1625 3 15.75 3C15.3375 3 15 2.66438 15 2.25V0.75ZM10.5 0.75V2.25C10.5 2.66438 10.1625 3 9.75 3C9.3375 3 9 2.66438 9 2.25V0.75C9 0.335812 9.3375 0 9.75 0C10.1625 0 10.5 0.335812 10.5 0.75ZM18.75 0.75C18.75 0.335812 19.0875 0 19.5 0C19.9125 0 20.25 0.335812 20.25 0.75V12.75C20.25 13.1625 19.9125 13.5 19.5 13.5C19.0875 13.5 18.75 13.1625 18.75 12.75V0.75ZM24 0.75V12.75C24 13.1625 23.6625 13.5 23.25 13.5C22.8375 13.5 22.5 13.1625 22.5 12.75V0.75C22.5 0.335812 22.8375 0 23.25 0C23.6625 0 24 0.335812 24 0.75ZM3 9.375C3 8.33906 3.83953 7.5 4.875 7.5H11.625C12.6609 7.5 13.5 8.33906 13.5 9.375V19.125C13.5 20.1609 12.6609 21 11.625 21H4.875C3.83953 21 3 20.1609 3 19.125V9.375ZM4.5 9.375V19.125C4.5 19.3313 4.66781 19.5 4.875 19.5H11.625C11.8313 19.5 12 19.3313 12 19.125V9.375C12 9.16875 11.8313 9 11.625 9H4.875C4.66781 9 4.5 9.16875 4.5 9.375ZM13.5 4.5C15.1547 4.5 16.5 5.84531 16.5 7.5V21C16.5 22.6547 15.1547 24 13.5 24H3C1.34297 24 0 22.6547 0 21V7.5C0 5.84531 1.34297 4.5 3 4.5H13.5ZM13.5 6H3C2.17172 6 1.5 6.67031 1.5 7.5V21C1.5 21.8297 2.17172 22.5 3 22.5H13.5C14.3297 22.5 15 21.8297 15 21V7.5C15 6.67031 14.3297 6 13.5 6Z" fill="black"/>
</g>
<defs>
<clipPath id="clip0_665_8701">
<rect width="24" height="24" fill="white"/>
</clipPath>
</defs>
</svg>
