<svg width="24" height="24" viewBox="0 0 24 24" fill="none" xmlns="http://www.w3.org/2000/svg">
<g clip-path="url(#clip0_508_8435)">
<path d="M21.8672 3.92382L12.8672 0.173822C12.5918 0.0566348 12.2972 0.000244141 12.0028 0.000244141C11.7084 0.000244141 11.4141 0.0563066 11.1375 0.173494L2.13797 3.92382C1.29984 4.26929 0.75 5.09054 0.75 5.95773C0.75 18.0655 9.62812 23.9999 11.9953 23.9999C14.3062 23.9999 23.25 18.1546 23.25 5.95773C23.25 5.09054 22.7016 4.26929 21.8672 3.92382ZM21.7453 6.01398C21.7453 16.5749 13.9547 22.4999 12.0047 22.4999C9.99844 22.4577 2.25 16.5093 2.25 5.99992C2.25 5.69523 2.43164 5.4257 2.70703 5.30851L11.707 1.55851C11.7995 1.51972 11.8996 1.49917 12.0004 1.49917C12.0975 1.49917 12.1951 1.51825 12.2871 1.55851L21.2871 5.30851C21.7172 5.48898 21.7453 5.89679 21.7453 6.01398ZM15.75 8.49835C15.5581 8.49835 15.3662 8.57157 15.2198 8.7181L10.7484 13.1905L8.77969 11.2218C8.63438 11.0718 8.44219 11.0015 8.25 11.0015C7.82161 11.0015 7.5 11.3518 7.5 11.7515C7.5 11.9434 7.57322 12.1353 7.71975 12.2816L10.2201 14.7815C10.3687 14.9249 10.5609 14.9999 10.7484 14.9999C10.9359 14.9999 11.1323 14.9267 11.2786 14.7802L16.2802 9.7786C16.425 9.63273 16.5 9.44054 16.5 9.24835C16.5 8.84992 16.1766 8.49835 15.75 8.49835Z" fill="black"/>
</g>
<defs>
<clipPath id="clip0_508_8435">
<rect width="24" height="24" fill="white"/>
</clipPath>
</defs>
</svg>
