<svg width="16" height="15" viewBox="0 0 16 15" fill="none" xmlns="http://www.w3.org/2000/svg">
<g clip-path="url(#clip0_325_8690)">
<path d="M3.11111 1.27783C3.35556 1.27783 3.55556 1.47783 3.55556 1.72228C3.55556 1.96672 3.35556 2.16672 3.11111 2.16672H2.44444C1.58611 2.16672 0.888889 2.86394 0.888889 3.72228V4.38894C0.888889 4.63339 0.688889 4.83339 0.444444 4.83339C0.2 4.83339 0 4.63339 0 4.38894V3.72228C0 2.37228 1.09444 1.27783 2.44444 1.27783H3.11111ZM0 8.83339V6.16672C0 5.92228 0.2 5.72228 0.444444 5.72228C0.688889 5.72228 0.888889 5.92228 0.888889 6.16672V8.83339C0.888889 9.07783 0.688889 9.27783 0.444444 9.27783C0.2 9.27783 0 9.07783 0 8.83339ZM0.444444 10.1667C0.688889 10.1667 0.888889 10.3667 0.888889 10.6112V11.2778C0.888889 12.1362 1.58611 12.8334 2.44444 12.8334H3.11111C3.35556 12.8334 3.55556 13.0334 3.55556 13.2778C3.55556 13.5223 3.35556 13.7223 3.11111 13.7223H2.44444C1.09444 13.7223 0 12.6278 0 11.2778V10.6112C0 10.3667 0.2 10.1667 0.444444 10.1667ZM12.0361 5.73894C11.7833 5.76117 11.5556 5.5695 11.5556 5.31394V3.72228C11.5556 2.86394 10.8583 2.16672 10 2.16672H9.33333C9.08889 2.16672 8.88889 1.96672 8.88889 1.72228C8.88889 1.47783 9.08889 1.27783 9.33333 1.27783H10C11.35 1.27783 12.4444 2.37228 12.4444 3.72228V5.31672C12.4444 5.54172 12.2583 5.72228 12.0361 5.73894ZM4.44444 13.2778C4.44444 13.0334 4.64444 12.8334 4.88889 12.8334H7.55556C7.8 12.8334 8 13.0334 8 13.2778C8 13.5223 7.8 13.7223 7.55556 13.7223H4.88889C4.64444 13.7223 4.44444 13.5223 4.44444 13.2778ZM7.55556 2.16672H4.88889C4.64444 2.16672 4.44444 1.96672 4.44444 1.72228C4.44444 1.47783 4.64444 1.27783 4.88889 1.27783H7.55556C7.8 1.27783 8 1.47783 8 1.72228C8 1.96672 7.8 2.16672 7.55556 2.16672ZM15.1111 10.6112C15.1111 9.78605 14.7833 8.99473 14.1999 8.41128C13.6164 7.82783 12.8251 7.50006 12 7.50006C11.1749 7.50006 10.3836 7.82783 9.80011 8.41128C9.21667 8.99473 8.88889 9.78605 8.88889 10.6112C8.88889 11.4363 9.21667 12.2276 9.80011 12.8111C10.3836 13.3945 11.1749 13.7223 12 13.7223C12.8251 13.7223 13.6164 13.3945 14.1999 12.8111C14.7833 12.2276 15.1111 11.4363 15.1111 10.6112ZM8 10.6112C8 9.5503 8.42143 8.53289 9.17157 7.78274C9.92172 7.03259 10.9391 6.61117 12 6.61117C13.0609 6.61117 14.0783 7.03259 14.8284 7.78274C15.5786 8.53289 16 9.5503 16 10.6112C16 11.672 15.5786 12.6894 14.8284 13.4396C14.0783 14.1897 13.0609 14.6112 12 14.6112C10.9391 14.6112 9.92172 14.1897 9.17157 13.4396C8.42143 12.6894 8 11.672 8 10.6112ZM12.4444 8.83339V10.1667H13.7778C14.0222 10.1667 14.2222 10.3667 14.2222 10.6112C14.2222 10.8556 14.0222 11.0556 13.7778 11.0556H12.4444V12.3889C12.4444 12.6334 12.2444 12.8334 12 12.8334C11.7556 12.8334 11.5556 12.6334 11.5556 12.3889V11.0556H10.2222C9.97778 11.0556 9.77778 10.8556 9.77778 10.6112C9.77778 10.3667 9.97778 10.1667 10.2222 10.1667H11.5556V8.83339C11.5556 8.58894 11.7556 8.38894 12 8.38894C12.2444 8.38894 12.4444 8.58894 12.4444 8.83339Z" fill="white"/>
</g>
<defs>
<clipPath id="clip0_325_8690">
<rect width="16" height="14.2222" fill="white" transform="translate(0 0.388916)"/>
</clipPath>
</defs>
</svg>
