<svg width="16" height="16" viewBox="0 0 16 16" fill="none" xmlns="http://www.w3.org/2000/svg">
<g clip-path="url(#clip0_332_8421)">
<path d="M4.57143 5.42857C4.09643 5.42857 3.71429 5.04643 3.71429 4.57143C3.71429 4.09643 4.09643 3.71429 4.57143 3.71429C5.04643 3.71429 5.42857 4.09643 5.42857 4.57143C5.42857 5.04643 5.04643 5.42857 4.57143 5.42857ZM6.85714 4.57143C6.85714 4.25714 7.11429 4 7.42857 4H12C12.3143 4 12.5714 4.25714 12.5714 4.57143C12.5714 4.88571 12.3143 5.14286 12 5.14286H7.42857C7.11429 5.14286 6.85714 4.88571 6.85714 4.57143ZM6.85714 8C6.85714 7.68571 7.11429 7.42857 7.42857 7.42857H12C12.3143 7.42857 12.5714 7.68571 12.5714 8C12.5714 8.31429 12.3143 8.57143 12 8.57143H7.42857C7.11429 8.57143 6.85714 8.31429 6.85714 8ZM6.85714 11.4286C6.85714 11.1143 7.11429 10.8571 7.42857 10.8571H12C12.3143 10.8571 12.5714 11.1143 12.5714 11.4286C12.5714 11.7429 12.3143 12 12 12H7.42857C7.11429 12 6.85714 11.7429 6.85714 11.4286ZM4.57143 7.14286C5.04643 7.14286 5.42857 7.525 5.42857 8C5.42857 8.475 5.04643 8.85714 4.57143 8.85714C4.09643 8.85714 3.71429 8.475 3.71429 8C3.71429 7.525 4.09643 7.14286 4.57143 7.14286ZM4.57143 12.2857C4.09643 12.2857 3.71429 11.9036 3.71429 11.4286C3.71429 10.9536 4.09643 10.5714 4.57143 10.5714C5.04643 10.5714 5.42857 10.9536 5.42857 11.4286C5.42857 11.9036 5.04643 12.2857 4.57143 12.2857ZM0 2.28571C0 1.02321 1.02321 0 2.28571 0H13.7143C14.975 0 16 1.02321 16 2.28571V13.7143C16 14.975 14.975 16 13.7143 16H2.28571C1.02321 16 0 14.975 0 13.7143V2.28571ZM1.14286 2.28571V13.7143C1.14286 14.3464 1.65464 14.8571 2.28571 14.8571H13.7143C14.3464 14.8571 14.8571 14.3464 14.8571 13.7143V2.28571C14.8571 1.65464 14.3464 1.14286 13.7143 1.14286H2.28571C1.65464 1.14286 1.14286 1.65464 1.14286 2.28571Z" fill="white"/>
</g>
<defs>
<clipPath id="clip0_332_8421">
<rect width="16" height="16" fill="white"/>
</clipPath>
</defs>
</svg>
