<svg width="16" height="19" viewBox="0 0 16 19" fill="none" xmlns="http://www.w3.org/2000/svg">
<path d="M9.05714 4.57139H6.94286C5.63571 4.57139 4.57143 5.63568 4.57143 6.94282V7.28568C4.57143 7.60154 4.827 7.85711 5.14286 7.85711C5.45871 7.85711 5.71429 7.59997 5.71429 7.28568V6.94282C5.71429 6.26425 6.26429 5.71425 6.94286 5.71425H9.05893C9.73571 5.71425 10.2857 6.26425 10.2857 6.94282C10.2857 7.38854 10.0435 7.79997 9.67643 8.00425L7.51786 9.08211C7.11071 9.31068 6.85714 9.73925 6.85714 10.2071V10.8571C6.85714 11.1714 7.11429 11.4285 7.42857 11.4285C7.74286 11.4285 8 11.1714 8 10.8571V10.2071C8 10.1552 8.0279 10.1072 8.05136 10.0938L10.2089 9.01454C10.9607 8.59639 11.4286 7.80354 11.4286 6.94282C11.4286 5.63568 10.3643 4.57139 9.05714 4.57139ZM7.42857 12.2857C6.95536 12.2857 6.57143 12.6696 6.57143 13.1428C6.57143 13.616 6.95536 14 7.42857 14C7.90179 14 8.28572 13.616 8.28572 13.1428C8.28572 12.6696 7.90357 12.2857 7.42857 12.2857ZM13.7143 1.14282H2.28571C1.02321 1.14282 0 2.16604 0 3.42854V14.8571C0 16.1196 1.02321 17.1428 2.28571 17.1428H13.7143C14.9768 17.1428 16 16.1196 16 14.8571V3.42854C16 2.16604 14.975 1.14282 13.7143 1.14282ZM14.8571 14.8571C14.8571 15.4871 14.3443 16 13.7143 16H2.28571C1.65571 16 1.14286 15.4871 1.14286 14.8571V3.42854C1.14286 2.79854 1.65571 2.28568 2.28571 2.28568H13.7143C14.3443 2.28568 14.8571 2.79854 14.8571 3.42854V14.8571Z" fill="white"/>
</svg>
