<svg width="24" height="24" viewBox="0 0 24 24" fill="none" xmlns="http://www.w3.org/2000/svg">
<path d="M17.9708 10.1919C17.7708 10.0519 17.5917 9.89592 17.4292 9.71992C17.2667 9.89192 17.0875 10.0479 16.8917 10.1879C16.2875 10.6199 15.5333 10.8799 14.7125 10.8799C13.8958 10.8799 13.15 10.6239 12.5458 10.1639C12.3458 10.0559 12.1625 9.89592 11.9958 9.71992C11.8292 9.89592 11.6458 10.0559 11.4458 10.1639C10.8417 10.6239 10.0958 10.8799 9.27918 10.8799C8.46668 10.8799 7.71668 10.6239 7.11251 10.1639C6.91251 10.0559 6.72918 9.89592 6.56668 9.71992C6.40001 9.89592 6.21251 10.0559 6.01251 10.1639C5.41251 10.6239 4.62918 10.8799 3.84835 10.8799C3.67918 10.8799 3.50876 10.8679 3.34335 10.8479C1.03835 10.5519 -0.0522774 7.94392 1.18043 6.07192L3.56918 2.44512C3.78168 2.11908 4.16126 1.91992 4.56668 1.91992H19.4333C19.8375 1.91992 20.2167 2.11904 20.4292 2.44512L22.8167 6.07192C24.0542 7.94792 22.9583 10.5519 20.6458 10.8479C20.4833 10.8679 20.3167 10.8799 20.1417 10.8799C19.325 10.8799 18.575 10.6199 17.9708 10.1919ZM19.35 3.19992H4.65001L2.30751 6.75592C1.5296 7.93992 2.29585 9.41992 3.51835 9.57992C3.6296 9.59192 3.74168 9.59992 3.84835 9.59992C4.50418 9.59992 5.15001 9.31192 5.57501 8.86392C5.82918 8.59592 6.18751 8.43992 6.56668 8.43992C6.94168 8.43992 7.30001 8.59592 7.55418 8.86392C7.97918 9.31192 8.59168 9.59992 9.27918 9.59992C9.97085 9.59992 10.5458 9.31192 11.0083 8.86392C11.2583 8.59592 11.6208 8.43992 11.9958 8.43992C12.3375 8.43992 12.7333 8.59592 12.9833 8.86392C13.4083 9.31192 14.0208 9.56392 14.7125 9.56392C15.4042 9.56392 16.0125 9.31192 16.4375 8.86392C16.6917 8.59592 17.05 8.43992 17.425 8.43992C17.8 8.43992 18.1625 8.59192 18.4125 8.85992C18.8417 9.31192 19.4208 9.56392 20.1417 9.56392C20.2542 9.56392 20.3625 9.59192 20.475 9.57992C21.7042 9.41992 22.4708 7.93992 21.6917 6.75592L19.35 3.19992ZM4.00001 12.7999V15.9999H20V12.7999C20 12.4479 20.3 12.1599 20.6667 12.1599C21.0333 12.1599 21.3333 12.4479 21.3333 12.7999V19.8399C21.3333 21.2519 20.1375 22.3999 18.6667 22.3999H5.33335C3.86043 22.3999 2.66668 21.2519 2.66668 19.8399V12.7999C2.66668 12.4479 2.96501 12.1599 3.33335 12.1599C3.70168 12.1599 4.00001 12.4479 4.00001 12.7999ZM4.00001 19.8399C4.00001 20.5479 4.59585 21.1199 5.33335 21.1199H18.6667C19.4042 21.1199 20 20.5479 20 19.8399V17.2799H4.00001V19.8399Z" fill="black"/>
</svg>
