<svg width="24" height="24" viewBox="0 0 24 24" fill="none" xmlns="http://www.w3.org/2000/svg">
<path d="M11.2578 1.5C12.0547 1.5 12.8187 1.81406 13.3812 2.37656L21.6312 10.6266C22.8031 11.7984 22.8031 13.6969 21.6312 14.8688L15.3734 21.1266C14.2016 22.2984 12.3031 22.2984 11.1312 21.1266L2.88125 12.8766C2.31406 12.3141 2 11.5547 2 10.7578V3.75C2 2.50781 3.00781 1.5 4.25 1.5H11.2578ZM4.25 10.7578C4.25 10.9547 4.32969 11.1469 4.47031 11.2875L12.7203 19.5375C13.0109 19.8281 13.4891 19.8281 13.7797 19.5375L20.0375 13.2797C20.3281 12.9891 20.3281 12.5109 20.0375 12.2203L11.7875 3.97031C11.6469 3.82969 11.4547 3.75 11.2578 3.75H4.25V10.7578ZM7.25 5.25C7.64782 5.25 8.02935 5.40804 8.31066 5.68934C8.59196 5.97064 8.75 6.35218 8.75 6.75C8.75 7.14783 8.59196 7.52936 8.31066 7.81066C8.02935 8.09196 7.64782 8.25 7.25 8.25C6.85217 8.25 6.47064 8.09196 6.18934 7.81066C5.90803 7.52936 5.75 7.14783 5.75 6.75C5.75 6.35218 5.90803 5.97064 6.18934 5.68934C6.47064 5.40804 6.85217 5.25 7.25 5.25Z" fill="black"/>
</svg>
