<svg width="24" height="24" viewBox="0 0 24 24" fill="none" xmlns="http://www.w3.org/2000/svg">
<path d="M11.25 16.5H4.5C4.03828 16.5 3.60188 16.2891 3.31772 15.9234C3.03344 15.5578 2.93278 15.0844 3.04479 14.6344L3.3376 13.4672C3.82078 11.5312 4.99594 9.91406 6.55922 8.85469L7.125 1.5H6C5.86453 1.5 5.73797 1.46437 5.62828 1.40156C5.40235 1.27219 5.25 1.02891 5.25 0.75C5.25 0.335812 5.58563 0 6 0H18C18.4125 0 18.75 0.335812 18.75 0.75C18.75 1.02891 18.6 1.27219 18.3703 1.40156C18.2625 1.46437 18.1359 1.5 18 1.5H16.875L17.4422 8.85469C19.0031 9.91406 20.1797 11.5312 20.6625 13.4672L20.9531 14.6344C21.0656 15.0844 20.9672 15.5578 20.6813 15.9234C20.4 16.2891 19.9641 16.5 19.5 16.5H12.75V23.25C12.75 23.6625 12.4125 24 11.9578 24C11.5875 24 11.2078 23.6625 11.2078 23.25L11.25 16.5ZM8.00156 9.69375L7.40109 10.0969C6.13453 10.9547 5.18391 12.2625 4.79297 13.8281L4.5 15H11.25V14.5C11.25 14.0875 11.5875 13.75 12 13.75C12.4125 13.75 12.75 14.0875 12.75 14.5V15H19.5L19.2094 13.8281C18.8156 12.2625 17.8641 10.9547 16.5984 10.0969L16.0031 9.69375L15.3703 1.5H8.62969L8.00156 9.69375Z" fill="black"/>
</svg>
