<svg width="20" height="20" viewBox="0 0 20 20" fill="none" xmlns="http://www.w3.org/2000/svg">
<path d="M8.08929 2.70004L7.41071 3.71432H12.5893L11.9107 2.70004C11.8571 2.62146 11.7679 2.57146 11.6714 2.57146H8.325C8.22857 2.57146 8.13929 2.61789 8.08571 2.70004H8.08929ZM13.3393 1.75004L14.65 3.71432H15.1429H16.8571H17.1429C17.6179 3.71432 18 4.09646 18 4.57146C18 5.04646 17.6179 5.42861 17.1429 5.42861H16.8571V16.2858C16.8571 17.8643 15.5786 19.1429 14 19.1429H6C4.42143 19.1429 3.14286 17.8643 3.14286 16.2858V5.42861H2.85714C2.38214 5.42861 2 5.04646 2 4.57146C2 4.09646 2.38214 3.71432 2.85714 3.71432H3.14286H4.85714H5.35L6.66071 1.74646C7.03214 1.19289 7.65714 0.857178 8.325 0.857178H11.6714C12.3393 0.857178 12.9643 1.19289 13.3357 1.74646L13.3393 1.75004ZM4.85714 5.42861V16.2858C4.85714 16.9179 5.36786 17.4286 6 17.4286H14C14.6321 17.4286 15.1429 16.9179 15.1429 16.2858V5.42861H4.85714ZM7.71429 7.71432V15.1429C7.71429 15.4572 7.45714 15.7143 7.14286 15.7143C6.82857 15.7143 6.57143 15.4572 6.57143 15.1429V7.71432C6.57143 7.40004 6.82857 7.14289 7.14286 7.14289C7.45714 7.14289 7.71429 7.40004 7.71429 7.71432ZM10.5714 7.71432V15.1429C10.5714 15.4572 10.3143 15.7143 10 15.7143C9.68571 15.7143 9.42857 15.4572 9.42857 15.1429V7.71432C9.42857 7.40004 9.68571 7.14289 10 7.14289C10.3143 7.14289 10.5714 7.40004 10.5714 7.71432ZM13.4286 7.71432V15.1429C13.4286 15.4572 13.1714 15.7143 12.8571 15.7143C12.5429 15.7143 12.2857 15.4572 12.2857 15.1429V7.71432C12.2857 7.40004 12.5429 7.14289 12.8571 7.14289C13.1714 7.14289 13.4286 7.40004 13.4286 7.71432Z" fill="#F85454"/>
</svg>
