<svg width="24" height="25" viewBox="0 0 24 25" fill="none" xmlns="http://www.w3.org/2000/svg">
<path d="M10.3013 14.067H6.49875C2.90888 14.067 0 16.977 0 20.5657C0 21.2857 0.582 21.867 1.29975 21.867H15.4988C16.2188 21.867 16.8 21.2857 16.8 20.5657C16.8 16.977 13.89 14.067 10.3013 14.067ZM15.4988 20.667H1.29975C1.245 20.667 1.2 20.622 1.2 20.5657C1.2 17.6445 3.5775 15.267 6.49875 15.267H10.3013C13.2225 15.267 15.6 17.6445 15.6 20.5657C15.6 20.622 15.555 20.667 15.4988 20.667ZM8.4 12.267C11.0513 12.267 13.2 10.1179 13.2 7.46699C13.2 4.81612 11.0513 2.66699 8.4 2.66699C5.74875 2.66699 3.6 4.81612 3.6 7.46699C3.6 10.1179 5.74875 12.267 8.4 12.267ZM8.4 3.86699C10.3853 3.86699 12 5.48174 12 7.46699C12 9.45187 10.3853 11.067 8.4 11.067C6.41475 11.067 4.8 9.45074 4.8 7.46699C4.8 5.48174 6.41625 3.86699 8.4 3.86699ZM14.0663 11.7045C14.7338 12.072 15.4613 12.267 16.2 12.267C18.5175 12.267 20.4 10.3845 20.4 8.06699C20.4 5.74949 18.5175 3.86699 16.2 3.86699C15.7189 3.86699 15.2479 3.94784 14.7998 4.10665C14.4875 4.21739 14.3239 4.56003 14.4347 4.8724C14.5455 5.1853 14.8892 5.34715 15.2005 5.23743C15.5213 5.12437 15.855 5.06699 16.2 5.06699C17.8538 5.06699 19.2 6.41287 19.2 8.06699C19.2 9.72112 17.8538 11.067 16.2 11.067C15.672 11.067 15.1534 10.9281 14.7008 10.6661C14.4137 10.4991 14.0468 10.5976 13.881 10.8847C13.7138 11.172 13.8113 11.5395 14.0663 11.7045ZM18.4013 14.667H16.8C16.4684 14.667 16.2 14.9353 16.2 15.267C16.2 15.5986 16.47 15.867 16.8 15.867H18.4001C20.8275 15.867 22.8 17.8395 22.8 20.2657C22.8 20.487 22.62 20.667 22.3988 20.667H18.6C18.2684 20.667 18 20.9353 18 21.267C18 21.5986 18.2684 21.867 18.6 21.867H22.3988C23.2838 21.867 24 21.1507 24 20.2657C24 17.1457 21.4875 14.667 18.4013 14.667Z" fill="black"/>
</svg>
