<svg width="16" height="13" viewBox="0 0 16 13" fill="none" xmlns="http://www.w3.org/2000/svg">
<g clip-path="url(#clip0_325_8685)">
<path d="M15.6475 5.9551L14.9443 5.2516C14.7099 5.01727 14.4028 4.9001 14.0958 4.9001C13.7888 4.9001 13.4815 5.0173 13.2473 5.2516L8.85975 9.6391C8.63635 9.8625 8.484 10.1471 8.42225 10.4568L8.00575 12.5406C7.9675 12.7301 8.115 12.9001 8.2775 12.9001C8.29713 12.9001 8.31715 12.8981 8.33745 12.8941L10.4212 12.4773C10.731 12.4154 11.0155 12.2632 11.2387 12.0398L15.6262 7.65234C16.1175 7.1826 16.1175 6.4226 15.6475 5.9551ZM10.695 11.4526C10.583 11.5646 10.4418 11.6402 10.2863 11.6713L8.9375 11.9626L9.207 10.6143C9.2381 10.4589 9.31375 10.3173 9.42585 10.2053L12.2834 7.34785L13.5524 8.61685L10.695 11.4526ZM15.0825 7.0876L14.117 8.0531L12.848 6.7841L13.8135 5.8186C13.9154 5.7167 14.0345 5.70145 14.0963 5.70145C14.1581 5.70145 14.2772 5.71668 14.379 5.8186L15.0823 6.5221C15.185 6.6226 15.2 6.7426 15.2 6.8026C15.2 6.8651 15.185 6.9851 15.0825 7.0876ZM5.5775 6.5001C7.345 6.5001 8.7775 5.06735 8.7775 3.3001C8.7775 1.53285 7.345 0.100098 5.5775 0.100098C3.8325 0.100098 2.4 1.53285 2.4 3.3001C2.4 5.06735 3.8325 6.5001 5.5775 6.5001ZM5.5775 0.900098C6.901 0.900098 7.9775 1.9766 7.9775 3.3001C7.9775 4.62335 6.901 5.7001 5.5775 5.7001C4.254 5.7001 3.1775 4.62335 3.1775 3.3001C3.1775 1.9766 4.2775 0.900098 5.5775 0.900098ZM6.8125 12.1001H0.866503C0.830253 12.1001 0.800003 12.0701 0.800003 12.0326C0.799753 10.0851 2.385 8.5001 4.3325 8.5001H6.865C7.34425 8.5001 7.79575 8.60507 8.211 8.78185C8.37288 8.8508 8.5385 8.80616 8.68525 8.6818C8.8765 8.4905 8.8202 8.1608 8.57193 8.05355C8.0275 7.8276 7.4725 7.7001 6.8675 7.7001H4.3325C1.9385 7.7001 -0.0028768 9.6401 3.20018e-06 12.0351C0.0005882 12.5101 0.390753 12.9001 0.866503 12.9001H6.814C7.02763 12.9001 7.20075 12.7269 7.20075 12.5133V12.4869C7.1775 12.2726 7.0275 12.1001 6.8125 12.1001Z" fill="white"/>
</g>
<defs>
<clipPath id="clip0_325_8685">
<rect width="16" height="12.8" fill="white" transform="translate(0 0.100098)"/>
</clipPath>
</defs>
</svg>
