<svg width="24" height="24" viewBox="0 0 24 24" fill="none" xmlns="http://www.w3.org/2000/svg">
<path d="M3.33333 18.3333H20.6667C21.0348 18.3333 21.3333 18.0348 21.3333 17.6666C21.3333 17.2984 21.0333 16.9999 20.6667 16.9999H20V4.33325C20 3.22867 19.1042 2.33325 18 2.33325H6C4.89583 2.33325 4 3.22867 4 4.33325V16.9999H3.33333C2.965 16.9999 2.66667 17.2999 2.66667 17.6666C2.66667 18.0333 2.965 18.3333 3.33333 18.3333ZM5.33333 4.33325C5.33333 3.96492 5.63333 3.66659 6 3.66659H18C18.3667 3.66659 18.6667 3.96492 18.6667 4.33325V16.9999H5.33333V4.33325ZM22 14.3333C21.6315 14.3333 21.3333 14.6314 21.3333 14.9999C21.3333 15.3684 21.6315 15.6666 22 15.6666C22.3672 15.6666 22.6667 15.9654 22.6667 16.3333V18.9999C22.6667 19.3678 22.3672 19.6666 22 19.6666H2C1.63292 19.6666 1.33333 19.3666 1.33333 18.9999V16.3333C1.33333 15.9666 1.63292 15.6666 2 15.6666C2.36833 15.6666 2.66667 15.3666 2.66667 14.9999C2.66667 14.6333 2.36833 14.3333 2 14.3333C0.897083 14.3333 0 15.2291 0 16.3333V18.9999C0 20.1041 0.897083 20.9999 2 20.9999H22C23.1029 20.9999 24 20.1028 24 18.9999V16.3333C24 15.2291 23.1042 14.3333 22 14.3333ZM15.1375 6.52909C14.8771 6.26867 14.455 6.26867 14.195 6.52909L12 8.72492L9.80417 6.52909C9.54375 6.26867 9.12167 6.26867 8.86167 6.52909C8.60167 6.7895 8.60125 7.21159 8.86167 7.47159L11.0583 9.66659L8.8625 11.8624C8.60208 12.1228 8.60208 12.5449 8.8625 12.8049C9.12275 13.0652 9.54458 13.0655 9.805 12.8049L12 10.6083L14.1954 12.8037C14.4557 13.0639 14.8775 13.0643 15.1379 12.8037C15.3983 12.5433 15.3983 12.1212 15.1379 11.8612L12.9417 9.66659L15.1371 7.47117C15.4 7.21242 15.4 6.78742 15.1375 6.52909Z" fill="black"/>
</svg>
